%TF.GenerationSoftware,KiCad,Pcbnew,9.0.2*%
%TF.CreationDate,2025-07-04T17:20:10+02:00*%
%TF.ProjectId,DC_driver,44435f64-7269-4766-9572-2e6b69636164,rev?*%
%TF.SameCoordinates,Original*%
%TF.FileFunction,Legend,Top*%
%TF.FilePolarity,Positive*%
%FSLAX46Y46*%
G04 Gerber Fmt 4.6, Leading zero omitted, Abs format (unit mm)*
G04 Created by KiCad (PCBNEW 9.0.2) date 2025-07-04 17:20:10*
%MOMM*%
%LPD*%
G01*
G04 APERTURE LIST*
%ADD10C,0.254000*%
%ADD11C,0.150000*%
%ADD12C,0.200000*%
%ADD13C,0.100000*%
%ADD14C,0.120000*%
G04 APERTURE END LIST*
D10*
X83176667Y-59204318D02*
X83176667Y-60111461D01*
X83176667Y-60111461D02*
X83116190Y-60292889D01*
X83116190Y-60292889D02*
X82995238Y-60413842D01*
X82995238Y-60413842D02*
X82813809Y-60474318D01*
X82813809Y-60474318D02*
X82692857Y-60474318D01*
X84386190Y-59204318D02*
X83781428Y-59204318D01*
X83781428Y-59204318D02*
X83720952Y-59809080D01*
X83720952Y-59809080D02*
X83781428Y-59748603D01*
X83781428Y-59748603D02*
X83902381Y-59688127D01*
X83902381Y-59688127D02*
X84204762Y-59688127D01*
X84204762Y-59688127D02*
X84325714Y-59748603D01*
X84325714Y-59748603D02*
X84386190Y-59809080D01*
X84386190Y-59809080D02*
X84446667Y-59930032D01*
X84446667Y-59930032D02*
X84446667Y-60232413D01*
X84446667Y-60232413D02*
X84386190Y-60353365D01*
X84386190Y-60353365D02*
X84325714Y-60413842D01*
X84325714Y-60413842D02*
X84204762Y-60474318D01*
X84204762Y-60474318D02*
X83902381Y-60474318D01*
X83902381Y-60474318D02*
X83781428Y-60413842D01*
X83781428Y-60413842D02*
X83720952Y-60353365D01*
X115704318Y-103123332D02*
X116611461Y-103123332D01*
X116611461Y-103123332D02*
X116792889Y-103183809D01*
X116792889Y-103183809D02*
X116913842Y-103304761D01*
X116913842Y-103304761D02*
X116974318Y-103486190D01*
X116974318Y-103486190D02*
X116974318Y-103607142D01*
X115704318Y-101974285D02*
X115704318Y-102216190D01*
X115704318Y-102216190D02*
X115764794Y-102337142D01*
X115764794Y-102337142D02*
X115825270Y-102397618D01*
X115825270Y-102397618D02*
X116006699Y-102518571D01*
X116006699Y-102518571D02*
X116248603Y-102579047D01*
X116248603Y-102579047D02*
X116732413Y-102579047D01*
X116732413Y-102579047D02*
X116853365Y-102518571D01*
X116853365Y-102518571D02*
X116913842Y-102458094D01*
X116913842Y-102458094D02*
X116974318Y-102337142D01*
X116974318Y-102337142D02*
X116974318Y-102095237D01*
X116974318Y-102095237D02*
X116913842Y-101974285D01*
X116913842Y-101974285D02*
X116853365Y-101913809D01*
X116853365Y-101913809D02*
X116732413Y-101853332D01*
X116732413Y-101853332D02*
X116430032Y-101853332D01*
X116430032Y-101853332D02*
X116309080Y-101913809D01*
X116309080Y-101913809D02*
X116248603Y-101974285D01*
X116248603Y-101974285D02*
X116188127Y-102095237D01*
X116188127Y-102095237D02*
X116188127Y-102337142D01*
X116188127Y-102337142D02*
X116248603Y-102458094D01*
X116248603Y-102458094D02*
X116309080Y-102518571D01*
X116309080Y-102518571D02*
X116430032Y-102579047D01*
D11*
X103759580Y-112266666D02*
X103807200Y-112314285D01*
X103807200Y-112314285D02*
X103854819Y-112457142D01*
X103854819Y-112457142D02*
X103854819Y-112552380D01*
X103854819Y-112552380D02*
X103807200Y-112695237D01*
X103807200Y-112695237D02*
X103711961Y-112790475D01*
X103711961Y-112790475D02*
X103616723Y-112838094D01*
X103616723Y-112838094D02*
X103426247Y-112885713D01*
X103426247Y-112885713D02*
X103283390Y-112885713D01*
X103283390Y-112885713D02*
X103092914Y-112838094D01*
X103092914Y-112838094D02*
X102997676Y-112790475D01*
X102997676Y-112790475D02*
X102902438Y-112695237D01*
X102902438Y-112695237D02*
X102854819Y-112552380D01*
X102854819Y-112552380D02*
X102854819Y-112457142D01*
X102854819Y-112457142D02*
X102902438Y-112314285D01*
X102902438Y-112314285D02*
X102950057Y-112266666D01*
X102854819Y-111933332D02*
X102854819Y-111266666D01*
X102854819Y-111266666D02*
X103854819Y-111695237D01*
X76666666Y-108374819D02*
X76666666Y-109089104D01*
X76666666Y-109089104D02*
X76619047Y-109231961D01*
X76619047Y-109231961D02*
X76523809Y-109327200D01*
X76523809Y-109327200D02*
X76380952Y-109374819D01*
X76380952Y-109374819D02*
X76285714Y-109374819D01*
X77666666Y-109374819D02*
X77095238Y-109374819D01*
X77380952Y-109374819D02*
X77380952Y-108374819D01*
X77380952Y-108374819D02*
X77285714Y-108517676D01*
X77285714Y-108517676D02*
X77190476Y-108612914D01*
X77190476Y-108612914D02*
X77095238Y-108660533D01*
X102550057Y-68095238D02*
X102502438Y-68190476D01*
X102502438Y-68190476D02*
X102407200Y-68285714D01*
X102407200Y-68285714D02*
X102264342Y-68428571D01*
X102264342Y-68428571D02*
X102216723Y-68523809D01*
X102216723Y-68523809D02*
X102216723Y-68619047D01*
X102454819Y-68571428D02*
X102407200Y-68666666D01*
X102407200Y-68666666D02*
X102311961Y-68761904D01*
X102311961Y-68761904D02*
X102121485Y-68809523D01*
X102121485Y-68809523D02*
X101788152Y-68809523D01*
X101788152Y-68809523D02*
X101597676Y-68761904D01*
X101597676Y-68761904D02*
X101502438Y-68666666D01*
X101502438Y-68666666D02*
X101454819Y-68571428D01*
X101454819Y-68571428D02*
X101454819Y-68380952D01*
X101454819Y-68380952D02*
X101502438Y-68285714D01*
X101502438Y-68285714D02*
X101597676Y-68190476D01*
X101597676Y-68190476D02*
X101788152Y-68142857D01*
X101788152Y-68142857D02*
X102121485Y-68142857D01*
X102121485Y-68142857D02*
X102311961Y-68190476D01*
X102311961Y-68190476D02*
X102407200Y-68285714D01*
X102407200Y-68285714D02*
X102454819Y-68380952D01*
X102454819Y-68380952D02*
X102454819Y-68571428D01*
X101550057Y-67761904D02*
X101502438Y-67714285D01*
X101502438Y-67714285D02*
X101454819Y-67619047D01*
X101454819Y-67619047D02*
X101454819Y-67380952D01*
X101454819Y-67380952D02*
X101502438Y-67285714D01*
X101502438Y-67285714D02*
X101550057Y-67238095D01*
X101550057Y-67238095D02*
X101645295Y-67190476D01*
X101645295Y-67190476D02*
X101740533Y-67190476D01*
X101740533Y-67190476D02*
X101883390Y-67238095D01*
X101883390Y-67238095D02*
X102454819Y-67809523D01*
X102454819Y-67809523D02*
X102454819Y-67190476D01*
X118459580Y-117842857D02*
X118507200Y-117890476D01*
X118507200Y-117890476D02*
X118554819Y-118033333D01*
X118554819Y-118033333D02*
X118554819Y-118128571D01*
X118554819Y-118128571D02*
X118507200Y-118271428D01*
X118507200Y-118271428D02*
X118411961Y-118366666D01*
X118411961Y-118366666D02*
X118316723Y-118414285D01*
X118316723Y-118414285D02*
X118126247Y-118461904D01*
X118126247Y-118461904D02*
X117983390Y-118461904D01*
X117983390Y-118461904D02*
X117792914Y-118414285D01*
X117792914Y-118414285D02*
X117697676Y-118366666D01*
X117697676Y-118366666D02*
X117602438Y-118271428D01*
X117602438Y-118271428D02*
X117554819Y-118128571D01*
X117554819Y-118128571D02*
X117554819Y-118033333D01*
X117554819Y-118033333D02*
X117602438Y-117890476D01*
X117602438Y-117890476D02*
X117650057Y-117842857D01*
X117650057Y-117461904D02*
X117602438Y-117414285D01*
X117602438Y-117414285D02*
X117554819Y-117319047D01*
X117554819Y-117319047D02*
X117554819Y-117080952D01*
X117554819Y-117080952D02*
X117602438Y-116985714D01*
X117602438Y-116985714D02*
X117650057Y-116938095D01*
X117650057Y-116938095D02*
X117745295Y-116890476D01*
X117745295Y-116890476D02*
X117840533Y-116890476D01*
X117840533Y-116890476D02*
X117983390Y-116938095D01*
X117983390Y-116938095D02*
X118554819Y-117509523D01*
X118554819Y-117509523D02*
X118554819Y-116890476D01*
X117983390Y-116319047D02*
X117935771Y-116414285D01*
X117935771Y-116414285D02*
X117888152Y-116461904D01*
X117888152Y-116461904D02*
X117792914Y-116509523D01*
X117792914Y-116509523D02*
X117745295Y-116509523D01*
X117745295Y-116509523D02*
X117650057Y-116461904D01*
X117650057Y-116461904D02*
X117602438Y-116414285D01*
X117602438Y-116414285D02*
X117554819Y-116319047D01*
X117554819Y-116319047D02*
X117554819Y-116128571D01*
X117554819Y-116128571D02*
X117602438Y-116033333D01*
X117602438Y-116033333D02*
X117650057Y-115985714D01*
X117650057Y-115985714D02*
X117745295Y-115938095D01*
X117745295Y-115938095D02*
X117792914Y-115938095D01*
X117792914Y-115938095D02*
X117888152Y-115985714D01*
X117888152Y-115985714D02*
X117935771Y-116033333D01*
X117935771Y-116033333D02*
X117983390Y-116128571D01*
X117983390Y-116128571D02*
X117983390Y-116319047D01*
X117983390Y-116319047D02*
X118031009Y-116414285D01*
X118031009Y-116414285D02*
X118078628Y-116461904D01*
X118078628Y-116461904D02*
X118173866Y-116509523D01*
X118173866Y-116509523D02*
X118364342Y-116509523D01*
X118364342Y-116509523D02*
X118459580Y-116461904D01*
X118459580Y-116461904D02*
X118507200Y-116414285D01*
X118507200Y-116414285D02*
X118554819Y-116319047D01*
X118554819Y-116319047D02*
X118554819Y-116128571D01*
X118554819Y-116128571D02*
X118507200Y-116033333D01*
X118507200Y-116033333D02*
X118459580Y-115985714D01*
X118459580Y-115985714D02*
X118364342Y-115938095D01*
X118364342Y-115938095D02*
X118173866Y-115938095D01*
X118173866Y-115938095D02*
X118078628Y-115985714D01*
X118078628Y-115985714D02*
X118031009Y-116033333D01*
X118031009Y-116033333D02*
X117983390Y-116128571D01*
X125554819Y-117842857D02*
X125078628Y-118176190D01*
X125554819Y-118414285D02*
X124554819Y-118414285D01*
X124554819Y-118414285D02*
X124554819Y-118033333D01*
X124554819Y-118033333D02*
X124602438Y-117938095D01*
X124602438Y-117938095D02*
X124650057Y-117890476D01*
X124650057Y-117890476D02*
X124745295Y-117842857D01*
X124745295Y-117842857D02*
X124888152Y-117842857D01*
X124888152Y-117842857D02*
X124983390Y-117890476D01*
X124983390Y-117890476D02*
X125031009Y-117938095D01*
X125031009Y-117938095D02*
X125078628Y-118033333D01*
X125078628Y-118033333D02*
X125078628Y-118414285D01*
X125554819Y-116890476D02*
X125554819Y-117461904D01*
X125554819Y-117176190D02*
X124554819Y-117176190D01*
X124554819Y-117176190D02*
X124697676Y-117271428D01*
X124697676Y-117271428D02*
X124792914Y-117366666D01*
X124792914Y-117366666D02*
X124840533Y-117461904D01*
X124554819Y-116271428D02*
X124554819Y-116176190D01*
X124554819Y-116176190D02*
X124602438Y-116080952D01*
X124602438Y-116080952D02*
X124650057Y-116033333D01*
X124650057Y-116033333D02*
X124745295Y-115985714D01*
X124745295Y-115985714D02*
X124935771Y-115938095D01*
X124935771Y-115938095D02*
X125173866Y-115938095D01*
X125173866Y-115938095D02*
X125364342Y-115985714D01*
X125364342Y-115985714D02*
X125459580Y-116033333D01*
X125459580Y-116033333D02*
X125507200Y-116080952D01*
X125507200Y-116080952D02*
X125554819Y-116176190D01*
X125554819Y-116176190D02*
X125554819Y-116271428D01*
X125554819Y-116271428D02*
X125507200Y-116366666D01*
X125507200Y-116366666D02*
X125459580Y-116414285D01*
X125459580Y-116414285D02*
X125364342Y-116461904D01*
X125364342Y-116461904D02*
X125173866Y-116509523D01*
X125173866Y-116509523D02*
X124935771Y-116509523D01*
X124935771Y-116509523D02*
X124745295Y-116461904D01*
X124745295Y-116461904D02*
X124650057Y-116414285D01*
X124650057Y-116414285D02*
X124602438Y-116366666D01*
X124602438Y-116366666D02*
X124554819Y-116271428D01*
X123666666Y-138804819D02*
X123333333Y-138328628D01*
X123095238Y-138804819D02*
X123095238Y-137804819D01*
X123095238Y-137804819D02*
X123476190Y-137804819D01*
X123476190Y-137804819D02*
X123571428Y-137852438D01*
X123571428Y-137852438D02*
X123619047Y-137900057D01*
X123619047Y-137900057D02*
X123666666Y-137995295D01*
X123666666Y-137995295D02*
X123666666Y-138138152D01*
X123666666Y-138138152D02*
X123619047Y-138233390D01*
X123619047Y-138233390D02*
X123571428Y-138281009D01*
X123571428Y-138281009D02*
X123476190Y-138328628D01*
X123476190Y-138328628D02*
X123095238Y-138328628D01*
X124095238Y-138281009D02*
X124428571Y-138281009D01*
X124571428Y-138804819D02*
X124095238Y-138804819D01*
X124095238Y-138804819D02*
X124095238Y-137804819D01*
X124095238Y-137804819D02*
X124571428Y-137804819D01*
X125333333Y-138281009D02*
X125000000Y-138281009D01*
X125000000Y-138804819D02*
X125000000Y-137804819D01*
X125000000Y-137804819D02*
X125476190Y-137804819D01*
X126000000Y-137804819D02*
X126000000Y-138042914D01*
X125761905Y-137947676D02*
X126000000Y-138042914D01*
X126000000Y-138042914D02*
X126238095Y-137947676D01*
X125857143Y-138233390D02*
X126000000Y-138042914D01*
X126000000Y-138042914D02*
X126142857Y-138233390D01*
X126761905Y-137804819D02*
X126761905Y-138042914D01*
X126523810Y-137947676D02*
X126761905Y-138042914D01*
X126761905Y-138042914D02*
X127000000Y-137947676D01*
X126619048Y-138233390D02*
X126761905Y-138042914D01*
X126761905Y-138042914D02*
X126904762Y-138233390D01*
X99250057Y-136795238D02*
X99202438Y-136890476D01*
X99202438Y-136890476D02*
X99107200Y-136985714D01*
X99107200Y-136985714D02*
X98964342Y-137128571D01*
X98964342Y-137128571D02*
X98916723Y-137223809D01*
X98916723Y-137223809D02*
X98916723Y-137319047D01*
X99154819Y-137271428D02*
X99107200Y-137366666D01*
X99107200Y-137366666D02*
X99011961Y-137461904D01*
X99011961Y-137461904D02*
X98821485Y-137509523D01*
X98821485Y-137509523D02*
X98488152Y-137509523D01*
X98488152Y-137509523D02*
X98297676Y-137461904D01*
X98297676Y-137461904D02*
X98202438Y-137366666D01*
X98202438Y-137366666D02*
X98154819Y-137271428D01*
X98154819Y-137271428D02*
X98154819Y-137080952D01*
X98154819Y-137080952D02*
X98202438Y-136985714D01*
X98202438Y-136985714D02*
X98297676Y-136890476D01*
X98297676Y-136890476D02*
X98488152Y-136842857D01*
X98488152Y-136842857D02*
X98821485Y-136842857D01*
X98821485Y-136842857D02*
X99011961Y-136890476D01*
X99011961Y-136890476D02*
X99107200Y-136985714D01*
X99107200Y-136985714D02*
X99154819Y-137080952D01*
X99154819Y-137080952D02*
X99154819Y-137271428D01*
X98154819Y-136509523D02*
X98154819Y-135842857D01*
X98154819Y-135842857D02*
X99154819Y-136271428D01*
X99754819Y-89766666D02*
X99278628Y-90099999D01*
X99754819Y-90338094D02*
X98754819Y-90338094D01*
X98754819Y-90338094D02*
X98754819Y-89957142D01*
X98754819Y-89957142D02*
X98802438Y-89861904D01*
X98802438Y-89861904D02*
X98850057Y-89814285D01*
X98850057Y-89814285D02*
X98945295Y-89766666D01*
X98945295Y-89766666D02*
X99088152Y-89766666D01*
X99088152Y-89766666D02*
X99183390Y-89814285D01*
X99183390Y-89814285D02*
X99231009Y-89861904D01*
X99231009Y-89861904D02*
X99278628Y-89957142D01*
X99278628Y-89957142D02*
X99278628Y-90338094D01*
X98754819Y-89433332D02*
X98754819Y-88814285D01*
X98754819Y-88814285D02*
X99135771Y-89147618D01*
X99135771Y-89147618D02*
X99135771Y-89004761D01*
X99135771Y-89004761D02*
X99183390Y-88909523D01*
X99183390Y-88909523D02*
X99231009Y-88861904D01*
X99231009Y-88861904D02*
X99326247Y-88814285D01*
X99326247Y-88814285D02*
X99564342Y-88814285D01*
X99564342Y-88814285D02*
X99659580Y-88861904D01*
X99659580Y-88861904D02*
X99707200Y-88909523D01*
X99707200Y-88909523D02*
X99754819Y-89004761D01*
X99754819Y-89004761D02*
X99754819Y-89290475D01*
X99754819Y-89290475D02*
X99707200Y-89385713D01*
X99707200Y-89385713D02*
X99659580Y-89433332D01*
X74666666Y-138804819D02*
X74333333Y-138328628D01*
X74095238Y-138804819D02*
X74095238Y-137804819D01*
X74095238Y-137804819D02*
X74476190Y-137804819D01*
X74476190Y-137804819D02*
X74571428Y-137852438D01*
X74571428Y-137852438D02*
X74619047Y-137900057D01*
X74619047Y-137900057D02*
X74666666Y-137995295D01*
X74666666Y-137995295D02*
X74666666Y-138138152D01*
X74666666Y-138138152D02*
X74619047Y-138233390D01*
X74619047Y-138233390D02*
X74571428Y-138281009D01*
X74571428Y-138281009D02*
X74476190Y-138328628D01*
X74476190Y-138328628D02*
X74095238Y-138328628D01*
X75095238Y-138281009D02*
X75428571Y-138281009D01*
X75571428Y-138804819D02*
X75095238Y-138804819D01*
X75095238Y-138804819D02*
X75095238Y-137804819D01*
X75095238Y-137804819D02*
X75571428Y-137804819D01*
X76333333Y-138281009D02*
X76000000Y-138281009D01*
X76000000Y-138804819D02*
X76000000Y-137804819D01*
X76000000Y-137804819D02*
X76476190Y-137804819D01*
X77000000Y-137804819D02*
X77000000Y-138042914D01*
X76761905Y-137947676D02*
X77000000Y-138042914D01*
X77000000Y-138042914D02*
X77238095Y-137947676D01*
X76857143Y-138233390D02*
X77000000Y-138042914D01*
X77000000Y-138042914D02*
X77142857Y-138233390D01*
X77761905Y-137804819D02*
X77761905Y-138042914D01*
X77523810Y-137947676D02*
X77761905Y-138042914D01*
X77761905Y-138042914D02*
X78000000Y-137947676D01*
X77619048Y-138233390D02*
X77761905Y-138042914D01*
X77761905Y-138042914D02*
X77904762Y-138233390D01*
X111559580Y-121266666D02*
X111607200Y-121314285D01*
X111607200Y-121314285D02*
X111654819Y-121457142D01*
X111654819Y-121457142D02*
X111654819Y-121552380D01*
X111654819Y-121552380D02*
X111607200Y-121695237D01*
X111607200Y-121695237D02*
X111511961Y-121790475D01*
X111511961Y-121790475D02*
X111416723Y-121838094D01*
X111416723Y-121838094D02*
X111226247Y-121885713D01*
X111226247Y-121885713D02*
X111083390Y-121885713D01*
X111083390Y-121885713D02*
X110892914Y-121838094D01*
X110892914Y-121838094D02*
X110797676Y-121790475D01*
X110797676Y-121790475D02*
X110702438Y-121695237D01*
X110702438Y-121695237D02*
X110654819Y-121552380D01*
X110654819Y-121552380D02*
X110654819Y-121457142D01*
X110654819Y-121457142D02*
X110702438Y-121314285D01*
X110702438Y-121314285D02*
X110750057Y-121266666D01*
X110654819Y-120409523D02*
X110654819Y-120599999D01*
X110654819Y-120599999D02*
X110702438Y-120695237D01*
X110702438Y-120695237D02*
X110750057Y-120742856D01*
X110750057Y-120742856D02*
X110892914Y-120838094D01*
X110892914Y-120838094D02*
X111083390Y-120885713D01*
X111083390Y-120885713D02*
X111464342Y-120885713D01*
X111464342Y-120885713D02*
X111559580Y-120838094D01*
X111559580Y-120838094D02*
X111607200Y-120790475D01*
X111607200Y-120790475D02*
X111654819Y-120695237D01*
X111654819Y-120695237D02*
X111654819Y-120504761D01*
X111654819Y-120504761D02*
X111607200Y-120409523D01*
X111607200Y-120409523D02*
X111559580Y-120361904D01*
X111559580Y-120361904D02*
X111464342Y-120314285D01*
X111464342Y-120314285D02*
X111226247Y-120314285D01*
X111226247Y-120314285D02*
X111131009Y-120361904D01*
X111131009Y-120361904D02*
X111083390Y-120409523D01*
X111083390Y-120409523D02*
X111035771Y-120504761D01*
X111035771Y-120504761D02*
X111035771Y-120695237D01*
X111035771Y-120695237D02*
X111083390Y-120790475D01*
X111083390Y-120790475D02*
X111131009Y-120838094D01*
X111131009Y-120838094D02*
X111226247Y-120885713D01*
X108059580Y-91666666D02*
X108107200Y-91714285D01*
X108107200Y-91714285D02*
X108154819Y-91857142D01*
X108154819Y-91857142D02*
X108154819Y-91952380D01*
X108154819Y-91952380D02*
X108107200Y-92095237D01*
X108107200Y-92095237D02*
X108011961Y-92190475D01*
X108011961Y-92190475D02*
X107916723Y-92238094D01*
X107916723Y-92238094D02*
X107726247Y-92285713D01*
X107726247Y-92285713D02*
X107583390Y-92285713D01*
X107583390Y-92285713D02*
X107392914Y-92238094D01*
X107392914Y-92238094D02*
X107297676Y-92190475D01*
X107297676Y-92190475D02*
X107202438Y-92095237D01*
X107202438Y-92095237D02*
X107154819Y-91952380D01*
X107154819Y-91952380D02*
X107154819Y-91857142D01*
X107154819Y-91857142D02*
X107202438Y-91714285D01*
X107202438Y-91714285D02*
X107250057Y-91666666D01*
X108154819Y-90714285D02*
X108154819Y-91285713D01*
X108154819Y-90999999D02*
X107154819Y-90999999D01*
X107154819Y-90999999D02*
X107297676Y-91095237D01*
X107297676Y-91095237D02*
X107392914Y-91190475D01*
X107392914Y-91190475D02*
X107440533Y-91285713D01*
X114359580Y-112066666D02*
X114407200Y-112114285D01*
X114407200Y-112114285D02*
X114454819Y-112257142D01*
X114454819Y-112257142D02*
X114454819Y-112352380D01*
X114454819Y-112352380D02*
X114407200Y-112495237D01*
X114407200Y-112495237D02*
X114311961Y-112590475D01*
X114311961Y-112590475D02*
X114216723Y-112638094D01*
X114216723Y-112638094D02*
X114026247Y-112685713D01*
X114026247Y-112685713D02*
X113883390Y-112685713D01*
X113883390Y-112685713D02*
X113692914Y-112638094D01*
X113692914Y-112638094D02*
X113597676Y-112590475D01*
X113597676Y-112590475D02*
X113502438Y-112495237D01*
X113502438Y-112495237D02*
X113454819Y-112352380D01*
X113454819Y-112352380D02*
X113454819Y-112257142D01*
X113454819Y-112257142D02*
X113502438Y-112114285D01*
X113502438Y-112114285D02*
X113550057Y-112066666D01*
X113454819Y-111161904D02*
X113454819Y-111638094D01*
X113454819Y-111638094D02*
X113931009Y-111685713D01*
X113931009Y-111685713D02*
X113883390Y-111638094D01*
X113883390Y-111638094D02*
X113835771Y-111542856D01*
X113835771Y-111542856D02*
X113835771Y-111304761D01*
X113835771Y-111304761D02*
X113883390Y-111209523D01*
X113883390Y-111209523D02*
X113931009Y-111161904D01*
X113931009Y-111161904D02*
X114026247Y-111114285D01*
X114026247Y-111114285D02*
X114264342Y-111114285D01*
X114264342Y-111114285D02*
X114359580Y-111161904D01*
X114359580Y-111161904D02*
X114407200Y-111209523D01*
X114407200Y-111209523D02*
X114454819Y-111304761D01*
X114454819Y-111304761D02*
X114454819Y-111542856D01*
X114454819Y-111542856D02*
X114407200Y-111638094D01*
X114407200Y-111638094D02*
X114359580Y-111685713D01*
X89357142Y-105259580D02*
X89309523Y-105307200D01*
X89309523Y-105307200D02*
X89166666Y-105354819D01*
X89166666Y-105354819D02*
X89071428Y-105354819D01*
X89071428Y-105354819D02*
X88928571Y-105307200D01*
X88928571Y-105307200D02*
X88833333Y-105211961D01*
X88833333Y-105211961D02*
X88785714Y-105116723D01*
X88785714Y-105116723D02*
X88738095Y-104926247D01*
X88738095Y-104926247D02*
X88738095Y-104783390D01*
X88738095Y-104783390D02*
X88785714Y-104592914D01*
X88785714Y-104592914D02*
X88833333Y-104497676D01*
X88833333Y-104497676D02*
X88928571Y-104402438D01*
X88928571Y-104402438D02*
X89071428Y-104354819D01*
X89071428Y-104354819D02*
X89166666Y-104354819D01*
X89166666Y-104354819D02*
X89309523Y-104402438D01*
X89309523Y-104402438D02*
X89357142Y-104450057D01*
X90309523Y-105354819D02*
X89738095Y-105354819D01*
X90023809Y-105354819D02*
X90023809Y-104354819D01*
X90023809Y-104354819D02*
X89928571Y-104497676D01*
X89928571Y-104497676D02*
X89833333Y-104592914D01*
X89833333Y-104592914D02*
X89738095Y-104640533D01*
X91166666Y-104688152D02*
X91166666Y-105354819D01*
X90928571Y-104307200D02*
X90690476Y-105021485D01*
X90690476Y-105021485D02*
X91309523Y-105021485D01*
X107359819Y-62333333D02*
X108074104Y-62333333D01*
X108074104Y-62333333D02*
X108216961Y-62380952D01*
X108216961Y-62380952D02*
X108312200Y-62476190D01*
X108312200Y-62476190D02*
X108359819Y-62619047D01*
X108359819Y-62619047D02*
X108359819Y-62714285D01*
X107359819Y-61952380D02*
X107359819Y-61333333D01*
X107359819Y-61333333D02*
X107740771Y-61666666D01*
X107740771Y-61666666D02*
X107740771Y-61523809D01*
X107740771Y-61523809D02*
X107788390Y-61428571D01*
X107788390Y-61428571D02*
X107836009Y-61380952D01*
X107836009Y-61380952D02*
X107931247Y-61333333D01*
X107931247Y-61333333D02*
X108169342Y-61333333D01*
X108169342Y-61333333D02*
X108264580Y-61380952D01*
X108264580Y-61380952D02*
X108312200Y-61428571D01*
X108312200Y-61428571D02*
X108359819Y-61523809D01*
X108359819Y-61523809D02*
X108359819Y-61809523D01*
X108359819Y-61809523D02*
X108312200Y-61904761D01*
X108312200Y-61904761D02*
X108264580Y-61952380D01*
D10*
X112304318Y-95967619D02*
X113332413Y-95967619D01*
X113332413Y-95967619D02*
X113453365Y-95907142D01*
X113453365Y-95907142D02*
X113513842Y-95846666D01*
X113513842Y-95846666D02*
X113574318Y-95725714D01*
X113574318Y-95725714D02*
X113574318Y-95483809D01*
X113574318Y-95483809D02*
X113513842Y-95362857D01*
X113513842Y-95362857D02*
X113453365Y-95302380D01*
X113453365Y-95302380D02*
X113332413Y-95241904D01*
X113332413Y-95241904D02*
X112304318Y-95241904D01*
X113574318Y-93971904D02*
X113574318Y-94697619D01*
X113574318Y-94334762D02*
X112304318Y-94334762D01*
X112304318Y-94334762D02*
X112485746Y-94455714D01*
X112485746Y-94455714D02*
X112606699Y-94576666D01*
X112606699Y-94576666D02*
X112667175Y-94697619D01*
X97584318Y-110255619D02*
X98612413Y-110255619D01*
X98612413Y-110255619D02*
X98733365Y-110195142D01*
X98733365Y-110195142D02*
X98793842Y-110134666D01*
X98793842Y-110134666D02*
X98854318Y-110013714D01*
X98854318Y-110013714D02*
X98854318Y-109771809D01*
X98854318Y-109771809D02*
X98793842Y-109650857D01*
X98793842Y-109650857D02*
X98733365Y-109590380D01*
X98733365Y-109590380D02*
X98612413Y-109529904D01*
X98612413Y-109529904D02*
X97584318Y-109529904D01*
X98007651Y-108380857D02*
X98854318Y-108380857D01*
X97523842Y-108683238D02*
X98430984Y-108985619D01*
X98430984Y-108985619D02*
X98430984Y-108199428D01*
D11*
X105254819Y-121166666D02*
X104778628Y-121499999D01*
X105254819Y-121738094D02*
X104254819Y-121738094D01*
X104254819Y-121738094D02*
X104254819Y-121357142D01*
X104254819Y-121357142D02*
X104302438Y-121261904D01*
X104302438Y-121261904D02*
X104350057Y-121214285D01*
X104350057Y-121214285D02*
X104445295Y-121166666D01*
X104445295Y-121166666D02*
X104588152Y-121166666D01*
X104588152Y-121166666D02*
X104683390Y-121214285D01*
X104683390Y-121214285D02*
X104731009Y-121261904D01*
X104731009Y-121261904D02*
X104778628Y-121357142D01*
X104778628Y-121357142D02*
X104778628Y-121738094D01*
X104254819Y-120309523D02*
X104254819Y-120499999D01*
X104254819Y-120499999D02*
X104302438Y-120595237D01*
X104302438Y-120595237D02*
X104350057Y-120642856D01*
X104350057Y-120642856D02*
X104492914Y-120738094D01*
X104492914Y-120738094D02*
X104683390Y-120785713D01*
X104683390Y-120785713D02*
X105064342Y-120785713D01*
X105064342Y-120785713D02*
X105159580Y-120738094D01*
X105159580Y-120738094D02*
X105207200Y-120690475D01*
X105207200Y-120690475D02*
X105254819Y-120595237D01*
X105254819Y-120595237D02*
X105254819Y-120404761D01*
X105254819Y-120404761D02*
X105207200Y-120309523D01*
X105207200Y-120309523D02*
X105159580Y-120261904D01*
X105159580Y-120261904D02*
X105064342Y-120214285D01*
X105064342Y-120214285D02*
X104826247Y-120214285D01*
X104826247Y-120214285D02*
X104731009Y-120261904D01*
X104731009Y-120261904D02*
X104683390Y-120309523D01*
X104683390Y-120309523D02*
X104635771Y-120404761D01*
X104635771Y-120404761D02*
X104635771Y-120595237D01*
X104635771Y-120595237D02*
X104683390Y-120690475D01*
X104683390Y-120690475D02*
X104731009Y-120738094D01*
X104731009Y-120738094D02*
X104826247Y-120785713D01*
X127554819Y-90266666D02*
X127078628Y-90599999D01*
X127554819Y-90838094D02*
X126554819Y-90838094D01*
X126554819Y-90838094D02*
X126554819Y-90457142D01*
X126554819Y-90457142D02*
X126602438Y-90361904D01*
X126602438Y-90361904D02*
X126650057Y-90314285D01*
X126650057Y-90314285D02*
X126745295Y-90266666D01*
X126745295Y-90266666D02*
X126888152Y-90266666D01*
X126888152Y-90266666D02*
X126983390Y-90314285D01*
X126983390Y-90314285D02*
X127031009Y-90361904D01*
X127031009Y-90361904D02*
X127078628Y-90457142D01*
X127078628Y-90457142D02*
X127078628Y-90838094D01*
X127554819Y-89790475D02*
X127554819Y-89599999D01*
X127554819Y-89599999D02*
X127507200Y-89504761D01*
X127507200Y-89504761D02*
X127459580Y-89457142D01*
X127459580Y-89457142D02*
X127316723Y-89361904D01*
X127316723Y-89361904D02*
X127126247Y-89314285D01*
X127126247Y-89314285D02*
X126745295Y-89314285D01*
X126745295Y-89314285D02*
X126650057Y-89361904D01*
X126650057Y-89361904D02*
X126602438Y-89409523D01*
X126602438Y-89409523D02*
X126554819Y-89504761D01*
X126554819Y-89504761D02*
X126554819Y-89695237D01*
X126554819Y-89695237D02*
X126602438Y-89790475D01*
X126602438Y-89790475D02*
X126650057Y-89838094D01*
X126650057Y-89838094D02*
X126745295Y-89885713D01*
X126745295Y-89885713D02*
X126983390Y-89885713D01*
X126983390Y-89885713D02*
X127078628Y-89838094D01*
X127078628Y-89838094D02*
X127126247Y-89790475D01*
X127126247Y-89790475D02*
X127173866Y-89695237D01*
X127173866Y-89695237D02*
X127173866Y-89504761D01*
X127173866Y-89504761D02*
X127126247Y-89409523D01*
X127126247Y-89409523D02*
X127078628Y-89361904D01*
X127078628Y-89361904D02*
X126983390Y-89314285D01*
X117750057Y-68295238D02*
X117702438Y-68390476D01*
X117702438Y-68390476D02*
X117607200Y-68485714D01*
X117607200Y-68485714D02*
X117464342Y-68628571D01*
X117464342Y-68628571D02*
X117416723Y-68723809D01*
X117416723Y-68723809D02*
X117416723Y-68819047D01*
X117654819Y-68771428D02*
X117607200Y-68866666D01*
X117607200Y-68866666D02*
X117511961Y-68961904D01*
X117511961Y-68961904D02*
X117321485Y-69009523D01*
X117321485Y-69009523D02*
X116988152Y-69009523D01*
X116988152Y-69009523D02*
X116797676Y-68961904D01*
X116797676Y-68961904D02*
X116702438Y-68866666D01*
X116702438Y-68866666D02*
X116654819Y-68771428D01*
X116654819Y-68771428D02*
X116654819Y-68580952D01*
X116654819Y-68580952D02*
X116702438Y-68485714D01*
X116702438Y-68485714D02*
X116797676Y-68390476D01*
X116797676Y-68390476D02*
X116988152Y-68342857D01*
X116988152Y-68342857D02*
X117321485Y-68342857D01*
X117321485Y-68342857D02*
X117511961Y-68390476D01*
X117511961Y-68390476D02*
X117607200Y-68485714D01*
X117607200Y-68485714D02*
X117654819Y-68580952D01*
X117654819Y-68580952D02*
X117654819Y-68771428D01*
X116654819Y-68009523D02*
X116654819Y-67390476D01*
X116654819Y-67390476D02*
X117035771Y-67723809D01*
X117035771Y-67723809D02*
X117035771Y-67580952D01*
X117035771Y-67580952D02*
X117083390Y-67485714D01*
X117083390Y-67485714D02*
X117131009Y-67438095D01*
X117131009Y-67438095D02*
X117226247Y-67390476D01*
X117226247Y-67390476D02*
X117464342Y-67390476D01*
X117464342Y-67390476D02*
X117559580Y-67438095D01*
X117559580Y-67438095D02*
X117607200Y-67485714D01*
X117607200Y-67485714D02*
X117654819Y-67580952D01*
X117654819Y-67580952D02*
X117654819Y-67866666D01*
X117654819Y-67866666D02*
X117607200Y-67961904D01*
X117607200Y-67961904D02*
X117559580Y-68009523D01*
X105459580Y-91766666D02*
X105507200Y-91814285D01*
X105507200Y-91814285D02*
X105554819Y-91957142D01*
X105554819Y-91957142D02*
X105554819Y-92052380D01*
X105554819Y-92052380D02*
X105507200Y-92195237D01*
X105507200Y-92195237D02*
X105411961Y-92290475D01*
X105411961Y-92290475D02*
X105316723Y-92338094D01*
X105316723Y-92338094D02*
X105126247Y-92385713D01*
X105126247Y-92385713D02*
X104983390Y-92385713D01*
X104983390Y-92385713D02*
X104792914Y-92338094D01*
X104792914Y-92338094D02*
X104697676Y-92290475D01*
X104697676Y-92290475D02*
X104602438Y-92195237D01*
X104602438Y-92195237D02*
X104554819Y-92052380D01*
X104554819Y-92052380D02*
X104554819Y-91957142D01*
X104554819Y-91957142D02*
X104602438Y-91814285D01*
X104602438Y-91814285D02*
X104650057Y-91766666D01*
X104554819Y-91433332D02*
X104554819Y-90814285D01*
X104554819Y-90814285D02*
X104935771Y-91147618D01*
X104935771Y-91147618D02*
X104935771Y-91004761D01*
X104935771Y-91004761D02*
X104983390Y-90909523D01*
X104983390Y-90909523D02*
X105031009Y-90861904D01*
X105031009Y-90861904D02*
X105126247Y-90814285D01*
X105126247Y-90814285D02*
X105364342Y-90814285D01*
X105364342Y-90814285D02*
X105459580Y-90861904D01*
X105459580Y-90861904D02*
X105507200Y-90909523D01*
X105507200Y-90909523D02*
X105554819Y-91004761D01*
X105554819Y-91004761D02*
X105554819Y-91290475D01*
X105554819Y-91290475D02*
X105507200Y-91385713D01*
X105507200Y-91385713D02*
X105459580Y-91433332D01*
X87123809Y-111778628D02*
X87123809Y-112254819D01*
X86790476Y-111254819D02*
X87123809Y-111778628D01*
X87123809Y-111778628D02*
X87457142Y-111254819D01*
X88314285Y-112254819D02*
X87742857Y-112254819D01*
X88028571Y-112254819D02*
X88028571Y-111254819D01*
X88028571Y-111254819D02*
X87933333Y-111397676D01*
X87933333Y-111397676D02*
X87838095Y-111492914D01*
X87838095Y-111492914D02*
X87742857Y-111540533D01*
X100359580Y-121466666D02*
X100407200Y-121514285D01*
X100407200Y-121514285D02*
X100454819Y-121657142D01*
X100454819Y-121657142D02*
X100454819Y-121752380D01*
X100454819Y-121752380D02*
X100407200Y-121895237D01*
X100407200Y-121895237D02*
X100311961Y-121990475D01*
X100311961Y-121990475D02*
X100216723Y-122038094D01*
X100216723Y-122038094D02*
X100026247Y-122085713D01*
X100026247Y-122085713D02*
X99883390Y-122085713D01*
X99883390Y-122085713D02*
X99692914Y-122038094D01*
X99692914Y-122038094D02*
X99597676Y-121990475D01*
X99597676Y-121990475D02*
X99502438Y-121895237D01*
X99502438Y-121895237D02*
X99454819Y-121752380D01*
X99454819Y-121752380D02*
X99454819Y-121657142D01*
X99454819Y-121657142D02*
X99502438Y-121514285D01*
X99502438Y-121514285D02*
X99550057Y-121466666D01*
X99883390Y-120895237D02*
X99835771Y-120990475D01*
X99835771Y-120990475D02*
X99788152Y-121038094D01*
X99788152Y-121038094D02*
X99692914Y-121085713D01*
X99692914Y-121085713D02*
X99645295Y-121085713D01*
X99645295Y-121085713D02*
X99550057Y-121038094D01*
X99550057Y-121038094D02*
X99502438Y-120990475D01*
X99502438Y-120990475D02*
X99454819Y-120895237D01*
X99454819Y-120895237D02*
X99454819Y-120704761D01*
X99454819Y-120704761D02*
X99502438Y-120609523D01*
X99502438Y-120609523D02*
X99550057Y-120561904D01*
X99550057Y-120561904D02*
X99645295Y-120514285D01*
X99645295Y-120514285D02*
X99692914Y-120514285D01*
X99692914Y-120514285D02*
X99788152Y-120561904D01*
X99788152Y-120561904D02*
X99835771Y-120609523D01*
X99835771Y-120609523D02*
X99883390Y-120704761D01*
X99883390Y-120704761D02*
X99883390Y-120895237D01*
X99883390Y-120895237D02*
X99931009Y-120990475D01*
X99931009Y-120990475D02*
X99978628Y-121038094D01*
X99978628Y-121038094D02*
X100073866Y-121085713D01*
X100073866Y-121085713D02*
X100264342Y-121085713D01*
X100264342Y-121085713D02*
X100359580Y-121038094D01*
X100359580Y-121038094D02*
X100407200Y-120990475D01*
X100407200Y-120990475D02*
X100454819Y-120895237D01*
X100454819Y-120895237D02*
X100454819Y-120704761D01*
X100454819Y-120704761D02*
X100407200Y-120609523D01*
X100407200Y-120609523D02*
X100359580Y-120561904D01*
X100359580Y-120561904D02*
X100264342Y-120514285D01*
X100264342Y-120514285D02*
X100073866Y-120514285D01*
X100073866Y-120514285D02*
X99978628Y-120561904D01*
X99978628Y-120561904D02*
X99931009Y-120609523D01*
X99931009Y-120609523D02*
X99883390Y-120704761D01*
X73666666Y-59804819D02*
X73333333Y-59328628D01*
X73095238Y-59804819D02*
X73095238Y-58804819D01*
X73095238Y-58804819D02*
X73476190Y-58804819D01*
X73476190Y-58804819D02*
X73571428Y-58852438D01*
X73571428Y-58852438D02*
X73619047Y-58900057D01*
X73619047Y-58900057D02*
X73666666Y-58995295D01*
X73666666Y-58995295D02*
X73666666Y-59138152D01*
X73666666Y-59138152D02*
X73619047Y-59233390D01*
X73619047Y-59233390D02*
X73571428Y-59281009D01*
X73571428Y-59281009D02*
X73476190Y-59328628D01*
X73476190Y-59328628D02*
X73095238Y-59328628D01*
X74095238Y-59281009D02*
X74428571Y-59281009D01*
X74571428Y-59804819D02*
X74095238Y-59804819D01*
X74095238Y-59804819D02*
X74095238Y-58804819D01*
X74095238Y-58804819D02*
X74571428Y-58804819D01*
X75333333Y-59281009D02*
X75000000Y-59281009D01*
X75000000Y-59804819D02*
X75000000Y-58804819D01*
X75000000Y-58804819D02*
X75476190Y-58804819D01*
X76000000Y-58804819D02*
X76000000Y-59042914D01*
X75761905Y-58947676D02*
X76000000Y-59042914D01*
X76000000Y-59042914D02*
X76238095Y-58947676D01*
X75857143Y-59233390D02*
X76000000Y-59042914D01*
X76000000Y-59042914D02*
X76142857Y-59233390D01*
X76761905Y-58804819D02*
X76761905Y-59042914D01*
X76523810Y-58947676D02*
X76761905Y-59042914D01*
X76761905Y-59042914D02*
X77000000Y-58947676D01*
X76619048Y-59233390D02*
X76761905Y-59042914D01*
X76761905Y-59042914D02*
X76904762Y-59233390D01*
X83357142Y-105209580D02*
X83309523Y-105257200D01*
X83309523Y-105257200D02*
X83166666Y-105304819D01*
X83166666Y-105304819D02*
X83071428Y-105304819D01*
X83071428Y-105304819D02*
X82928571Y-105257200D01*
X82928571Y-105257200D02*
X82833333Y-105161961D01*
X82833333Y-105161961D02*
X82785714Y-105066723D01*
X82785714Y-105066723D02*
X82738095Y-104876247D01*
X82738095Y-104876247D02*
X82738095Y-104733390D01*
X82738095Y-104733390D02*
X82785714Y-104542914D01*
X82785714Y-104542914D02*
X82833333Y-104447676D01*
X82833333Y-104447676D02*
X82928571Y-104352438D01*
X82928571Y-104352438D02*
X83071428Y-104304819D01*
X83071428Y-104304819D02*
X83166666Y-104304819D01*
X83166666Y-104304819D02*
X83309523Y-104352438D01*
X83309523Y-104352438D02*
X83357142Y-104400057D01*
X84309523Y-105304819D02*
X83738095Y-105304819D01*
X84023809Y-105304819D02*
X84023809Y-104304819D01*
X84023809Y-104304819D02*
X83928571Y-104447676D01*
X83928571Y-104447676D02*
X83833333Y-104542914D01*
X83833333Y-104542914D02*
X83738095Y-104590533D01*
X84642857Y-104304819D02*
X85261904Y-104304819D01*
X85261904Y-104304819D02*
X84928571Y-104685771D01*
X84928571Y-104685771D02*
X85071428Y-104685771D01*
X85071428Y-104685771D02*
X85166666Y-104733390D01*
X85166666Y-104733390D02*
X85214285Y-104781009D01*
X85214285Y-104781009D02*
X85261904Y-104876247D01*
X85261904Y-104876247D02*
X85261904Y-105114342D01*
X85261904Y-105114342D02*
X85214285Y-105209580D01*
X85214285Y-105209580D02*
X85166666Y-105257200D01*
X85166666Y-105257200D02*
X85071428Y-105304819D01*
X85071428Y-105304819D02*
X84785714Y-105304819D01*
X84785714Y-105304819D02*
X84690476Y-105257200D01*
X84690476Y-105257200D02*
X84642857Y-105209580D01*
X107025057Y-136695238D02*
X106977438Y-136790476D01*
X106977438Y-136790476D02*
X106882200Y-136885714D01*
X106882200Y-136885714D02*
X106739342Y-137028571D01*
X106739342Y-137028571D02*
X106691723Y-137123809D01*
X106691723Y-137123809D02*
X106691723Y-137219047D01*
X106929819Y-137171428D02*
X106882200Y-137266666D01*
X106882200Y-137266666D02*
X106786961Y-137361904D01*
X106786961Y-137361904D02*
X106596485Y-137409523D01*
X106596485Y-137409523D02*
X106263152Y-137409523D01*
X106263152Y-137409523D02*
X106072676Y-137361904D01*
X106072676Y-137361904D02*
X105977438Y-137266666D01*
X105977438Y-137266666D02*
X105929819Y-137171428D01*
X105929819Y-137171428D02*
X105929819Y-136980952D01*
X105929819Y-136980952D02*
X105977438Y-136885714D01*
X105977438Y-136885714D02*
X106072676Y-136790476D01*
X106072676Y-136790476D02*
X106263152Y-136742857D01*
X106263152Y-136742857D02*
X106596485Y-136742857D01*
X106596485Y-136742857D02*
X106786961Y-136790476D01*
X106786961Y-136790476D02*
X106882200Y-136885714D01*
X106882200Y-136885714D02*
X106929819Y-136980952D01*
X106929819Y-136980952D02*
X106929819Y-137171428D01*
X105929819Y-135838095D02*
X105929819Y-136314285D01*
X105929819Y-136314285D02*
X106406009Y-136361904D01*
X106406009Y-136361904D02*
X106358390Y-136314285D01*
X106358390Y-136314285D02*
X106310771Y-136219047D01*
X106310771Y-136219047D02*
X106310771Y-135980952D01*
X106310771Y-135980952D02*
X106358390Y-135885714D01*
X106358390Y-135885714D02*
X106406009Y-135838095D01*
X106406009Y-135838095D02*
X106501247Y-135790476D01*
X106501247Y-135790476D02*
X106739342Y-135790476D01*
X106739342Y-135790476D02*
X106834580Y-135838095D01*
X106834580Y-135838095D02*
X106882200Y-135885714D01*
X106882200Y-135885714D02*
X106929819Y-135980952D01*
X106929819Y-135980952D02*
X106929819Y-136219047D01*
X106929819Y-136219047D02*
X106882200Y-136314285D01*
X106882200Y-136314285D02*
X106834580Y-136361904D01*
X114450057Y-136795238D02*
X114402438Y-136890476D01*
X114402438Y-136890476D02*
X114307200Y-136985714D01*
X114307200Y-136985714D02*
X114164342Y-137128571D01*
X114164342Y-137128571D02*
X114116723Y-137223809D01*
X114116723Y-137223809D02*
X114116723Y-137319047D01*
X114354819Y-137271428D02*
X114307200Y-137366666D01*
X114307200Y-137366666D02*
X114211961Y-137461904D01*
X114211961Y-137461904D02*
X114021485Y-137509523D01*
X114021485Y-137509523D02*
X113688152Y-137509523D01*
X113688152Y-137509523D02*
X113497676Y-137461904D01*
X113497676Y-137461904D02*
X113402438Y-137366666D01*
X113402438Y-137366666D02*
X113354819Y-137271428D01*
X113354819Y-137271428D02*
X113354819Y-137080952D01*
X113354819Y-137080952D02*
X113402438Y-136985714D01*
X113402438Y-136985714D02*
X113497676Y-136890476D01*
X113497676Y-136890476D02*
X113688152Y-136842857D01*
X113688152Y-136842857D02*
X114021485Y-136842857D01*
X114021485Y-136842857D02*
X114211961Y-136890476D01*
X114211961Y-136890476D02*
X114307200Y-136985714D01*
X114307200Y-136985714D02*
X114354819Y-137080952D01*
X114354819Y-137080952D02*
X114354819Y-137271428D01*
X113354819Y-135985714D02*
X113354819Y-136176190D01*
X113354819Y-136176190D02*
X113402438Y-136271428D01*
X113402438Y-136271428D02*
X113450057Y-136319047D01*
X113450057Y-136319047D02*
X113592914Y-136414285D01*
X113592914Y-136414285D02*
X113783390Y-136461904D01*
X113783390Y-136461904D02*
X114164342Y-136461904D01*
X114164342Y-136461904D02*
X114259580Y-136414285D01*
X114259580Y-136414285D02*
X114307200Y-136366666D01*
X114307200Y-136366666D02*
X114354819Y-136271428D01*
X114354819Y-136271428D02*
X114354819Y-136080952D01*
X114354819Y-136080952D02*
X114307200Y-135985714D01*
X114307200Y-135985714D02*
X114259580Y-135938095D01*
X114259580Y-135938095D02*
X114164342Y-135890476D01*
X114164342Y-135890476D02*
X113926247Y-135890476D01*
X113926247Y-135890476D02*
X113831009Y-135938095D01*
X113831009Y-135938095D02*
X113783390Y-135985714D01*
X113783390Y-135985714D02*
X113735771Y-136080952D01*
X113735771Y-136080952D02*
X113735771Y-136271428D01*
X113735771Y-136271428D02*
X113783390Y-136366666D01*
X113783390Y-136366666D02*
X113831009Y-136414285D01*
X113831009Y-136414285D02*
X113926247Y-136461904D01*
X108554819Y-121266666D02*
X108078628Y-121599999D01*
X108554819Y-121838094D02*
X107554819Y-121838094D01*
X107554819Y-121838094D02*
X107554819Y-121457142D01*
X107554819Y-121457142D02*
X107602438Y-121361904D01*
X107602438Y-121361904D02*
X107650057Y-121314285D01*
X107650057Y-121314285D02*
X107745295Y-121266666D01*
X107745295Y-121266666D02*
X107888152Y-121266666D01*
X107888152Y-121266666D02*
X107983390Y-121314285D01*
X107983390Y-121314285D02*
X108031009Y-121361904D01*
X108031009Y-121361904D02*
X108078628Y-121457142D01*
X108078628Y-121457142D02*
X108078628Y-121838094D01*
X107554819Y-120361904D02*
X107554819Y-120838094D01*
X107554819Y-120838094D02*
X108031009Y-120885713D01*
X108031009Y-120885713D02*
X107983390Y-120838094D01*
X107983390Y-120838094D02*
X107935771Y-120742856D01*
X107935771Y-120742856D02*
X107935771Y-120504761D01*
X107935771Y-120504761D02*
X107983390Y-120409523D01*
X107983390Y-120409523D02*
X108031009Y-120361904D01*
X108031009Y-120361904D02*
X108126247Y-120314285D01*
X108126247Y-120314285D02*
X108364342Y-120314285D01*
X108364342Y-120314285D02*
X108459580Y-120361904D01*
X108459580Y-120361904D02*
X108507200Y-120409523D01*
X108507200Y-120409523D02*
X108554819Y-120504761D01*
X108554819Y-120504761D02*
X108554819Y-120742856D01*
X108554819Y-120742856D02*
X108507200Y-120838094D01*
X108507200Y-120838094D02*
X108459580Y-120885713D01*
X94354819Y-121366666D02*
X93878628Y-121699999D01*
X94354819Y-121938094D02*
X93354819Y-121938094D01*
X93354819Y-121938094D02*
X93354819Y-121557142D01*
X93354819Y-121557142D02*
X93402438Y-121461904D01*
X93402438Y-121461904D02*
X93450057Y-121414285D01*
X93450057Y-121414285D02*
X93545295Y-121366666D01*
X93545295Y-121366666D02*
X93688152Y-121366666D01*
X93688152Y-121366666D02*
X93783390Y-121414285D01*
X93783390Y-121414285D02*
X93831009Y-121461904D01*
X93831009Y-121461904D02*
X93878628Y-121557142D01*
X93878628Y-121557142D02*
X93878628Y-121938094D01*
X93783390Y-120795237D02*
X93735771Y-120890475D01*
X93735771Y-120890475D02*
X93688152Y-120938094D01*
X93688152Y-120938094D02*
X93592914Y-120985713D01*
X93592914Y-120985713D02*
X93545295Y-120985713D01*
X93545295Y-120985713D02*
X93450057Y-120938094D01*
X93450057Y-120938094D02*
X93402438Y-120890475D01*
X93402438Y-120890475D02*
X93354819Y-120795237D01*
X93354819Y-120795237D02*
X93354819Y-120604761D01*
X93354819Y-120604761D02*
X93402438Y-120509523D01*
X93402438Y-120509523D02*
X93450057Y-120461904D01*
X93450057Y-120461904D02*
X93545295Y-120414285D01*
X93545295Y-120414285D02*
X93592914Y-120414285D01*
X93592914Y-120414285D02*
X93688152Y-120461904D01*
X93688152Y-120461904D02*
X93735771Y-120509523D01*
X93735771Y-120509523D02*
X93783390Y-120604761D01*
X93783390Y-120604761D02*
X93783390Y-120795237D01*
X93783390Y-120795237D02*
X93831009Y-120890475D01*
X93831009Y-120890475D02*
X93878628Y-120938094D01*
X93878628Y-120938094D02*
X93973866Y-120985713D01*
X93973866Y-120985713D02*
X94164342Y-120985713D01*
X94164342Y-120985713D02*
X94259580Y-120938094D01*
X94259580Y-120938094D02*
X94307200Y-120890475D01*
X94307200Y-120890475D02*
X94354819Y-120795237D01*
X94354819Y-120795237D02*
X94354819Y-120604761D01*
X94354819Y-120604761D02*
X94307200Y-120509523D01*
X94307200Y-120509523D02*
X94259580Y-120461904D01*
X94259580Y-120461904D02*
X94164342Y-120414285D01*
X94164342Y-120414285D02*
X93973866Y-120414285D01*
X93973866Y-120414285D02*
X93878628Y-120461904D01*
X93878628Y-120461904D02*
X93831009Y-120509523D01*
X93831009Y-120509523D02*
X93783390Y-120604761D01*
X95050057Y-67895238D02*
X95002438Y-67990476D01*
X95002438Y-67990476D02*
X94907200Y-68085714D01*
X94907200Y-68085714D02*
X94764342Y-68228571D01*
X94764342Y-68228571D02*
X94716723Y-68323809D01*
X94716723Y-68323809D02*
X94716723Y-68419047D01*
X94954819Y-68371428D02*
X94907200Y-68466666D01*
X94907200Y-68466666D02*
X94811961Y-68561904D01*
X94811961Y-68561904D02*
X94621485Y-68609523D01*
X94621485Y-68609523D02*
X94288152Y-68609523D01*
X94288152Y-68609523D02*
X94097676Y-68561904D01*
X94097676Y-68561904D02*
X94002438Y-68466666D01*
X94002438Y-68466666D02*
X93954819Y-68371428D01*
X93954819Y-68371428D02*
X93954819Y-68180952D01*
X93954819Y-68180952D02*
X94002438Y-68085714D01*
X94002438Y-68085714D02*
X94097676Y-67990476D01*
X94097676Y-67990476D02*
X94288152Y-67942857D01*
X94288152Y-67942857D02*
X94621485Y-67942857D01*
X94621485Y-67942857D02*
X94811961Y-67990476D01*
X94811961Y-67990476D02*
X94907200Y-68085714D01*
X94907200Y-68085714D02*
X94954819Y-68180952D01*
X94954819Y-68180952D02*
X94954819Y-68371428D01*
X94288152Y-67085714D02*
X94954819Y-67085714D01*
X93907200Y-67323809D02*
X94621485Y-67561904D01*
X94621485Y-67561904D02*
X94621485Y-66942857D01*
X87954819Y-95924404D02*
X88764342Y-95924404D01*
X88764342Y-95924404D02*
X88859580Y-95876785D01*
X88859580Y-95876785D02*
X88907200Y-95829166D01*
X88907200Y-95829166D02*
X88954819Y-95733928D01*
X88954819Y-95733928D02*
X88954819Y-95543452D01*
X88954819Y-95543452D02*
X88907200Y-95448214D01*
X88907200Y-95448214D02*
X88859580Y-95400595D01*
X88859580Y-95400595D02*
X88764342Y-95352976D01*
X88764342Y-95352976D02*
X87954819Y-95352976D01*
X87954819Y-94400595D02*
X87954819Y-94876785D01*
X87954819Y-94876785D02*
X88431009Y-94924404D01*
X88431009Y-94924404D02*
X88383390Y-94876785D01*
X88383390Y-94876785D02*
X88335771Y-94781547D01*
X88335771Y-94781547D02*
X88335771Y-94543452D01*
X88335771Y-94543452D02*
X88383390Y-94448214D01*
X88383390Y-94448214D02*
X88431009Y-94400595D01*
X88431009Y-94400595D02*
X88526247Y-94352976D01*
X88526247Y-94352976D02*
X88764342Y-94352976D01*
X88764342Y-94352976D02*
X88859580Y-94400595D01*
X88859580Y-94400595D02*
X88907200Y-94448214D01*
X88907200Y-94448214D02*
X88954819Y-94543452D01*
X88954819Y-94543452D02*
X88954819Y-94781547D01*
X88954819Y-94781547D02*
X88907200Y-94876785D01*
X88907200Y-94876785D02*
X88859580Y-94924404D01*
X97654819Y-121266666D02*
X97178628Y-121599999D01*
X97654819Y-121838094D02*
X96654819Y-121838094D01*
X96654819Y-121838094D02*
X96654819Y-121457142D01*
X96654819Y-121457142D02*
X96702438Y-121361904D01*
X96702438Y-121361904D02*
X96750057Y-121314285D01*
X96750057Y-121314285D02*
X96845295Y-121266666D01*
X96845295Y-121266666D02*
X96988152Y-121266666D01*
X96988152Y-121266666D02*
X97083390Y-121314285D01*
X97083390Y-121314285D02*
X97131009Y-121361904D01*
X97131009Y-121361904D02*
X97178628Y-121457142D01*
X97178628Y-121457142D02*
X97178628Y-121838094D01*
X96654819Y-120933332D02*
X96654819Y-120266666D01*
X96654819Y-120266666D02*
X97654819Y-120695237D01*
X120588095Y-109204819D02*
X120588095Y-110014342D01*
X120588095Y-110014342D02*
X120635714Y-110109580D01*
X120635714Y-110109580D02*
X120683333Y-110157200D01*
X120683333Y-110157200D02*
X120778571Y-110204819D01*
X120778571Y-110204819D02*
X120969047Y-110204819D01*
X120969047Y-110204819D02*
X121064285Y-110157200D01*
X121064285Y-110157200D02*
X121111904Y-110109580D01*
X121111904Y-110109580D02*
X121159523Y-110014342D01*
X121159523Y-110014342D02*
X121159523Y-109204819D01*
X121540476Y-109204819D02*
X122207142Y-109204819D01*
X122207142Y-109204819D02*
X121778571Y-110204819D01*
X122238095Y-91204819D02*
X122238095Y-92014342D01*
X122238095Y-92014342D02*
X122285714Y-92109580D01*
X122285714Y-92109580D02*
X122333333Y-92157200D01*
X122333333Y-92157200D02*
X122428571Y-92204819D01*
X122428571Y-92204819D02*
X122619047Y-92204819D01*
X122619047Y-92204819D02*
X122714285Y-92157200D01*
X122714285Y-92157200D02*
X122761904Y-92109580D01*
X122761904Y-92109580D02*
X122809523Y-92014342D01*
X122809523Y-92014342D02*
X122809523Y-91204819D01*
X123714285Y-91204819D02*
X123523809Y-91204819D01*
X123523809Y-91204819D02*
X123428571Y-91252438D01*
X123428571Y-91252438D02*
X123380952Y-91300057D01*
X123380952Y-91300057D02*
X123285714Y-91442914D01*
X123285714Y-91442914D02*
X123238095Y-91633390D01*
X123238095Y-91633390D02*
X123238095Y-92014342D01*
X123238095Y-92014342D02*
X123285714Y-92109580D01*
X123285714Y-92109580D02*
X123333333Y-92157200D01*
X123333333Y-92157200D02*
X123428571Y-92204819D01*
X123428571Y-92204819D02*
X123619047Y-92204819D01*
X123619047Y-92204819D02*
X123714285Y-92157200D01*
X123714285Y-92157200D02*
X123761904Y-92109580D01*
X123761904Y-92109580D02*
X123809523Y-92014342D01*
X123809523Y-92014342D02*
X123809523Y-91776247D01*
X123809523Y-91776247D02*
X123761904Y-91681009D01*
X123761904Y-91681009D02*
X123714285Y-91633390D01*
X123714285Y-91633390D02*
X123619047Y-91585771D01*
X123619047Y-91585771D02*
X123428571Y-91585771D01*
X123428571Y-91585771D02*
X123333333Y-91633390D01*
X123333333Y-91633390D02*
X123285714Y-91681009D01*
X123285714Y-91681009D02*
X123238095Y-91776247D01*
X111254819Y-89566666D02*
X110778628Y-89899999D01*
X111254819Y-90138094D02*
X110254819Y-90138094D01*
X110254819Y-90138094D02*
X110254819Y-89757142D01*
X110254819Y-89757142D02*
X110302438Y-89661904D01*
X110302438Y-89661904D02*
X110350057Y-89614285D01*
X110350057Y-89614285D02*
X110445295Y-89566666D01*
X110445295Y-89566666D02*
X110588152Y-89566666D01*
X110588152Y-89566666D02*
X110683390Y-89614285D01*
X110683390Y-89614285D02*
X110731009Y-89661904D01*
X110731009Y-89661904D02*
X110778628Y-89757142D01*
X110778628Y-89757142D02*
X110778628Y-90138094D01*
X111254819Y-88614285D02*
X111254819Y-89185713D01*
X111254819Y-88899999D02*
X110254819Y-88899999D01*
X110254819Y-88899999D02*
X110397676Y-88995237D01*
X110397676Y-88995237D02*
X110492914Y-89090475D01*
X110492914Y-89090475D02*
X110540533Y-89185713D01*
X91050057Y-136795238D02*
X91002438Y-136890476D01*
X91002438Y-136890476D02*
X90907200Y-136985714D01*
X90907200Y-136985714D02*
X90764342Y-137128571D01*
X90764342Y-137128571D02*
X90716723Y-137223809D01*
X90716723Y-137223809D02*
X90716723Y-137319047D01*
X90954819Y-137271428D02*
X90907200Y-137366666D01*
X90907200Y-137366666D02*
X90811961Y-137461904D01*
X90811961Y-137461904D02*
X90621485Y-137509523D01*
X90621485Y-137509523D02*
X90288152Y-137509523D01*
X90288152Y-137509523D02*
X90097676Y-137461904D01*
X90097676Y-137461904D02*
X90002438Y-137366666D01*
X90002438Y-137366666D02*
X89954819Y-137271428D01*
X89954819Y-137271428D02*
X89954819Y-137080952D01*
X89954819Y-137080952D02*
X90002438Y-136985714D01*
X90002438Y-136985714D02*
X90097676Y-136890476D01*
X90097676Y-136890476D02*
X90288152Y-136842857D01*
X90288152Y-136842857D02*
X90621485Y-136842857D01*
X90621485Y-136842857D02*
X90811961Y-136890476D01*
X90811961Y-136890476D02*
X90907200Y-136985714D01*
X90907200Y-136985714D02*
X90954819Y-137080952D01*
X90954819Y-137080952D02*
X90954819Y-137271428D01*
X90383390Y-136271428D02*
X90335771Y-136366666D01*
X90335771Y-136366666D02*
X90288152Y-136414285D01*
X90288152Y-136414285D02*
X90192914Y-136461904D01*
X90192914Y-136461904D02*
X90145295Y-136461904D01*
X90145295Y-136461904D02*
X90050057Y-136414285D01*
X90050057Y-136414285D02*
X90002438Y-136366666D01*
X90002438Y-136366666D02*
X89954819Y-136271428D01*
X89954819Y-136271428D02*
X89954819Y-136080952D01*
X89954819Y-136080952D02*
X90002438Y-135985714D01*
X90002438Y-135985714D02*
X90050057Y-135938095D01*
X90050057Y-135938095D02*
X90145295Y-135890476D01*
X90145295Y-135890476D02*
X90192914Y-135890476D01*
X90192914Y-135890476D02*
X90288152Y-135938095D01*
X90288152Y-135938095D02*
X90335771Y-135985714D01*
X90335771Y-135985714D02*
X90383390Y-136080952D01*
X90383390Y-136080952D02*
X90383390Y-136271428D01*
X90383390Y-136271428D02*
X90431009Y-136366666D01*
X90431009Y-136366666D02*
X90478628Y-136414285D01*
X90478628Y-136414285D02*
X90573866Y-136461904D01*
X90573866Y-136461904D02*
X90764342Y-136461904D01*
X90764342Y-136461904D02*
X90859580Y-136414285D01*
X90859580Y-136414285D02*
X90907200Y-136366666D01*
X90907200Y-136366666D02*
X90954819Y-136271428D01*
X90954819Y-136271428D02*
X90954819Y-136080952D01*
X90954819Y-136080952D02*
X90907200Y-135985714D01*
X90907200Y-135985714D02*
X90859580Y-135938095D01*
X90859580Y-135938095D02*
X90764342Y-135890476D01*
X90764342Y-135890476D02*
X90573866Y-135890476D01*
X90573866Y-135890476D02*
X90478628Y-135938095D01*
X90478628Y-135938095D02*
X90431009Y-135985714D01*
X90431009Y-135985714D02*
X90383390Y-136080952D01*
X102954819Y-141833333D02*
X103669104Y-141833333D01*
X103669104Y-141833333D02*
X103811961Y-141880952D01*
X103811961Y-141880952D02*
X103907200Y-141976190D01*
X103907200Y-141976190D02*
X103954819Y-142119047D01*
X103954819Y-142119047D02*
X103954819Y-142214285D01*
X103288152Y-140928571D02*
X103954819Y-140928571D01*
X102907200Y-141166666D02*
X103621485Y-141404761D01*
X103621485Y-141404761D02*
X103621485Y-140785714D01*
X103454819Y-89666666D02*
X102978628Y-89999999D01*
X103454819Y-90238094D02*
X102454819Y-90238094D01*
X102454819Y-90238094D02*
X102454819Y-89857142D01*
X102454819Y-89857142D02*
X102502438Y-89761904D01*
X102502438Y-89761904D02*
X102550057Y-89714285D01*
X102550057Y-89714285D02*
X102645295Y-89666666D01*
X102645295Y-89666666D02*
X102788152Y-89666666D01*
X102788152Y-89666666D02*
X102883390Y-89714285D01*
X102883390Y-89714285D02*
X102931009Y-89761904D01*
X102931009Y-89761904D02*
X102978628Y-89857142D01*
X102978628Y-89857142D02*
X102978628Y-90238094D01*
X102788152Y-88809523D02*
X103454819Y-88809523D01*
X102407200Y-89047618D02*
X103121485Y-89285713D01*
X103121485Y-89285713D02*
X103121485Y-88666666D01*
X76566666Y-82154819D02*
X76566666Y-82869104D01*
X76566666Y-82869104D02*
X76519047Y-83011961D01*
X76519047Y-83011961D02*
X76423809Y-83107200D01*
X76423809Y-83107200D02*
X76280952Y-83154819D01*
X76280952Y-83154819D02*
X76185714Y-83154819D01*
X76995238Y-82250057D02*
X77042857Y-82202438D01*
X77042857Y-82202438D02*
X77138095Y-82154819D01*
X77138095Y-82154819D02*
X77376190Y-82154819D01*
X77376190Y-82154819D02*
X77471428Y-82202438D01*
X77471428Y-82202438D02*
X77519047Y-82250057D01*
X77519047Y-82250057D02*
X77566666Y-82345295D01*
X77566666Y-82345295D02*
X77566666Y-82440533D01*
X77566666Y-82440533D02*
X77519047Y-82583390D01*
X77519047Y-82583390D02*
X76947619Y-83154819D01*
X76947619Y-83154819D02*
X77566666Y-83154819D01*
X110150057Y-68395238D02*
X110102438Y-68490476D01*
X110102438Y-68490476D02*
X110007200Y-68585714D01*
X110007200Y-68585714D02*
X109864342Y-68728571D01*
X109864342Y-68728571D02*
X109816723Y-68823809D01*
X109816723Y-68823809D02*
X109816723Y-68919047D01*
X110054819Y-68871428D02*
X110007200Y-68966666D01*
X110007200Y-68966666D02*
X109911961Y-69061904D01*
X109911961Y-69061904D02*
X109721485Y-69109523D01*
X109721485Y-69109523D02*
X109388152Y-69109523D01*
X109388152Y-69109523D02*
X109197676Y-69061904D01*
X109197676Y-69061904D02*
X109102438Y-68966666D01*
X109102438Y-68966666D02*
X109054819Y-68871428D01*
X109054819Y-68871428D02*
X109054819Y-68680952D01*
X109054819Y-68680952D02*
X109102438Y-68585714D01*
X109102438Y-68585714D02*
X109197676Y-68490476D01*
X109197676Y-68490476D02*
X109388152Y-68442857D01*
X109388152Y-68442857D02*
X109721485Y-68442857D01*
X109721485Y-68442857D02*
X109911961Y-68490476D01*
X109911961Y-68490476D02*
X110007200Y-68585714D01*
X110007200Y-68585714D02*
X110054819Y-68680952D01*
X110054819Y-68680952D02*
X110054819Y-68871428D01*
X110054819Y-67490476D02*
X110054819Y-68061904D01*
X110054819Y-67776190D02*
X109054819Y-67776190D01*
X109054819Y-67776190D02*
X109197676Y-67871428D01*
X109197676Y-67871428D02*
X109292914Y-67966666D01*
X109292914Y-67966666D02*
X109340533Y-68061904D01*
D10*
X108304318Y-110255619D02*
X109332413Y-110255619D01*
X109332413Y-110255619D02*
X109453365Y-110195142D01*
X109453365Y-110195142D02*
X109513842Y-110134666D01*
X109513842Y-110134666D02*
X109574318Y-110013714D01*
X109574318Y-110013714D02*
X109574318Y-109771809D01*
X109574318Y-109771809D02*
X109513842Y-109650857D01*
X109513842Y-109650857D02*
X109453365Y-109590380D01*
X109453365Y-109590380D02*
X109332413Y-109529904D01*
X109332413Y-109529904D02*
X108304318Y-109529904D01*
X108304318Y-109046095D02*
X108304318Y-108259904D01*
X108304318Y-108259904D02*
X108788127Y-108683238D01*
X108788127Y-108683238D02*
X108788127Y-108501809D01*
X108788127Y-108501809D02*
X108848603Y-108380857D01*
X108848603Y-108380857D02*
X108909080Y-108320381D01*
X108909080Y-108320381D02*
X109030032Y-108259904D01*
X109030032Y-108259904D02*
X109332413Y-108259904D01*
X109332413Y-108259904D02*
X109453365Y-108320381D01*
X109453365Y-108320381D02*
X109513842Y-108380857D01*
X109513842Y-108380857D02*
X109574318Y-108501809D01*
X109574318Y-108501809D02*
X109574318Y-108864666D01*
X109574318Y-108864666D02*
X109513842Y-108985619D01*
X109513842Y-108985619D02*
X109453365Y-109046095D01*
D11*
X124166666Y-59804819D02*
X123833333Y-59328628D01*
X123595238Y-59804819D02*
X123595238Y-58804819D01*
X123595238Y-58804819D02*
X123976190Y-58804819D01*
X123976190Y-58804819D02*
X124071428Y-58852438D01*
X124071428Y-58852438D02*
X124119047Y-58900057D01*
X124119047Y-58900057D02*
X124166666Y-58995295D01*
X124166666Y-58995295D02*
X124166666Y-59138152D01*
X124166666Y-59138152D02*
X124119047Y-59233390D01*
X124119047Y-59233390D02*
X124071428Y-59281009D01*
X124071428Y-59281009D02*
X123976190Y-59328628D01*
X123976190Y-59328628D02*
X123595238Y-59328628D01*
X124595238Y-59281009D02*
X124928571Y-59281009D01*
X125071428Y-59804819D02*
X124595238Y-59804819D01*
X124595238Y-59804819D02*
X124595238Y-58804819D01*
X124595238Y-58804819D02*
X125071428Y-58804819D01*
X125833333Y-59281009D02*
X125500000Y-59281009D01*
X125500000Y-59804819D02*
X125500000Y-58804819D01*
X125500000Y-58804819D02*
X125976190Y-58804819D01*
X126500000Y-58804819D02*
X126500000Y-59042914D01*
X126261905Y-58947676D02*
X126500000Y-59042914D01*
X126500000Y-59042914D02*
X126738095Y-58947676D01*
X126357143Y-59233390D02*
X126500000Y-59042914D01*
X126500000Y-59042914D02*
X126642857Y-59233390D01*
X127261905Y-58804819D02*
X127261905Y-59042914D01*
X127023810Y-58947676D02*
X127261905Y-59042914D01*
X127261905Y-59042914D02*
X127500000Y-58947676D01*
X127119048Y-59233390D02*
X127261905Y-59042914D01*
X127261905Y-59042914D02*
X127404762Y-59233390D01*
X114554819Y-89566666D02*
X114078628Y-89899999D01*
X114554819Y-90138094D02*
X113554819Y-90138094D01*
X113554819Y-90138094D02*
X113554819Y-89757142D01*
X113554819Y-89757142D02*
X113602438Y-89661904D01*
X113602438Y-89661904D02*
X113650057Y-89614285D01*
X113650057Y-89614285D02*
X113745295Y-89566666D01*
X113745295Y-89566666D02*
X113888152Y-89566666D01*
X113888152Y-89566666D02*
X113983390Y-89614285D01*
X113983390Y-89614285D02*
X114031009Y-89661904D01*
X114031009Y-89661904D02*
X114078628Y-89757142D01*
X114078628Y-89757142D02*
X114078628Y-90138094D01*
X113650057Y-89185713D02*
X113602438Y-89138094D01*
X113602438Y-89138094D02*
X113554819Y-89042856D01*
X113554819Y-89042856D02*
X113554819Y-88804761D01*
X113554819Y-88804761D02*
X113602438Y-88709523D01*
X113602438Y-88709523D02*
X113650057Y-88661904D01*
X113650057Y-88661904D02*
X113745295Y-88614285D01*
X113745295Y-88614285D02*
X113840533Y-88614285D01*
X113840533Y-88614285D02*
X113983390Y-88661904D01*
X113983390Y-88661904D02*
X114554819Y-89233332D01*
X114554819Y-89233332D02*
X114554819Y-88614285D01*
X119359580Y-89242857D02*
X119407200Y-89290476D01*
X119407200Y-89290476D02*
X119454819Y-89433333D01*
X119454819Y-89433333D02*
X119454819Y-89528571D01*
X119454819Y-89528571D02*
X119407200Y-89671428D01*
X119407200Y-89671428D02*
X119311961Y-89766666D01*
X119311961Y-89766666D02*
X119216723Y-89814285D01*
X119216723Y-89814285D02*
X119026247Y-89861904D01*
X119026247Y-89861904D02*
X118883390Y-89861904D01*
X118883390Y-89861904D02*
X118692914Y-89814285D01*
X118692914Y-89814285D02*
X118597676Y-89766666D01*
X118597676Y-89766666D02*
X118502438Y-89671428D01*
X118502438Y-89671428D02*
X118454819Y-89528571D01*
X118454819Y-89528571D02*
X118454819Y-89433333D01*
X118454819Y-89433333D02*
X118502438Y-89290476D01*
X118502438Y-89290476D02*
X118550057Y-89242857D01*
X118550057Y-88861904D02*
X118502438Y-88814285D01*
X118502438Y-88814285D02*
X118454819Y-88719047D01*
X118454819Y-88719047D02*
X118454819Y-88480952D01*
X118454819Y-88480952D02*
X118502438Y-88385714D01*
X118502438Y-88385714D02*
X118550057Y-88338095D01*
X118550057Y-88338095D02*
X118645295Y-88290476D01*
X118645295Y-88290476D02*
X118740533Y-88290476D01*
X118740533Y-88290476D02*
X118883390Y-88338095D01*
X118883390Y-88338095D02*
X119454819Y-88909523D01*
X119454819Y-88909523D02*
X119454819Y-88290476D01*
X118454819Y-87957142D02*
X118454819Y-87290476D01*
X118454819Y-87290476D02*
X119454819Y-87719047D01*
X108459580Y-89566666D02*
X108507200Y-89614285D01*
X108507200Y-89614285D02*
X108554819Y-89757142D01*
X108554819Y-89757142D02*
X108554819Y-89852380D01*
X108554819Y-89852380D02*
X108507200Y-89995237D01*
X108507200Y-89995237D02*
X108411961Y-90090475D01*
X108411961Y-90090475D02*
X108316723Y-90138094D01*
X108316723Y-90138094D02*
X108126247Y-90185713D01*
X108126247Y-90185713D02*
X107983390Y-90185713D01*
X107983390Y-90185713D02*
X107792914Y-90138094D01*
X107792914Y-90138094D02*
X107697676Y-90090475D01*
X107697676Y-90090475D02*
X107602438Y-89995237D01*
X107602438Y-89995237D02*
X107554819Y-89852380D01*
X107554819Y-89852380D02*
X107554819Y-89757142D01*
X107554819Y-89757142D02*
X107602438Y-89614285D01*
X107602438Y-89614285D02*
X107650057Y-89566666D01*
X107650057Y-89185713D02*
X107602438Y-89138094D01*
X107602438Y-89138094D02*
X107554819Y-89042856D01*
X107554819Y-89042856D02*
X107554819Y-88804761D01*
X107554819Y-88804761D02*
X107602438Y-88709523D01*
X107602438Y-88709523D02*
X107650057Y-88661904D01*
X107650057Y-88661904D02*
X107745295Y-88614285D01*
X107745295Y-88614285D02*
X107840533Y-88614285D01*
X107840533Y-88614285D02*
X107983390Y-88661904D01*
X107983390Y-88661904D02*
X108554819Y-89233332D01*
X108554819Y-89233332D02*
X108554819Y-88614285D01*
X124191666Y-78384819D02*
X124191666Y-79099104D01*
X124191666Y-79099104D02*
X124144047Y-79241961D01*
X124144047Y-79241961D02*
X124048809Y-79337200D01*
X124048809Y-79337200D02*
X123905952Y-79384819D01*
X123905952Y-79384819D02*
X123810714Y-79384819D01*
X124572619Y-78384819D02*
X125239285Y-78384819D01*
X125239285Y-78384819D02*
X124810714Y-79384819D01*
X97359580Y-89866666D02*
X97407200Y-89914285D01*
X97407200Y-89914285D02*
X97454819Y-90057142D01*
X97454819Y-90057142D02*
X97454819Y-90152380D01*
X97454819Y-90152380D02*
X97407200Y-90295237D01*
X97407200Y-90295237D02*
X97311961Y-90390475D01*
X97311961Y-90390475D02*
X97216723Y-90438094D01*
X97216723Y-90438094D02*
X97026247Y-90485713D01*
X97026247Y-90485713D02*
X96883390Y-90485713D01*
X96883390Y-90485713D02*
X96692914Y-90438094D01*
X96692914Y-90438094D02*
X96597676Y-90390475D01*
X96597676Y-90390475D02*
X96502438Y-90295237D01*
X96502438Y-90295237D02*
X96454819Y-90152380D01*
X96454819Y-90152380D02*
X96454819Y-90057142D01*
X96454819Y-90057142D02*
X96502438Y-89914285D01*
X96502438Y-89914285D02*
X96550057Y-89866666D01*
X96788152Y-89009523D02*
X97454819Y-89009523D01*
X96407200Y-89247618D02*
X97121485Y-89485713D01*
X97121485Y-89485713D02*
X97121485Y-88866666D01*
D10*
X99304318Y-95967619D02*
X100332413Y-95967619D01*
X100332413Y-95967619D02*
X100453365Y-95907142D01*
X100453365Y-95907142D02*
X100513842Y-95846666D01*
X100513842Y-95846666D02*
X100574318Y-95725714D01*
X100574318Y-95725714D02*
X100574318Y-95483809D01*
X100574318Y-95483809D02*
X100513842Y-95362857D01*
X100513842Y-95362857D02*
X100453365Y-95302380D01*
X100453365Y-95302380D02*
X100332413Y-95241904D01*
X100332413Y-95241904D02*
X99304318Y-95241904D01*
X99425270Y-94697619D02*
X99364794Y-94637143D01*
X99364794Y-94637143D02*
X99304318Y-94516190D01*
X99304318Y-94516190D02*
X99304318Y-94213809D01*
X99304318Y-94213809D02*
X99364794Y-94092857D01*
X99364794Y-94092857D02*
X99425270Y-94032381D01*
X99425270Y-94032381D02*
X99546222Y-93971904D01*
X99546222Y-93971904D02*
X99667175Y-93971904D01*
X99667175Y-93971904D02*
X99848603Y-94032381D01*
X99848603Y-94032381D02*
X100574318Y-94758095D01*
X100574318Y-94758095D02*
X100574318Y-93971904D01*
D12*
%TO.C,J5*%
X78725000Y-61000000D02*
X88725000Y-61000000D01*
X78725000Y-70000000D02*
X78725000Y-61000000D01*
X88725000Y-61000000D02*
X88725000Y-70000000D01*
X88725000Y-70000000D02*
X78725000Y-70000000D01*
D13*
X89225000Y-65000000D02*
X89225000Y-65000000D01*
X89325000Y-65000000D02*
X89325000Y-65000000D01*
X89225000Y-65000000D02*
G75*
G02*
X89325000Y-65000000I50000J0D01*
G01*
X89325000Y-65000000D02*
G75*
G02*
X89225000Y-65000000I-50000J0D01*
G01*
%TO.C,J6*%
X122500000Y-97775000D02*
G75*
G02*
X122500000Y-97675000I0J50000D01*
G01*
X122500000Y-97675000D02*
G75*
G02*
X122500000Y-97775000I0J-50000D01*
G01*
D12*
X127500000Y-108275000D02*
X118500000Y-108275000D01*
X127500000Y-98275000D02*
X127500000Y-108275000D01*
D13*
X122500000Y-97775000D02*
X122500000Y-97775000D01*
X122500000Y-97675000D02*
X122500000Y-97675000D01*
D12*
X118500000Y-108275000D02*
X118500000Y-98275000D01*
X118500000Y-98275000D02*
X127500000Y-98275000D01*
D14*
%TO.C,C7*%
X102370000Y-107576748D02*
X102370000Y-108999252D01*
X104190000Y-107576748D02*
X104190000Y-108999252D01*
%TO.C,J1*%
X75620000Y-105270000D02*
X75620000Y-97540000D01*
X78380000Y-97540000D02*
X75620000Y-97540000D01*
X78380000Y-105270000D02*
X75620000Y-105270000D01*
X78380000Y-105270000D02*
X78380000Y-97540000D01*
X78380000Y-106540000D02*
X78380000Y-107920000D01*
X78380000Y-107920000D02*
X77000000Y-107920000D01*
%TO.C,Q2*%
X98525000Y-70975000D02*
X98525000Y-77395000D01*
X98525000Y-77395000D02*
X98795000Y-77395000D01*
X105425000Y-70975000D02*
X105425000Y-77395000D01*
X105425000Y-77395000D02*
X105155000Y-77395000D01*
X98835000Y-79125000D02*
X98365000Y-79465000D01*
X98365000Y-78785000D01*
X98835000Y-79125000D01*
G36*
X98835000Y-79125000D02*
G01*
X98365000Y-79465000D01*
X98365000Y-78785000D01*
X98835000Y-79125000D01*
G37*
%TO.C,C28*%
X117090000Y-113711252D02*
X117090000Y-112288748D01*
X118910000Y-113711252D02*
X118910000Y-112288748D01*
%TO.C,R10*%
X124090000Y-112272936D02*
X124090000Y-113727064D01*
X125910000Y-112272936D02*
X125910000Y-113727064D01*
%TO.C,Q7*%
X95220000Y-127390000D02*
X95490000Y-127390000D01*
X95220000Y-133810000D02*
X95220000Y-127390000D01*
X102120000Y-127390000D02*
X101850000Y-127390000D01*
X102120000Y-133810000D02*
X102120000Y-127390000D01*
X102280000Y-126000000D02*
X101810000Y-125660000D01*
X102280000Y-125320000D01*
X102280000Y-126000000D01*
G36*
X102280000Y-126000000D02*
G01*
X101810000Y-125660000D01*
X102280000Y-125320000D01*
X102280000Y-126000000D01*
G37*
%TO.C,R3*%
X99090000Y-86727064D02*
X99090000Y-85272936D01*
X100910000Y-86727064D02*
X100910000Y-85272936D01*
%TO.C,C6*%
X110090000Y-116788748D02*
X110090000Y-118211252D01*
X111910000Y-116788748D02*
X111910000Y-118211252D01*
%TO.C,C1*%
X106810000Y-95761252D02*
X106810000Y-94338748D01*
X108630000Y-95761252D02*
X108630000Y-94338748D01*
%TO.C,C5*%
X113090000Y-107288748D02*
X113090000Y-108711252D01*
X114910000Y-107288748D02*
X114910000Y-108711252D01*
%TO.C,C14*%
X89288748Y-102090000D02*
X90711252Y-102090000D01*
X89288748Y-103910000D02*
X90711252Y-103910000D01*
%TO.C,J3*%
X91445000Y-60620000D02*
X91445000Y-63380000D01*
X104255000Y-60620000D02*
X91445000Y-60620000D01*
X104255000Y-60620000D02*
X104255000Y-63380000D01*
X104255000Y-63380000D02*
X91445000Y-63380000D01*
X105525000Y-60620000D02*
X106905000Y-60620000D01*
X106905000Y-60620000D02*
X106905000Y-62000000D01*
D12*
%TO.C,U1*%
X110395000Y-98475000D02*
X110395000Y-96950000D01*
X110550000Y-93400000D02*
X115450000Y-93400000D01*
X110550000Y-96600000D02*
X110550000Y-93400000D01*
X115450000Y-93400000D02*
X115450000Y-96600000D01*
X115450000Y-96600000D02*
X110550000Y-96600000D01*
%TO.C,U4*%
X95830000Y-107688000D02*
X100730000Y-107688000D01*
X95830000Y-110888000D02*
X95830000Y-107688000D01*
X100730000Y-107688000D02*
X100730000Y-110888000D01*
X100730000Y-110888000D02*
X95830000Y-110888000D01*
X100885000Y-105813000D02*
X100885000Y-107338000D01*
D14*
%TO.C,R6*%
X104090000Y-116772936D02*
X104090000Y-118227064D01*
X105910000Y-116772936D02*
X105910000Y-118227064D01*
%TO.C,R9*%
X126090000Y-94727064D02*
X126090000Y-93272936D01*
X127910000Y-94727064D02*
X127910000Y-93272936D01*
%TO.C,Q3*%
X113622500Y-71215000D02*
X113622500Y-77635000D01*
X113622500Y-77635000D02*
X113892500Y-77635000D01*
X120522500Y-71215000D02*
X120522500Y-77635000D01*
X120522500Y-77635000D02*
X120252500Y-77635000D01*
X113932500Y-79365000D02*
X113462500Y-79705000D01*
X113462500Y-79025000D01*
X113932500Y-79365000D01*
G36*
X113932500Y-79365000D02*
G01*
X113462500Y-79705000D01*
X113462500Y-79025000D01*
X113932500Y-79365000D01*
G37*
%TO.C,C3*%
X104090000Y-95711252D02*
X104090000Y-94288748D01*
X105910000Y-95711252D02*
X105910000Y-94288748D01*
%TO.C,Y1*%
X83800000Y-105565000D02*
X90200000Y-105565000D01*
X83800000Y-110435000D02*
X90200000Y-110435000D01*
X83800000Y-110435000D02*
G75*
G02*
X83800000Y-105565000I0J2435000D01*
G01*
X90200000Y-105565000D02*
G75*
G02*
X90200000Y-110435000I0J-2435000D01*
G01*
%TO.C,C8*%
X99090000Y-116788748D02*
X99090000Y-118211252D01*
X100910000Y-116788748D02*
X100910000Y-118211252D01*
%TO.C,C13*%
X84711252Y-102090000D02*
X83288748Y-102090000D01*
X84711252Y-103910000D02*
X83288748Y-103910000D01*
%TO.C,Q5*%
X103025000Y-127430000D02*
X103295000Y-127430000D01*
X103025000Y-133850000D02*
X103025000Y-127430000D01*
X109925000Y-127430000D02*
X109655000Y-127430000D01*
X109925000Y-133850000D02*
X109925000Y-127430000D01*
X110085000Y-126040000D02*
X109615000Y-125700000D01*
X110085000Y-125360000D01*
X110085000Y-126040000D01*
G36*
X110085000Y-126040000D02*
G01*
X109615000Y-125700000D01*
X110085000Y-125360000D01*
X110085000Y-126040000D01*
G37*
%TO.C,Q6*%
X110465000Y-127390000D02*
X110735000Y-127390000D01*
X110465000Y-133810000D02*
X110465000Y-127390000D01*
X117365000Y-127390000D02*
X117095000Y-127390000D01*
X117365000Y-133810000D02*
X117365000Y-127390000D01*
X117525000Y-126000000D02*
X117055000Y-125660000D01*
X117525000Y-125320000D01*
X117525000Y-126000000D01*
G36*
X117525000Y-126000000D02*
G01*
X117055000Y-125660000D01*
X117525000Y-125320000D01*
X117525000Y-126000000D01*
G37*
%TO.C,R5*%
X107090000Y-116772936D02*
X107090000Y-118227064D01*
X108910000Y-116772936D02*
X108910000Y-118227064D01*
%TO.C,R8*%
X93090000Y-116772936D02*
X93090000Y-118227064D01*
X94910000Y-116772936D02*
X94910000Y-118227064D01*
%TO.C,Q4*%
X91122500Y-71050000D02*
X91122500Y-77470000D01*
X91122500Y-77470000D02*
X91392500Y-77470000D01*
X98022500Y-71050000D02*
X98022500Y-77470000D01*
X98022500Y-77470000D02*
X97752500Y-77470000D01*
X91432500Y-79200000D02*
X90962500Y-79540000D01*
X90962500Y-78860000D01*
X91432500Y-79200000D01*
G36*
X91432500Y-79200000D02*
G01*
X90962500Y-79540000D01*
X90962500Y-78860000D01*
X91432500Y-79200000D01*
G37*
%TO.C,U5*%
X84390000Y-91552500D02*
X84840000Y-91552500D01*
X84390000Y-92002500D02*
X84390000Y-91552500D01*
X84390000Y-98322500D02*
X84390000Y-98772500D01*
X84390000Y-98772500D02*
X84840000Y-98772500D01*
X91610000Y-91552500D02*
X91160000Y-91552500D01*
X91610000Y-92002500D02*
X91610000Y-91552500D01*
X91610000Y-98322500D02*
X91610000Y-98772500D01*
X91610000Y-98772500D02*
X91160000Y-98772500D01*
X84840000Y-99362500D02*
X84370000Y-99702500D01*
X84370000Y-99022500D01*
X84840000Y-99362500D01*
G36*
X84840000Y-99362500D02*
G01*
X84370000Y-99702500D01*
X84370000Y-99022500D01*
X84840000Y-99362500D01*
G37*
%TO.C,R7*%
X96090000Y-116772936D02*
X96090000Y-118227064D01*
X97910000Y-116772936D02*
X97910000Y-118227064D01*
%TO.C,U7*%
X120640000Y-110840000D02*
X122050000Y-110840000D01*
X120650000Y-113160000D02*
X122050000Y-113160000D01*
X120270000Y-110890000D02*
X120030000Y-110560000D01*
X120510000Y-110560000D01*
X120270000Y-110890000D01*
G36*
X120270000Y-110890000D02*
G01*
X120030000Y-110560000D01*
X120510000Y-110560000D01*
X120270000Y-110890000D01*
G37*
%TO.C,U6*%
X122290000Y-92840000D02*
X123700000Y-92840000D01*
X122300000Y-95160000D02*
X123700000Y-95160000D01*
X121920000Y-92890000D02*
X121680000Y-92560000D01*
X122160000Y-92560000D01*
X121920000Y-92890000D01*
G36*
X121920000Y-92890000D02*
G01*
X121680000Y-92560000D01*
X122160000Y-92560000D01*
X121920000Y-92890000D01*
G37*
%TO.C,R1*%
X109810000Y-86777064D02*
X109810000Y-85322936D01*
X111630000Y-86777064D02*
X111630000Y-85322936D01*
%TO.C,Q8*%
X87025000Y-127430000D02*
X87295000Y-127430000D01*
X87025000Y-133850000D02*
X87025000Y-127430000D01*
X93925000Y-127430000D02*
X93655000Y-127430000D01*
X93925000Y-133850000D02*
X93925000Y-127430000D01*
X94085000Y-126040000D02*
X93615000Y-125700000D01*
X94085000Y-125360000D01*
X94085000Y-126040000D01*
G36*
X94085000Y-126040000D02*
G01*
X93615000Y-125700000D01*
X94085000Y-125360000D01*
X94085000Y-126040000D01*
G37*
%TO.C,J4*%
X87040000Y-140120000D02*
X87040000Y-142880000D01*
X99850000Y-140120000D02*
X87040000Y-140120000D01*
X99850000Y-140120000D02*
X99850000Y-142880000D01*
X99850000Y-142880000D02*
X87040000Y-142880000D01*
X101120000Y-140120000D02*
X102500000Y-140120000D01*
X102500000Y-140120000D02*
X102500000Y-141500000D01*
%TO.C,R4*%
X102090000Y-86727064D02*
X102090000Y-85272936D01*
X103910000Y-86727064D02*
X103910000Y-85272936D01*
%TO.C,J2*%
X75620000Y-83810000D02*
X77000000Y-83810000D01*
X75620000Y-85190000D02*
X75620000Y-83810000D01*
X75620000Y-86460000D02*
X75620000Y-94190000D01*
X75620000Y-86460000D02*
X78380000Y-86460000D01*
X75620000Y-94190000D02*
X78380000Y-94190000D01*
X78380000Y-86460000D02*
X78380000Y-94190000D01*
%TO.C,Q1*%
X106122500Y-71215000D02*
X106122500Y-77635000D01*
X106122500Y-77635000D02*
X106392500Y-77635000D01*
X113022500Y-71215000D02*
X113022500Y-77635000D01*
X113022500Y-77635000D02*
X112752500Y-77635000D01*
X106432500Y-79365000D02*
X105962500Y-79705000D01*
X105962500Y-79025000D01*
X106432500Y-79365000D01*
G36*
X106432500Y-79365000D02*
G01*
X105962500Y-79705000D01*
X105962500Y-79025000D01*
X106432500Y-79365000D01*
G37*
D12*
%TO.C,U3*%
X106550000Y-107688000D02*
X111450000Y-107688000D01*
X106550000Y-110888000D02*
X106550000Y-107688000D01*
X111450000Y-107688000D02*
X111450000Y-110888000D01*
X111450000Y-110888000D02*
X106550000Y-110888000D01*
X111605000Y-105813000D02*
X111605000Y-107338000D01*
D14*
%TO.C,R2*%
X113090000Y-86727064D02*
X113090000Y-85272936D01*
X114910000Y-86727064D02*
X114910000Y-85272936D01*
%TO.C,C27*%
X118090000Y-93711252D02*
X118090000Y-92288748D01*
X119910000Y-93711252D02*
X119910000Y-92288748D01*
%TO.C,C2*%
X107090000Y-86711252D02*
X107090000Y-85288748D01*
X108910000Y-86711252D02*
X108910000Y-85288748D01*
%TO.C,J7*%
X123195000Y-82970000D02*
X123195000Y-90650000D01*
X123195000Y-82970000D02*
X125855000Y-82970000D01*
X123195000Y-90650000D02*
X125855000Y-90650000D01*
X124525000Y-80370000D02*
X125855000Y-80370000D01*
X125855000Y-80370000D02*
X125855000Y-81700000D01*
X125855000Y-82970000D02*
X125855000Y-90650000D01*
%TO.C,C4*%
X96090000Y-86711252D02*
X96090000Y-85288748D01*
X97910000Y-86711252D02*
X97910000Y-85288748D01*
D12*
%TO.C,U2*%
X97395000Y-98475000D02*
X97395000Y-96950000D01*
X97550000Y-93400000D02*
X102450000Y-93400000D01*
X97550000Y-96600000D02*
X97550000Y-93400000D01*
X102450000Y-93400000D02*
X102450000Y-96600000D01*
X102450000Y-96600000D02*
X97550000Y-96600000D01*
%TD*%
M02*
