M48
; DRILL file {KiCad 9.0.2} date 2025-07-04T17:20:07+0200
; FORMAT={-:-/ absolute / metric / decimal}
; #@! TF.CreationDate,2025-07-04T17:20:07+02:00
; #@! TF.GenerationSoftware,Kicad,Pcbnew,9.0.2
; #@! TF.FileFunction,Plated,1,2,PTH
FMAT,2
METRIC
; #@! TA.AperFunction,Plated,PTH,ViaDrill
T1C0.200
; #@! TA.AperFunction,Plated,PTH,ViaDrill
T2C0.300
; #@! TA.AperFunction,Plated,PTH,ComponentDrill
T3C0.800
; #@! TA.AperFunction,Plated,PTH,ComponentDrill
T4C1.000
; #@! TA.AperFunction,Plated,PTH,ComponentDrill
T5C1.300
%
G90
G05
T1
X82.0Y-98.0
X83.0Y-90.0
X85.0Y-89.4
X86.0Y-92.5
X87.5Y-94.4
X89.0Y-93.9
X89.6Y-101.0
X92.55Y-91.45
X94.0Y-94.0
X94.4Y-94.6
X94.6Y-95.4
X118.2Y-96.0
T2
X77.4Y-71.7
X77.8Y-75.1
X77.8Y-133.2
X79.2Y-97.8
X79.2Y-137.8
X79.3Y-111.2
X79.4Y-86.9
X79.5Y-92.0
X79.5Y-93.5
X80.4Y-107.1
X80.7Y-105.3
X81.5Y-92.0
X83.7Y-71.4
X85.1Y-67.9
X88.2Y-81.6
X88.9Y-120.2
X89.0Y-74.3
X90.2Y-136.6
X90.3Y-62.9
X90.4Y-81.5
X90.6Y-120.2
X91.6Y-136.6
X95.3Y-89.2
X95.8Y-120.8
X96.0Y-105.0
X96.1Y-143.8
X96.6Y-98.2
X97.0Y-83.0
X97.0Y-114.0
X99.0Y-121.0
X99.1Y-65.5
X99.9Y-81.6
X100.115Y-90.0
X101.0Y-122.0
X102.195Y-131.96
X102.8Y-118.4
X102.8Y-120.4
X103.195Y-131.96
X103.5Y-97.7
X103.963Y-105.037
X104.0Y-69.0
X104.0Y-81.5
X105.6Y-83.2
X106.0Y-121.0
X107.0Y-69.0
X108.0Y-83.0
X108.0Y-114.0
X109.8Y-92.4
X110.0Y-81.0
X110.0Y-120.25
X112.2Y-103.3
X112.7Y-123.4
X114.4Y-116.9
X115.0Y-114.0
X115.3Y-118.5
X115.7Y-67.2
X116.0Y-96.4
X116.0Y-106.0
X116.0Y-123.0
X116.2Y-99.4
X117.6Y-82.6
X117.7Y-86.3
X117.8Y-100.1
X117.9Y-107.1
X118.5Y-64.3
X119.1Y-109.5
X119.3Y-97.4
X119.3Y-103.1
X119.8Y-122.2
X120.5Y-92.9
X120.6Y-96.4
X121.7Y-82.6
X123.0Y-122.0
X124.2Y-96.8
X124.5Y-91.7
X125.0Y-109.3
X125.6Y-123.0
X127.0Y-82.5
X127.0Y-97.4
X127.9Y-79.3
T3
X84.56Y-108.0
X89.44Y-108.0
T4
X77.0Y-85.19
X77.0Y-87.73
X77.0Y-90.27
X77.0Y-92.81
X77.0Y-98.92
X77.0Y-101.46
X77.0Y-104.0
X77.0Y-106.54
X88.42Y-141.5
X90.96Y-141.5
X92.825Y-62.0
X93.5Y-141.5
X95.365Y-62.0
X96.04Y-141.5
X97.905Y-62.0
X98.58Y-141.5
X100.445Y-62.0
X101.12Y-141.5
X102.985Y-62.0
X105.525Y-62.0
X124.525Y-81.7
X124.525Y-84.24
X124.525Y-86.78
X124.525Y-89.32
T5
X81.225Y-65.0
X86.225Y-65.0
X122.5Y-100.775
X122.5Y-105.775
M30
