%TF.GenerationSoftware,KiCad,Pcbnew,9.0.2*%
%TF.CreationDate,2025-07-04T17:20:10+02:00*%
%TF.ProjectId,DC_driver,44435f64-7269-4766-9572-2e6b69636164,rev?*%
%TF.SameCoordinates,Original*%
%TF.FileFunction,Soldermask,Bot*%
%TF.FilePolarity,Negative*%
%FSLAX46Y46*%
G04 Gerber Fmt 4.6, Leading zero omitted, Abs format (unit mm)*
G04 Created by KiCad (PCBNEW 9.0.2) date 2025-07-04 17:20:10*
%MOMM*%
%LPD*%
G01*
G04 APERTURE LIST*
G04 Aperture macros list*
%AMRoundRect*
0 Rectangle with rounded corners*
0 $1 Rounding radius*
0 $2 $3 $4 $5 $6 $7 $8 $9 X,Y pos of 4 corners*
0 Add a 4 corners polygon primitive as box body*
4,1,4,$2,$3,$4,$5,$6,$7,$8,$9,$2,$3,0*
0 Add four circle primitives for the rounded corners*
1,1,$1+$1,$2,$3*
1,1,$1+$1,$4,$5*
1,1,$1+$1,$6,$7*
1,1,$1+$1,$8,$9*
0 Add four rect primitives between the rounded corners*
20,1,$1+$1,$2,$3,$4,$5,0*
20,1,$1+$1,$4,$5,$6,$7,0*
20,1,$1+$1,$6,$7,$8,$9,0*
20,1,$1+$1,$8,$9,$2,$3,0*%
G04 Aperture macros list end*
%ADD10RoundRect,0.250001X-0.624999X0.462499X-0.624999X-0.462499X0.624999X-0.462499X0.624999X0.462499X0*%
%ADD11C,1.950000*%
%ADD12R,1.950000X1.950000*%
%ADD13C,1.700000*%
%ADD14R,1.700000X1.700000*%
%ADD15C,2.200000*%
%ADD16C,1.500000*%
%ADD17RoundRect,0.250000X-0.650000X1.500000X-0.650000X-1.500000X0.650000X-1.500000X0.650000X1.500000X0*%
%ADD18RoundRect,0.250000X-0.650000X0.412500X-0.650000X-0.412500X0.650000X-0.412500X0.650000X0.412500X0*%
%ADD19RoundRect,0.250000X0.650000X-0.412500X0.650000X0.412500X-0.650000X0.412500X-0.650000X-0.412500X0*%
%ADD20R,2.450000X5.550000*%
%ADD21RoundRect,0.250000X-0.625000X0.400000X-0.625000X-0.400000X0.625000X-0.400000X0.625000X0.400000X0*%
%ADD22RoundRect,0.250000X0.650000X-1.500000X0.650000X1.500000X-0.650000X1.500000X-0.650000X-1.500000X0*%
%ADD23RoundRect,0.250000X-0.412500X-0.650000X0.412500X-0.650000X0.412500X0.650000X-0.412500X0.650000X0*%
%ADD24RoundRect,0.250000X0.412500X0.650000X-0.412500X0.650000X-0.412500X-0.650000X0.412500X-0.650000X0*%
G04 APERTURE END LIST*
D10*
%TO.C,F1*%
X125700000Y-101112500D03*
X125700000Y-104087500D03*
%TD*%
D11*
%TO.C,J5*%
X86225000Y-65000000D03*
D12*
X81225000Y-65000000D03*
%TD*%
%TO.C,J6*%
X122500000Y-105775000D03*
D11*
X122500000Y-100775000D03*
%TD*%
D13*
%TO.C,J1*%
X77000000Y-106540000D03*
X77000000Y-104000000D03*
X77000000Y-101460000D03*
D14*
X77000000Y-98920000D03*
%TD*%
D15*
%TO.C,REF\u002A\u002A*%
X125000000Y-141500000D03*
%TD*%
%TO.C,REF\u002A\u002A*%
X76000000Y-141500000D03*
%TD*%
D13*
%TO.C,J3*%
X105525000Y-62000000D03*
X102985000Y-62000000D03*
D14*
X100445000Y-62000000D03*
D13*
X97905000Y-62000000D03*
X95365000Y-62000000D03*
X92825000Y-62000000D03*
%TD*%
D16*
%TO.C,Y1*%
X84560000Y-108000000D03*
X89440000Y-108000000D03*
%TD*%
D15*
%TO.C,REF\u002A\u002A*%
X75000000Y-62500000D03*
%TD*%
D13*
%TO.C,J4*%
X101120000Y-141500000D03*
X98580000Y-141500000D03*
D14*
X96040000Y-141500000D03*
D13*
X93500000Y-141500000D03*
X90960000Y-141500000D03*
X88420000Y-141500000D03*
%TD*%
%TO.C,J2*%
X77000000Y-85190000D03*
X77000000Y-87730000D03*
X77000000Y-90270000D03*
D14*
X77000000Y-92810000D03*
%TD*%
D15*
%TO.C,REF\u002A\u002A*%
X125500000Y-62500000D03*
%TD*%
D13*
%TO.C,J7*%
X124525000Y-81700000D03*
X124525000Y-84240000D03*
X124525000Y-86780000D03*
D14*
X124525000Y-89320000D03*
%TD*%
D17*
%TO.C,D7*%
X84195000Y-128000000D03*
X84195000Y-133000000D03*
%TD*%
D18*
%TO.C,C29*%
X96000000Y-93437500D03*
X96000000Y-96562500D03*
%TD*%
D19*
%TO.C,C10*%
X81000000Y-141862500D03*
X81000000Y-138737500D03*
%TD*%
D20*
%TO.C,C23*%
X112500000Y-69200000D03*
X112500000Y-79000000D03*
%TD*%
D21*
%TO.C,R14*%
X108100000Y-93450000D03*
X108100000Y-96550000D03*
%TD*%
D19*
%TO.C,C22*%
X81500000Y-86062500D03*
X81500000Y-82937500D03*
%TD*%
D22*
%TO.C,D2*%
X85525000Y-79000000D03*
X85525000Y-74000000D03*
%TD*%
D23*
%TO.C,C16*%
X91437500Y-105000000D03*
X94562500Y-105000000D03*
%TD*%
D19*
%TO.C,C9*%
X84000000Y-141862500D03*
X84000000Y-138737500D03*
%TD*%
D17*
%TO.C,D3*%
X126500000Y-71500000D03*
X126500000Y-76500000D03*
%TD*%
D20*
%TO.C,C24*%
X97160000Y-69200000D03*
X97160000Y-79000000D03*
%TD*%
D22*
%TO.C,D8*%
X80195000Y-133000000D03*
X80195000Y-128000000D03*
%TD*%
D20*
%TO.C,C26*%
X94195000Y-134200000D03*
X94195000Y-124400000D03*
%TD*%
D23*
%TO.C,C20*%
X85000000Y-87000000D03*
X88125000Y-87000000D03*
%TD*%
D21*
%TO.C,R11*%
X105500000Y-87450000D03*
X105500000Y-90550000D03*
%TD*%
D18*
%TO.C,C31*%
X102000000Y-93437500D03*
X102000000Y-96562500D03*
%TD*%
D21*
%TO.C,R13*%
X108200000Y-87450000D03*
X108200000Y-90550000D03*
%TD*%
D20*
%TO.C,C25*%
X110200000Y-134200000D03*
X110200000Y-124400000D03*
%TD*%
D21*
%TO.C,R12*%
X105500000Y-93450000D03*
X105500000Y-96550000D03*
%TD*%
D24*
%TO.C,C17*%
X93562500Y-87000000D03*
X90437500Y-87000000D03*
%TD*%
D18*
%TO.C,C30*%
X99000000Y-93437500D03*
X99000000Y-96562500D03*
%TD*%
D23*
%TO.C,C21*%
X85000000Y-84000000D03*
X88125000Y-84000000D03*
%TD*%
%TO.C,C15*%
X91437500Y-102000000D03*
X94562500Y-102000000D03*
%TD*%
D17*
%TO.C,D5*%
X121195000Y-128000000D03*
X121195000Y-133000000D03*
%TD*%
D18*
%TO.C,C19*%
X82000000Y-99437500D03*
X82000000Y-102562500D03*
%TD*%
D22*
%TO.C,D6*%
X125195000Y-133000000D03*
X125195000Y-128000000D03*
%TD*%
D21*
%TO.C,R16*%
X117800000Y-90650000D03*
X117800000Y-93750000D03*
%TD*%
D22*
%TO.C,D1*%
X122500000Y-76500000D03*
X122500000Y-71500000D03*
%TD*%
D18*
%TO.C,C12*%
X111525000Y-60437500D03*
X111525000Y-63562500D03*
%TD*%
D17*
%TO.C,D4*%
X81525000Y-74000000D03*
X81525000Y-79000000D03*
%TD*%
D21*
%TO.C,R15*%
X120500000Y-87350000D03*
X120500000Y-90450000D03*
%TD*%
D24*
%TO.C,C18*%
X93562500Y-84000000D03*
X90437500Y-84000000D03*
%TD*%
D18*
%TO.C,C11*%
X115525000Y-60437500D03*
X115525000Y-63562500D03*
%TD*%
M02*
