%TF.GenerationSoftware,KiCad,Pcbnew,9.0.2*%
%TF.CreationDate,2025-07-04T17:20:10+02:00*%
%TF.ProjectId,DC_driver,44435f64-7269-4766-9572-2e6b69636164,rev?*%
%TF.SameCoordinates,Original*%
%TF.FileFunction,Legend,Bot*%
%TF.FilePolarity,Positive*%
%FSLAX46Y46*%
G04 Gerber Fmt 4.6, Leading zero omitted, Abs format (unit mm)*
G04 Created by KiCad (PCBNEW 9.0.2) date 2025-07-04 17:20:10*
%MOMM*%
%LPD*%
G01*
G04 APERTURE LIST*
%ADD10C,0.150000*%
%ADD11C,0.254000*%
%ADD12C,0.120000*%
%ADD13C,0.200000*%
G04 APERTURE END LIST*
D10*
X123801009Y-102266666D02*
X123801009Y-101933333D01*
X124324819Y-101933333D02*
X123324819Y-101933333D01*
X123324819Y-101933333D02*
X123324819Y-102409523D01*
X124324819Y-103314285D02*
X124324819Y-102742857D01*
X124324819Y-103028571D02*
X123324819Y-103028571D01*
X123324819Y-103028571D02*
X123467676Y-102933333D01*
X123467676Y-102933333D02*
X123562914Y-102838095D01*
X123562914Y-102838095D02*
X123610533Y-102742857D01*
X84654819Y-123961905D02*
X83654819Y-123961905D01*
X83654819Y-123961905D02*
X83654819Y-124200000D01*
X83654819Y-124200000D02*
X83702438Y-124342857D01*
X83702438Y-124342857D02*
X83797676Y-124438095D01*
X83797676Y-124438095D02*
X83892914Y-124485714D01*
X83892914Y-124485714D02*
X84083390Y-124533333D01*
X84083390Y-124533333D02*
X84226247Y-124533333D01*
X84226247Y-124533333D02*
X84416723Y-124485714D01*
X84416723Y-124485714D02*
X84511961Y-124438095D01*
X84511961Y-124438095D02*
X84607200Y-124342857D01*
X84607200Y-124342857D02*
X84654819Y-124200000D01*
X84654819Y-124200000D02*
X84654819Y-123961905D01*
X83654819Y-124866667D02*
X83654819Y-125533333D01*
X83654819Y-125533333D02*
X84654819Y-125104762D01*
X96359580Y-90357142D02*
X96407200Y-90309523D01*
X96407200Y-90309523D02*
X96454819Y-90166666D01*
X96454819Y-90166666D02*
X96454819Y-90071428D01*
X96454819Y-90071428D02*
X96407200Y-89928571D01*
X96407200Y-89928571D02*
X96311961Y-89833333D01*
X96311961Y-89833333D02*
X96216723Y-89785714D01*
X96216723Y-89785714D02*
X96026247Y-89738095D01*
X96026247Y-89738095D02*
X95883390Y-89738095D01*
X95883390Y-89738095D02*
X95692914Y-89785714D01*
X95692914Y-89785714D02*
X95597676Y-89833333D01*
X95597676Y-89833333D02*
X95502438Y-89928571D01*
X95502438Y-89928571D02*
X95454819Y-90071428D01*
X95454819Y-90071428D02*
X95454819Y-90166666D01*
X95454819Y-90166666D02*
X95502438Y-90309523D01*
X95502438Y-90309523D02*
X95550057Y-90357142D01*
X95550057Y-90738095D02*
X95502438Y-90785714D01*
X95502438Y-90785714D02*
X95454819Y-90880952D01*
X95454819Y-90880952D02*
X95454819Y-91119047D01*
X95454819Y-91119047D02*
X95502438Y-91214285D01*
X95502438Y-91214285D02*
X95550057Y-91261904D01*
X95550057Y-91261904D02*
X95645295Y-91309523D01*
X95645295Y-91309523D02*
X95740533Y-91309523D01*
X95740533Y-91309523D02*
X95883390Y-91261904D01*
X95883390Y-91261904D02*
X96454819Y-90690476D01*
X96454819Y-90690476D02*
X96454819Y-91309523D01*
X96454819Y-91785714D02*
X96454819Y-91976190D01*
X96454819Y-91976190D02*
X96407200Y-92071428D01*
X96407200Y-92071428D02*
X96359580Y-92119047D01*
X96359580Y-92119047D02*
X96216723Y-92214285D01*
X96216723Y-92214285D02*
X96026247Y-92261904D01*
X96026247Y-92261904D02*
X95645295Y-92261904D01*
X95645295Y-92261904D02*
X95550057Y-92214285D01*
X95550057Y-92214285D02*
X95502438Y-92166666D01*
X95502438Y-92166666D02*
X95454819Y-92071428D01*
X95454819Y-92071428D02*
X95454819Y-91880952D01*
X95454819Y-91880952D02*
X95502438Y-91785714D01*
X95502438Y-91785714D02*
X95550057Y-91738095D01*
X95550057Y-91738095D02*
X95645295Y-91690476D01*
X95645295Y-91690476D02*
X95883390Y-91690476D01*
X95883390Y-91690476D02*
X95978628Y-91738095D01*
X95978628Y-91738095D02*
X96026247Y-91785714D01*
X96026247Y-91785714D02*
X96073866Y-91880952D01*
X96073866Y-91880952D02*
X96073866Y-92071428D01*
X96073866Y-92071428D02*
X96026247Y-92166666D01*
X96026247Y-92166666D02*
X95978628Y-92214285D01*
X95978628Y-92214285D02*
X95883390Y-92261904D01*
X79459580Y-139557142D02*
X79507200Y-139509523D01*
X79507200Y-139509523D02*
X79554819Y-139366666D01*
X79554819Y-139366666D02*
X79554819Y-139271428D01*
X79554819Y-139271428D02*
X79507200Y-139128571D01*
X79507200Y-139128571D02*
X79411961Y-139033333D01*
X79411961Y-139033333D02*
X79316723Y-138985714D01*
X79316723Y-138985714D02*
X79126247Y-138938095D01*
X79126247Y-138938095D02*
X78983390Y-138938095D01*
X78983390Y-138938095D02*
X78792914Y-138985714D01*
X78792914Y-138985714D02*
X78697676Y-139033333D01*
X78697676Y-139033333D02*
X78602438Y-139128571D01*
X78602438Y-139128571D02*
X78554819Y-139271428D01*
X78554819Y-139271428D02*
X78554819Y-139366666D01*
X78554819Y-139366666D02*
X78602438Y-139509523D01*
X78602438Y-139509523D02*
X78650057Y-139557142D01*
X79554819Y-140509523D02*
X79554819Y-139938095D01*
X79554819Y-140223809D02*
X78554819Y-140223809D01*
X78554819Y-140223809D02*
X78697676Y-140128571D01*
X78697676Y-140128571D02*
X78792914Y-140033333D01*
X78792914Y-140033333D02*
X78840533Y-139938095D01*
X78554819Y-141128571D02*
X78554819Y-141223809D01*
X78554819Y-141223809D02*
X78602438Y-141319047D01*
X78602438Y-141319047D02*
X78650057Y-141366666D01*
X78650057Y-141366666D02*
X78745295Y-141414285D01*
X78745295Y-141414285D02*
X78935771Y-141461904D01*
X78935771Y-141461904D02*
X79173866Y-141461904D01*
X79173866Y-141461904D02*
X79364342Y-141414285D01*
X79364342Y-141414285D02*
X79459580Y-141366666D01*
X79459580Y-141366666D02*
X79507200Y-141319047D01*
X79507200Y-141319047D02*
X79554819Y-141223809D01*
X79554819Y-141223809D02*
X79554819Y-141128571D01*
X79554819Y-141128571D02*
X79507200Y-141033333D01*
X79507200Y-141033333D02*
X79459580Y-140985714D01*
X79459580Y-140985714D02*
X79364342Y-140938095D01*
X79364342Y-140938095D02*
X79173866Y-140890476D01*
X79173866Y-140890476D02*
X78935771Y-140890476D01*
X78935771Y-140890476D02*
X78745295Y-140938095D01*
X78745295Y-140938095D02*
X78650057Y-140985714D01*
X78650057Y-140985714D02*
X78602438Y-141033333D01*
X78602438Y-141033333D02*
X78554819Y-141128571D01*
D11*
X112953365Y-73283571D02*
X113013842Y-73223095D01*
X113013842Y-73223095D02*
X113074318Y-73041666D01*
X113074318Y-73041666D02*
X113074318Y-72920714D01*
X113074318Y-72920714D02*
X113013842Y-72739285D01*
X113013842Y-72739285D02*
X112892889Y-72618333D01*
X112892889Y-72618333D02*
X112771937Y-72557856D01*
X112771937Y-72557856D02*
X112530032Y-72497380D01*
X112530032Y-72497380D02*
X112348603Y-72497380D01*
X112348603Y-72497380D02*
X112106699Y-72557856D01*
X112106699Y-72557856D02*
X111985746Y-72618333D01*
X111985746Y-72618333D02*
X111864794Y-72739285D01*
X111864794Y-72739285D02*
X111804318Y-72920714D01*
X111804318Y-72920714D02*
X111804318Y-73041666D01*
X111804318Y-73041666D02*
X111864794Y-73223095D01*
X111864794Y-73223095D02*
X111925270Y-73283571D01*
X111925270Y-73767380D02*
X111864794Y-73827856D01*
X111864794Y-73827856D02*
X111804318Y-73948809D01*
X111804318Y-73948809D02*
X111804318Y-74251190D01*
X111804318Y-74251190D02*
X111864794Y-74372142D01*
X111864794Y-74372142D02*
X111925270Y-74432618D01*
X111925270Y-74432618D02*
X112046222Y-74493095D01*
X112046222Y-74493095D02*
X112167175Y-74493095D01*
X112167175Y-74493095D02*
X112348603Y-74432618D01*
X112348603Y-74432618D02*
X113074318Y-73706904D01*
X113074318Y-73706904D02*
X113074318Y-74493095D01*
X111804318Y-74916428D02*
X111804318Y-75702619D01*
X111804318Y-75702619D02*
X112288127Y-75279285D01*
X112288127Y-75279285D02*
X112288127Y-75460714D01*
X112288127Y-75460714D02*
X112348603Y-75581666D01*
X112348603Y-75581666D02*
X112409080Y-75642142D01*
X112409080Y-75642142D02*
X112530032Y-75702619D01*
X112530032Y-75702619D02*
X112832413Y-75702619D01*
X112832413Y-75702619D02*
X112953365Y-75642142D01*
X112953365Y-75642142D02*
X113013842Y-75581666D01*
X113013842Y-75581666D02*
X113074318Y-75460714D01*
X113074318Y-75460714D02*
X113074318Y-75097857D01*
X113074318Y-75097857D02*
X113013842Y-74976904D01*
X113013842Y-74976904D02*
X112953365Y-74916428D01*
D10*
X108654819Y-98457142D02*
X108178628Y-98123809D01*
X108654819Y-97885714D02*
X107654819Y-97885714D01*
X107654819Y-97885714D02*
X107654819Y-98266666D01*
X107654819Y-98266666D02*
X107702438Y-98361904D01*
X107702438Y-98361904D02*
X107750057Y-98409523D01*
X107750057Y-98409523D02*
X107845295Y-98457142D01*
X107845295Y-98457142D02*
X107988152Y-98457142D01*
X107988152Y-98457142D02*
X108083390Y-98409523D01*
X108083390Y-98409523D02*
X108131009Y-98361904D01*
X108131009Y-98361904D02*
X108178628Y-98266666D01*
X108178628Y-98266666D02*
X108178628Y-97885714D01*
X108654819Y-99409523D02*
X108654819Y-98838095D01*
X108654819Y-99123809D02*
X107654819Y-99123809D01*
X107654819Y-99123809D02*
X107797676Y-99028571D01*
X107797676Y-99028571D02*
X107892914Y-98933333D01*
X107892914Y-98933333D02*
X107940533Y-98838095D01*
X107988152Y-100266666D02*
X108654819Y-100266666D01*
X107607200Y-100028571D02*
X108321485Y-99790476D01*
X108321485Y-99790476D02*
X108321485Y-100409523D01*
X81859580Y-88057142D02*
X81907200Y-88009523D01*
X81907200Y-88009523D02*
X81954819Y-87866666D01*
X81954819Y-87866666D02*
X81954819Y-87771428D01*
X81954819Y-87771428D02*
X81907200Y-87628571D01*
X81907200Y-87628571D02*
X81811961Y-87533333D01*
X81811961Y-87533333D02*
X81716723Y-87485714D01*
X81716723Y-87485714D02*
X81526247Y-87438095D01*
X81526247Y-87438095D02*
X81383390Y-87438095D01*
X81383390Y-87438095D02*
X81192914Y-87485714D01*
X81192914Y-87485714D02*
X81097676Y-87533333D01*
X81097676Y-87533333D02*
X81002438Y-87628571D01*
X81002438Y-87628571D02*
X80954819Y-87771428D01*
X80954819Y-87771428D02*
X80954819Y-87866666D01*
X80954819Y-87866666D02*
X81002438Y-88009523D01*
X81002438Y-88009523D02*
X81050057Y-88057142D01*
X81050057Y-88438095D02*
X81002438Y-88485714D01*
X81002438Y-88485714D02*
X80954819Y-88580952D01*
X80954819Y-88580952D02*
X80954819Y-88819047D01*
X80954819Y-88819047D02*
X81002438Y-88914285D01*
X81002438Y-88914285D02*
X81050057Y-88961904D01*
X81050057Y-88961904D02*
X81145295Y-89009523D01*
X81145295Y-89009523D02*
X81240533Y-89009523D01*
X81240533Y-89009523D02*
X81383390Y-88961904D01*
X81383390Y-88961904D02*
X81954819Y-88390476D01*
X81954819Y-88390476D02*
X81954819Y-89009523D01*
X81050057Y-89390476D02*
X81002438Y-89438095D01*
X81002438Y-89438095D02*
X80954819Y-89533333D01*
X80954819Y-89533333D02*
X80954819Y-89771428D01*
X80954819Y-89771428D02*
X81002438Y-89866666D01*
X81002438Y-89866666D02*
X81050057Y-89914285D01*
X81050057Y-89914285D02*
X81145295Y-89961904D01*
X81145295Y-89961904D02*
X81240533Y-89961904D01*
X81240533Y-89961904D02*
X81383390Y-89914285D01*
X81383390Y-89914285D02*
X81954819Y-89342857D01*
X81954819Y-89342857D02*
X81954819Y-89961904D01*
X85954819Y-69661905D02*
X84954819Y-69661905D01*
X84954819Y-69661905D02*
X84954819Y-69900000D01*
X84954819Y-69900000D02*
X85002438Y-70042857D01*
X85002438Y-70042857D02*
X85097676Y-70138095D01*
X85097676Y-70138095D02*
X85192914Y-70185714D01*
X85192914Y-70185714D02*
X85383390Y-70233333D01*
X85383390Y-70233333D02*
X85526247Y-70233333D01*
X85526247Y-70233333D02*
X85716723Y-70185714D01*
X85716723Y-70185714D02*
X85811961Y-70138095D01*
X85811961Y-70138095D02*
X85907200Y-70042857D01*
X85907200Y-70042857D02*
X85954819Y-69900000D01*
X85954819Y-69900000D02*
X85954819Y-69661905D01*
X85050057Y-70614286D02*
X85002438Y-70661905D01*
X85002438Y-70661905D02*
X84954819Y-70757143D01*
X84954819Y-70757143D02*
X84954819Y-70995238D01*
X84954819Y-70995238D02*
X85002438Y-71090476D01*
X85002438Y-71090476D02*
X85050057Y-71138095D01*
X85050057Y-71138095D02*
X85145295Y-71185714D01*
X85145295Y-71185714D02*
X85240533Y-71185714D01*
X85240533Y-71185714D02*
X85383390Y-71138095D01*
X85383390Y-71138095D02*
X85954819Y-70566667D01*
X85954819Y-70566667D02*
X85954819Y-71185714D01*
X98342857Y-105459580D02*
X98390476Y-105507200D01*
X98390476Y-105507200D02*
X98533333Y-105554819D01*
X98533333Y-105554819D02*
X98628571Y-105554819D01*
X98628571Y-105554819D02*
X98771428Y-105507200D01*
X98771428Y-105507200D02*
X98866666Y-105411961D01*
X98866666Y-105411961D02*
X98914285Y-105316723D01*
X98914285Y-105316723D02*
X98961904Y-105126247D01*
X98961904Y-105126247D02*
X98961904Y-104983390D01*
X98961904Y-104983390D02*
X98914285Y-104792914D01*
X98914285Y-104792914D02*
X98866666Y-104697676D01*
X98866666Y-104697676D02*
X98771428Y-104602438D01*
X98771428Y-104602438D02*
X98628571Y-104554819D01*
X98628571Y-104554819D02*
X98533333Y-104554819D01*
X98533333Y-104554819D02*
X98390476Y-104602438D01*
X98390476Y-104602438D02*
X98342857Y-104650057D01*
X97390476Y-105554819D02*
X97961904Y-105554819D01*
X97676190Y-105554819D02*
X97676190Y-104554819D01*
X97676190Y-104554819D02*
X97771428Y-104697676D01*
X97771428Y-104697676D02*
X97866666Y-104792914D01*
X97866666Y-104792914D02*
X97961904Y-104840533D01*
X96533333Y-104554819D02*
X96723809Y-104554819D01*
X96723809Y-104554819D02*
X96819047Y-104602438D01*
X96819047Y-104602438D02*
X96866666Y-104650057D01*
X96866666Y-104650057D02*
X96961904Y-104792914D01*
X96961904Y-104792914D02*
X97009523Y-104983390D01*
X97009523Y-104983390D02*
X97009523Y-105364342D01*
X97009523Y-105364342D02*
X96961904Y-105459580D01*
X96961904Y-105459580D02*
X96914285Y-105507200D01*
X96914285Y-105507200D02*
X96819047Y-105554819D01*
X96819047Y-105554819D02*
X96628571Y-105554819D01*
X96628571Y-105554819D02*
X96533333Y-105507200D01*
X96533333Y-105507200D02*
X96485714Y-105459580D01*
X96485714Y-105459580D02*
X96438095Y-105364342D01*
X96438095Y-105364342D02*
X96438095Y-105126247D01*
X96438095Y-105126247D02*
X96485714Y-105031009D01*
X96485714Y-105031009D02*
X96533333Y-104983390D01*
X96533333Y-104983390D02*
X96628571Y-104935771D01*
X96628571Y-104935771D02*
X96819047Y-104935771D01*
X96819047Y-104935771D02*
X96914285Y-104983390D01*
X96914285Y-104983390D02*
X96961904Y-105031009D01*
X96961904Y-105031009D02*
X97009523Y-105126247D01*
X86209580Y-140133333D02*
X86257200Y-140085714D01*
X86257200Y-140085714D02*
X86304819Y-139942857D01*
X86304819Y-139942857D02*
X86304819Y-139847619D01*
X86304819Y-139847619D02*
X86257200Y-139704762D01*
X86257200Y-139704762D02*
X86161961Y-139609524D01*
X86161961Y-139609524D02*
X86066723Y-139561905D01*
X86066723Y-139561905D02*
X85876247Y-139514286D01*
X85876247Y-139514286D02*
X85733390Y-139514286D01*
X85733390Y-139514286D02*
X85542914Y-139561905D01*
X85542914Y-139561905D02*
X85447676Y-139609524D01*
X85447676Y-139609524D02*
X85352438Y-139704762D01*
X85352438Y-139704762D02*
X85304819Y-139847619D01*
X85304819Y-139847619D02*
X85304819Y-139942857D01*
X85304819Y-139942857D02*
X85352438Y-140085714D01*
X85352438Y-140085714D02*
X85400057Y-140133333D01*
X86304819Y-140609524D02*
X86304819Y-140800000D01*
X86304819Y-140800000D02*
X86257200Y-140895238D01*
X86257200Y-140895238D02*
X86209580Y-140942857D01*
X86209580Y-140942857D02*
X86066723Y-141038095D01*
X86066723Y-141038095D02*
X85876247Y-141085714D01*
X85876247Y-141085714D02*
X85495295Y-141085714D01*
X85495295Y-141085714D02*
X85400057Y-141038095D01*
X85400057Y-141038095D02*
X85352438Y-140990476D01*
X85352438Y-140990476D02*
X85304819Y-140895238D01*
X85304819Y-140895238D02*
X85304819Y-140704762D01*
X85304819Y-140704762D02*
X85352438Y-140609524D01*
X85352438Y-140609524D02*
X85400057Y-140561905D01*
X85400057Y-140561905D02*
X85495295Y-140514286D01*
X85495295Y-140514286D02*
X85733390Y-140514286D01*
X85733390Y-140514286D02*
X85828628Y-140561905D01*
X85828628Y-140561905D02*
X85876247Y-140609524D01*
X85876247Y-140609524D02*
X85923866Y-140704762D01*
X85923866Y-140704762D02*
X85923866Y-140895238D01*
X85923866Y-140895238D02*
X85876247Y-140990476D01*
X85876247Y-140990476D02*
X85828628Y-141038095D01*
X85828628Y-141038095D02*
X85733390Y-141085714D01*
X123054819Y-67361905D02*
X122054819Y-67361905D01*
X122054819Y-67361905D02*
X122054819Y-67600000D01*
X122054819Y-67600000D02*
X122102438Y-67742857D01*
X122102438Y-67742857D02*
X122197676Y-67838095D01*
X122197676Y-67838095D02*
X122292914Y-67885714D01*
X122292914Y-67885714D02*
X122483390Y-67933333D01*
X122483390Y-67933333D02*
X122626247Y-67933333D01*
X122626247Y-67933333D02*
X122816723Y-67885714D01*
X122816723Y-67885714D02*
X122911961Y-67838095D01*
X122911961Y-67838095D02*
X123007200Y-67742857D01*
X123007200Y-67742857D02*
X123054819Y-67600000D01*
X123054819Y-67600000D02*
X123054819Y-67361905D01*
X122054819Y-68266667D02*
X122054819Y-68885714D01*
X122054819Y-68885714D02*
X122435771Y-68552381D01*
X122435771Y-68552381D02*
X122435771Y-68695238D01*
X122435771Y-68695238D02*
X122483390Y-68790476D01*
X122483390Y-68790476D02*
X122531009Y-68838095D01*
X122531009Y-68838095D02*
X122626247Y-68885714D01*
X122626247Y-68885714D02*
X122864342Y-68885714D01*
X122864342Y-68885714D02*
X122959580Y-68838095D01*
X122959580Y-68838095D02*
X123007200Y-68790476D01*
X123007200Y-68790476D02*
X123054819Y-68695238D01*
X123054819Y-68695238D02*
X123054819Y-68409524D01*
X123054819Y-68409524D02*
X123007200Y-68314286D01*
X123007200Y-68314286D02*
X122959580Y-68266667D01*
D11*
X97613365Y-73283571D02*
X97673842Y-73223095D01*
X97673842Y-73223095D02*
X97734318Y-73041666D01*
X97734318Y-73041666D02*
X97734318Y-72920714D01*
X97734318Y-72920714D02*
X97673842Y-72739285D01*
X97673842Y-72739285D02*
X97552889Y-72618333D01*
X97552889Y-72618333D02*
X97431937Y-72557856D01*
X97431937Y-72557856D02*
X97190032Y-72497380D01*
X97190032Y-72497380D02*
X97008603Y-72497380D01*
X97008603Y-72497380D02*
X96766699Y-72557856D01*
X96766699Y-72557856D02*
X96645746Y-72618333D01*
X96645746Y-72618333D02*
X96524794Y-72739285D01*
X96524794Y-72739285D02*
X96464318Y-72920714D01*
X96464318Y-72920714D02*
X96464318Y-73041666D01*
X96464318Y-73041666D02*
X96524794Y-73223095D01*
X96524794Y-73223095D02*
X96585270Y-73283571D01*
X96585270Y-73767380D02*
X96524794Y-73827856D01*
X96524794Y-73827856D02*
X96464318Y-73948809D01*
X96464318Y-73948809D02*
X96464318Y-74251190D01*
X96464318Y-74251190D02*
X96524794Y-74372142D01*
X96524794Y-74372142D02*
X96585270Y-74432618D01*
X96585270Y-74432618D02*
X96706222Y-74493095D01*
X96706222Y-74493095D02*
X96827175Y-74493095D01*
X96827175Y-74493095D02*
X97008603Y-74432618D01*
X97008603Y-74432618D02*
X97734318Y-73706904D01*
X97734318Y-73706904D02*
X97734318Y-74493095D01*
X96887651Y-75581666D02*
X97734318Y-75581666D01*
X96403842Y-75279285D02*
X97310984Y-74976904D01*
X97310984Y-74976904D02*
X97310984Y-75763095D01*
D10*
X80754819Y-123961905D02*
X79754819Y-123961905D01*
X79754819Y-123961905D02*
X79754819Y-124200000D01*
X79754819Y-124200000D02*
X79802438Y-124342857D01*
X79802438Y-124342857D02*
X79897676Y-124438095D01*
X79897676Y-124438095D02*
X79992914Y-124485714D01*
X79992914Y-124485714D02*
X80183390Y-124533333D01*
X80183390Y-124533333D02*
X80326247Y-124533333D01*
X80326247Y-124533333D02*
X80516723Y-124485714D01*
X80516723Y-124485714D02*
X80611961Y-124438095D01*
X80611961Y-124438095D02*
X80707200Y-124342857D01*
X80707200Y-124342857D02*
X80754819Y-124200000D01*
X80754819Y-124200000D02*
X80754819Y-123961905D01*
X80183390Y-125104762D02*
X80135771Y-125009524D01*
X80135771Y-125009524D02*
X80088152Y-124961905D01*
X80088152Y-124961905D02*
X79992914Y-124914286D01*
X79992914Y-124914286D02*
X79945295Y-124914286D01*
X79945295Y-124914286D02*
X79850057Y-124961905D01*
X79850057Y-124961905D02*
X79802438Y-125009524D01*
X79802438Y-125009524D02*
X79754819Y-125104762D01*
X79754819Y-125104762D02*
X79754819Y-125295238D01*
X79754819Y-125295238D02*
X79802438Y-125390476D01*
X79802438Y-125390476D02*
X79850057Y-125438095D01*
X79850057Y-125438095D02*
X79945295Y-125485714D01*
X79945295Y-125485714D02*
X79992914Y-125485714D01*
X79992914Y-125485714D02*
X80088152Y-125438095D01*
X80088152Y-125438095D02*
X80135771Y-125390476D01*
X80135771Y-125390476D02*
X80183390Y-125295238D01*
X80183390Y-125295238D02*
X80183390Y-125104762D01*
X80183390Y-125104762D02*
X80231009Y-125009524D01*
X80231009Y-125009524D02*
X80278628Y-124961905D01*
X80278628Y-124961905D02*
X80373866Y-124914286D01*
X80373866Y-124914286D02*
X80564342Y-124914286D01*
X80564342Y-124914286D02*
X80659580Y-124961905D01*
X80659580Y-124961905D02*
X80707200Y-125009524D01*
X80707200Y-125009524D02*
X80754819Y-125104762D01*
X80754819Y-125104762D02*
X80754819Y-125295238D01*
X80754819Y-125295238D02*
X80707200Y-125390476D01*
X80707200Y-125390476D02*
X80659580Y-125438095D01*
X80659580Y-125438095D02*
X80564342Y-125485714D01*
X80564342Y-125485714D02*
X80373866Y-125485714D01*
X80373866Y-125485714D02*
X80278628Y-125438095D01*
X80278628Y-125438095D02*
X80231009Y-125390476D01*
X80231009Y-125390476D02*
X80183390Y-125295238D01*
D11*
X94648365Y-128483571D02*
X94708842Y-128423095D01*
X94708842Y-128423095D02*
X94769318Y-128241666D01*
X94769318Y-128241666D02*
X94769318Y-128120714D01*
X94769318Y-128120714D02*
X94708842Y-127939285D01*
X94708842Y-127939285D02*
X94587889Y-127818333D01*
X94587889Y-127818333D02*
X94466937Y-127757856D01*
X94466937Y-127757856D02*
X94225032Y-127697380D01*
X94225032Y-127697380D02*
X94043603Y-127697380D01*
X94043603Y-127697380D02*
X93801699Y-127757856D01*
X93801699Y-127757856D02*
X93680746Y-127818333D01*
X93680746Y-127818333D02*
X93559794Y-127939285D01*
X93559794Y-127939285D02*
X93499318Y-128120714D01*
X93499318Y-128120714D02*
X93499318Y-128241666D01*
X93499318Y-128241666D02*
X93559794Y-128423095D01*
X93559794Y-128423095D02*
X93620270Y-128483571D01*
X93620270Y-128967380D02*
X93559794Y-129027856D01*
X93559794Y-129027856D02*
X93499318Y-129148809D01*
X93499318Y-129148809D02*
X93499318Y-129451190D01*
X93499318Y-129451190D02*
X93559794Y-129572142D01*
X93559794Y-129572142D02*
X93620270Y-129632618D01*
X93620270Y-129632618D02*
X93741222Y-129693095D01*
X93741222Y-129693095D02*
X93862175Y-129693095D01*
X93862175Y-129693095D02*
X94043603Y-129632618D01*
X94043603Y-129632618D02*
X94769318Y-128906904D01*
X94769318Y-128906904D02*
X94769318Y-129693095D01*
X93499318Y-130781666D02*
X93499318Y-130539761D01*
X93499318Y-130539761D02*
X93559794Y-130418809D01*
X93559794Y-130418809D02*
X93620270Y-130358333D01*
X93620270Y-130358333D02*
X93801699Y-130237380D01*
X93801699Y-130237380D02*
X94043603Y-130176904D01*
X94043603Y-130176904D02*
X94527413Y-130176904D01*
X94527413Y-130176904D02*
X94648365Y-130237380D01*
X94648365Y-130237380D02*
X94708842Y-130297857D01*
X94708842Y-130297857D02*
X94769318Y-130418809D01*
X94769318Y-130418809D02*
X94769318Y-130660714D01*
X94769318Y-130660714D02*
X94708842Y-130781666D01*
X94708842Y-130781666D02*
X94648365Y-130842142D01*
X94648365Y-130842142D02*
X94527413Y-130902619D01*
X94527413Y-130902619D02*
X94225032Y-130902619D01*
X94225032Y-130902619D02*
X94104080Y-130842142D01*
X94104080Y-130842142D02*
X94043603Y-130781666D01*
X94043603Y-130781666D02*
X93983127Y-130660714D01*
X93983127Y-130660714D02*
X93983127Y-130418809D01*
X93983127Y-130418809D02*
X94043603Y-130297857D01*
X94043603Y-130297857D02*
X94104080Y-130237380D01*
X94104080Y-130237380D02*
X94225032Y-130176904D01*
D10*
X87205357Y-89359580D02*
X87252976Y-89407200D01*
X87252976Y-89407200D02*
X87395833Y-89454819D01*
X87395833Y-89454819D02*
X87491071Y-89454819D01*
X87491071Y-89454819D02*
X87633928Y-89407200D01*
X87633928Y-89407200D02*
X87729166Y-89311961D01*
X87729166Y-89311961D02*
X87776785Y-89216723D01*
X87776785Y-89216723D02*
X87824404Y-89026247D01*
X87824404Y-89026247D02*
X87824404Y-88883390D01*
X87824404Y-88883390D02*
X87776785Y-88692914D01*
X87776785Y-88692914D02*
X87729166Y-88597676D01*
X87729166Y-88597676D02*
X87633928Y-88502438D01*
X87633928Y-88502438D02*
X87491071Y-88454819D01*
X87491071Y-88454819D02*
X87395833Y-88454819D01*
X87395833Y-88454819D02*
X87252976Y-88502438D01*
X87252976Y-88502438D02*
X87205357Y-88550057D01*
X86824404Y-88550057D02*
X86776785Y-88502438D01*
X86776785Y-88502438D02*
X86681547Y-88454819D01*
X86681547Y-88454819D02*
X86443452Y-88454819D01*
X86443452Y-88454819D02*
X86348214Y-88502438D01*
X86348214Y-88502438D02*
X86300595Y-88550057D01*
X86300595Y-88550057D02*
X86252976Y-88645295D01*
X86252976Y-88645295D02*
X86252976Y-88740533D01*
X86252976Y-88740533D02*
X86300595Y-88883390D01*
X86300595Y-88883390D02*
X86872023Y-89454819D01*
X86872023Y-89454819D02*
X86252976Y-89454819D01*
X85633928Y-88454819D02*
X85538690Y-88454819D01*
X85538690Y-88454819D02*
X85443452Y-88502438D01*
X85443452Y-88502438D02*
X85395833Y-88550057D01*
X85395833Y-88550057D02*
X85348214Y-88645295D01*
X85348214Y-88645295D02*
X85300595Y-88835771D01*
X85300595Y-88835771D02*
X85300595Y-89073866D01*
X85300595Y-89073866D02*
X85348214Y-89264342D01*
X85348214Y-89264342D02*
X85395833Y-89359580D01*
X85395833Y-89359580D02*
X85443452Y-89407200D01*
X85443452Y-89407200D02*
X85538690Y-89454819D01*
X85538690Y-89454819D02*
X85633928Y-89454819D01*
X85633928Y-89454819D02*
X85729166Y-89407200D01*
X85729166Y-89407200D02*
X85776785Y-89359580D01*
X85776785Y-89359580D02*
X85824404Y-89264342D01*
X85824404Y-89264342D02*
X85872023Y-89073866D01*
X85872023Y-89073866D02*
X85872023Y-88835771D01*
X85872023Y-88835771D02*
X85824404Y-88645295D01*
X85824404Y-88645295D02*
X85776785Y-88550057D01*
X85776785Y-88550057D02*
X85729166Y-88502438D01*
X85729166Y-88502438D02*
X85633928Y-88454819D01*
X104124819Y-88357142D02*
X103648628Y-88023809D01*
X104124819Y-87785714D02*
X103124819Y-87785714D01*
X103124819Y-87785714D02*
X103124819Y-88166666D01*
X103124819Y-88166666D02*
X103172438Y-88261904D01*
X103172438Y-88261904D02*
X103220057Y-88309523D01*
X103220057Y-88309523D02*
X103315295Y-88357142D01*
X103315295Y-88357142D02*
X103458152Y-88357142D01*
X103458152Y-88357142D02*
X103553390Y-88309523D01*
X103553390Y-88309523D02*
X103601009Y-88261904D01*
X103601009Y-88261904D02*
X103648628Y-88166666D01*
X103648628Y-88166666D02*
X103648628Y-87785714D01*
X104124819Y-89309523D02*
X104124819Y-88738095D01*
X104124819Y-89023809D02*
X103124819Y-89023809D01*
X103124819Y-89023809D02*
X103267676Y-88928571D01*
X103267676Y-88928571D02*
X103362914Y-88833333D01*
X103362914Y-88833333D02*
X103410533Y-88738095D01*
X104124819Y-90261904D02*
X104124819Y-89690476D01*
X104124819Y-89976190D02*
X103124819Y-89976190D01*
X103124819Y-89976190D02*
X103267676Y-89880952D01*
X103267676Y-89880952D02*
X103362914Y-89785714D01*
X103362914Y-89785714D02*
X103410533Y-89690476D01*
X102359580Y-90357142D02*
X102407200Y-90309523D01*
X102407200Y-90309523D02*
X102454819Y-90166666D01*
X102454819Y-90166666D02*
X102454819Y-90071428D01*
X102454819Y-90071428D02*
X102407200Y-89928571D01*
X102407200Y-89928571D02*
X102311961Y-89833333D01*
X102311961Y-89833333D02*
X102216723Y-89785714D01*
X102216723Y-89785714D02*
X102026247Y-89738095D01*
X102026247Y-89738095D02*
X101883390Y-89738095D01*
X101883390Y-89738095D02*
X101692914Y-89785714D01*
X101692914Y-89785714D02*
X101597676Y-89833333D01*
X101597676Y-89833333D02*
X101502438Y-89928571D01*
X101502438Y-89928571D02*
X101454819Y-90071428D01*
X101454819Y-90071428D02*
X101454819Y-90166666D01*
X101454819Y-90166666D02*
X101502438Y-90309523D01*
X101502438Y-90309523D02*
X101550057Y-90357142D01*
X101454819Y-90690476D02*
X101454819Y-91309523D01*
X101454819Y-91309523D02*
X101835771Y-90976190D01*
X101835771Y-90976190D02*
X101835771Y-91119047D01*
X101835771Y-91119047D02*
X101883390Y-91214285D01*
X101883390Y-91214285D02*
X101931009Y-91261904D01*
X101931009Y-91261904D02*
X102026247Y-91309523D01*
X102026247Y-91309523D02*
X102264342Y-91309523D01*
X102264342Y-91309523D02*
X102359580Y-91261904D01*
X102359580Y-91261904D02*
X102407200Y-91214285D01*
X102407200Y-91214285D02*
X102454819Y-91119047D01*
X102454819Y-91119047D02*
X102454819Y-90833333D01*
X102454819Y-90833333D02*
X102407200Y-90738095D01*
X102407200Y-90738095D02*
X102359580Y-90690476D01*
X102454819Y-92261904D02*
X102454819Y-91690476D01*
X102454819Y-91976190D02*
X101454819Y-91976190D01*
X101454819Y-91976190D02*
X101597676Y-91880952D01*
X101597676Y-91880952D02*
X101692914Y-91785714D01*
X101692914Y-91785714D02*
X101740533Y-91690476D01*
X110754819Y-88557142D02*
X110278628Y-88223809D01*
X110754819Y-87985714D02*
X109754819Y-87985714D01*
X109754819Y-87985714D02*
X109754819Y-88366666D01*
X109754819Y-88366666D02*
X109802438Y-88461904D01*
X109802438Y-88461904D02*
X109850057Y-88509523D01*
X109850057Y-88509523D02*
X109945295Y-88557142D01*
X109945295Y-88557142D02*
X110088152Y-88557142D01*
X110088152Y-88557142D02*
X110183390Y-88509523D01*
X110183390Y-88509523D02*
X110231009Y-88461904D01*
X110231009Y-88461904D02*
X110278628Y-88366666D01*
X110278628Y-88366666D02*
X110278628Y-87985714D01*
X110754819Y-89509523D02*
X110754819Y-88938095D01*
X110754819Y-89223809D02*
X109754819Y-89223809D01*
X109754819Y-89223809D02*
X109897676Y-89128571D01*
X109897676Y-89128571D02*
X109992914Y-89033333D01*
X109992914Y-89033333D02*
X110040533Y-88938095D01*
X109754819Y-89842857D02*
X109754819Y-90461904D01*
X109754819Y-90461904D02*
X110135771Y-90128571D01*
X110135771Y-90128571D02*
X110135771Y-90271428D01*
X110135771Y-90271428D02*
X110183390Y-90366666D01*
X110183390Y-90366666D02*
X110231009Y-90414285D01*
X110231009Y-90414285D02*
X110326247Y-90461904D01*
X110326247Y-90461904D02*
X110564342Y-90461904D01*
X110564342Y-90461904D02*
X110659580Y-90414285D01*
X110659580Y-90414285D02*
X110707200Y-90366666D01*
X110707200Y-90366666D02*
X110754819Y-90271428D01*
X110754819Y-90271428D02*
X110754819Y-89985714D01*
X110754819Y-89985714D02*
X110707200Y-89890476D01*
X110707200Y-89890476D02*
X110659580Y-89842857D01*
D11*
X110653365Y-128483571D02*
X110713842Y-128423095D01*
X110713842Y-128423095D02*
X110774318Y-128241666D01*
X110774318Y-128241666D02*
X110774318Y-128120714D01*
X110774318Y-128120714D02*
X110713842Y-127939285D01*
X110713842Y-127939285D02*
X110592889Y-127818333D01*
X110592889Y-127818333D02*
X110471937Y-127757856D01*
X110471937Y-127757856D02*
X110230032Y-127697380D01*
X110230032Y-127697380D02*
X110048603Y-127697380D01*
X110048603Y-127697380D02*
X109806699Y-127757856D01*
X109806699Y-127757856D02*
X109685746Y-127818333D01*
X109685746Y-127818333D02*
X109564794Y-127939285D01*
X109564794Y-127939285D02*
X109504318Y-128120714D01*
X109504318Y-128120714D02*
X109504318Y-128241666D01*
X109504318Y-128241666D02*
X109564794Y-128423095D01*
X109564794Y-128423095D02*
X109625270Y-128483571D01*
X109625270Y-128967380D02*
X109564794Y-129027856D01*
X109564794Y-129027856D02*
X109504318Y-129148809D01*
X109504318Y-129148809D02*
X109504318Y-129451190D01*
X109504318Y-129451190D02*
X109564794Y-129572142D01*
X109564794Y-129572142D02*
X109625270Y-129632618D01*
X109625270Y-129632618D02*
X109746222Y-129693095D01*
X109746222Y-129693095D02*
X109867175Y-129693095D01*
X109867175Y-129693095D02*
X110048603Y-129632618D01*
X110048603Y-129632618D02*
X110774318Y-128906904D01*
X110774318Y-128906904D02*
X110774318Y-129693095D01*
X109504318Y-130842142D02*
X109504318Y-130237380D01*
X109504318Y-130237380D02*
X110109080Y-130176904D01*
X110109080Y-130176904D02*
X110048603Y-130237380D01*
X110048603Y-130237380D02*
X109988127Y-130358333D01*
X109988127Y-130358333D02*
X109988127Y-130660714D01*
X109988127Y-130660714D02*
X110048603Y-130781666D01*
X110048603Y-130781666D02*
X110109080Y-130842142D01*
X110109080Y-130842142D02*
X110230032Y-130902619D01*
X110230032Y-130902619D02*
X110532413Y-130902619D01*
X110532413Y-130902619D02*
X110653365Y-130842142D01*
X110653365Y-130842142D02*
X110713842Y-130781666D01*
X110713842Y-130781666D02*
X110774318Y-130660714D01*
X110774318Y-130660714D02*
X110774318Y-130358333D01*
X110774318Y-130358333D02*
X110713842Y-130237380D01*
X110713842Y-130237380D02*
X110653365Y-130176904D01*
D10*
X105954819Y-98457142D02*
X105478628Y-98123809D01*
X105954819Y-97885714D02*
X104954819Y-97885714D01*
X104954819Y-97885714D02*
X104954819Y-98266666D01*
X104954819Y-98266666D02*
X105002438Y-98361904D01*
X105002438Y-98361904D02*
X105050057Y-98409523D01*
X105050057Y-98409523D02*
X105145295Y-98457142D01*
X105145295Y-98457142D02*
X105288152Y-98457142D01*
X105288152Y-98457142D02*
X105383390Y-98409523D01*
X105383390Y-98409523D02*
X105431009Y-98361904D01*
X105431009Y-98361904D02*
X105478628Y-98266666D01*
X105478628Y-98266666D02*
X105478628Y-97885714D01*
X105954819Y-99409523D02*
X105954819Y-98838095D01*
X105954819Y-99123809D02*
X104954819Y-99123809D01*
X104954819Y-99123809D02*
X105097676Y-99028571D01*
X105097676Y-99028571D02*
X105192914Y-98933333D01*
X105192914Y-98933333D02*
X105240533Y-98838095D01*
X105050057Y-99790476D02*
X105002438Y-99838095D01*
X105002438Y-99838095D02*
X104954819Y-99933333D01*
X104954819Y-99933333D02*
X104954819Y-100171428D01*
X104954819Y-100171428D02*
X105002438Y-100266666D01*
X105002438Y-100266666D02*
X105050057Y-100314285D01*
X105050057Y-100314285D02*
X105145295Y-100361904D01*
X105145295Y-100361904D02*
X105240533Y-100361904D01*
X105240533Y-100361904D02*
X105383390Y-100314285D01*
X105383390Y-100314285D02*
X105954819Y-99742857D01*
X105954819Y-99742857D02*
X105954819Y-100361904D01*
X92642857Y-89459580D02*
X92690476Y-89507200D01*
X92690476Y-89507200D02*
X92833333Y-89554819D01*
X92833333Y-89554819D02*
X92928571Y-89554819D01*
X92928571Y-89554819D02*
X93071428Y-89507200D01*
X93071428Y-89507200D02*
X93166666Y-89411961D01*
X93166666Y-89411961D02*
X93214285Y-89316723D01*
X93214285Y-89316723D02*
X93261904Y-89126247D01*
X93261904Y-89126247D02*
X93261904Y-88983390D01*
X93261904Y-88983390D02*
X93214285Y-88792914D01*
X93214285Y-88792914D02*
X93166666Y-88697676D01*
X93166666Y-88697676D02*
X93071428Y-88602438D01*
X93071428Y-88602438D02*
X92928571Y-88554819D01*
X92928571Y-88554819D02*
X92833333Y-88554819D01*
X92833333Y-88554819D02*
X92690476Y-88602438D01*
X92690476Y-88602438D02*
X92642857Y-88650057D01*
X91690476Y-89554819D02*
X92261904Y-89554819D01*
X91976190Y-89554819D02*
X91976190Y-88554819D01*
X91976190Y-88554819D02*
X92071428Y-88697676D01*
X92071428Y-88697676D02*
X92166666Y-88792914D01*
X92166666Y-88792914D02*
X92261904Y-88840533D01*
X91357142Y-88554819D02*
X90690476Y-88554819D01*
X90690476Y-88554819D02*
X91119047Y-89554819D01*
X99459580Y-90457142D02*
X99507200Y-90409523D01*
X99507200Y-90409523D02*
X99554819Y-90266666D01*
X99554819Y-90266666D02*
X99554819Y-90171428D01*
X99554819Y-90171428D02*
X99507200Y-90028571D01*
X99507200Y-90028571D02*
X99411961Y-89933333D01*
X99411961Y-89933333D02*
X99316723Y-89885714D01*
X99316723Y-89885714D02*
X99126247Y-89838095D01*
X99126247Y-89838095D02*
X98983390Y-89838095D01*
X98983390Y-89838095D02*
X98792914Y-89885714D01*
X98792914Y-89885714D02*
X98697676Y-89933333D01*
X98697676Y-89933333D02*
X98602438Y-90028571D01*
X98602438Y-90028571D02*
X98554819Y-90171428D01*
X98554819Y-90171428D02*
X98554819Y-90266666D01*
X98554819Y-90266666D02*
X98602438Y-90409523D01*
X98602438Y-90409523D02*
X98650057Y-90457142D01*
X98554819Y-90790476D02*
X98554819Y-91409523D01*
X98554819Y-91409523D02*
X98935771Y-91076190D01*
X98935771Y-91076190D02*
X98935771Y-91219047D01*
X98935771Y-91219047D02*
X98983390Y-91314285D01*
X98983390Y-91314285D02*
X99031009Y-91361904D01*
X99031009Y-91361904D02*
X99126247Y-91409523D01*
X99126247Y-91409523D02*
X99364342Y-91409523D01*
X99364342Y-91409523D02*
X99459580Y-91361904D01*
X99459580Y-91361904D02*
X99507200Y-91314285D01*
X99507200Y-91314285D02*
X99554819Y-91219047D01*
X99554819Y-91219047D02*
X99554819Y-90933333D01*
X99554819Y-90933333D02*
X99507200Y-90838095D01*
X99507200Y-90838095D02*
X99459580Y-90790476D01*
X98554819Y-92028571D02*
X98554819Y-92123809D01*
X98554819Y-92123809D02*
X98602438Y-92219047D01*
X98602438Y-92219047D02*
X98650057Y-92266666D01*
X98650057Y-92266666D02*
X98745295Y-92314285D01*
X98745295Y-92314285D02*
X98935771Y-92361904D01*
X98935771Y-92361904D02*
X99173866Y-92361904D01*
X99173866Y-92361904D02*
X99364342Y-92314285D01*
X99364342Y-92314285D02*
X99459580Y-92266666D01*
X99459580Y-92266666D02*
X99507200Y-92219047D01*
X99507200Y-92219047D02*
X99554819Y-92123809D01*
X99554819Y-92123809D02*
X99554819Y-92028571D01*
X99554819Y-92028571D02*
X99507200Y-91933333D01*
X99507200Y-91933333D02*
X99459580Y-91885714D01*
X99459580Y-91885714D02*
X99364342Y-91838095D01*
X99364342Y-91838095D02*
X99173866Y-91790476D01*
X99173866Y-91790476D02*
X98935771Y-91790476D01*
X98935771Y-91790476D02*
X98745295Y-91838095D01*
X98745295Y-91838095D02*
X98650057Y-91885714D01*
X98650057Y-91885714D02*
X98602438Y-91933333D01*
X98602438Y-91933333D02*
X98554819Y-92028571D01*
X87242857Y-82459580D02*
X87290476Y-82507200D01*
X87290476Y-82507200D02*
X87433333Y-82554819D01*
X87433333Y-82554819D02*
X87528571Y-82554819D01*
X87528571Y-82554819D02*
X87671428Y-82507200D01*
X87671428Y-82507200D02*
X87766666Y-82411961D01*
X87766666Y-82411961D02*
X87814285Y-82316723D01*
X87814285Y-82316723D02*
X87861904Y-82126247D01*
X87861904Y-82126247D02*
X87861904Y-81983390D01*
X87861904Y-81983390D02*
X87814285Y-81792914D01*
X87814285Y-81792914D02*
X87766666Y-81697676D01*
X87766666Y-81697676D02*
X87671428Y-81602438D01*
X87671428Y-81602438D02*
X87528571Y-81554819D01*
X87528571Y-81554819D02*
X87433333Y-81554819D01*
X87433333Y-81554819D02*
X87290476Y-81602438D01*
X87290476Y-81602438D02*
X87242857Y-81650057D01*
X86861904Y-81650057D02*
X86814285Y-81602438D01*
X86814285Y-81602438D02*
X86719047Y-81554819D01*
X86719047Y-81554819D02*
X86480952Y-81554819D01*
X86480952Y-81554819D02*
X86385714Y-81602438D01*
X86385714Y-81602438D02*
X86338095Y-81650057D01*
X86338095Y-81650057D02*
X86290476Y-81745295D01*
X86290476Y-81745295D02*
X86290476Y-81840533D01*
X86290476Y-81840533D02*
X86338095Y-81983390D01*
X86338095Y-81983390D02*
X86909523Y-82554819D01*
X86909523Y-82554819D02*
X86290476Y-82554819D01*
X85338095Y-82554819D02*
X85909523Y-82554819D01*
X85623809Y-82554819D02*
X85623809Y-81554819D01*
X85623809Y-81554819D02*
X85719047Y-81697676D01*
X85719047Y-81697676D02*
X85814285Y-81792914D01*
X85814285Y-81792914D02*
X85909523Y-81840533D01*
X98242857Y-102459580D02*
X98290476Y-102507200D01*
X98290476Y-102507200D02*
X98433333Y-102554819D01*
X98433333Y-102554819D02*
X98528571Y-102554819D01*
X98528571Y-102554819D02*
X98671428Y-102507200D01*
X98671428Y-102507200D02*
X98766666Y-102411961D01*
X98766666Y-102411961D02*
X98814285Y-102316723D01*
X98814285Y-102316723D02*
X98861904Y-102126247D01*
X98861904Y-102126247D02*
X98861904Y-101983390D01*
X98861904Y-101983390D02*
X98814285Y-101792914D01*
X98814285Y-101792914D02*
X98766666Y-101697676D01*
X98766666Y-101697676D02*
X98671428Y-101602438D01*
X98671428Y-101602438D02*
X98528571Y-101554819D01*
X98528571Y-101554819D02*
X98433333Y-101554819D01*
X98433333Y-101554819D02*
X98290476Y-101602438D01*
X98290476Y-101602438D02*
X98242857Y-101650057D01*
X97290476Y-102554819D02*
X97861904Y-102554819D01*
X97576190Y-102554819D02*
X97576190Y-101554819D01*
X97576190Y-101554819D02*
X97671428Y-101697676D01*
X97671428Y-101697676D02*
X97766666Y-101792914D01*
X97766666Y-101792914D02*
X97861904Y-101840533D01*
X96385714Y-101554819D02*
X96861904Y-101554819D01*
X96861904Y-101554819D02*
X96909523Y-102031009D01*
X96909523Y-102031009D02*
X96861904Y-101983390D01*
X96861904Y-101983390D02*
X96766666Y-101935771D01*
X96766666Y-101935771D02*
X96528571Y-101935771D01*
X96528571Y-101935771D02*
X96433333Y-101983390D01*
X96433333Y-101983390D02*
X96385714Y-102031009D01*
X96385714Y-102031009D02*
X96338095Y-102126247D01*
X96338095Y-102126247D02*
X96338095Y-102364342D01*
X96338095Y-102364342D02*
X96385714Y-102459580D01*
X96385714Y-102459580D02*
X96433333Y-102507200D01*
X96433333Y-102507200D02*
X96528571Y-102554819D01*
X96528571Y-102554819D02*
X96766666Y-102554819D01*
X96766666Y-102554819D02*
X96861904Y-102507200D01*
X96861904Y-102507200D02*
X96909523Y-102459580D01*
X121654819Y-123561905D02*
X120654819Y-123561905D01*
X120654819Y-123561905D02*
X120654819Y-123800000D01*
X120654819Y-123800000D02*
X120702438Y-123942857D01*
X120702438Y-123942857D02*
X120797676Y-124038095D01*
X120797676Y-124038095D02*
X120892914Y-124085714D01*
X120892914Y-124085714D02*
X121083390Y-124133333D01*
X121083390Y-124133333D02*
X121226247Y-124133333D01*
X121226247Y-124133333D02*
X121416723Y-124085714D01*
X121416723Y-124085714D02*
X121511961Y-124038095D01*
X121511961Y-124038095D02*
X121607200Y-123942857D01*
X121607200Y-123942857D02*
X121654819Y-123800000D01*
X121654819Y-123800000D02*
X121654819Y-123561905D01*
X120654819Y-125038095D02*
X120654819Y-124561905D01*
X120654819Y-124561905D02*
X121131009Y-124514286D01*
X121131009Y-124514286D02*
X121083390Y-124561905D01*
X121083390Y-124561905D02*
X121035771Y-124657143D01*
X121035771Y-124657143D02*
X121035771Y-124895238D01*
X121035771Y-124895238D02*
X121083390Y-124990476D01*
X121083390Y-124990476D02*
X121131009Y-125038095D01*
X121131009Y-125038095D02*
X121226247Y-125085714D01*
X121226247Y-125085714D02*
X121464342Y-125085714D01*
X121464342Y-125085714D02*
X121559580Y-125038095D01*
X121559580Y-125038095D02*
X121607200Y-124990476D01*
X121607200Y-124990476D02*
X121654819Y-124895238D01*
X121654819Y-124895238D02*
X121654819Y-124657143D01*
X121654819Y-124657143D02*
X121607200Y-124561905D01*
X121607200Y-124561905D02*
X121559580Y-124514286D01*
X82459580Y-104457142D02*
X82507200Y-104409523D01*
X82507200Y-104409523D02*
X82554819Y-104266666D01*
X82554819Y-104266666D02*
X82554819Y-104171428D01*
X82554819Y-104171428D02*
X82507200Y-104028571D01*
X82507200Y-104028571D02*
X82411961Y-103933333D01*
X82411961Y-103933333D02*
X82316723Y-103885714D01*
X82316723Y-103885714D02*
X82126247Y-103838095D01*
X82126247Y-103838095D02*
X81983390Y-103838095D01*
X81983390Y-103838095D02*
X81792914Y-103885714D01*
X81792914Y-103885714D02*
X81697676Y-103933333D01*
X81697676Y-103933333D02*
X81602438Y-104028571D01*
X81602438Y-104028571D02*
X81554819Y-104171428D01*
X81554819Y-104171428D02*
X81554819Y-104266666D01*
X81554819Y-104266666D02*
X81602438Y-104409523D01*
X81602438Y-104409523D02*
X81650057Y-104457142D01*
X82554819Y-105409523D02*
X82554819Y-104838095D01*
X82554819Y-105123809D02*
X81554819Y-105123809D01*
X81554819Y-105123809D02*
X81697676Y-105028571D01*
X81697676Y-105028571D02*
X81792914Y-104933333D01*
X81792914Y-104933333D02*
X81840533Y-104838095D01*
X82554819Y-105885714D02*
X82554819Y-106076190D01*
X82554819Y-106076190D02*
X82507200Y-106171428D01*
X82507200Y-106171428D02*
X82459580Y-106219047D01*
X82459580Y-106219047D02*
X82316723Y-106314285D01*
X82316723Y-106314285D02*
X82126247Y-106361904D01*
X82126247Y-106361904D02*
X81745295Y-106361904D01*
X81745295Y-106361904D02*
X81650057Y-106314285D01*
X81650057Y-106314285D02*
X81602438Y-106266666D01*
X81602438Y-106266666D02*
X81554819Y-106171428D01*
X81554819Y-106171428D02*
X81554819Y-105980952D01*
X81554819Y-105980952D02*
X81602438Y-105885714D01*
X81602438Y-105885714D02*
X81650057Y-105838095D01*
X81650057Y-105838095D02*
X81745295Y-105790476D01*
X81745295Y-105790476D02*
X81983390Y-105790476D01*
X81983390Y-105790476D02*
X82078628Y-105838095D01*
X82078628Y-105838095D02*
X82126247Y-105885714D01*
X82126247Y-105885714D02*
X82173866Y-105980952D01*
X82173866Y-105980952D02*
X82173866Y-106171428D01*
X82173866Y-106171428D02*
X82126247Y-106266666D01*
X82126247Y-106266666D02*
X82078628Y-106314285D01*
X82078628Y-106314285D02*
X81983390Y-106361904D01*
X125654819Y-123961905D02*
X124654819Y-123961905D01*
X124654819Y-123961905D02*
X124654819Y-124200000D01*
X124654819Y-124200000D02*
X124702438Y-124342857D01*
X124702438Y-124342857D02*
X124797676Y-124438095D01*
X124797676Y-124438095D02*
X124892914Y-124485714D01*
X124892914Y-124485714D02*
X125083390Y-124533333D01*
X125083390Y-124533333D02*
X125226247Y-124533333D01*
X125226247Y-124533333D02*
X125416723Y-124485714D01*
X125416723Y-124485714D02*
X125511961Y-124438095D01*
X125511961Y-124438095D02*
X125607200Y-124342857D01*
X125607200Y-124342857D02*
X125654819Y-124200000D01*
X125654819Y-124200000D02*
X125654819Y-123961905D01*
X124654819Y-125390476D02*
X124654819Y-125200000D01*
X124654819Y-125200000D02*
X124702438Y-125104762D01*
X124702438Y-125104762D02*
X124750057Y-125057143D01*
X124750057Y-125057143D02*
X124892914Y-124961905D01*
X124892914Y-124961905D02*
X125083390Y-124914286D01*
X125083390Y-124914286D02*
X125464342Y-124914286D01*
X125464342Y-124914286D02*
X125559580Y-124961905D01*
X125559580Y-124961905D02*
X125607200Y-125009524D01*
X125607200Y-125009524D02*
X125654819Y-125104762D01*
X125654819Y-125104762D02*
X125654819Y-125295238D01*
X125654819Y-125295238D02*
X125607200Y-125390476D01*
X125607200Y-125390476D02*
X125559580Y-125438095D01*
X125559580Y-125438095D02*
X125464342Y-125485714D01*
X125464342Y-125485714D02*
X125226247Y-125485714D01*
X125226247Y-125485714D02*
X125131009Y-125438095D01*
X125131009Y-125438095D02*
X125083390Y-125390476D01*
X125083390Y-125390476D02*
X125035771Y-125295238D01*
X125035771Y-125295238D02*
X125035771Y-125104762D01*
X125035771Y-125104762D02*
X125083390Y-125009524D01*
X125083390Y-125009524D02*
X125131009Y-124961905D01*
X125131009Y-124961905D02*
X125226247Y-124914286D01*
X118254819Y-87557142D02*
X117778628Y-87223809D01*
X118254819Y-86985714D02*
X117254819Y-86985714D01*
X117254819Y-86985714D02*
X117254819Y-87366666D01*
X117254819Y-87366666D02*
X117302438Y-87461904D01*
X117302438Y-87461904D02*
X117350057Y-87509523D01*
X117350057Y-87509523D02*
X117445295Y-87557142D01*
X117445295Y-87557142D02*
X117588152Y-87557142D01*
X117588152Y-87557142D02*
X117683390Y-87509523D01*
X117683390Y-87509523D02*
X117731009Y-87461904D01*
X117731009Y-87461904D02*
X117778628Y-87366666D01*
X117778628Y-87366666D02*
X117778628Y-86985714D01*
X118254819Y-88509523D02*
X118254819Y-87938095D01*
X118254819Y-88223809D02*
X117254819Y-88223809D01*
X117254819Y-88223809D02*
X117397676Y-88128571D01*
X117397676Y-88128571D02*
X117492914Y-88033333D01*
X117492914Y-88033333D02*
X117540533Y-87938095D01*
X117254819Y-89366666D02*
X117254819Y-89176190D01*
X117254819Y-89176190D02*
X117302438Y-89080952D01*
X117302438Y-89080952D02*
X117350057Y-89033333D01*
X117350057Y-89033333D02*
X117492914Y-88938095D01*
X117492914Y-88938095D02*
X117683390Y-88890476D01*
X117683390Y-88890476D02*
X118064342Y-88890476D01*
X118064342Y-88890476D02*
X118159580Y-88938095D01*
X118159580Y-88938095D02*
X118207200Y-88985714D01*
X118207200Y-88985714D02*
X118254819Y-89080952D01*
X118254819Y-89080952D02*
X118254819Y-89271428D01*
X118254819Y-89271428D02*
X118207200Y-89366666D01*
X118207200Y-89366666D02*
X118159580Y-89414285D01*
X118159580Y-89414285D02*
X118064342Y-89461904D01*
X118064342Y-89461904D02*
X117826247Y-89461904D01*
X117826247Y-89461904D02*
X117731009Y-89414285D01*
X117731009Y-89414285D02*
X117683390Y-89366666D01*
X117683390Y-89366666D02*
X117635771Y-89271428D01*
X117635771Y-89271428D02*
X117635771Y-89080952D01*
X117635771Y-89080952D02*
X117683390Y-88985714D01*
X117683390Y-88985714D02*
X117731009Y-88938095D01*
X117731009Y-88938095D02*
X117826247Y-88890476D01*
X127054819Y-67361905D02*
X126054819Y-67361905D01*
X126054819Y-67361905D02*
X126054819Y-67600000D01*
X126054819Y-67600000D02*
X126102438Y-67742857D01*
X126102438Y-67742857D02*
X126197676Y-67838095D01*
X126197676Y-67838095D02*
X126292914Y-67885714D01*
X126292914Y-67885714D02*
X126483390Y-67933333D01*
X126483390Y-67933333D02*
X126626247Y-67933333D01*
X126626247Y-67933333D02*
X126816723Y-67885714D01*
X126816723Y-67885714D02*
X126911961Y-67838095D01*
X126911961Y-67838095D02*
X127007200Y-67742857D01*
X127007200Y-67742857D02*
X127054819Y-67600000D01*
X127054819Y-67600000D02*
X127054819Y-67361905D01*
X127054819Y-68885714D02*
X127054819Y-68314286D01*
X127054819Y-68600000D02*
X126054819Y-68600000D01*
X126054819Y-68600000D02*
X126197676Y-68504762D01*
X126197676Y-68504762D02*
X126292914Y-68409524D01*
X126292914Y-68409524D02*
X126340533Y-68314286D01*
X109884580Y-61357142D02*
X109932200Y-61309523D01*
X109932200Y-61309523D02*
X109979819Y-61166666D01*
X109979819Y-61166666D02*
X109979819Y-61071428D01*
X109979819Y-61071428D02*
X109932200Y-60928571D01*
X109932200Y-60928571D02*
X109836961Y-60833333D01*
X109836961Y-60833333D02*
X109741723Y-60785714D01*
X109741723Y-60785714D02*
X109551247Y-60738095D01*
X109551247Y-60738095D02*
X109408390Y-60738095D01*
X109408390Y-60738095D02*
X109217914Y-60785714D01*
X109217914Y-60785714D02*
X109122676Y-60833333D01*
X109122676Y-60833333D02*
X109027438Y-60928571D01*
X109027438Y-60928571D02*
X108979819Y-61071428D01*
X108979819Y-61071428D02*
X108979819Y-61166666D01*
X108979819Y-61166666D02*
X109027438Y-61309523D01*
X109027438Y-61309523D02*
X109075057Y-61357142D01*
X109979819Y-62309523D02*
X109979819Y-61738095D01*
X109979819Y-62023809D02*
X108979819Y-62023809D01*
X108979819Y-62023809D02*
X109122676Y-61928571D01*
X109122676Y-61928571D02*
X109217914Y-61833333D01*
X109217914Y-61833333D02*
X109265533Y-61738095D01*
X109075057Y-62690476D02*
X109027438Y-62738095D01*
X109027438Y-62738095D02*
X108979819Y-62833333D01*
X108979819Y-62833333D02*
X108979819Y-63071428D01*
X108979819Y-63071428D02*
X109027438Y-63166666D01*
X109027438Y-63166666D02*
X109075057Y-63214285D01*
X109075057Y-63214285D02*
X109170295Y-63261904D01*
X109170295Y-63261904D02*
X109265533Y-63261904D01*
X109265533Y-63261904D02*
X109408390Y-63214285D01*
X109408390Y-63214285D02*
X109979819Y-62642857D01*
X109979819Y-62642857D02*
X109979819Y-63261904D01*
X81954819Y-69561905D02*
X80954819Y-69561905D01*
X80954819Y-69561905D02*
X80954819Y-69800000D01*
X80954819Y-69800000D02*
X81002438Y-69942857D01*
X81002438Y-69942857D02*
X81097676Y-70038095D01*
X81097676Y-70038095D02*
X81192914Y-70085714D01*
X81192914Y-70085714D02*
X81383390Y-70133333D01*
X81383390Y-70133333D02*
X81526247Y-70133333D01*
X81526247Y-70133333D02*
X81716723Y-70085714D01*
X81716723Y-70085714D02*
X81811961Y-70038095D01*
X81811961Y-70038095D02*
X81907200Y-69942857D01*
X81907200Y-69942857D02*
X81954819Y-69800000D01*
X81954819Y-69800000D02*
X81954819Y-69561905D01*
X81288152Y-70990476D02*
X81954819Y-70990476D01*
X80907200Y-70752381D02*
X81621485Y-70514286D01*
X81621485Y-70514286D02*
X81621485Y-71133333D01*
X120954819Y-84157142D02*
X120478628Y-83823809D01*
X120954819Y-83585714D02*
X119954819Y-83585714D01*
X119954819Y-83585714D02*
X119954819Y-83966666D01*
X119954819Y-83966666D02*
X120002438Y-84061904D01*
X120002438Y-84061904D02*
X120050057Y-84109523D01*
X120050057Y-84109523D02*
X120145295Y-84157142D01*
X120145295Y-84157142D02*
X120288152Y-84157142D01*
X120288152Y-84157142D02*
X120383390Y-84109523D01*
X120383390Y-84109523D02*
X120431009Y-84061904D01*
X120431009Y-84061904D02*
X120478628Y-83966666D01*
X120478628Y-83966666D02*
X120478628Y-83585714D01*
X120954819Y-85109523D02*
X120954819Y-84538095D01*
X120954819Y-84823809D02*
X119954819Y-84823809D01*
X119954819Y-84823809D02*
X120097676Y-84728571D01*
X120097676Y-84728571D02*
X120192914Y-84633333D01*
X120192914Y-84633333D02*
X120240533Y-84538095D01*
X119954819Y-86014285D02*
X119954819Y-85538095D01*
X119954819Y-85538095D02*
X120431009Y-85490476D01*
X120431009Y-85490476D02*
X120383390Y-85538095D01*
X120383390Y-85538095D02*
X120335771Y-85633333D01*
X120335771Y-85633333D02*
X120335771Y-85871428D01*
X120335771Y-85871428D02*
X120383390Y-85966666D01*
X120383390Y-85966666D02*
X120431009Y-86014285D01*
X120431009Y-86014285D02*
X120526247Y-86061904D01*
X120526247Y-86061904D02*
X120764342Y-86061904D01*
X120764342Y-86061904D02*
X120859580Y-86014285D01*
X120859580Y-86014285D02*
X120907200Y-85966666D01*
X120907200Y-85966666D02*
X120954819Y-85871428D01*
X120954819Y-85871428D02*
X120954819Y-85633333D01*
X120954819Y-85633333D02*
X120907200Y-85538095D01*
X120907200Y-85538095D02*
X120859580Y-85490476D01*
X92642857Y-82459580D02*
X92690476Y-82507200D01*
X92690476Y-82507200D02*
X92833333Y-82554819D01*
X92833333Y-82554819D02*
X92928571Y-82554819D01*
X92928571Y-82554819D02*
X93071428Y-82507200D01*
X93071428Y-82507200D02*
X93166666Y-82411961D01*
X93166666Y-82411961D02*
X93214285Y-82316723D01*
X93214285Y-82316723D02*
X93261904Y-82126247D01*
X93261904Y-82126247D02*
X93261904Y-81983390D01*
X93261904Y-81983390D02*
X93214285Y-81792914D01*
X93214285Y-81792914D02*
X93166666Y-81697676D01*
X93166666Y-81697676D02*
X93071428Y-81602438D01*
X93071428Y-81602438D02*
X92928571Y-81554819D01*
X92928571Y-81554819D02*
X92833333Y-81554819D01*
X92833333Y-81554819D02*
X92690476Y-81602438D01*
X92690476Y-81602438D02*
X92642857Y-81650057D01*
X91690476Y-82554819D02*
X92261904Y-82554819D01*
X91976190Y-82554819D02*
X91976190Y-81554819D01*
X91976190Y-81554819D02*
X92071428Y-81697676D01*
X92071428Y-81697676D02*
X92166666Y-81792914D01*
X92166666Y-81792914D02*
X92261904Y-81840533D01*
X91119047Y-81983390D02*
X91214285Y-81935771D01*
X91214285Y-81935771D02*
X91261904Y-81888152D01*
X91261904Y-81888152D02*
X91309523Y-81792914D01*
X91309523Y-81792914D02*
X91309523Y-81745295D01*
X91309523Y-81745295D02*
X91261904Y-81650057D01*
X91261904Y-81650057D02*
X91214285Y-81602438D01*
X91214285Y-81602438D02*
X91119047Y-81554819D01*
X91119047Y-81554819D02*
X90928571Y-81554819D01*
X90928571Y-81554819D02*
X90833333Y-81602438D01*
X90833333Y-81602438D02*
X90785714Y-81650057D01*
X90785714Y-81650057D02*
X90738095Y-81745295D01*
X90738095Y-81745295D02*
X90738095Y-81792914D01*
X90738095Y-81792914D02*
X90785714Y-81888152D01*
X90785714Y-81888152D02*
X90833333Y-81935771D01*
X90833333Y-81935771D02*
X90928571Y-81983390D01*
X90928571Y-81983390D02*
X91119047Y-81983390D01*
X91119047Y-81983390D02*
X91214285Y-82031009D01*
X91214285Y-82031009D02*
X91261904Y-82078628D01*
X91261904Y-82078628D02*
X91309523Y-82173866D01*
X91309523Y-82173866D02*
X91309523Y-82364342D01*
X91309523Y-82364342D02*
X91261904Y-82459580D01*
X91261904Y-82459580D02*
X91214285Y-82507200D01*
X91214285Y-82507200D02*
X91119047Y-82554819D01*
X91119047Y-82554819D02*
X90928571Y-82554819D01*
X90928571Y-82554819D02*
X90833333Y-82507200D01*
X90833333Y-82507200D02*
X90785714Y-82459580D01*
X90785714Y-82459580D02*
X90738095Y-82364342D01*
X90738095Y-82364342D02*
X90738095Y-82173866D01*
X90738095Y-82173866D02*
X90785714Y-82078628D01*
X90785714Y-82078628D02*
X90833333Y-82031009D01*
X90833333Y-82031009D02*
X90928571Y-81983390D01*
X114034580Y-61357142D02*
X114082200Y-61309523D01*
X114082200Y-61309523D02*
X114129819Y-61166666D01*
X114129819Y-61166666D02*
X114129819Y-61071428D01*
X114129819Y-61071428D02*
X114082200Y-60928571D01*
X114082200Y-60928571D02*
X113986961Y-60833333D01*
X113986961Y-60833333D02*
X113891723Y-60785714D01*
X113891723Y-60785714D02*
X113701247Y-60738095D01*
X113701247Y-60738095D02*
X113558390Y-60738095D01*
X113558390Y-60738095D02*
X113367914Y-60785714D01*
X113367914Y-60785714D02*
X113272676Y-60833333D01*
X113272676Y-60833333D02*
X113177438Y-60928571D01*
X113177438Y-60928571D02*
X113129819Y-61071428D01*
X113129819Y-61071428D02*
X113129819Y-61166666D01*
X113129819Y-61166666D02*
X113177438Y-61309523D01*
X113177438Y-61309523D02*
X113225057Y-61357142D01*
X114129819Y-62309523D02*
X114129819Y-61738095D01*
X114129819Y-62023809D02*
X113129819Y-62023809D01*
X113129819Y-62023809D02*
X113272676Y-61928571D01*
X113272676Y-61928571D02*
X113367914Y-61833333D01*
X113367914Y-61833333D02*
X113415533Y-61738095D01*
X114129819Y-63261904D02*
X114129819Y-62690476D01*
X114129819Y-62976190D02*
X113129819Y-62976190D01*
X113129819Y-62976190D02*
X113272676Y-62880952D01*
X113272676Y-62880952D02*
X113367914Y-62785714D01*
X113367914Y-62785714D02*
X113415533Y-62690476D01*
D12*
%TO.C,F1*%
X124790000Y-101997936D02*
X124790000Y-103202064D01*
X126610000Y-101997936D02*
X126610000Y-103202064D01*
%TO.C,D7*%
X82545000Y-125990000D02*
X82545000Y-133000000D01*
X82545000Y-125990000D02*
X85845000Y-125990000D01*
X85845000Y-125990000D02*
X85845000Y-133000000D01*
%TO.C,C29*%
X95090000Y-94288748D02*
X95090000Y-95711252D01*
X96910000Y-94288748D02*
X96910000Y-95711252D01*
%TO.C,C10*%
X80090000Y-141011252D02*
X80090000Y-139588748D01*
X81910000Y-141011252D02*
X81910000Y-139588748D01*
D13*
%TO.C,C23*%
X106000000Y-66425000D02*
X106000000Y-80600000D01*
X119000000Y-70850000D02*
X119000000Y-80600000D01*
D12*
%TO.C,R14*%
X107190000Y-94272936D02*
X107190000Y-95727064D01*
X109010000Y-94272936D02*
X109010000Y-95727064D01*
%TO.C,C22*%
X80590000Y-85211252D02*
X80590000Y-83788748D01*
X82410000Y-85211252D02*
X82410000Y-83788748D01*
%TO.C,D2*%
X83875000Y-81010000D02*
X83875000Y-74000000D01*
X87175000Y-81010000D02*
X83875000Y-81010000D01*
X87175000Y-81010000D02*
X87175000Y-74000000D01*
%TO.C,C16*%
X92288748Y-104090000D02*
X93711252Y-104090000D01*
X92288748Y-105910000D02*
X93711252Y-105910000D01*
%TO.C,C9*%
X83090000Y-141011252D02*
X83090000Y-139588748D01*
X84910000Y-141011252D02*
X84910000Y-139588748D01*
%TO.C,D3*%
X124850000Y-69490000D02*
X124850000Y-76500000D01*
X124850000Y-69490000D02*
X128150000Y-69490000D01*
X128150000Y-69490000D02*
X128150000Y-76500000D01*
D13*
%TO.C,C24*%
X90660000Y-66425000D02*
X90660000Y-80600000D01*
X103660000Y-70850000D02*
X103660000Y-80600000D01*
D12*
%TO.C,D8*%
X78545000Y-135010000D02*
X78545000Y-128000000D01*
X81845000Y-135010000D02*
X78545000Y-135010000D01*
X81845000Y-135010000D02*
X81845000Y-128000000D01*
D13*
%TO.C,C26*%
X87695000Y-132550000D02*
X87695000Y-122800000D01*
X100695000Y-136975000D02*
X100695000Y-122800000D01*
D12*
%TO.C,C20*%
X85851248Y-86090000D02*
X87273752Y-86090000D01*
X85851248Y-87910000D02*
X87273752Y-87910000D01*
%TO.C,R11*%
X104590000Y-88272936D02*
X104590000Y-89727064D01*
X106410000Y-88272936D02*
X106410000Y-89727064D01*
%TO.C,C31*%
X101090000Y-94288748D02*
X101090000Y-95711252D01*
X102910000Y-94288748D02*
X102910000Y-95711252D01*
%TO.C,R13*%
X107290000Y-88272936D02*
X107290000Y-89727064D01*
X109110000Y-88272936D02*
X109110000Y-89727064D01*
D13*
%TO.C,C25*%
X103700000Y-132550000D02*
X103700000Y-122800000D01*
X116700000Y-136975000D02*
X116700000Y-122800000D01*
D12*
%TO.C,R12*%
X104590000Y-94272936D02*
X104590000Y-95727064D01*
X106410000Y-94272936D02*
X106410000Y-95727064D01*
%TO.C,C17*%
X92711252Y-86090000D02*
X91288748Y-86090000D01*
X92711252Y-87910000D02*
X91288748Y-87910000D01*
%TO.C,C30*%
X98090000Y-94288748D02*
X98090000Y-95711252D01*
X99910000Y-94288748D02*
X99910000Y-95711252D01*
%TO.C,C21*%
X85851248Y-83090000D02*
X87273752Y-83090000D01*
X85851248Y-84910000D02*
X87273752Y-84910000D01*
%TO.C,C15*%
X92288748Y-101090000D02*
X93711252Y-101090000D01*
X92288748Y-102910000D02*
X93711252Y-102910000D01*
%TO.C,D5*%
X119545000Y-125990000D02*
X119545000Y-133000000D01*
X119545000Y-125990000D02*
X122845000Y-125990000D01*
X122845000Y-125990000D02*
X122845000Y-133000000D01*
%TO.C,C19*%
X81090000Y-100288748D02*
X81090000Y-101711252D01*
X82910000Y-100288748D02*
X82910000Y-101711252D01*
%TO.C,D6*%
X123545000Y-135010000D02*
X123545000Y-128000000D01*
X126845000Y-135010000D02*
X123545000Y-135010000D01*
X126845000Y-135010000D02*
X126845000Y-128000000D01*
%TO.C,R16*%
X116890000Y-91472936D02*
X116890000Y-92927064D01*
X118710000Y-91472936D02*
X118710000Y-92927064D01*
%TO.C,D1*%
X120850000Y-78510000D02*
X120850000Y-71500000D01*
X124150000Y-78510000D02*
X120850000Y-78510000D01*
X124150000Y-78510000D02*
X124150000Y-71500000D01*
%TO.C,C12*%
X110615000Y-61288748D02*
X110615000Y-62711252D01*
X112435000Y-61288748D02*
X112435000Y-62711252D01*
%TO.C,D4*%
X79875000Y-71990000D02*
X79875000Y-79000000D01*
X79875000Y-71990000D02*
X83175000Y-71990000D01*
X83175000Y-71990000D02*
X83175000Y-79000000D01*
%TO.C,R15*%
X119590000Y-88172936D02*
X119590000Y-89627064D01*
X121410000Y-88172936D02*
X121410000Y-89627064D01*
%TO.C,C18*%
X92711252Y-83090000D02*
X91288748Y-83090000D01*
X92711252Y-84910000D02*
X91288748Y-84910000D01*
%TO.C,C11*%
X114615000Y-61288748D02*
X114615000Y-62711252D01*
X116435000Y-61288748D02*
X116435000Y-62711252D01*
%TD*%
M02*
