%TF.GenerationSoftware,KiCad,Pcbnew,9.0.2*%
%TF.CreationDate,2025-07-04T17:20:10+02:00*%
%TF.ProjectId,DC_driver,44435f64-7269-4766-9572-2e6b69636164,rev?*%
%TF.SameCoordinates,Original*%
%TF.FileFunction,Soldermask,Top*%
%TF.FilePolarity,Negative*%
%FSLAX46Y46*%
G04 Gerber Fmt 4.6, Leading zero omitted, Abs format (unit mm)*
G04 Created by KiCad (PCBNEW 9.0.2) date 2025-07-04 17:20:10*
%MOMM*%
%LPD*%
G01*
G04 APERTURE LIST*
G04 Aperture macros list*
%AMRoundRect*
0 Rectangle with rounded corners*
0 $1 Rounding radius*
0 $2 $3 $4 $5 $6 $7 $8 $9 X,Y pos of 4 corners*
0 Add a 4 corners polygon primitive as box body*
4,1,4,$2,$3,$4,$5,$6,$7,$8,$9,$2,$3,0*
0 Add four circle primitives for the rounded corners*
1,1,$1+$1,$2,$3*
1,1,$1+$1,$4,$5*
1,1,$1+$1,$6,$7*
1,1,$1+$1,$8,$9*
0 Add four rect primitives between the rounded corners*
20,1,$1+$1,$2,$3,$4,$5,0*
20,1,$1+$1,$4,$5,$6,$7,0*
20,1,$1+$1,$6,$7,$8,$9,0*
20,1,$1+$1,$8,$9,$2,$3,0*%
G04 Aperture macros list end*
%ADD10C,1.950000*%
%ADD11R,1.950000X1.950000*%
%ADD12RoundRect,0.250000X-0.650000X0.412500X-0.650000X-0.412500X0.650000X-0.412500X0.650000X0.412500X0*%
%ADD13C,1.700000*%
%ADD14R,1.700000X1.700000*%
%ADD15RoundRect,0.250000X0.350000X-0.850000X0.350000X0.850000X-0.350000X0.850000X-0.350000X-0.850000X0*%
%ADD16RoundRect,0.249997X2.650003X-2.950003X2.650003X2.950003X-2.650003X2.950003X-2.650003X-2.950003X0*%
%ADD17RoundRect,0.250000X0.650000X-0.412500X0.650000X0.412500X-0.650000X0.412500X-0.650000X-0.412500X0*%
%ADD18RoundRect,0.250000X-0.625000X0.400000X-0.625000X-0.400000X0.625000X-0.400000X0.625000X0.400000X0*%
%ADD19C,2.200000*%
%ADD20RoundRect,0.250000X-0.350000X0.850000X-0.350000X-0.850000X0.350000X-0.850000X0.350000X0.850000X0*%
%ADD21RoundRect,0.249997X-2.650003X2.950003X-2.650003X-2.950003X2.650003X-2.950003X2.650003X2.950003X0*%
%ADD22RoundRect,0.250000X0.625000X-0.400000X0.625000X0.400000X-0.625000X0.400000X-0.625000X-0.400000X0*%
%ADD23RoundRect,0.250000X-0.412500X-0.650000X0.412500X-0.650000X0.412500X0.650000X-0.412500X0.650000X0*%
%ADD24R,0.700000X1.525000*%
%ADD25C,1.500000*%
%ADD26RoundRect,0.250000X0.412500X0.650000X-0.412500X0.650000X-0.412500X-0.650000X0.412500X-0.650000X0*%
%ADD27RoundRect,0.075000X0.075000X-0.662500X0.075000X0.662500X-0.075000X0.662500X-0.075000X-0.662500X0*%
%ADD28RoundRect,0.075000X0.662500X-0.075000X0.662500X0.075000X-0.662500X0.075000X-0.662500X-0.075000X0*%
%ADD29RoundRect,0.100000X-0.225000X-0.100000X0.225000X-0.100000X0.225000X0.100000X-0.225000X0.100000X0*%
G04 APERTURE END LIST*
D10*
%TO.C,J5*%
X86225000Y-65000000D03*
D11*
X81225000Y-65000000D03*
%TD*%
%TO.C,J6*%
X122500000Y-105775000D03*
D10*
X122500000Y-100775000D03*
%TD*%
D12*
%TO.C,C7*%
X103280000Y-106725500D03*
X103280000Y-109850500D03*
%TD*%
D13*
%TO.C,J1*%
X77000000Y-106540000D03*
X77000000Y-104000000D03*
X77000000Y-101460000D03*
D14*
X77000000Y-98920000D03*
%TD*%
D15*
%TO.C,Q2*%
X99695000Y-79125000D03*
D16*
X101975000Y-72825000D03*
D15*
X104255000Y-79125000D03*
%TD*%
D17*
%TO.C,C28*%
X118000000Y-114562500D03*
X118000000Y-111437500D03*
%TD*%
D18*
%TO.C,R10*%
X125000000Y-111450000D03*
X125000000Y-114550000D03*
%TD*%
D19*
%TO.C,REF\u002A\u002A*%
X125000000Y-141500000D03*
%TD*%
D20*
%TO.C,Q7*%
X100950000Y-125660000D03*
D21*
X98670000Y-131960000D03*
D20*
X96390000Y-125660000D03*
%TD*%
D22*
%TO.C,R3*%
X100000000Y-87550000D03*
X100000000Y-84450000D03*
%TD*%
D19*
%TO.C,REF\u002A\u002A*%
X76000000Y-141500000D03*
%TD*%
D12*
%TO.C,C6*%
X111000000Y-115937500D03*
X111000000Y-119062500D03*
%TD*%
D17*
%TO.C,C1*%
X107720000Y-96612500D03*
X107720000Y-93487500D03*
%TD*%
D12*
%TO.C,C5*%
X114000000Y-106437500D03*
X114000000Y-109562500D03*
%TD*%
D23*
%TO.C,C14*%
X88437500Y-103000000D03*
X91562500Y-103000000D03*
%TD*%
D13*
%TO.C,J3*%
X105525000Y-62000000D03*
X102985000Y-62000000D03*
D14*
X100445000Y-62000000D03*
D13*
X97905000Y-62000000D03*
X95365000Y-62000000D03*
X92825000Y-62000000D03*
%TD*%
D24*
%TO.C,U1*%
X111095000Y-97712000D03*
X112365000Y-97712000D03*
X113635000Y-97712000D03*
X114905000Y-97712000D03*
X114905000Y-92288000D03*
X113635000Y-92288000D03*
X112365000Y-92288000D03*
X111095000Y-92288000D03*
%TD*%
%TO.C,U4*%
X100185000Y-106576000D03*
X98915000Y-106576000D03*
X97645000Y-106576000D03*
X96375000Y-106576000D03*
X96375000Y-112000000D03*
X97645000Y-112000000D03*
X98915000Y-112000000D03*
X100185000Y-112000000D03*
%TD*%
D18*
%TO.C,R6*%
X105000000Y-115950000D03*
X105000000Y-119050000D03*
%TD*%
D22*
%TO.C,R9*%
X127000000Y-95550000D03*
X127000000Y-92450000D03*
%TD*%
D15*
%TO.C,Q3*%
X114792500Y-79365000D03*
D16*
X117072500Y-73065000D03*
D15*
X119352500Y-79365000D03*
%TD*%
D17*
%TO.C,C3*%
X105000000Y-96562500D03*
X105000000Y-93437500D03*
%TD*%
D25*
%TO.C,Y1*%
X84560000Y-108000000D03*
X89440000Y-108000000D03*
%TD*%
D12*
%TO.C,C8*%
X100000000Y-115937500D03*
X100000000Y-119062500D03*
%TD*%
D19*
%TO.C,REF\u002A\u002A*%
X75000000Y-62500000D03*
%TD*%
D26*
%TO.C,C13*%
X85562500Y-103000000D03*
X82437500Y-103000000D03*
%TD*%
D20*
%TO.C,Q5*%
X108755000Y-125700000D03*
D21*
X106475000Y-132000000D03*
D20*
X104195000Y-125700000D03*
%TD*%
%TO.C,Q6*%
X116195000Y-125660000D03*
D21*
X113915000Y-131960000D03*
D20*
X111635000Y-125660000D03*
%TD*%
D18*
%TO.C,R5*%
X108000000Y-115950000D03*
X108000000Y-119050000D03*
%TD*%
%TO.C,R8*%
X94000000Y-115950000D03*
X94000000Y-119050000D03*
%TD*%
D15*
%TO.C,Q4*%
X92292500Y-79200000D03*
D16*
X94572500Y-72900000D03*
D15*
X96852500Y-79200000D03*
%TD*%
D27*
%TO.C,U5*%
X85250000Y-99325000D03*
X85750000Y-99325000D03*
X86250000Y-99325000D03*
X86750000Y-99325000D03*
X87250000Y-99325000D03*
X87750000Y-99325000D03*
X88250000Y-99325000D03*
X88750000Y-99325000D03*
X89250000Y-99325000D03*
X89750000Y-99325000D03*
X90250000Y-99325000D03*
X90750000Y-99325000D03*
D28*
X92162500Y-97912500D03*
X92162500Y-97412500D03*
X92162500Y-96912500D03*
X92162500Y-96412500D03*
X92162500Y-95912500D03*
X92162500Y-95412500D03*
X92162500Y-94912500D03*
X92162500Y-94412500D03*
X92162500Y-93912500D03*
X92162500Y-93412500D03*
X92162500Y-92912500D03*
X92162500Y-92412500D03*
D27*
X90750000Y-91000000D03*
X90250000Y-91000000D03*
X89750000Y-91000000D03*
X89250000Y-91000000D03*
X88750000Y-91000000D03*
X88250000Y-91000000D03*
X87750000Y-91000000D03*
X87250000Y-91000000D03*
X86750000Y-91000000D03*
X86250000Y-91000000D03*
X85750000Y-91000000D03*
X85250000Y-91000000D03*
D28*
X83837500Y-92412500D03*
X83837500Y-92912500D03*
X83837500Y-93412500D03*
X83837500Y-93912500D03*
X83837500Y-94412500D03*
X83837500Y-94912500D03*
X83837500Y-95412500D03*
X83837500Y-95912500D03*
X83837500Y-96412500D03*
X83837500Y-96912500D03*
X83837500Y-97412500D03*
X83837500Y-97912500D03*
%TD*%
D18*
%TO.C,R7*%
X97000000Y-115950000D03*
X97000000Y-119050000D03*
%TD*%
D29*
%TO.C,U7*%
X120400000Y-111350000D03*
X120400000Y-112000000D03*
X120400000Y-112650000D03*
X122300000Y-112650000D03*
X122300000Y-112000000D03*
X122300000Y-111350000D03*
%TD*%
%TO.C,U6*%
X122050000Y-93350000D03*
X122050000Y-94000000D03*
X122050000Y-94650000D03*
X123950000Y-94650000D03*
X123950000Y-94000000D03*
X123950000Y-93350000D03*
%TD*%
D22*
%TO.C,R1*%
X110720000Y-87600000D03*
X110720000Y-84500000D03*
%TD*%
D20*
%TO.C,Q8*%
X92755000Y-125700000D03*
D21*
X90475000Y-132000000D03*
D20*
X88195000Y-125700000D03*
%TD*%
D13*
%TO.C,J4*%
X101120000Y-141500000D03*
X98580000Y-141500000D03*
D14*
X96040000Y-141500000D03*
D13*
X93500000Y-141500000D03*
X90960000Y-141500000D03*
X88420000Y-141500000D03*
%TD*%
D22*
%TO.C,R4*%
X103000000Y-87550000D03*
X103000000Y-84450000D03*
%TD*%
D13*
%TO.C,J2*%
X77000000Y-85190000D03*
X77000000Y-87730000D03*
X77000000Y-90270000D03*
D14*
X77000000Y-92810000D03*
%TD*%
D15*
%TO.C,Q1*%
X107292500Y-79365000D03*
D16*
X109572500Y-73065000D03*
D15*
X111852500Y-79365000D03*
%TD*%
D24*
%TO.C,U3*%
X110905000Y-106576000D03*
X109635000Y-106576000D03*
X108365000Y-106576000D03*
X107095000Y-106576000D03*
X107095000Y-112000000D03*
X108365000Y-112000000D03*
X109635000Y-112000000D03*
X110905000Y-112000000D03*
%TD*%
D19*
%TO.C,REF\u002A\u002A*%
X125500000Y-62500000D03*
%TD*%
D22*
%TO.C,R2*%
X114000000Y-87550000D03*
X114000000Y-84450000D03*
%TD*%
D17*
%TO.C,C27*%
X119000000Y-94562500D03*
X119000000Y-91437500D03*
%TD*%
%TO.C,C2*%
X108000000Y-87562500D03*
X108000000Y-84437500D03*
%TD*%
D13*
%TO.C,J7*%
X124525000Y-81700000D03*
X124525000Y-84240000D03*
X124525000Y-86780000D03*
D14*
X124525000Y-89320000D03*
%TD*%
D17*
%TO.C,C4*%
X97000000Y-87562500D03*
X97000000Y-84437500D03*
%TD*%
D24*
%TO.C,U2*%
X98095000Y-97712000D03*
X99365000Y-97712000D03*
X100635000Y-97712000D03*
X101905000Y-97712000D03*
X101905000Y-92288000D03*
X100635000Y-92288000D03*
X99365000Y-92288000D03*
X98095000Y-92288000D03*
%TD*%
M02*
