%TF.GenerationSoftware,KiCad,Pcbnew,9.0.2*%
%TF.CreationDate,2025-07-04T17:20:10+02:00*%
%TF.ProjectId,DC_driver,44435f64-7269-4766-9572-2e6b69636164,rev?*%
%TF.SameCoordinates,Original*%
%TF.FileFunction,Copper,L2,Bot*%
%TF.FilePolarity,Positive*%
%FSLAX46Y46*%
G04 Gerber Fmt 4.6, Leading zero omitted, Abs format (unit mm)*
G04 Created by KiCad (PCBNEW 9.0.2) date 2025-07-04 17:20:10*
%MOMM*%
%LPD*%
G01*
G04 APERTURE LIST*
G04 Aperture macros list*
%AMRoundRect*
0 Rectangle with rounded corners*
0 $1 Rounding radius*
0 $2 $3 $4 $5 $6 $7 $8 $9 X,Y pos of 4 corners*
0 Add a 4 corners polygon primitive as box body*
4,1,4,$2,$3,$4,$5,$6,$7,$8,$9,$2,$3,0*
0 Add four circle primitives for the rounded corners*
1,1,$1+$1,$2,$3*
1,1,$1+$1,$4,$5*
1,1,$1+$1,$6,$7*
1,1,$1+$1,$8,$9*
0 Add four rect primitives between the rounded corners*
20,1,$1+$1,$2,$3,$4,$5,0*
20,1,$1+$1,$4,$5,$6,$7,0*
20,1,$1+$1,$6,$7,$8,$9,0*
20,1,$1+$1,$8,$9,$2,$3,0*%
G04 Aperture macros list end*
%TA.AperFunction,SMDPad,CuDef*%
%ADD10RoundRect,0.250001X-0.624999X0.462499X-0.624999X-0.462499X0.624999X-0.462499X0.624999X0.462499X0*%
%TD*%
%TA.AperFunction,ComponentPad*%
%ADD11C,1.950000*%
%TD*%
%TA.AperFunction,ComponentPad*%
%ADD12R,1.950000X1.950000*%
%TD*%
%TA.AperFunction,ComponentPad*%
%ADD13C,1.700000*%
%TD*%
%TA.AperFunction,ComponentPad*%
%ADD14R,1.700000X1.700000*%
%TD*%
%TA.AperFunction,ComponentPad*%
%ADD15C,1.500000*%
%TD*%
%TA.AperFunction,SMDPad,CuDef*%
%ADD16RoundRect,0.250000X-0.650000X1.500000X-0.650000X-1.500000X0.650000X-1.500000X0.650000X1.500000X0*%
%TD*%
%TA.AperFunction,SMDPad,CuDef*%
%ADD17RoundRect,0.250000X-0.650000X0.412500X-0.650000X-0.412500X0.650000X-0.412500X0.650000X0.412500X0*%
%TD*%
%TA.AperFunction,SMDPad,CuDef*%
%ADD18RoundRect,0.250000X0.650000X-0.412500X0.650000X0.412500X-0.650000X0.412500X-0.650000X-0.412500X0*%
%TD*%
%TA.AperFunction,SMDPad,CuDef*%
%ADD19R,2.450000X5.550000*%
%TD*%
%TA.AperFunction,SMDPad,CuDef*%
%ADD20RoundRect,0.250000X-0.625000X0.400000X-0.625000X-0.400000X0.625000X-0.400000X0.625000X0.400000X0*%
%TD*%
%TA.AperFunction,SMDPad,CuDef*%
%ADD21RoundRect,0.250000X0.650000X-1.500000X0.650000X1.500000X-0.650000X1.500000X-0.650000X-1.500000X0*%
%TD*%
%TA.AperFunction,SMDPad,CuDef*%
%ADD22RoundRect,0.250000X-0.412500X-0.650000X0.412500X-0.650000X0.412500X0.650000X-0.412500X0.650000X0*%
%TD*%
%TA.AperFunction,SMDPad,CuDef*%
%ADD23RoundRect,0.250000X0.412500X0.650000X-0.412500X0.650000X-0.412500X-0.650000X0.412500X-0.650000X0*%
%TD*%
%TA.AperFunction,ViaPad*%
%ADD24C,0.400000*%
%TD*%
%TA.AperFunction,ViaPad*%
%ADD25C,0.600000*%
%TD*%
%TA.AperFunction,Conductor*%
%ADD26C,0.200000*%
%TD*%
%TA.AperFunction,Conductor*%
%ADD27C,0.500000*%
%TD*%
%TA.AperFunction,Conductor*%
%ADD28C,1.270000*%
%TD*%
G04 APERTURE END LIST*
D10*
%TO.P,F1,1*%
%TO.N,Net-(J6-Pin_1)*%
X125700000Y-101112500D03*
%TO.P,F1,2*%
%TO.N,+12V*%
X125700000Y-104087500D03*
%TD*%
D11*
%TO.P,J5,1,Pin_1*%
%TO.N,+5V*%
X86225000Y-65000000D03*
D12*
%TO.P,J5,2,Pin_2*%
%TO.N,GND*%
X81225000Y-65000000D03*
%TD*%
%TO.P,J6,2,Pin_2*%
%TO.N,GND*%
X122500000Y-105775000D03*
D11*
%TO.P,J6,1,Pin_1*%
%TO.N,Net-(J6-Pin_1)*%
X122500000Y-100775000D03*
%TD*%
D13*
%TO.P,J1,1,Pin_1*%
%TO.N,+3.3V*%
X77000000Y-106540000D03*
%TO.P,J1,2,Pin_2*%
%TO.N,USART_RX*%
X77000000Y-104000000D03*
%TO.P,J1,3,Pin_3*%
%TO.N,USART_TX*%
X77000000Y-101460000D03*
D14*
%TO.P,J1,4,Pin_4*%
%TO.N,GND*%
X77000000Y-98920000D03*
%TD*%
D13*
%TO.P,J3,1,Pin_1*%
%TO.N,MOTOR1_POWER_A*%
X105525000Y-62000000D03*
%TO.P,J3,2,Pin_2*%
%TO.N,MOTOR1_POWER_B*%
X102985000Y-62000000D03*
D14*
%TO.P,J3,3,Pin_3*%
%TO.N,GND*%
X100445000Y-62000000D03*
D13*
%TO.P,J3,4,Pin_4*%
%TO.N,+5V*%
X97905000Y-62000000D03*
%TO.P,J3,5,Pin_5*%
%TO.N,MOTOR1_ENCODER_A*%
X95365000Y-62000000D03*
%TO.P,J3,6,Pin_6*%
%TO.N,MOTOR1_ENCODER_B*%
X92825000Y-62000000D03*
%TD*%
D15*
%TO.P,Y1,1,1*%
%TO.N,OSC_IN*%
X84560000Y-108000000D03*
%TO.P,Y1,2,2*%
%TO.N,OSC_OUT*%
X89440000Y-108000000D03*
%TD*%
D13*
%TO.P,J4,1,Pin_1*%
%TO.N,MOTOR2_POWER_A*%
X101120000Y-141500000D03*
%TO.P,J4,2,Pin_2*%
%TO.N,MOTOR2_POWER_B*%
X98580000Y-141500000D03*
D14*
%TO.P,J4,3,Pin_3*%
%TO.N,GND*%
X96040000Y-141500000D03*
D13*
%TO.P,J4,4,Pin_4*%
%TO.N,+5V*%
X93500000Y-141500000D03*
%TO.P,J4,5,Pin_5*%
%TO.N,MOTOR2_ENCODER_A*%
X90960000Y-141500000D03*
%TO.P,J4,6,Pin_6*%
%TO.N,MOTOR2_ENCODER_B*%
X88420000Y-141500000D03*
%TD*%
%TO.P,J2,1,Pin_1*%
%TO.N,RES*%
X77000000Y-85190000D03*
%TO.P,J2,2,Pin_2*%
%TO.N,SWDIO*%
X77000000Y-87730000D03*
%TO.P,J2,3,Pin_3*%
%TO.N,SWDCLK*%
X77000000Y-90270000D03*
D14*
%TO.P,J2,4,Pin_4*%
%TO.N,GND*%
X77000000Y-92810000D03*
%TD*%
D13*
%TO.P,J7,1,Pin_1*%
%TO.N,3S*%
X124525000Y-81700000D03*
%TO.P,J7,2,Pin_2*%
%TO.N,2S*%
X124525000Y-84240000D03*
%TO.P,J7,3,Pin_3*%
%TO.N,1S*%
X124525000Y-86780000D03*
D14*
%TO.P,J7,4,Pin_4*%
%TO.N,GND*%
X124525000Y-89320000D03*
%TD*%
D16*
%TO.P,D7,1,K*%
%TO.N,V_R2*%
X84195000Y-128000000D03*
%TO.P,D7,2,A*%
%TO.N,MOTOR2_POWER_B*%
X84195000Y-133000000D03*
%TD*%
D17*
%TO.P,C29,1*%
%TO.N,V_CELL_3*%
X96000000Y-93437500D03*
%TO.P,C29,2*%
%TO.N,GND*%
X96000000Y-96562500D03*
%TD*%
D18*
%TO.P,C10,1*%
%TO.N,+5V*%
X81000000Y-141862500D03*
%TO.P,C10,2*%
%TO.N,GND*%
X81000000Y-138737500D03*
%TD*%
D19*
%TO.P,C23,1*%
%TO.N,V_R1*%
X112500000Y-69200000D03*
%TO.P,C23,2*%
%TO.N,GND*%
X112500000Y-79000000D03*
%TD*%
D20*
%TO.P,R14,1*%
%TO.N,V_CELL_2*%
X108100000Y-93450000D03*
%TO.P,R14,2*%
%TO.N,GND*%
X108100000Y-96550000D03*
%TD*%
D18*
%TO.P,C22,1*%
%TO.N,RES*%
X81500000Y-86062500D03*
%TO.P,C22,2*%
%TO.N,GND*%
X81500000Y-82937500D03*
%TD*%
D21*
%TO.P,D2,1,K*%
%TO.N,V_R1*%
X85525000Y-79000000D03*
%TO.P,D2,2,A*%
%TO.N,MOTOR1_POWER_B*%
X85525000Y-74000000D03*
%TD*%
D22*
%TO.P,C16,1*%
%TO.N,+3.3V*%
X91437500Y-105000000D03*
%TO.P,C16,2*%
%TO.N,GND*%
X94562500Y-105000000D03*
%TD*%
D18*
%TO.P,C9,1*%
%TO.N,+5V*%
X84000000Y-141862500D03*
%TO.P,C9,2*%
%TO.N,GND*%
X84000000Y-138737500D03*
%TD*%
D16*
%TO.P,D3,1,K*%
%TO.N,MOTOR1_POWER_A*%
X126500000Y-71500000D03*
%TO.P,D3,2,A*%
%TO.N,GND*%
X126500000Y-76500000D03*
%TD*%
D19*
%TO.P,C24,1*%
%TO.N,V_R1*%
X97160000Y-69200000D03*
%TO.P,C24,2*%
%TO.N,GND*%
X97160000Y-79000000D03*
%TD*%
D21*
%TO.P,D8,1,K*%
%TO.N,MOTOR2_POWER_B*%
X80195000Y-133000000D03*
%TO.P,D8,2,A*%
%TO.N,GND*%
X80195000Y-128000000D03*
%TD*%
D19*
%TO.P,C26,1*%
%TO.N,V_R2*%
X94195000Y-134200000D03*
%TO.P,C26,2*%
%TO.N,GND*%
X94195000Y-124400000D03*
%TD*%
D22*
%TO.P,C20,1*%
%TO.N,+3.3V*%
X85000000Y-87000000D03*
%TO.P,C20,2*%
%TO.N,GND*%
X88125000Y-87000000D03*
%TD*%
D20*
%TO.P,R11,1*%
%TO.N,3S*%
X105500000Y-87450000D03*
%TO.P,R11,2*%
%TO.N,V_CELL_3*%
X105500000Y-90550000D03*
%TD*%
D17*
%TO.P,C31,1*%
%TO.N,V_CELL_1*%
X102000000Y-93437500D03*
%TO.P,C31,2*%
%TO.N,GND*%
X102000000Y-96562500D03*
%TD*%
D20*
%TO.P,R13,1*%
%TO.N,2S*%
X108200000Y-87450000D03*
%TO.P,R13,2*%
%TO.N,V_CELL_2*%
X108200000Y-90550000D03*
%TD*%
D19*
%TO.P,C25,1*%
%TO.N,V_R2*%
X110200000Y-134200000D03*
%TO.P,C25,2*%
%TO.N,GND*%
X110200000Y-124400000D03*
%TD*%
D20*
%TO.P,R12,1*%
%TO.N,V_CELL_3*%
X105500000Y-93450000D03*
%TO.P,R12,2*%
%TO.N,GND*%
X105500000Y-96550000D03*
%TD*%
D23*
%TO.P,C17,1*%
%TO.N,+3.3V*%
X93562500Y-87000000D03*
%TO.P,C17,2*%
%TO.N,GND*%
X90437500Y-87000000D03*
%TD*%
D17*
%TO.P,C30,1*%
%TO.N,V_CELL_2*%
X99000000Y-93437500D03*
%TO.P,C30,2*%
%TO.N,GND*%
X99000000Y-96562500D03*
%TD*%
D22*
%TO.P,C21,1*%
%TO.N,+3.3V*%
X85000000Y-84000000D03*
%TO.P,C21,2*%
%TO.N,GND*%
X88125000Y-84000000D03*
%TD*%
%TO.P,C15,1*%
%TO.N,+3.3V*%
X91437500Y-102000000D03*
%TO.P,C15,2*%
%TO.N,GND*%
X94562500Y-102000000D03*
%TD*%
D16*
%TO.P,D5,1,K*%
%TO.N,V_R2*%
X121195000Y-128000000D03*
%TO.P,D5,2,A*%
%TO.N,MOTOR2_POWER_A*%
X121195000Y-133000000D03*
%TD*%
D17*
%TO.P,C19,1*%
%TO.N,+3.3V*%
X82000000Y-99437500D03*
%TO.P,C19,2*%
%TO.N,GND*%
X82000000Y-102562500D03*
%TD*%
D21*
%TO.P,D6,1,K*%
%TO.N,MOTOR2_POWER_A*%
X125195000Y-133000000D03*
%TO.P,D6,2,A*%
%TO.N,GND*%
X125195000Y-128000000D03*
%TD*%
D20*
%TO.P,R16,1*%
%TO.N,V_CELL_1*%
X117800000Y-90650000D03*
%TO.P,R16,2*%
%TO.N,GND*%
X117800000Y-93750000D03*
%TD*%
D21*
%TO.P,D1,1,K*%
%TO.N,V_R1*%
X122500000Y-76500000D03*
%TO.P,D1,2,A*%
%TO.N,MOTOR1_POWER_A*%
X122500000Y-71500000D03*
%TD*%
D17*
%TO.P,C12,1*%
%TO.N,+5V*%
X111525000Y-60437500D03*
%TO.P,C12,2*%
%TO.N,GND*%
X111525000Y-63562500D03*
%TD*%
D16*
%TO.P,D4,1,K*%
%TO.N,MOTOR1_POWER_B*%
X81525000Y-74000000D03*
%TO.P,D4,2,A*%
%TO.N,GND*%
X81525000Y-79000000D03*
%TD*%
D20*
%TO.P,R15,1*%
%TO.N,1S*%
X120500000Y-87350000D03*
%TO.P,R15,2*%
%TO.N,V_CELL_1*%
X120500000Y-90450000D03*
%TD*%
D23*
%TO.P,C18,1*%
%TO.N,+3.3V*%
X93562500Y-84000000D03*
%TO.P,C18,2*%
%TO.N,GND*%
X90437500Y-84000000D03*
%TD*%
D17*
%TO.P,C11,1*%
%TO.N,+5V*%
X115525000Y-60437500D03*
%TO.P,C11,2*%
%TO.N,GND*%
X115525000Y-63562500D03*
%TD*%
D24*
%TO.N,USART_TX*%
X89000000Y-93900000D03*
%TO.N,+3.3V*%
X82000000Y-98000000D03*
D25*
%TO.N,GND*%
X112200000Y-103300000D03*
X117800000Y-100100000D03*
%TO.N,+12V*%
X125000000Y-109300000D03*
X127000000Y-97400000D03*
X116000000Y-106000000D03*
X103963485Y-105036515D03*
X116200000Y-99400000D03*
%TO.N,GND*%
X121700000Y-82600000D03*
X88200000Y-81600000D03*
X105600000Y-83200000D03*
X116000000Y-96400000D03*
X124500000Y-91700000D03*
X114400000Y-116900000D03*
X118500000Y-64300000D03*
X120500000Y-92900000D03*
X79200000Y-137800000D03*
X112700000Y-123400000D03*
X89000000Y-74300000D03*
X102800000Y-118400000D03*
X80400000Y-107100000D03*
X124200000Y-96800000D03*
X109800000Y-92400000D03*
X99900000Y-81600000D03*
X119100000Y-109500000D03*
X115700000Y-67200000D03*
X117700000Y-86300000D03*
X115300000Y-118500000D03*
X79300000Y-111200000D03*
X88900000Y-120200000D03*
X96000000Y-105000000D03*
X81500000Y-92000000D03*
X90600000Y-120200000D03*
X79500000Y-93500000D03*
X91600000Y-136600000D03*
X85100000Y-67900000D03*
X96100000Y-143800000D03*
X103500000Y-97700000D03*
X83700000Y-71400000D03*
X117600000Y-82600000D03*
X119300000Y-97400000D03*
X96600000Y-98200000D03*
X90400000Y-81500000D03*
X79200000Y-97800000D03*
X77400000Y-71700000D03*
X125600000Y-123000000D03*
X119800000Y-122200000D03*
X102800000Y-120400000D03*
X79500000Y-92000000D03*
D24*
X86000000Y-92500000D03*
D25*
X127900000Y-79300000D03*
X79400000Y-86900000D03*
X117900000Y-107100000D03*
X120600000Y-96400000D03*
X77800000Y-75100000D03*
X90200000Y-136600000D03*
X119300000Y-103100000D03*
X99100000Y-65500000D03*
X90300000Y-62900000D03*
X95300000Y-89200000D03*
X77800000Y-133200000D03*
X80700000Y-105300000D03*
%TO.N,MOTOR1_POWER_A*%
X110000000Y-81000000D03*
X108000000Y-83000000D03*
%TO.N,MOTOR1_POWER_B*%
X100115000Y-90000000D03*
X104000000Y-81500000D03*
X97000000Y-83000000D03*
%TO.N,MOTOR2_POWER_A*%
X110000000Y-120250000D03*
X108000000Y-114000000D03*
%TO.N,MOTOR2_POWER_B*%
X97000000Y-114000000D03*
X99000000Y-121000000D03*
D24*
%TO.N,+3.3V*%
X92550000Y-91450000D03*
X118200000Y-96000000D03*
X85000000Y-89400000D03*
X89600000Y-101000000D03*
D25*
X115000000Y-114000000D03*
D24*
%TO.N,RES*%
X83000000Y-90000000D03*
D25*
%TO.N,V_R1*%
X104000000Y-69000000D03*
X127000000Y-82500000D03*
X107000000Y-69000000D03*
%TO.N,V_R2*%
X123000000Y-122000000D03*
X103195000Y-131960000D03*
X102195000Y-131960000D03*
D24*
%TO.N,USART_RX*%
X87500000Y-94400000D03*
D25*
%TO.N,PWM2_1B*%
X106000000Y-121000000D03*
X116000000Y-123000000D03*
%TO.N,PWM2_2B*%
X101000000Y-122000000D03*
X95800000Y-120800000D03*
D24*
%TO.N,V_CELL_3*%
X94000000Y-94000000D03*
%TO.N,V_CELL_2*%
X94400000Y-94600000D03*
%TO.N,V_CELL_1*%
X94600000Y-95400000D03*
%TD*%
D26*
%TO.N,+3.3V*%
X93562500Y-90437500D02*
X93562500Y-87000000D01*
X92550000Y-91450000D02*
X93562500Y-90437500D01*
X91437500Y-92562500D02*
X91437500Y-102000000D01*
X92550000Y-91450000D02*
X91437500Y-92562500D01*
X85400000Y-89000000D02*
X85000000Y-89400000D01*
X92815201Y-90315201D02*
X91500000Y-89000000D01*
X91500000Y-89000000D02*
X85400000Y-89000000D01*
X92815201Y-91184799D02*
X92815201Y-90315201D01*
X92550000Y-91450000D02*
X92815201Y-91184799D01*
X85000000Y-89400000D02*
X85000000Y-87000000D01*
%TO.N,V_CELL_2*%
X97837500Y-94600000D02*
X99000000Y-93437500D01*
X94400000Y-94600000D02*
X97837500Y-94600000D01*
%TO.N,+3.3V*%
X89624911Y-101024911D02*
X90462411Y-101024911D01*
X83562500Y-101000000D02*
X82000000Y-99437500D01*
X89600000Y-101000000D02*
X83562500Y-101000000D01*
X89600000Y-101000000D02*
X89624911Y-101024911D01*
X90462411Y-101024911D02*
X91437500Y-102000000D01*
%TO.N,USART_RX*%
X84886450Y-97013550D02*
X87500000Y-94400000D01*
X82013550Y-97013550D02*
X84886450Y-97013550D01*
X79013550Y-100013550D02*
X82013550Y-97013550D01*
X77000000Y-104000000D02*
X79013550Y-101986450D01*
X79013550Y-101986450D02*
X79013550Y-100013550D01*
D27*
%TO.N,+12V*%
X115000000Y-100600000D02*
X116200000Y-99400000D01*
X115000000Y-105000000D02*
X115000000Y-100600000D01*
X116600000Y-99000000D02*
X116200000Y-99400000D01*
X127411000Y-99000000D02*
X116600000Y-99000000D01*
D28*
X127411000Y-99000000D02*
X127411000Y-97811000D01*
X125700000Y-108600000D02*
X125000000Y-109300000D01*
X125700000Y-104087500D02*
X125700000Y-108600000D01*
X127411000Y-97811000D02*
X127000000Y-97400000D01*
X127411000Y-102376500D02*
X127411000Y-99000000D01*
X125700000Y-104087500D02*
X127411000Y-102376500D01*
%TO.N,Net-(J6-Pin_1)*%
X125362500Y-100775000D02*
X125700000Y-101112500D01*
X122500000Y-100775000D02*
X125362500Y-100775000D01*
D27*
%TO.N,+12V*%
X103963485Y-105036515D02*
X104000000Y-105000000D01*
X115000000Y-105000000D02*
X116000000Y-106000000D01*
X104000000Y-105000000D02*
X115000000Y-105000000D01*
D28*
%TO.N,MOTOR1_POWER_A*%
X122500000Y-71500000D02*
X116500000Y-65500000D01*
X109025000Y-65500000D02*
X105525000Y-62000000D01*
X116500000Y-65500000D02*
X109025000Y-65500000D01*
X122500000Y-71500000D02*
X126500000Y-71500000D01*
D27*
X108000000Y-83000000D02*
X110000000Y-81000000D01*
D28*
%TO.N,MOTOR1_POWER_B*%
X85525000Y-73475000D02*
X95000000Y-64000000D01*
X85525000Y-74000000D02*
X81525000Y-74000000D01*
D27*
X98000000Y-87885000D02*
X98000000Y-83000000D01*
D28*
X95000000Y-64000000D02*
X101817000Y-64000000D01*
D27*
X102500000Y-83000000D02*
X104000000Y-81500000D01*
D28*
X102985000Y-62832000D02*
X102985000Y-62000000D01*
D27*
X97000000Y-83000000D02*
X98000000Y-83000000D01*
D28*
X85525000Y-74000000D02*
X85525000Y-73475000D01*
D27*
X98000000Y-87885000D02*
X100115000Y-90000000D01*
D28*
X101817000Y-64000000D02*
X102985000Y-62832000D01*
D27*
X98000000Y-83000000D02*
X102500000Y-83000000D01*
%TO.N,MOTOR2_POWER_A*%
X108000000Y-114000000D02*
X108000000Y-118250000D01*
X108000000Y-118250000D02*
X110000000Y-120250000D01*
D28*
X121195000Y-133000000D02*
X125195000Y-133000000D01*
X116500000Y-141500000D02*
X121195000Y-136805000D01*
X121195000Y-136805000D02*
X121195000Y-133000000D01*
X101120000Y-141500000D02*
X116500000Y-141500000D01*
%TO.N,MOTOR2_POWER_B*%
X89695000Y-138500000D02*
X96782081Y-138500000D01*
X84195000Y-133000000D02*
X80195000Y-133000000D01*
X98580000Y-140297919D02*
X98580000Y-141500000D01*
X96782081Y-138500000D02*
X98580000Y-140297919D01*
X84195000Y-133000000D02*
X89695000Y-138500000D01*
D27*
X97000000Y-114000000D02*
X97000000Y-119000000D01*
X97000000Y-119000000D02*
X99000000Y-121000000D01*
%TO.N,+5V*%
X111525000Y-60437500D02*
X108962500Y-60437500D01*
X91200000Y-143800000D02*
X84000000Y-143800000D01*
X84000000Y-143800000D02*
X84000000Y-141862500D01*
X93500000Y-141500000D02*
X91200000Y-143800000D01*
X81000000Y-141862500D02*
X81000000Y-141500000D01*
X108525000Y-60000000D02*
X108962500Y-60437500D01*
X83225000Y-68000000D02*
X86225000Y-65000000D01*
X81000000Y-141500000D02*
X73000000Y-133500000D01*
X115525000Y-60437500D02*
X111525000Y-60437500D01*
X84000000Y-143800000D02*
X81000000Y-143800000D01*
X73000000Y-74500000D02*
X79500000Y-68000000D01*
X81000000Y-141862500D02*
X80562500Y-141862500D01*
X79500000Y-68000000D02*
X83225000Y-68000000D01*
X97905000Y-62000000D02*
X97905000Y-60380000D01*
X81000000Y-143800000D02*
X81000000Y-141862500D01*
X97525000Y-60000000D02*
X108525000Y-60000000D01*
X97525000Y-60000000D02*
X91225000Y-60000000D01*
X91225000Y-60000000D02*
X86225000Y-65000000D01*
X97905000Y-60380000D02*
X97525000Y-60000000D01*
X73000000Y-133500000D02*
X73000000Y-74500000D01*
D26*
%TO.N,+3.3V*%
X114200000Y-100000000D02*
X93437500Y-100000000D01*
X91437500Y-105000000D02*
X91437500Y-102000000D01*
X77000000Y-106540000D02*
X80460000Y-110000000D01*
X117400000Y-96800000D02*
X118200000Y-96000000D01*
X85000000Y-87000000D02*
X85000000Y-84000000D01*
X80000000Y-103540000D02*
X77000000Y-106540000D01*
X114200000Y-100000000D02*
X117400000Y-96800000D01*
X111000000Y-110000000D02*
X115000000Y-114000000D01*
X82000000Y-98000000D02*
X82000000Y-99437500D01*
X82000000Y-99437500D02*
X80000000Y-101437500D01*
X80000000Y-101437500D02*
X80000000Y-103540000D01*
X80460000Y-110000000D02*
X111000000Y-110000000D01*
X93437500Y-100000000D02*
X91437500Y-102000000D01*
X93562500Y-87000000D02*
X93562500Y-84000000D01*
%TO.N,RES*%
X81440000Y-86000000D02*
X81000000Y-86000000D01*
X80190000Y-85190000D02*
X77000000Y-85190000D01*
X81440000Y-88440000D02*
X81440000Y-86000000D01*
X83000000Y-90000000D02*
X81440000Y-88440000D01*
X81000000Y-86000000D02*
X80190000Y-85190000D01*
D28*
%TO.N,V_R1*%
X122500000Y-76500000D02*
X118000000Y-76500000D01*
X85525000Y-79000000D02*
X88000000Y-79000000D01*
X112500000Y-69200000D02*
X97160000Y-69200000D01*
X97160000Y-69840000D02*
X97160000Y-69200000D01*
X88000000Y-79000000D02*
X97160000Y-69840000D01*
X127000000Y-82500000D02*
X127000000Y-81000000D01*
X97060000Y-69000000D02*
X97160000Y-69100000D01*
X118000000Y-76500000D02*
X112500000Y-71000000D01*
X112500000Y-71000000D02*
X112500000Y-69200000D01*
X97525000Y-69465000D02*
X97160000Y-69100000D01*
X127000000Y-81000000D02*
X122500000Y-76500000D01*
%TO.N,V_R2*%
X103235000Y-132000000D02*
X103195000Y-131960000D01*
X102195000Y-131960000D02*
X95430000Y-131960000D01*
X84195000Y-128000000D02*
X89000000Y-128000000D01*
X110195000Y-135500000D02*
X110195000Y-132805000D01*
X110195000Y-132805000D02*
X112000000Y-131000000D01*
X95430000Y-131960000D02*
X94195000Y-133195000D01*
X112000000Y-131000000D02*
X116000000Y-131000000D01*
X121195000Y-128000000D02*
X121195000Y-123805000D01*
X94195000Y-133195000D02*
X94195000Y-135500000D01*
X89000000Y-128000000D02*
X94195000Y-133195000D01*
X116000000Y-131000000D02*
X119000000Y-128000000D01*
X121195000Y-123805000D02*
X123000000Y-122000000D01*
X119000000Y-128000000D02*
X121195000Y-128000000D01*
X110195000Y-132805000D02*
X109390000Y-132000000D01*
X109390000Y-132000000D02*
X103235000Y-132000000D01*
D27*
%TO.N,PWM2_1B*%
X114000000Y-121000000D02*
X116000000Y-123000000D01*
X106000000Y-121000000D02*
X114000000Y-121000000D01*
%TO.N,PWM2_2B*%
X97200000Y-122000000D02*
X97000000Y-122000000D01*
X97000000Y-122000000D02*
X95800000Y-120800000D01*
X97200000Y-122000000D02*
X101000000Y-122000000D01*
D26*
%TO.N,V_CELL_3*%
X94562500Y-93437500D02*
X96000000Y-93437500D01*
X105500000Y-93450000D02*
X105500000Y-91500000D01*
X94000000Y-94000000D02*
X94562500Y-93437500D01*
X96000000Y-93437500D02*
X97937500Y-91500000D01*
X97937500Y-91500000D02*
X105500000Y-91500000D01*
X105500000Y-91500000D02*
X105500000Y-90550000D01*
%TO.N,V_CELL_2*%
X104661500Y-94661500D02*
X106888500Y-94661500D01*
X103000000Y-92000000D02*
X100437500Y-92000000D01*
X108100000Y-90650000D02*
X108200000Y-90550000D01*
X106888500Y-94661500D02*
X108100000Y-93450000D01*
X103500000Y-93500000D02*
X103500000Y-92500000D01*
X104661500Y-94661500D02*
X103500000Y-93500000D01*
X103500000Y-92500000D02*
X103000000Y-92000000D01*
X108100000Y-93450000D02*
X108100000Y-90650000D01*
X100437500Y-92000000D02*
X99000000Y-93437500D01*
%TO.N,V_CELL_1*%
X120500000Y-90450000D02*
X118000000Y-90450000D01*
X117800000Y-91300000D02*
X117800000Y-90650000D01*
X113600000Y-95500000D02*
X102500000Y-95500000D01*
X102500000Y-95500000D02*
X102000000Y-95000000D01*
X118000000Y-90450000D02*
X117800000Y-90650000D01*
X101600000Y-95400000D02*
X102000000Y-95000000D01*
X94600000Y-95400000D02*
X101600000Y-95400000D01*
X113600000Y-95500000D02*
X117800000Y-91300000D01*
X102000000Y-95000000D02*
X102000000Y-93437500D01*
%TO.N,2S*%
X123864000Y-84901000D02*
X110749000Y-84901000D01*
X110749000Y-84901000D02*
X108200000Y-87450000D01*
X124525000Y-84240000D02*
X123864000Y-84901000D01*
%TO.N,1S*%
X120500000Y-87350000D02*
X123955000Y-87350000D01*
X123955000Y-87350000D02*
X124525000Y-86780000D01*
%TO.N,3S*%
X121725000Y-84500000D02*
X124525000Y-81700000D01*
X108450000Y-84500000D02*
X121725000Y-84500000D01*
X105500000Y-87450000D02*
X108450000Y-84500000D01*
%TO.N,USART_TX*%
X81847450Y-96612550D02*
X77000000Y-101460000D01*
X84387450Y-96612550D02*
X81847450Y-96612550D01*
X87100000Y-93900000D02*
X84387450Y-96612550D01*
X89000000Y-93900000D02*
X87100000Y-93900000D01*
%TD*%
%TA.AperFunction,Conductor*%
%TO.N,GND*%
G36*
X128442539Y-59020185D02*
G01*
X128488294Y-59072989D01*
X128499500Y-59124500D01*
X128499500Y-96995731D01*
X128479815Y-97062770D01*
X128427011Y-97108525D01*
X128357853Y-97118469D01*
X128294297Y-97089444D01*
X128280690Y-97074622D01*
X128280275Y-97074977D01*
X128277108Y-97071269D01*
X127739730Y-96533891D01*
X127739728Y-96533889D01*
X127595131Y-96428833D01*
X127435884Y-96347692D01*
X127386986Y-96331804D01*
X127265897Y-96292459D01*
X127265891Y-96292458D01*
X127089370Y-96264500D01*
X127089366Y-96264500D01*
X126910634Y-96264500D01*
X126910630Y-96264500D01*
X126734108Y-96292458D01*
X126734106Y-96292458D01*
X126734103Y-96292459D01*
X126650940Y-96319481D01*
X126564115Y-96347692D01*
X126404868Y-96428833D01*
X126322370Y-96488771D01*
X126260272Y-96533889D01*
X126260270Y-96533891D01*
X126260269Y-96533891D01*
X126133891Y-96660269D01*
X126133891Y-96660270D01*
X126133889Y-96660272D01*
X126088771Y-96722370D01*
X126028833Y-96804868D01*
X125947692Y-96964115D01*
X125936041Y-96999973D01*
X125892459Y-97134103D01*
X125892458Y-97134106D01*
X125892458Y-97134108D01*
X125864500Y-97310629D01*
X125864500Y-97489370D01*
X125887464Y-97634358D01*
X125892459Y-97665897D01*
X125911663Y-97724999D01*
X125947692Y-97835884D01*
X125996160Y-97931007D01*
X126028833Y-97995131D01*
X126048479Y-98022172D01*
X126070597Y-98052614D01*
X126094077Y-98118421D01*
X126078252Y-98186475D01*
X126028146Y-98235170D01*
X125970279Y-98249500D01*
X117099097Y-98249500D01*
X117032058Y-98229815D01*
X116986303Y-98177011D01*
X116976359Y-98107853D01*
X117005384Y-98044297D01*
X117011416Y-98037819D01*
X117880519Y-97168716D01*
X118272484Y-96776750D01*
X118298295Y-96756969D01*
X118552530Y-96610595D01*
X118552551Y-96610583D01*
X118566352Y-96602342D01*
X118566966Y-96601962D01*
X118623174Y-96561606D01*
X118623176Y-96561603D01*
X118625104Y-96559884D01*
X118638765Y-96549310D01*
X118646542Y-96544114D01*
X118744114Y-96446542D01*
X118820775Y-96331811D01*
X118873580Y-96204328D01*
X118882389Y-96160041D01*
X118900500Y-96068995D01*
X118900500Y-95931004D01*
X118873581Y-95795677D01*
X118873580Y-95795676D01*
X118873580Y-95795672D01*
X118873578Y-95795667D01*
X118820778Y-95668195D01*
X118820771Y-95668182D01*
X118744114Y-95553458D01*
X118744111Y-95553454D01*
X118646545Y-95455888D01*
X118646541Y-95455885D01*
X118531817Y-95379228D01*
X118531804Y-95379221D01*
X118404332Y-95326421D01*
X118404322Y-95326418D01*
X118268995Y-95299500D01*
X118268993Y-95299500D01*
X118131007Y-95299500D01*
X118131005Y-95299500D01*
X117995677Y-95326418D01*
X117995667Y-95326421D01*
X117868195Y-95379221D01*
X117868182Y-95379228D01*
X117753458Y-95455885D01*
X117753454Y-95455888D01*
X117655892Y-95553451D01*
X117655886Y-95553458D01*
X117616779Y-95611984D01*
X117611243Y-95619624D01*
X117589415Y-95647449D01*
X117443026Y-95901707D01*
X117423246Y-95927517D01*
X117031284Y-96319481D01*
X113987584Y-99363181D01*
X113926261Y-99396666D01*
X113899903Y-99399500D01*
X93516557Y-99399500D01*
X93358443Y-99399500D01*
X93205715Y-99440423D01*
X93205714Y-99440423D01*
X93205712Y-99440424D01*
X93205709Y-99440425D01*
X93155596Y-99469359D01*
X93155595Y-99469360D01*
X93112189Y-99494420D01*
X93068785Y-99519479D01*
X93068782Y-99519481D01*
X92249681Y-100338583D01*
X92188358Y-100372068D01*
X92118666Y-100367084D01*
X92062733Y-100325212D01*
X92038316Y-100259748D01*
X92038000Y-100250902D01*
X92038000Y-97024986D01*
X94600001Y-97024986D01*
X94610494Y-97127697D01*
X94665641Y-97294119D01*
X94665643Y-97294124D01*
X94757684Y-97443345D01*
X94881654Y-97567315D01*
X95030875Y-97659356D01*
X95030880Y-97659358D01*
X95197302Y-97714505D01*
X95197309Y-97714506D01*
X95300019Y-97724999D01*
X95749999Y-97724999D01*
X96250000Y-97724999D01*
X96699972Y-97724999D01*
X96699986Y-97724998D01*
X96802697Y-97714505D01*
X96969119Y-97659358D01*
X96969124Y-97659356D01*
X97118345Y-97567315D01*
X97242315Y-97443345D01*
X97334356Y-97294124D01*
X97334359Y-97294117D01*
X97382293Y-97149461D01*
X97422065Y-97092016D01*
X97486581Y-97065192D01*
X97555357Y-97077507D01*
X97606557Y-97125049D01*
X97617705Y-97149459D01*
X97665642Y-97294121D01*
X97665643Y-97294124D01*
X97757684Y-97443345D01*
X97881654Y-97567315D01*
X98030875Y-97659356D01*
X98030880Y-97659358D01*
X98197302Y-97714505D01*
X98197309Y-97714506D01*
X98300019Y-97724999D01*
X98749999Y-97724999D01*
X99250000Y-97724999D01*
X99699972Y-97724999D01*
X99699986Y-97724998D01*
X99802697Y-97714505D01*
X99969119Y-97659358D01*
X99969124Y-97659356D01*
X100118345Y-97567315D01*
X100242315Y-97443345D01*
X100334356Y-97294124D01*
X100334359Y-97294117D01*
X100382293Y-97149461D01*
X100422065Y-97092016D01*
X100486581Y-97065192D01*
X100555357Y-97077507D01*
X100606557Y-97125049D01*
X100617705Y-97149459D01*
X100665642Y-97294121D01*
X100665643Y-97294124D01*
X100757684Y-97443345D01*
X100881654Y-97567315D01*
X101030875Y-97659356D01*
X101030880Y-97659358D01*
X101197302Y-97714505D01*
X101197309Y-97714506D01*
X101300019Y-97724999D01*
X101749999Y-97724999D01*
X102250000Y-97724999D01*
X102699972Y-97724999D01*
X102699986Y-97724998D01*
X102802697Y-97714505D01*
X102969119Y-97659358D01*
X102969124Y-97659356D01*
X103118345Y-97567315D01*
X103242315Y-97443345D01*
X103334356Y-97294124D01*
X103334358Y-97294119D01*
X103389505Y-97127697D01*
X103389506Y-97127690D01*
X103399999Y-97024986D01*
X103400000Y-97024973D01*
X103400000Y-96999986D01*
X104125001Y-96999986D01*
X104135494Y-97102697D01*
X104190641Y-97269119D01*
X104190643Y-97269124D01*
X104282684Y-97418345D01*
X104406654Y-97542315D01*
X104555875Y-97634356D01*
X104555880Y-97634358D01*
X104722302Y-97689505D01*
X104722309Y-97689506D01*
X104825019Y-97699999D01*
X105249999Y-97699999D01*
X105750000Y-97699999D01*
X106174972Y-97699999D01*
X106174986Y-97699998D01*
X106277697Y-97689505D01*
X106444119Y-97634358D01*
X106444124Y-97634356D01*
X106593345Y-97542315D01*
X106712319Y-97423342D01*
X106773642Y-97389857D01*
X106843334Y-97394841D01*
X106887681Y-97423342D01*
X107006654Y-97542315D01*
X107155875Y-97634356D01*
X107155880Y-97634358D01*
X107322302Y-97689505D01*
X107322309Y-97689506D01*
X107425019Y-97699999D01*
X107849999Y-97699999D01*
X108350000Y-97699999D01*
X108774972Y-97699999D01*
X108774986Y-97699998D01*
X108877697Y-97689505D01*
X109044119Y-97634358D01*
X109044124Y-97634356D01*
X109193345Y-97542315D01*
X109317315Y-97418345D01*
X109409356Y-97269124D01*
X109409358Y-97269119D01*
X109464505Y-97102697D01*
X109464506Y-97102690D01*
X109474999Y-96999986D01*
X109475000Y-96999973D01*
X109475000Y-96800000D01*
X108350000Y-96800000D01*
X108350000Y-97699999D01*
X107849999Y-97699999D01*
X107850000Y-97699998D01*
X107850000Y-96800000D01*
X105750000Y-96800000D01*
X105750000Y-97699999D01*
X105249999Y-97699999D01*
X105250000Y-97699998D01*
X105250000Y-96800000D01*
X104125001Y-96800000D01*
X104125001Y-96999986D01*
X103400000Y-96999986D01*
X103400000Y-96812500D01*
X102250000Y-96812500D01*
X102250000Y-97724999D01*
X101749999Y-97724999D01*
X101750000Y-97724998D01*
X101750000Y-96812500D01*
X100600000Y-96812500D01*
X100587680Y-96824820D01*
X100526357Y-96858304D01*
X100456665Y-96853319D01*
X100412319Y-96824819D01*
X100400000Y-96812500D01*
X99250000Y-96812500D01*
X99250000Y-97724999D01*
X98749999Y-97724999D01*
X98750000Y-97724998D01*
X98750000Y-96812500D01*
X97600000Y-96812500D01*
X97587680Y-96824820D01*
X97526357Y-96858304D01*
X97456665Y-96853319D01*
X97412319Y-96824819D01*
X97400000Y-96812500D01*
X96250000Y-96812500D01*
X96250000Y-97724999D01*
X95749999Y-97724999D01*
X95750000Y-97724998D01*
X95750000Y-96812500D01*
X94600001Y-96812500D01*
X94600001Y-97024986D01*
X92038000Y-97024986D01*
X92038000Y-94068995D01*
X93299499Y-94068995D01*
X93326418Y-94204322D01*
X93326421Y-94204332D01*
X93379221Y-94331804D01*
X93379228Y-94331817D01*
X93455885Y-94446541D01*
X93455888Y-94446545D01*
X93553454Y-94544111D01*
X93553462Y-94544117D01*
X93650530Y-94608976D01*
X93695336Y-94662588D01*
X93703257Y-94687886D01*
X93726418Y-94804322D01*
X93726421Y-94804332D01*
X93779221Y-94931804D01*
X93779228Y-94931817D01*
X93855885Y-95046541D01*
X93855888Y-95046545D01*
X93892592Y-95083249D01*
X93926077Y-95144572D01*
X93926528Y-95195121D01*
X93899500Y-95331002D01*
X93899500Y-95331007D01*
X93899500Y-95468993D01*
X93899500Y-95468995D01*
X93899499Y-95468995D01*
X93926418Y-95604322D01*
X93926421Y-95604332D01*
X93979221Y-95731804D01*
X93979228Y-95731817D01*
X94055885Y-95846541D01*
X94055888Y-95846545D01*
X94153454Y-95944111D01*
X94153458Y-95944114D01*
X94268182Y-96020771D01*
X94268195Y-96020778D01*
X94344678Y-96052458D01*
X94395672Y-96073580D01*
X94500194Y-96094371D01*
X94562102Y-96126754D01*
X94596676Y-96187470D01*
X94600000Y-96215987D01*
X94600000Y-96312500D01*
X97399998Y-96312500D01*
X97412317Y-96300181D01*
X97473640Y-96266695D01*
X97543331Y-96271679D01*
X97587680Y-96300180D01*
X97600000Y-96312500D01*
X100399998Y-96312500D01*
X100412317Y-96300181D01*
X100473640Y-96266695D01*
X100543331Y-96271679D01*
X100587680Y-96300180D01*
X100600000Y-96312500D01*
X103399999Y-96312500D01*
X103399999Y-96224500D01*
X103419684Y-96157461D01*
X103472488Y-96111706D01*
X103523999Y-96100500D01*
X104001000Y-96100500D01*
X104068039Y-96120185D01*
X104113794Y-96172989D01*
X104125000Y-96224500D01*
X104125000Y-96300000D01*
X109474999Y-96300000D01*
X109474999Y-96224500D01*
X109494684Y-96157461D01*
X109547488Y-96111706D01*
X109598999Y-96100500D01*
X113513331Y-96100500D01*
X113513347Y-96100501D01*
X113520943Y-96100501D01*
X113679054Y-96100501D01*
X113679057Y-96100501D01*
X113831785Y-96059577D01*
X113881904Y-96030639D01*
X113968716Y-95980520D01*
X114080520Y-95868716D01*
X114080520Y-95868714D01*
X114090728Y-95858507D01*
X114090730Y-95858504D01*
X115749248Y-94199986D01*
X116425001Y-94199986D01*
X116435494Y-94302697D01*
X116490641Y-94469119D01*
X116490643Y-94469124D01*
X116582684Y-94618345D01*
X116706654Y-94742315D01*
X116855875Y-94834356D01*
X116855880Y-94834358D01*
X117022302Y-94889505D01*
X117022309Y-94889506D01*
X117125019Y-94899999D01*
X117549999Y-94899999D01*
X118050000Y-94899999D01*
X118474972Y-94899999D01*
X118474986Y-94899998D01*
X118577697Y-94889505D01*
X118744119Y-94834358D01*
X118744124Y-94834356D01*
X118893345Y-94742315D01*
X119017315Y-94618345D01*
X119109356Y-94469124D01*
X119109358Y-94469119D01*
X119164505Y-94302697D01*
X119164506Y-94302690D01*
X119174999Y-94199986D01*
X119175000Y-94199973D01*
X119175000Y-94000000D01*
X118050000Y-94000000D01*
X118050000Y-94899999D01*
X117549999Y-94899999D01*
X117550000Y-94899998D01*
X117550000Y-94000000D01*
X116425001Y-94000000D01*
X116425001Y-94199986D01*
X115749248Y-94199986D01*
X116412915Y-93536319D01*
X116474238Y-93502834D01*
X116500596Y-93500000D01*
X117550000Y-93500000D01*
X118050000Y-93500000D01*
X119174999Y-93500000D01*
X119174999Y-93300028D01*
X119174998Y-93300013D01*
X119164505Y-93197302D01*
X119109358Y-93030880D01*
X119109356Y-93030875D01*
X119017315Y-92881654D01*
X118893345Y-92757684D01*
X118744124Y-92665643D01*
X118744119Y-92665641D01*
X118577697Y-92610494D01*
X118577690Y-92610493D01*
X118474986Y-92600000D01*
X118050000Y-92600000D01*
X118050000Y-93500000D01*
X117550000Y-93500000D01*
X117550000Y-92600000D01*
X117537297Y-92587297D01*
X117503812Y-92525974D01*
X117508796Y-92456282D01*
X117537293Y-92411940D01*
X118112416Y-91836818D01*
X118173739Y-91803333D01*
X118200097Y-91800499D01*
X118475002Y-91800499D01*
X118475008Y-91800499D01*
X118577797Y-91789999D01*
X118744334Y-91734814D01*
X118893656Y-91642712D01*
X119017712Y-91518656D01*
X119109814Y-91369334D01*
X119109815Y-91369329D01*
X119112616Y-91364789D01*
X119164563Y-91318064D01*
X119233526Y-91306841D01*
X119297608Y-91334684D01*
X119305836Y-91342204D01*
X119406344Y-91442712D01*
X119555666Y-91534814D01*
X119722203Y-91589999D01*
X119824991Y-91600500D01*
X121175008Y-91600499D01*
X121277797Y-91589999D01*
X121444334Y-91534814D01*
X121593656Y-91442712D01*
X121717712Y-91318656D01*
X121809814Y-91169334D01*
X121864999Y-91002797D01*
X121875500Y-90900009D01*
X121875499Y-89999992D01*
X121868417Y-89930668D01*
X121864999Y-89897203D01*
X121864998Y-89897200D01*
X121848213Y-89846546D01*
X121809814Y-89730666D01*
X121717712Y-89581344D01*
X121593656Y-89457288D01*
X121499966Y-89399500D01*
X121444336Y-89365187D01*
X121444331Y-89365185D01*
X121442862Y-89364698D01*
X121277797Y-89310001D01*
X121277795Y-89310000D01*
X121175010Y-89299500D01*
X119824998Y-89299500D01*
X119824981Y-89299501D01*
X119722203Y-89310000D01*
X119722200Y-89310001D01*
X119555668Y-89365185D01*
X119555663Y-89365187D01*
X119406342Y-89457289D01*
X119282289Y-89581342D01*
X119257935Y-89620827D01*
X119193859Y-89724712D01*
X119187383Y-89735211D01*
X119135435Y-89781935D01*
X119066472Y-89793158D01*
X119002390Y-89765314D01*
X118994163Y-89757795D01*
X118893657Y-89657289D01*
X118893656Y-89657288D01*
X118770532Y-89581345D01*
X118744336Y-89565187D01*
X118744331Y-89565185D01*
X118742862Y-89564698D01*
X118577797Y-89510001D01*
X118577795Y-89510000D01*
X118475010Y-89499500D01*
X117124998Y-89499500D01*
X117124981Y-89499501D01*
X117022203Y-89510000D01*
X117022200Y-89510001D01*
X116855668Y-89565185D01*
X116855663Y-89565187D01*
X116706342Y-89657289D01*
X116582289Y-89781342D01*
X116490187Y-89930663D01*
X116490185Y-89930668D01*
X116483137Y-89951939D01*
X116435001Y-90097203D01*
X116435001Y-90097204D01*
X116435000Y-90097204D01*
X116424500Y-90199983D01*
X116424500Y-91100001D01*
X116424501Y-91100019D01*
X116435000Y-91202796D01*
X116435001Y-91202799D01*
X116476549Y-91328180D01*
X116490186Y-91369334D01*
X116582287Y-91518655D01*
X116586080Y-91524803D01*
X116584132Y-91526004D01*
X116606139Y-91580563D01*
X116593094Y-91649204D01*
X116570412Y-91680351D01*
X113387584Y-94863181D01*
X113326261Y-94896666D01*
X113299903Y-94899500D01*
X107799096Y-94899500D01*
X107777850Y-94893261D01*
X107755762Y-94891682D01*
X107744978Y-94883609D01*
X107732057Y-94879815D01*
X107717557Y-94863081D01*
X107699829Y-94849810D01*
X107695121Y-94837189D01*
X107686302Y-94827011D01*
X107683150Y-94805093D01*
X107675412Y-94784346D01*
X107678274Y-94771185D01*
X107676358Y-94757853D01*
X107685557Y-94737709D01*
X107690264Y-94716073D01*
X107703532Y-94698347D01*
X107705383Y-94694297D01*
X107711415Y-94687819D01*
X107762416Y-94636818D01*
X107823739Y-94603333D01*
X107850097Y-94600499D01*
X108775002Y-94600499D01*
X108775008Y-94600499D01*
X108877797Y-94589999D01*
X109044334Y-94534814D01*
X109193656Y-94442712D01*
X109317712Y-94318656D01*
X109409814Y-94169334D01*
X109464999Y-94002797D01*
X109475500Y-93900009D01*
X109475499Y-92999992D01*
X109471105Y-92956981D01*
X109464999Y-92897203D01*
X109464998Y-92897200D01*
X109464091Y-92894462D01*
X109409814Y-92730666D01*
X109317712Y-92581344D01*
X109193656Y-92457288D01*
X109044334Y-92365186D01*
X108877797Y-92310001D01*
X108877794Y-92310000D01*
X108811897Y-92303268D01*
X108747205Y-92276871D01*
X108707054Y-92219690D01*
X108700500Y-92179910D01*
X108700500Y-91824499D01*
X108720185Y-91757460D01*
X108772989Y-91711705D01*
X108824500Y-91700499D01*
X108875002Y-91700499D01*
X108875008Y-91700499D01*
X108977797Y-91689999D01*
X109144334Y-91634814D01*
X109293656Y-91542712D01*
X109417712Y-91418656D01*
X109509814Y-91269334D01*
X109564999Y-91102797D01*
X109575500Y-91000009D01*
X109575499Y-90099992D01*
X109572332Y-90068993D01*
X109564999Y-89997203D01*
X109564998Y-89997200D01*
X109531861Y-89897200D01*
X109509814Y-89830666D01*
X109417712Y-89681344D01*
X109293656Y-89557288D01*
X109184089Y-89489707D01*
X109144336Y-89465187D01*
X109144331Y-89465185D01*
X109120499Y-89457288D01*
X108977797Y-89410001D01*
X108977795Y-89410000D01*
X108875010Y-89399500D01*
X107524998Y-89399500D01*
X107524981Y-89399501D01*
X107422203Y-89410000D01*
X107422200Y-89410001D01*
X107255668Y-89465185D01*
X107255663Y-89465187D01*
X107106342Y-89557289D01*
X106982289Y-89681342D01*
X106955539Y-89724712D01*
X106903591Y-89771436D01*
X106834628Y-89782659D01*
X106770546Y-89754815D01*
X106744461Y-89724712D01*
X106741616Y-89720099D01*
X106717712Y-89681344D01*
X106593656Y-89557288D01*
X106484089Y-89489707D01*
X106444336Y-89465187D01*
X106444331Y-89465185D01*
X106420499Y-89457288D01*
X106277797Y-89410001D01*
X106277795Y-89410000D01*
X106175010Y-89399500D01*
X104824998Y-89399500D01*
X104824981Y-89399501D01*
X104722203Y-89410000D01*
X104722200Y-89410001D01*
X104555668Y-89465185D01*
X104555663Y-89465187D01*
X104406342Y-89557289D01*
X104282289Y-89681342D01*
X104190187Y-89830663D01*
X104190185Y-89830668D01*
X104183945Y-89849500D01*
X104135001Y-89997203D01*
X104135001Y-89997204D01*
X104135000Y-89997204D01*
X104124500Y-90099983D01*
X104124500Y-90099991D01*
X104124500Y-90446547D01*
X104124501Y-90775500D01*
X104104817Y-90842539D01*
X104052013Y-90888294D01*
X104000501Y-90899500D01*
X100618439Y-90899500D01*
X100551400Y-90879815D01*
X100505645Y-90827011D01*
X100495701Y-90757853D01*
X100524726Y-90694297D01*
X100549548Y-90672398D01*
X100578981Y-90652730D01*
X100625289Y-90621789D01*
X100736789Y-90510289D01*
X100824394Y-90379179D01*
X100884737Y-90233497D01*
X100915500Y-90078842D01*
X100915500Y-89921158D01*
X100915500Y-89921155D01*
X100915499Y-89921153D01*
X100900659Y-89846547D01*
X100884737Y-89766503D01*
X100865516Y-89720099D01*
X100824397Y-89620827D01*
X100824390Y-89620814D01*
X100736789Y-89489711D01*
X100736786Y-89489707D01*
X100625292Y-89378213D01*
X100625288Y-89378210D01*
X100494185Y-89290609D01*
X100494180Y-89290607D01*
X100494179Y-89290606D01*
X100470519Y-89280805D01*
X100430293Y-89253926D01*
X98786819Y-87610451D01*
X98753334Y-87549128D01*
X98750500Y-87522770D01*
X98750500Y-83874500D01*
X98770185Y-83807461D01*
X98822989Y-83761706D01*
X98874500Y-83750500D01*
X102573920Y-83750500D01*
X102671462Y-83731096D01*
X102718913Y-83721658D01*
X102855495Y-83665084D01*
X102920291Y-83621789D01*
X102920294Y-83621786D01*
X102920296Y-83621786D01*
X102949547Y-83602240D01*
X102978416Y-83582952D01*
X104315295Y-82246070D01*
X104355519Y-82219193D01*
X104379179Y-82209394D01*
X104510289Y-82121789D01*
X104621789Y-82010289D01*
X104709394Y-81879179D01*
X104769737Y-81733497D01*
X104800500Y-81578842D01*
X104800500Y-81421158D01*
X104800500Y-81421155D01*
X104800499Y-81421153D01*
X104769738Y-81266510D01*
X104769737Y-81266503D01*
X104769735Y-81266498D01*
X104709397Y-81120827D01*
X104709390Y-81120814D01*
X104621789Y-80989711D01*
X104621786Y-80989707D01*
X104510292Y-80878213D01*
X104510288Y-80878210D01*
X104379185Y-80790609D01*
X104379172Y-80790602D01*
X104233501Y-80730264D01*
X104233489Y-80730261D01*
X104078845Y-80699500D01*
X104078842Y-80699500D01*
X103921158Y-80699500D01*
X103921155Y-80699500D01*
X103766510Y-80730261D01*
X103766498Y-80730264D01*
X103620827Y-80790602D01*
X103620814Y-80790609D01*
X103489711Y-80878210D01*
X103489707Y-80878213D01*
X103378213Y-80989707D01*
X103378207Y-80989715D01*
X103290607Y-81120818D01*
X103290605Y-81120822D01*
X103280805Y-81144480D01*
X103253927Y-81184704D01*
X102225451Y-82213181D01*
X102164128Y-82246666D01*
X102137770Y-82249500D01*
X98902092Y-82249500D01*
X98835053Y-82229815D01*
X98789298Y-82177011D01*
X98779354Y-82107853D01*
X98802826Y-82051188D01*
X98828352Y-82017089D01*
X98828354Y-82017086D01*
X98878596Y-81882379D01*
X98878598Y-81882372D01*
X98884999Y-81822844D01*
X98885000Y-81822827D01*
X98885000Y-80985000D01*
X98865659Y-80976989D01*
X98864578Y-80977580D01*
X98794886Y-80972594D01*
X98750542Y-80944094D01*
X97160000Y-79353552D01*
X95569457Y-80944094D01*
X95508134Y-80977579D01*
X95461046Y-80974211D01*
X95435000Y-80985000D01*
X95435000Y-81822844D01*
X95441401Y-81882372D01*
X95441403Y-81882379D01*
X95491645Y-82017086D01*
X95491649Y-82017093D01*
X95577809Y-82132187D01*
X95577812Y-82132190D01*
X95692906Y-82218350D01*
X95692913Y-82218354D01*
X95827620Y-82268596D01*
X95827627Y-82268598D01*
X95887155Y-82274999D01*
X95887172Y-82275000D01*
X96293559Y-82275000D01*
X96360598Y-82294685D01*
X96406353Y-82347489D01*
X96416297Y-82416647D01*
X96387272Y-82480203D01*
X96381240Y-82486681D01*
X96378213Y-82489707D01*
X96378210Y-82489711D01*
X96290609Y-82620814D01*
X96290602Y-82620827D01*
X96230264Y-82766498D01*
X96230261Y-82766510D01*
X96199500Y-82921153D01*
X96199500Y-83078846D01*
X96230261Y-83233489D01*
X96230264Y-83233501D01*
X96290602Y-83379172D01*
X96290609Y-83379185D01*
X96378210Y-83510288D01*
X96378213Y-83510292D01*
X96489707Y-83621786D01*
X96489711Y-83621789D01*
X96620814Y-83709390D01*
X96620827Y-83709397D01*
X96747114Y-83761706D01*
X96766503Y-83769737D01*
X96898691Y-83796031D01*
X96921153Y-83800499D01*
X96921156Y-83800500D01*
X96921158Y-83800500D01*
X97078842Y-83800500D01*
X97101308Y-83796031D01*
X97170898Y-83802257D01*
X97226076Y-83845119D01*
X97249322Y-83911008D01*
X97249500Y-83917648D01*
X97249500Y-87958918D01*
X97249500Y-87958920D01*
X97249499Y-87958920D01*
X97278340Y-88103907D01*
X97278343Y-88103917D01*
X97334914Y-88240492D01*
X97367812Y-88289727D01*
X97367813Y-88289730D01*
X97417046Y-88363414D01*
X97417052Y-88363421D01*
X99368926Y-90315293D01*
X99395805Y-90355519D01*
X99405603Y-90379172D01*
X99405606Y-90379178D01*
X99405609Y-90379185D01*
X99493210Y-90510288D01*
X99493213Y-90510292D01*
X99604707Y-90621786D01*
X99604711Y-90621789D01*
X99680452Y-90672398D01*
X99725257Y-90726010D01*
X99733964Y-90795335D01*
X99703810Y-90858363D01*
X99644366Y-90895082D01*
X99611561Y-90899500D01*
X98024170Y-90899500D01*
X98024154Y-90899499D01*
X98016558Y-90899499D01*
X97858443Y-90899499D01*
X97789323Y-90918020D01*
X97705714Y-90940423D01*
X97705709Y-90940426D01*
X97568790Y-91019475D01*
X97568782Y-91019481D01*
X96350082Y-92238181D01*
X96288759Y-92271666D01*
X96262401Y-92274500D01*
X95299998Y-92274500D01*
X95299980Y-92274501D01*
X95197203Y-92285000D01*
X95197200Y-92285001D01*
X95030668Y-92340185D01*
X95030663Y-92340187D01*
X94881342Y-92432289D01*
X94757289Y-92556342D01*
X94665187Y-92705663D01*
X94665186Y-92705666D01*
X94649831Y-92752005D01*
X94610058Y-92809450D01*
X94545541Y-92836272D01*
X94532125Y-92837000D01*
X94483443Y-92837000D01*
X94330713Y-92877923D01*
X94293345Y-92899499D01*
X94293344Y-92899499D01*
X94193787Y-92956977D01*
X94193782Y-92956981D01*
X94081980Y-93068783D01*
X94081980Y-93068784D01*
X94081978Y-93068786D01*
X93953462Y-93197302D01*
X93927518Y-93223246D01*
X93901708Y-93243025D01*
X93647451Y-93389414D01*
X93633274Y-93397886D01*
X93632686Y-93398251D01*
X93576823Y-93438393D01*
X93574889Y-93440119D01*
X93561243Y-93450682D01*
X93553468Y-93455877D01*
X93553461Y-93455883D01*
X93455884Y-93553459D01*
X93379228Y-93668182D01*
X93379221Y-93668195D01*
X93326421Y-93795667D01*
X93326418Y-93795677D01*
X93299500Y-93931004D01*
X93299500Y-93931007D01*
X93299500Y-94068993D01*
X93299500Y-94068995D01*
X93299499Y-94068995D01*
X92038000Y-94068995D01*
X92038000Y-92862597D01*
X92057685Y-92795558D01*
X92074319Y-92774916D01*
X92346242Y-92502993D01*
X92622489Y-92226745D01*
X92648293Y-92206970D01*
X92805697Y-92116346D01*
X92902531Y-92060595D01*
X92903381Y-92060087D01*
X92916352Y-92052342D01*
X92916966Y-92051962D01*
X92973174Y-92011606D01*
X92973176Y-92011603D01*
X92975104Y-92009884D01*
X92988765Y-91999310D01*
X92996542Y-91994114D01*
X93094114Y-91896542D01*
X93133238Y-91837986D01*
X93138767Y-91830360D01*
X93146825Y-91820088D01*
X93160583Y-91802551D01*
X93306971Y-91548289D01*
X93326745Y-91522488D01*
X93921006Y-90928228D01*
X93921011Y-90928224D01*
X93931214Y-90918020D01*
X93931216Y-90918020D01*
X94043020Y-90806216D01*
X94104633Y-90699499D01*
X94122077Y-90669285D01*
X94163000Y-90516558D01*
X94163000Y-90358443D01*
X94163000Y-88467874D01*
X94182685Y-88400835D01*
X94235489Y-88355080D01*
X94247988Y-88350170D01*
X94294334Y-88334814D01*
X94443656Y-88242712D01*
X94567712Y-88118656D01*
X94659814Y-87969334D01*
X94714999Y-87802797D01*
X94725500Y-87700009D01*
X94725499Y-86299992D01*
X94721943Y-86265185D01*
X94714999Y-86197203D01*
X94714998Y-86197200D01*
X94680899Y-86094297D01*
X94659814Y-86030666D01*
X94567712Y-85881344D01*
X94443656Y-85757288D01*
X94295075Y-85665643D01*
X94294336Y-85665187D01*
X94294335Y-85665186D01*
X94294334Y-85665186D01*
X94247994Y-85649830D01*
X94227960Y-85635959D01*
X94205797Y-85625838D01*
X94199749Y-85616427D01*
X94190550Y-85610058D01*
X94181195Y-85587557D01*
X94168023Y-85567060D01*
X94165563Y-85549957D01*
X94163728Y-85545541D01*
X94163000Y-85532125D01*
X94163000Y-85467874D01*
X94182685Y-85400835D01*
X94235489Y-85355080D01*
X94247988Y-85350170D01*
X94294334Y-85334814D01*
X94443656Y-85242712D01*
X94567712Y-85118656D01*
X94659814Y-84969334D01*
X94714999Y-84802797D01*
X94725500Y-84700009D01*
X94725499Y-83299992D01*
X94718706Y-83233497D01*
X94714999Y-83197203D01*
X94714998Y-83197200D01*
X94677802Y-83084951D01*
X94659814Y-83030666D01*
X94567712Y-82881344D01*
X94443656Y-82757288D01*
X94294334Y-82665186D01*
X94127797Y-82610001D01*
X94127795Y-82610000D01*
X94025010Y-82599500D01*
X93099998Y-82599500D01*
X93099980Y-82599501D01*
X92997203Y-82610000D01*
X92997200Y-82610001D01*
X92830668Y-82665185D01*
X92830663Y-82665187D01*
X92681342Y-82757289D01*
X92557289Y-82881342D01*
X92465187Y-83030663D01*
X92465185Y-83030668D01*
X92465115Y-83030880D01*
X92410001Y-83197203D01*
X92410001Y-83197204D01*
X92410000Y-83197204D01*
X92399500Y-83299983D01*
X92399500Y-84700001D01*
X92399501Y-84700018D01*
X92410000Y-84802796D01*
X92410001Y-84802799D01*
X92445525Y-84910001D01*
X92465186Y-84969334D01*
X92557288Y-85118656D01*
X92681344Y-85242712D01*
X92829927Y-85334358D01*
X92830668Y-85334815D01*
X92846923Y-85340201D01*
X92877002Y-85350168D01*
X92897036Y-85364037D01*
X92919203Y-85374161D01*
X92925250Y-85383571D01*
X92934447Y-85389938D01*
X92943803Y-85412440D01*
X92956977Y-85432939D01*
X92959435Y-85450035D01*
X92961272Y-85454453D01*
X92962000Y-85467874D01*
X92962000Y-85532125D01*
X92942315Y-85599164D01*
X92889511Y-85644919D01*
X92877009Y-85649829D01*
X92830666Y-85665186D01*
X92830663Y-85665187D01*
X92681342Y-85757289D01*
X92557289Y-85881342D01*
X92465187Y-86030663D01*
X92465185Y-86030668D01*
X92465115Y-86030880D01*
X92410001Y-86197203D01*
X92410001Y-86197204D01*
X92410000Y-86197204D01*
X92399500Y-86299983D01*
X92399500Y-87700001D01*
X92399501Y-87700018D01*
X92410000Y-87802796D01*
X92410001Y-87802799D01*
X92465185Y-87969331D01*
X92465187Y-87969336D01*
X92482382Y-87997213D01*
X92557288Y-88118656D01*
X92681344Y-88242712D01*
X92830666Y-88334814D01*
X92830668Y-88334815D01*
X92846923Y-88340201D01*
X92877002Y-88350168D01*
X92934447Y-88389938D01*
X92961272Y-88454453D01*
X92962000Y-88467874D01*
X92962000Y-89313403D01*
X92942315Y-89380442D01*
X92889511Y-89426197D01*
X92820353Y-89436141D01*
X92756797Y-89407116D01*
X92750319Y-89401084D01*
X91987590Y-88638355D01*
X91987588Y-88638352D01*
X91868717Y-88519481D01*
X91868716Y-88519480D01*
X91779464Y-88467951D01*
X91779463Y-88467950D01*
X91744560Y-88447799D01*
X91731785Y-88440423D01*
X91731784Y-88440422D01*
X91731783Y-88440422D01*
X91663609Y-88422155D01*
X91579057Y-88399499D01*
X91460524Y-88399499D01*
X91393485Y-88379814D01*
X91347730Y-88327010D01*
X91337786Y-88257852D01*
X91366811Y-88194296D01*
X91372843Y-88187818D01*
X91442315Y-88118345D01*
X91534356Y-87969124D01*
X91534358Y-87969119D01*
X91589505Y-87802697D01*
X91589506Y-87802690D01*
X91599999Y-87699986D01*
X91600000Y-87699973D01*
X91600000Y-87250000D01*
X86962501Y-87250000D01*
X86962501Y-87699986D01*
X86972994Y-87802697D01*
X87028141Y-87969119D01*
X87028143Y-87969124D01*
X87120184Y-88118345D01*
X87189658Y-88187819D01*
X87223143Y-88249142D01*
X87218159Y-88318834D01*
X87176287Y-88374767D01*
X87110823Y-88399184D01*
X87101977Y-88399500D01*
X86023730Y-88399500D01*
X85956691Y-88379815D01*
X85910936Y-88327011D01*
X85900992Y-88257853D01*
X85930017Y-88194297D01*
X85936049Y-88187819D01*
X85957607Y-88166261D01*
X86005212Y-88118656D01*
X86097314Y-87969334D01*
X86152499Y-87802797D01*
X86163000Y-87700009D01*
X86162999Y-86300013D01*
X86962500Y-86300013D01*
X86962500Y-86750000D01*
X87875000Y-86750000D01*
X87875000Y-85599999D01*
X87862681Y-85587680D01*
X87829196Y-85526357D01*
X87834180Y-85456665D01*
X87862681Y-85412318D01*
X87875000Y-85399999D01*
X88375000Y-85399999D01*
X88387319Y-85412318D01*
X88420804Y-85473641D01*
X88415820Y-85543333D01*
X88387320Y-85587679D01*
X88375000Y-85599999D01*
X88375000Y-86750000D01*
X90187500Y-86750000D01*
X90187500Y-85599999D01*
X90175181Y-85587680D01*
X90141696Y-85526357D01*
X90146680Y-85456665D01*
X90175181Y-85412318D01*
X90187500Y-85399999D01*
X90687500Y-85399999D01*
X90699819Y-85412318D01*
X90733304Y-85473641D01*
X90728320Y-85543333D01*
X90699820Y-85587679D01*
X90687500Y-85599999D01*
X90687500Y-86750000D01*
X91599999Y-86750000D01*
X91599999Y-86300028D01*
X91599998Y-86300013D01*
X91589505Y-86197302D01*
X91534358Y-86030880D01*
X91534356Y-86030875D01*
X91442315Y-85881654D01*
X91318345Y-85757684D01*
X91169124Y-85665643D01*
X91169119Y-85665641D01*
X91024460Y-85617706D01*
X90967015Y-85577933D01*
X90940192Y-85513417D01*
X90952507Y-85444642D01*
X91000050Y-85393442D01*
X91024460Y-85382294D01*
X91169119Y-85334358D01*
X91169124Y-85334356D01*
X91318345Y-85242315D01*
X91442315Y-85118345D01*
X91534356Y-84969124D01*
X91534358Y-84969119D01*
X91589505Y-84802697D01*
X91589506Y-84802690D01*
X91599999Y-84699986D01*
X91600000Y-84699973D01*
X91600000Y-84250000D01*
X90687500Y-84250000D01*
X90687500Y-85399999D01*
X90187500Y-85399999D01*
X90187500Y-84250000D01*
X88375000Y-84250000D01*
X88375000Y-85399999D01*
X87875000Y-85399999D01*
X87875000Y-84250000D01*
X86962501Y-84250000D01*
X86962501Y-84699986D01*
X86972994Y-84802697D01*
X87028141Y-84969119D01*
X87028143Y-84969124D01*
X87120184Y-85118345D01*
X87244154Y-85242315D01*
X87393375Y-85334356D01*
X87393380Y-85334358D01*
X87538039Y-85382293D01*
X87595484Y-85422065D01*
X87622307Y-85486581D01*
X87609992Y-85555357D01*
X87562449Y-85606557D01*
X87538040Y-85617705D01*
X87393378Y-85665642D01*
X87393375Y-85665643D01*
X87244154Y-85757684D01*
X87120184Y-85881654D01*
X87028143Y-86030875D01*
X87028141Y-86030880D01*
X86972994Y-86197302D01*
X86972993Y-86197309D01*
X86962500Y-86300013D01*
X86162999Y-86300013D01*
X86162999Y-86299992D01*
X86159443Y-86265185D01*
X86152499Y-86197203D01*
X86152498Y-86197200D01*
X86118399Y-86094297D01*
X86097314Y-86030666D01*
X86005212Y-85881344D01*
X85881156Y-85757288D01*
X85732575Y-85665643D01*
X85731836Y-85665187D01*
X85731835Y-85665186D01*
X85731834Y-85665186D01*
X85685494Y-85649830D01*
X85665460Y-85635959D01*
X85643297Y-85625838D01*
X85637249Y-85616427D01*
X85628050Y-85610058D01*
X85618695Y-85587557D01*
X85605523Y-85567060D01*
X85603063Y-85549957D01*
X85601228Y-85545541D01*
X85600500Y-85532125D01*
X85600500Y-85467874D01*
X85620185Y-85400835D01*
X85672989Y-85355080D01*
X85685488Y-85350170D01*
X85731834Y-85334814D01*
X85881156Y-85242712D01*
X86005212Y-85118656D01*
X86097314Y-84969334D01*
X86152499Y-84802797D01*
X86163000Y-84700009D01*
X86162999Y-83300013D01*
X86962500Y-83300013D01*
X86962500Y-83750000D01*
X87875000Y-83750000D01*
X88375000Y-83750000D01*
X90187500Y-83750000D01*
X90687500Y-83750000D01*
X91599999Y-83750000D01*
X91599999Y-83300028D01*
X91599998Y-83300013D01*
X91589505Y-83197302D01*
X91534358Y-83030880D01*
X91534356Y-83030875D01*
X91442315Y-82881654D01*
X91318345Y-82757684D01*
X91169124Y-82665643D01*
X91169119Y-82665641D01*
X91002697Y-82610494D01*
X91002690Y-82610493D01*
X90899986Y-82600000D01*
X90687500Y-82600000D01*
X90687500Y-83750000D01*
X90187500Y-83750000D01*
X90187500Y-82600000D01*
X89975029Y-82600000D01*
X89975012Y-82600001D01*
X89872302Y-82610494D01*
X89705880Y-82665641D01*
X89705875Y-82665643D01*
X89556654Y-82757684D01*
X89432683Y-82881655D01*
X89432680Y-82881659D01*
X89386788Y-82956062D01*
X89334840Y-83002787D01*
X89265878Y-83014008D01*
X89201796Y-82986165D01*
X89175712Y-82956062D01*
X89129819Y-82881659D01*
X89129816Y-82881655D01*
X89005845Y-82757684D01*
X88856624Y-82665643D01*
X88856619Y-82665641D01*
X88690197Y-82610494D01*
X88690190Y-82610493D01*
X88587486Y-82600000D01*
X88375000Y-82600000D01*
X88375000Y-83750000D01*
X87875000Y-83750000D01*
X87875000Y-82600000D01*
X87662529Y-82600000D01*
X87662512Y-82600001D01*
X87559802Y-82610494D01*
X87393380Y-82665641D01*
X87393375Y-82665643D01*
X87244154Y-82757684D01*
X87120184Y-82881654D01*
X87028143Y-83030875D01*
X87028141Y-83030880D01*
X86972994Y-83197302D01*
X86972993Y-83197309D01*
X86962500Y-83300013D01*
X86162999Y-83300013D01*
X86162999Y-83299992D01*
X86156206Y-83233497D01*
X86152499Y-83197203D01*
X86152498Y-83197200D01*
X86115302Y-83084951D01*
X86097314Y-83030666D01*
X86005212Y-82881344D01*
X85881156Y-82757288D01*
X85731834Y-82665186D01*
X85565297Y-82610001D01*
X85565295Y-82610000D01*
X85462510Y-82599500D01*
X84537498Y-82599500D01*
X84537480Y-82599501D01*
X84434703Y-82610000D01*
X84434700Y-82610001D01*
X84268168Y-82665185D01*
X84268163Y-82665187D01*
X84118842Y-82757289D01*
X83994789Y-82881342D01*
X83902687Y-83030663D01*
X83902685Y-83030668D01*
X83902615Y-83030880D01*
X83847501Y-83197203D01*
X83847501Y-83197204D01*
X83847500Y-83197204D01*
X83837000Y-83299983D01*
X83837000Y-84700001D01*
X83837001Y-84700018D01*
X83847500Y-84802796D01*
X83847501Y-84802799D01*
X83883025Y-84910001D01*
X83902686Y-84969334D01*
X83994788Y-85118656D01*
X84118844Y-85242712D01*
X84267427Y-85334358D01*
X84268168Y-85334815D01*
X84284423Y-85340201D01*
X84314502Y-85350168D01*
X84334536Y-85364037D01*
X84356703Y-85374161D01*
X84362750Y-85383571D01*
X84371947Y-85389938D01*
X84381303Y-85412440D01*
X84394477Y-85432939D01*
X84396935Y-85450035D01*
X84398772Y-85454453D01*
X84399500Y-85467874D01*
X84399500Y-85532125D01*
X84379815Y-85599164D01*
X84327011Y-85644919D01*
X84314509Y-85649829D01*
X84268166Y-85665186D01*
X84268163Y-85665187D01*
X84118842Y-85757289D01*
X83994789Y-85881342D01*
X83902687Y-86030663D01*
X83902685Y-86030668D01*
X83902615Y-86030880D01*
X83847501Y-86197203D01*
X83847501Y-86197204D01*
X83847500Y-86197204D01*
X83837000Y-86299983D01*
X83837000Y-87700001D01*
X83837001Y-87700018D01*
X83847500Y-87802796D01*
X83847501Y-87802799D01*
X83902685Y-87969331D01*
X83902687Y-87969336D01*
X83919882Y-87997213D01*
X83994788Y-88118656D01*
X84118844Y-88242712D01*
X84268166Y-88334814D01*
X84268168Y-88334815D01*
X84284423Y-88340201D01*
X84314502Y-88350168D01*
X84371947Y-88389938D01*
X84398772Y-88454453D01*
X84399500Y-88467874D01*
X84399500Y-88902009D01*
X84395236Y-88934247D01*
X84318948Y-89217587D01*
X84314948Y-89233462D01*
X84314792Y-89234126D01*
X84303649Y-89302149D01*
X84303504Y-89304707D01*
X84301324Y-89321833D01*
X84299500Y-89331002D01*
X84299500Y-89331007D01*
X84299500Y-89468993D01*
X84299500Y-89468995D01*
X84299499Y-89468995D01*
X84326418Y-89604322D01*
X84326421Y-89604332D01*
X84379221Y-89731804D01*
X84379228Y-89731817D01*
X84455885Y-89846541D01*
X84455888Y-89846545D01*
X84553454Y-89944111D01*
X84553458Y-89944114D01*
X84668182Y-90020771D01*
X84668195Y-90020778D01*
X84784598Y-90068993D01*
X84795672Y-90073580D01*
X84795676Y-90073580D01*
X84795677Y-90073581D01*
X84931004Y-90100500D01*
X84931007Y-90100500D01*
X85068995Y-90100500D01*
X85177874Y-90078842D01*
X85204328Y-90073580D01*
X85331811Y-90020775D01*
X85446542Y-89944114D01*
X85544114Y-89846542D01*
X85585852Y-89784076D01*
X85610583Y-89752551D01*
X85663601Y-89660465D01*
X85664930Y-89658358D01*
X85689338Y-89636838D01*
X85712864Y-89614353D01*
X85715596Y-89613688D01*
X85717339Y-89612152D01*
X85729607Y-89610280D01*
X85769817Y-89600500D01*
X91199903Y-89600500D01*
X91266942Y-89620185D01*
X91287584Y-89636819D01*
X92178382Y-90527617D01*
X92211867Y-90588940D01*
X92214701Y-90615298D01*
X92214701Y-90761656D01*
X92213350Y-90766255D01*
X92214353Y-90770945D01*
X92203599Y-90799463D01*
X92195016Y-90828695D01*
X92190926Y-90833071D01*
X92189701Y-90836322D01*
X92168873Y-90856674D01*
X92164655Y-90861189D01*
X92163838Y-90861795D01*
X92126825Y-90888393D01*
X92124306Y-90891168D01*
X92116298Y-90897119D01*
X92115434Y-90897437D01*
X92111243Y-90900682D01*
X92103468Y-90905877D01*
X92103461Y-90905883D01*
X92005887Y-91003456D01*
X92005886Y-91003458D01*
X91966779Y-91061984D01*
X91961243Y-91069624D01*
X91939415Y-91097449D01*
X91793027Y-91351705D01*
X91773247Y-91377515D01*
X91068786Y-92081978D01*
X90956981Y-92193782D01*
X90956980Y-92193784D01*
X90910379Y-92274501D01*
X90906861Y-92280594D01*
X90906859Y-92280596D01*
X90877925Y-92330709D01*
X90877924Y-92330710D01*
X90877923Y-92330715D01*
X90836999Y-92483443D01*
X90836999Y-92483445D01*
X90836999Y-92651546D01*
X90837000Y-92651559D01*
X90837000Y-100341998D01*
X90817315Y-100409037D01*
X90764511Y-100454792D01*
X90695353Y-100464736D01*
X90680906Y-100461773D01*
X90541468Y-100424410D01*
X90383354Y-100424410D01*
X90375758Y-100424410D01*
X90375742Y-100424411D01*
X90114704Y-100424411D01*
X90074894Y-100417847D01*
X89813873Y-100329362D01*
X89812480Y-100328938D01*
X89804676Y-100326564D01*
X89804328Y-100326420D01*
X89803963Y-100326347D01*
X89802836Y-100326004D01*
X89798143Y-100324576D01*
X89798142Y-100324575D01*
X89783407Y-100320093D01*
X89782020Y-100319718D01*
X89782008Y-100319715D01*
X89782005Y-100319715D01*
X89746181Y-100313233D01*
X89694305Y-100303846D01*
X89684101Y-100302504D01*
X89668994Y-100299500D01*
X89668993Y-100299500D01*
X89531007Y-100299500D01*
X89531006Y-100299500D01*
X89461957Y-100313233D01*
X89452644Y-100314720D01*
X89417543Y-100318961D01*
X89134247Y-100395236D01*
X89102009Y-100399500D01*
X83862598Y-100399500D01*
X83795559Y-100379815D01*
X83774917Y-100363181D01*
X83433938Y-100022202D01*
X83400453Y-99960879D01*
X83398261Y-99921921D01*
X83400500Y-99900009D01*
X83400499Y-98974992D01*
X83389999Y-98872203D01*
X83334814Y-98705666D01*
X83242712Y-98556344D01*
X83118656Y-98432288D01*
X82969334Y-98340186D01*
X82802797Y-98285001D01*
X82802793Y-98285000D01*
X82802787Y-98284999D01*
X82798979Y-98284610D01*
X82796781Y-98283713D01*
X82796173Y-98283583D01*
X82796196Y-98283474D01*
X82788019Y-98280137D01*
X82776180Y-98280091D01*
X82756262Y-98267178D01*
X82734288Y-98258212D01*
X82727485Y-98248523D01*
X82717552Y-98242084D01*
X82707777Y-98220455D01*
X82694139Y-98201030D01*
X82692927Y-98187593D01*
X82688779Y-98178413D01*
X82689171Y-98145926D01*
X82688919Y-98143120D01*
X82689061Y-98142154D01*
X82696349Y-98097850D01*
X82696165Y-98094096D01*
X82697627Y-98084213D01*
X82698011Y-98083380D01*
X82698678Y-98078150D01*
X82700500Y-98068992D01*
X82700500Y-97931004D01*
X82673581Y-97795677D01*
X82673580Y-97795676D01*
X82673580Y-97795672D01*
X82669366Y-97785500D01*
X82661900Y-97716031D01*
X82693176Y-97653553D01*
X82753265Y-97617901D01*
X82783929Y-97614050D01*
X84799781Y-97614050D01*
X84799797Y-97614051D01*
X84807393Y-97614051D01*
X84965504Y-97614051D01*
X84965507Y-97614051D01*
X85118235Y-97573127D01*
X85173478Y-97541232D01*
X85255166Y-97494070D01*
X85366970Y-97382266D01*
X85366970Y-97382264D01*
X85377174Y-97372061D01*
X85377178Y-97372056D01*
X87572487Y-95176746D01*
X87598291Y-95156971D01*
X87790089Y-95046545D01*
X87852531Y-95010595D01*
X87853381Y-95010087D01*
X87866352Y-95002342D01*
X87866966Y-95001962D01*
X87923174Y-94961606D01*
X87923176Y-94961603D01*
X87925104Y-94959884D01*
X87938765Y-94949310D01*
X87946542Y-94944114D01*
X88044114Y-94846542D01*
X88120775Y-94731811D01*
X88173580Y-94604328D01*
X88173860Y-94602917D01*
X88174380Y-94600308D01*
X88189094Y-94572177D01*
X88202284Y-94543297D01*
X88205173Y-94541440D01*
X88206765Y-94538397D01*
X88234357Y-94522684D01*
X88261062Y-94505523D01*
X88265655Y-94504862D01*
X88267481Y-94503823D01*
X88295997Y-94500500D01*
X88502012Y-94500500D01*
X88534250Y-94504764D01*
X88817541Y-94581038D01*
X88823045Y-94582428D01*
X88832828Y-94584900D01*
X88833479Y-94585053D01*
X88833482Y-94585053D01*
X88833497Y-94585057D01*
X88902149Y-94596349D01*
X88902156Y-94596348D01*
X88904732Y-94596496D01*
X88921846Y-94598677D01*
X88926377Y-94599579D01*
X88931006Y-94600500D01*
X88931007Y-94600500D01*
X89068995Y-94600500D01*
X89166844Y-94581036D01*
X89204328Y-94573580D01*
X89331811Y-94520775D01*
X89446542Y-94444114D01*
X89544114Y-94346542D01*
X89620775Y-94231811D01*
X89673580Y-94104328D01*
X89693776Y-94002797D01*
X89700500Y-93968995D01*
X89700500Y-93831004D01*
X89673581Y-93695677D01*
X89673580Y-93695676D01*
X89673580Y-93695672D01*
X89662193Y-93668182D01*
X89620778Y-93568195D01*
X89620771Y-93568182D01*
X89544114Y-93453458D01*
X89544111Y-93453454D01*
X89446545Y-93355888D01*
X89446541Y-93355885D01*
X89331817Y-93279228D01*
X89331804Y-93279221D01*
X89204332Y-93226421D01*
X89204322Y-93226418D01*
X89068995Y-93199500D01*
X89068993Y-93199500D01*
X88931007Y-93199500D01*
X88931006Y-93199500D01*
X88861957Y-93213233D01*
X88852644Y-93214720D01*
X88817543Y-93218961D01*
X88534247Y-93295236D01*
X88502009Y-93299500D01*
X87186669Y-93299500D01*
X87186653Y-93299499D01*
X87179057Y-93299499D01*
X87020943Y-93299499D01*
X86913587Y-93328265D01*
X86868210Y-93340424D01*
X86868209Y-93340425D01*
X86818096Y-93369359D01*
X86818095Y-93369360D01*
X86783360Y-93389414D01*
X86731285Y-93419479D01*
X86731282Y-93419481D01*
X86650764Y-93500000D01*
X86619480Y-93531284D01*
X86619478Y-93531286D01*
X85379580Y-94771185D01*
X84175034Y-95975731D01*
X84113711Y-96009216D01*
X84087353Y-96012050D01*
X81934120Y-96012050D01*
X81934104Y-96012049D01*
X81926508Y-96012049D01*
X81768393Y-96012049D01*
X81699016Y-96030639D01*
X81615664Y-96052973D01*
X81615659Y-96052976D01*
X81478740Y-96132025D01*
X81478732Y-96132031D01*
X78477083Y-99133681D01*
X78415760Y-99167166D01*
X78389402Y-99170000D01*
X77433012Y-99170000D01*
X77465925Y-99112993D01*
X77500000Y-98985826D01*
X77500000Y-98854174D01*
X77465925Y-98727007D01*
X77433012Y-98670000D01*
X78350000Y-98670000D01*
X78350000Y-98022172D01*
X78349999Y-98022155D01*
X78343598Y-97962627D01*
X78343596Y-97962620D01*
X78293354Y-97827913D01*
X78293350Y-97827906D01*
X78207190Y-97712812D01*
X78207187Y-97712809D01*
X78092093Y-97626649D01*
X78092086Y-97626645D01*
X77957379Y-97576403D01*
X77957372Y-97576401D01*
X77897844Y-97570000D01*
X77250000Y-97570000D01*
X77250000Y-98486988D01*
X77192993Y-98454075D01*
X77065826Y-98420000D01*
X76934174Y-98420000D01*
X76807007Y-98454075D01*
X76750000Y-98486988D01*
X76750000Y-97570000D01*
X76102155Y-97570000D01*
X76042627Y-97576401D01*
X76042620Y-97576403D01*
X75907913Y-97626645D01*
X75907906Y-97626649D01*
X75792812Y-97712809D01*
X75792809Y-97712812D01*
X75706649Y-97827906D01*
X75706645Y-97827913D01*
X75656403Y-97962620D01*
X75656401Y-97962627D01*
X75650000Y-98022155D01*
X75650000Y-98670000D01*
X76566988Y-98670000D01*
X76534075Y-98727007D01*
X76500000Y-98854174D01*
X76500000Y-98985826D01*
X76534075Y-99112993D01*
X76566988Y-99170000D01*
X75650000Y-99170000D01*
X75650000Y-99817844D01*
X75656401Y-99877372D01*
X75656403Y-99877379D01*
X75706645Y-100012086D01*
X75706649Y-100012093D01*
X75792809Y-100127187D01*
X75792812Y-100127190D01*
X75907906Y-100213350D01*
X75907913Y-100213354D01*
X76039470Y-100262422D01*
X76095404Y-100304293D01*
X76119821Y-100369758D01*
X76104969Y-100438031D01*
X76083819Y-100466285D01*
X75969889Y-100580215D01*
X75844951Y-100752179D01*
X75748444Y-100941585D01*
X75682753Y-101143760D01*
X75649500Y-101353713D01*
X75649500Y-101566286D01*
X75676651Y-101737714D01*
X75682754Y-101776243D01*
X75723110Y-101900446D01*
X75748444Y-101978414D01*
X75844951Y-102167820D01*
X75969890Y-102339786D01*
X76120213Y-102490109D01*
X76292182Y-102615050D01*
X76300946Y-102619516D01*
X76351742Y-102667491D01*
X76368536Y-102735312D01*
X76345998Y-102801447D01*
X76300946Y-102840484D01*
X76292182Y-102844949D01*
X76120213Y-102969890D01*
X75969890Y-103120213D01*
X75844951Y-103292179D01*
X75748444Y-103481585D01*
X75682753Y-103683760D01*
X75668811Y-103771790D01*
X75649500Y-103893713D01*
X75649500Y-104106287D01*
X75652543Y-104125500D01*
X75680523Y-104302162D01*
X75682754Y-104316243D01*
X75714753Y-104414726D01*
X75748444Y-104518414D01*
X75844951Y-104707820D01*
X75969890Y-104879786D01*
X76120213Y-105030109D01*
X76292182Y-105155050D01*
X76300946Y-105159516D01*
X76351742Y-105207491D01*
X76368536Y-105275312D01*
X76345998Y-105341447D01*
X76300946Y-105380484D01*
X76292182Y-105384949D01*
X76120213Y-105509890D01*
X75969890Y-105660213D01*
X75844951Y-105832179D01*
X75748444Y-106021585D01*
X75682753Y-106223760D01*
X75649500Y-106433713D01*
X75649500Y-106646286D01*
X75682753Y-106856239D01*
X75682753Y-106856241D01*
X75682754Y-106856243D01*
X75737431Y-107024522D01*
X75748444Y-107058414D01*
X75844951Y-107247820D01*
X75969890Y-107419786D01*
X76120213Y-107570109D01*
X76292179Y-107695048D01*
X76292181Y-107695049D01*
X76292184Y-107695051D01*
X76481588Y-107791557D01*
X76683757Y-107857246D01*
X76893713Y-107890500D01*
X76893714Y-107890500D01*
X77106286Y-107890500D01*
X77106287Y-107890500D01*
X77316243Y-107857246D01*
X77358523Y-107843507D01*
X77428362Y-107841511D01*
X77484522Y-107873757D01*
X79975139Y-110364374D01*
X79975149Y-110364385D01*
X79979479Y-110368715D01*
X79979480Y-110368716D01*
X80091284Y-110480520D01*
X80178095Y-110530639D01*
X80178097Y-110530641D01*
X80216151Y-110552611D01*
X80228215Y-110559577D01*
X80380943Y-110600501D01*
X80380946Y-110600501D01*
X80546653Y-110600501D01*
X80546669Y-110600500D01*
X110699903Y-110600500D01*
X110766942Y-110620185D01*
X110787584Y-110636819D01*
X114165425Y-114014660D01*
X114198910Y-114075983D01*
X114199361Y-114078149D01*
X114230261Y-114233491D01*
X114230264Y-114233501D01*
X114290602Y-114379172D01*
X114290609Y-114379185D01*
X114378210Y-114510288D01*
X114378213Y-114510292D01*
X114489707Y-114621786D01*
X114489711Y-114621789D01*
X114620814Y-114709390D01*
X114620827Y-114709397D01*
X114766498Y-114769735D01*
X114766503Y-114769737D01*
X114921153Y-114800499D01*
X114921156Y-114800500D01*
X114921158Y-114800500D01*
X115078844Y-114800500D01*
X115078845Y-114800499D01*
X115233497Y-114769737D01*
X115379179Y-114709394D01*
X115510289Y-114621789D01*
X115621789Y-114510289D01*
X115709394Y-114379179D01*
X115769737Y-114233497D01*
X115800500Y-114078842D01*
X115800500Y-113921158D01*
X115800500Y-113921155D01*
X115800499Y-113921153D01*
X115769738Y-113766510D01*
X115769737Y-113766503D01*
X115769735Y-113766498D01*
X115709397Y-113620827D01*
X115709390Y-113620814D01*
X115621789Y-113489711D01*
X115621786Y-113489707D01*
X115510292Y-113378213D01*
X115510288Y-113378210D01*
X115379185Y-113290609D01*
X115379172Y-113290602D01*
X115233501Y-113230264D01*
X115233491Y-113230261D01*
X115078149Y-113199361D01*
X115016238Y-113166976D01*
X115014660Y-113165425D01*
X111487590Y-109638355D01*
X111487588Y-109638352D01*
X111368717Y-109519481D01*
X111368716Y-109519480D01*
X111276277Y-109466111D01*
X111276276Y-109466110D01*
X111231783Y-109440422D01*
X111175881Y-109425443D01*
X111079057Y-109399499D01*
X110920943Y-109399499D01*
X110913347Y-109399499D01*
X110913331Y-109399500D01*
X89962389Y-109399500D01*
X89895350Y-109379815D01*
X89849595Y-109327011D01*
X89839651Y-109257853D01*
X89868676Y-109194297D01*
X89916340Y-109162697D01*
X89915532Y-109160745D01*
X89920015Y-109158887D01*
X89920025Y-109158884D01*
X90095405Y-109069524D01*
X90254646Y-108953828D01*
X90393828Y-108814646D01*
X90509524Y-108655405D01*
X90598884Y-108480025D01*
X90659709Y-108292826D01*
X90690500Y-108098422D01*
X90690500Y-107901577D01*
X90659709Y-107707173D01*
X90631487Y-107620317D01*
X90598884Y-107519975D01*
X90598882Y-107519972D01*
X90598882Y-107519970D01*
X90551743Y-107427455D01*
X90509524Y-107344595D01*
X90393828Y-107185354D01*
X90254646Y-107046172D01*
X90095405Y-106930476D01*
X89920029Y-106841117D01*
X89732826Y-106780290D01*
X89538422Y-106749500D01*
X89538417Y-106749500D01*
X89341583Y-106749500D01*
X89341578Y-106749500D01*
X89147173Y-106780290D01*
X88959970Y-106841117D01*
X88784594Y-106930476D01*
X88729106Y-106970791D01*
X88625354Y-107046172D01*
X88625352Y-107046174D01*
X88625351Y-107046174D01*
X88486174Y-107185351D01*
X88486174Y-107185352D01*
X88486172Y-107185354D01*
X88443855Y-107243598D01*
X88370476Y-107344594D01*
X88281117Y-107519970D01*
X88220290Y-107707173D01*
X88189500Y-107901577D01*
X88189500Y-108098422D01*
X88220290Y-108292826D01*
X88281117Y-108480029D01*
X88370476Y-108655405D01*
X88486172Y-108814646D01*
X88625354Y-108953828D01*
X88784595Y-109069524D01*
X88959975Y-109158884D01*
X88959979Y-109158885D01*
X88964468Y-109160745D01*
X88963607Y-109162821D01*
X89013598Y-109196999D01*
X89040802Y-109261355D01*
X89028893Y-109330202D01*
X88981653Y-109381682D01*
X88917611Y-109399500D01*
X85082389Y-109399500D01*
X85015350Y-109379815D01*
X84969595Y-109327011D01*
X84959651Y-109257853D01*
X84988676Y-109194297D01*
X85036340Y-109162697D01*
X85035532Y-109160745D01*
X85040015Y-109158887D01*
X85040025Y-109158884D01*
X85215405Y-109069524D01*
X85374646Y-108953828D01*
X85513828Y-108814646D01*
X85629524Y-108655405D01*
X85718884Y-108480025D01*
X85779709Y-108292826D01*
X85810500Y-108098422D01*
X85810500Y-107901577D01*
X85779709Y-107707173D01*
X85751487Y-107620317D01*
X85718884Y-107519975D01*
X85718882Y-107519972D01*
X85718882Y-107519970D01*
X85671743Y-107427455D01*
X85629524Y-107344595D01*
X85513828Y-107185354D01*
X85374646Y-107046172D01*
X85215405Y-106930476D01*
X85040029Y-106841117D01*
X84852826Y-106780290D01*
X84658422Y-106749500D01*
X84658417Y-106749500D01*
X84461583Y-106749500D01*
X84461578Y-106749500D01*
X84267173Y-106780290D01*
X84079970Y-106841117D01*
X83904594Y-106930476D01*
X83849106Y-106970791D01*
X83745354Y-107046172D01*
X83745352Y-107046174D01*
X83745351Y-107046174D01*
X83606174Y-107185351D01*
X83606174Y-107185352D01*
X83606172Y-107185354D01*
X83563855Y-107243598D01*
X83490476Y-107344594D01*
X83401117Y-107519970D01*
X83340290Y-107707173D01*
X83309500Y-107901577D01*
X83309500Y-108098422D01*
X83340290Y-108292826D01*
X83401117Y-108480029D01*
X83490476Y-108655405D01*
X83606172Y-108814646D01*
X83745354Y-108953828D01*
X83904595Y-109069524D01*
X84079975Y-109158884D01*
X84079979Y-109158885D01*
X84084468Y-109160745D01*
X84083607Y-109162821D01*
X84133598Y-109196999D01*
X84160802Y-109261355D01*
X84148893Y-109330202D01*
X84101653Y-109381682D01*
X84037611Y-109399500D01*
X80760097Y-109399500D01*
X80693058Y-109379815D01*
X80672416Y-109363181D01*
X78333757Y-107024522D01*
X78300272Y-106963199D01*
X78303507Y-106898523D01*
X78317246Y-106856243D01*
X78350500Y-106646287D01*
X78350500Y-106433713D01*
X78317246Y-106223757D01*
X78303506Y-106181473D01*
X78301512Y-106111635D01*
X78333755Y-106055478D01*
X80480520Y-103908716D01*
X80559577Y-103771784D01*
X80600501Y-103619057D01*
X80600501Y-103585524D01*
X80620186Y-103518485D01*
X80672990Y-103472730D01*
X80742148Y-103462786D01*
X80805704Y-103491811D01*
X80812182Y-103497843D01*
X80881654Y-103567315D01*
X81030875Y-103659356D01*
X81030880Y-103659358D01*
X81197302Y-103714505D01*
X81197309Y-103714506D01*
X81300019Y-103724999D01*
X81749999Y-103724999D01*
X82250000Y-103724999D01*
X82699972Y-103724999D01*
X82699986Y-103724998D01*
X82802697Y-103714505D01*
X82969119Y-103659358D01*
X82969124Y-103659356D01*
X83118345Y-103567315D01*
X83242315Y-103443345D01*
X83334356Y-103294124D01*
X83334358Y-103294119D01*
X83389505Y-103127697D01*
X83389506Y-103127690D01*
X83399999Y-103024986D01*
X83400000Y-103024973D01*
X83400000Y-102812500D01*
X82250000Y-102812500D01*
X82250000Y-103724999D01*
X81749999Y-103724999D01*
X81750000Y-103724998D01*
X81750000Y-101400000D01*
X81300028Y-101400000D01*
X81300012Y-101400001D01*
X81190569Y-101411182D01*
X81190389Y-101409423D01*
X81129540Y-101404865D01*
X81073748Y-101362804D01*
X81049553Y-101297258D01*
X81064635Y-101229035D01*
X81085583Y-101201151D01*
X81649916Y-100636817D01*
X81711239Y-100603333D01*
X81737597Y-100600499D01*
X82262401Y-100600499D01*
X82329440Y-100620184D01*
X82350082Y-100636818D01*
X82914412Y-101201148D01*
X82947897Y-101262471D01*
X82942913Y-101332163D01*
X82901041Y-101388096D01*
X82835577Y-101412513D01*
X82809481Y-101410691D01*
X82809431Y-101411182D01*
X82699986Y-101400000D01*
X82250000Y-101400000D01*
X82250000Y-102312500D01*
X83399999Y-102312500D01*
X83399999Y-102100028D01*
X83399998Y-102100013D01*
X83389505Y-101997302D01*
X83334358Y-101830880D01*
X83334354Y-101830871D01*
X83298464Y-101772684D01*
X83280024Y-101705292D01*
X83300947Y-101638629D01*
X83354589Y-101593859D01*
X83412536Y-101583882D01*
X83424501Y-101584707D01*
X83483443Y-101600501D01*
X83641558Y-101600501D01*
X83641562Y-101600500D01*
X89102012Y-101600500D01*
X89134250Y-101604764D01*
X89417541Y-101681038D01*
X89423045Y-101682428D01*
X89432828Y-101684900D01*
X89433479Y-101685053D01*
X89433482Y-101685053D01*
X89433497Y-101685057D01*
X89502149Y-101696349D01*
X89508567Y-101696036D01*
X89531007Y-101700500D01*
X89668993Y-101700500D01*
X89714171Y-101691513D01*
X89749335Y-101689609D01*
X90014318Y-101636747D01*
X90059137Y-101627807D01*
X90083395Y-101625411D01*
X90150500Y-101625411D01*
X90217539Y-101645096D01*
X90263294Y-101697900D01*
X90274500Y-101749411D01*
X90274500Y-102700001D01*
X90274501Y-102700019D01*
X90285000Y-102802796D01*
X90285001Y-102802799D01*
X90340185Y-102969331D01*
X90340187Y-102969336D01*
X90341603Y-102971632D01*
X90432288Y-103118656D01*
X90556344Y-103242712D01*
X90704927Y-103334358D01*
X90705668Y-103334815D01*
X90721923Y-103340201D01*
X90752002Y-103350168D01*
X90772036Y-103364037D01*
X90794203Y-103374161D01*
X90800250Y-103383571D01*
X90809447Y-103389938D01*
X90818803Y-103412440D01*
X90831977Y-103432939D01*
X90834435Y-103450035D01*
X90836272Y-103454453D01*
X90837000Y-103467874D01*
X90837000Y-103532125D01*
X90817315Y-103599164D01*
X90764511Y-103644919D01*
X90752009Y-103649829D01*
X90723260Y-103659356D01*
X90705666Y-103665186D01*
X90705663Y-103665187D01*
X90556342Y-103757289D01*
X90432289Y-103881342D01*
X90340187Y-104030663D01*
X90340185Y-104030668D01*
X90340115Y-104030880D01*
X90285001Y-104197203D01*
X90285001Y-104197204D01*
X90285000Y-104197204D01*
X90274500Y-104299983D01*
X90274500Y-105700001D01*
X90274501Y-105700018D01*
X90285000Y-105802796D01*
X90285001Y-105802799D01*
X90324220Y-105921153D01*
X90340186Y-105969334D01*
X90432288Y-106118656D01*
X90556344Y-106242712D01*
X90705666Y-106334814D01*
X90872203Y-106389999D01*
X90974991Y-106400500D01*
X91900008Y-106400499D01*
X91900016Y-106400498D01*
X91900019Y-106400498D01*
X91956302Y-106394748D01*
X92002797Y-106389999D01*
X92169334Y-106334814D01*
X92318656Y-106242712D01*
X92442712Y-106118656D01*
X92534814Y-105969334D01*
X92589999Y-105802797D01*
X92600500Y-105700009D01*
X92600500Y-105699986D01*
X93400001Y-105699986D01*
X93410494Y-105802697D01*
X93465641Y-105969119D01*
X93465643Y-105969124D01*
X93557684Y-106118345D01*
X93681654Y-106242315D01*
X93830875Y-106334356D01*
X93830880Y-106334358D01*
X93997302Y-106389505D01*
X93997309Y-106389506D01*
X94100019Y-106399999D01*
X94312499Y-106399999D01*
X94812500Y-106399999D01*
X95024972Y-106399999D01*
X95024986Y-106399998D01*
X95127697Y-106389505D01*
X95294119Y-106334358D01*
X95294124Y-106334356D01*
X95443345Y-106242315D01*
X95567315Y-106118345D01*
X95659356Y-105969124D01*
X95659358Y-105969119D01*
X95714505Y-105802697D01*
X95714506Y-105802690D01*
X95724999Y-105699986D01*
X95725000Y-105699973D01*
X95725000Y-105250000D01*
X94812500Y-105250000D01*
X94812500Y-106399999D01*
X94312499Y-106399999D01*
X94312500Y-106399998D01*
X94312500Y-105250000D01*
X93400001Y-105250000D01*
X93400001Y-105699986D01*
X92600500Y-105699986D01*
X92600499Y-104957673D01*
X92600499Y-104300013D01*
X93400000Y-104300013D01*
X93400000Y-104750000D01*
X94312500Y-104750000D01*
X94312500Y-103599999D01*
X94300181Y-103587680D01*
X94266696Y-103526357D01*
X94271680Y-103456665D01*
X94300181Y-103412318D01*
X94312500Y-103399999D01*
X94812500Y-103399999D01*
X94824819Y-103412318D01*
X94858304Y-103473641D01*
X94853320Y-103543333D01*
X94824820Y-103587679D01*
X94812500Y-103599999D01*
X94812500Y-104750000D01*
X95724999Y-104750000D01*
X95724999Y-104300028D01*
X95724998Y-104300013D01*
X95714505Y-104197302D01*
X95659358Y-104030880D01*
X95659356Y-104030875D01*
X95567315Y-103881654D01*
X95443345Y-103757684D01*
X95294124Y-103665643D01*
X95294119Y-103665641D01*
X95149460Y-103617706D01*
X95092015Y-103577933D01*
X95065192Y-103513417D01*
X95077507Y-103444642D01*
X95125050Y-103393442D01*
X95149460Y-103382294D01*
X95294119Y-103334358D01*
X95294124Y-103334356D01*
X95443345Y-103242315D01*
X95567315Y-103118345D01*
X95659356Y-102969124D01*
X95659358Y-102969119D01*
X95714505Y-102802697D01*
X95714506Y-102802690D01*
X95724999Y-102699986D01*
X95725000Y-102699973D01*
X95725000Y-102250000D01*
X94812500Y-102250000D01*
X94812500Y-103399999D01*
X94312500Y-103399999D01*
X94312500Y-102250000D01*
X93400001Y-102250000D01*
X93400001Y-102699986D01*
X93410494Y-102802697D01*
X93465641Y-102969119D01*
X93465643Y-102969124D01*
X93557684Y-103118345D01*
X93681654Y-103242315D01*
X93830875Y-103334356D01*
X93830880Y-103334358D01*
X93975539Y-103382293D01*
X94032984Y-103422065D01*
X94059807Y-103486581D01*
X94047492Y-103555357D01*
X93999949Y-103606557D01*
X93975540Y-103617705D01*
X93830878Y-103665642D01*
X93830875Y-103665643D01*
X93681654Y-103757684D01*
X93557684Y-103881654D01*
X93465643Y-104030875D01*
X93465641Y-104030880D01*
X93410494Y-104197302D01*
X93410493Y-104197309D01*
X93400000Y-104300013D01*
X92600499Y-104300013D01*
X92600499Y-104299998D01*
X92600498Y-104299981D01*
X92589999Y-104197203D01*
X92589998Y-104197200D01*
X92534814Y-104030666D01*
X92442712Y-103881344D01*
X92318656Y-103757288D01*
X92199451Y-103683762D01*
X92169336Y-103665187D01*
X92169335Y-103665186D01*
X92169334Y-103665186D01*
X92122994Y-103649830D01*
X92102960Y-103635959D01*
X92080797Y-103625838D01*
X92074749Y-103616427D01*
X92065550Y-103610058D01*
X92056195Y-103587557D01*
X92043023Y-103567060D01*
X92040563Y-103549957D01*
X92038728Y-103545541D01*
X92038000Y-103532125D01*
X92038000Y-103467874D01*
X92057685Y-103400835D01*
X92110489Y-103355080D01*
X92122988Y-103350170D01*
X92169334Y-103334814D01*
X92318656Y-103242712D01*
X92442712Y-103118656D01*
X92534814Y-102969334D01*
X92589999Y-102802797D01*
X92600500Y-102700009D01*
X92600499Y-101737595D01*
X92620183Y-101670557D01*
X92636813Y-101649920D01*
X93201150Y-101085584D01*
X93262472Y-101052100D01*
X93332164Y-101057084D01*
X93388097Y-101098956D01*
X93412514Y-101164420D01*
X93410691Y-101190518D01*
X93411182Y-101190569D01*
X93400000Y-101300013D01*
X93400000Y-101750000D01*
X95724999Y-101750000D01*
X95724999Y-101300028D01*
X95724998Y-101300013D01*
X95714505Y-101197302D01*
X95659358Y-101030880D01*
X95659356Y-101030875D01*
X95567315Y-100881654D01*
X95497842Y-100812181D01*
X95464357Y-100750858D01*
X95469341Y-100681166D01*
X95511213Y-100625233D01*
X95576677Y-100600816D01*
X95585523Y-100600500D01*
X114113341Y-100600500D01*
X114120941Y-100600500D01*
X114120943Y-100600501D01*
X114125510Y-100600501D01*
X114162695Y-100611422D01*
X114192539Y-100620186D01*
X114192541Y-100620189D01*
X114192548Y-100620191D01*
X114221149Y-100653204D01*
X114238294Y-100672990D01*
X114238294Y-100672994D01*
X114238299Y-100672999D01*
X114238304Y-100673040D01*
X114249500Y-100724501D01*
X114249500Y-104125500D01*
X114229815Y-104192539D01*
X114177011Y-104238294D01*
X114125500Y-104249500D01*
X104122332Y-104249500D01*
X104098140Y-104247117D01*
X104042329Y-104236015D01*
X104042327Y-104236015D01*
X103884643Y-104236015D01*
X103884640Y-104236015D01*
X103729995Y-104266776D01*
X103729983Y-104266779D01*
X103584312Y-104327117D01*
X103584299Y-104327124D01*
X103453196Y-104414725D01*
X103453192Y-104414728D01*
X103341698Y-104526222D01*
X103341695Y-104526226D01*
X103254094Y-104657329D01*
X103254087Y-104657342D01*
X103193749Y-104803013D01*
X103193746Y-104803025D01*
X103162985Y-104957668D01*
X103162985Y-105115361D01*
X103193746Y-105270004D01*
X103193749Y-105270016D01*
X103254087Y-105415687D01*
X103254094Y-105415700D01*
X103341695Y-105546803D01*
X103341698Y-105546807D01*
X103453192Y-105658301D01*
X103453196Y-105658304D01*
X103584299Y-105745905D01*
X103584312Y-105745912D01*
X103729983Y-105806250D01*
X103729988Y-105806252D01*
X103860331Y-105832179D01*
X103884638Y-105837014D01*
X103884641Y-105837015D01*
X103884643Y-105837015D01*
X104042329Y-105837015D01*
X104042330Y-105837014D01*
X104196982Y-105806252D01*
X104284056Y-105770185D01*
X104308793Y-105759939D01*
X104356245Y-105750500D01*
X114637770Y-105750500D01*
X114704809Y-105770185D01*
X114725451Y-105786819D01*
X115253927Y-106315295D01*
X115280806Y-106355521D01*
X115290606Y-106379179D01*
X115290607Y-106379181D01*
X115378207Y-106510284D01*
X115378213Y-106510292D01*
X115489707Y-106621786D01*
X115489711Y-106621789D01*
X115620814Y-106709390D01*
X115620827Y-106709397D01*
X115717646Y-106749500D01*
X115766503Y-106769737D01*
X115921153Y-106800499D01*
X115921156Y-106800500D01*
X115921158Y-106800500D01*
X116078844Y-106800500D01*
X116078845Y-106800499D01*
X116233497Y-106769737D01*
X116379179Y-106709394D01*
X116510289Y-106621789D01*
X116621789Y-106510289D01*
X116709394Y-106379179D01*
X116769737Y-106233497D01*
X116800500Y-106078842D01*
X116800500Y-105921158D01*
X116800500Y-105921155D01*
X116800499Y-105921153D01*
X116783763Y-105837015D01*
X116769737Y-105766503D01*
X116767018Y-105759939D01*
X116709397Y-105620827D01*
X116709390Y-105620814D01*
X116621789Y-105489711D01*
X116621786Y-105489707D01*
X116510292Y-105378213D01*
X116510284Y-105378207D01*
X116379181Y-105290607D01*
X116379179Y-105290606D01*
X116355521Y-105280806D01*
X116315295Y-105253927D01*
X115813523Y-104752155D01*
X121025000Y-104752155D01*
X121025000Y-105525000D01*
X121899999Y-105525000D01*
X121874979Y-105585402D01*
X121850000Y-105710981D01*
X121850000Y-105839019D01*
X121874979Y-105964598D01*
X121899999Y-106025000D01*
X121025000Y-106025000D01*
X121025000Y-106797844D01*
X121031401Y-106857372D01*
X121031403Y-106857379D01*
X121081645Y-106992086D01*
X121081649Y-106992093D01*
X121167809Y-107107187D01*
X121167812Y-107107190D01*
X121282906Y-107193350D01*
X121282913Y-107193354D01*
X121417620Y-107243596D01*
X121417627Y-107243598D01*
X121477155Y-107249999D01*
X121477172Y-107250000D01*
X122250000Y-107250000D01*
X122250000Y-106375001D01*
X122310402Y-106400021D01*
X122435981Y-106425000D01*
X122564019Y-106425000D01*
X122689598Y-106400021D01*
X122750000Y-106375001D01*
X122750000Y-107250000D01*
X123522828Y-107250000D01*
X123522844Y-107249999D01*
X123582372Y-107243598D01*
X123582379Y-107243596D01*
X123717086Y-107193354D01*
X123717093Y-107193350D01*
X123832187Y-107107190D01*
X123832190Y-107107187D01*
X123918350Y-106992093D01*
X123918354Y-106992086D01*
X123968596Y-106857379D01*
X123968598Y-106857372D01*
X123974999Y-106797844D01*
X123975000Y-106797827D01*
X123975000Y-106025000D01*
X123100001Y-106025000D01*
X123125021Y-105964598D01*
X123150000Y-105839019D01*
X123150000Y-105710981D01*
X123125021Y-105585402D01*
X123100001Y-105525000D01*
X123975000Y-105525000D01*
X123975000Y-104752172D01*
X123974999Y-104752155D01*
X123968598Y-104692627D01*
X123968596Y-104692620D01*
X123918354Y-104557913D01*
X123918350Y-104557906D01*
X123832190Y-104442812D01*
X123832187Y-104442809D01*
X123717093Y-104356649D01*
X123717086Y-104356645D01*
X123582379Y-104306403D01*
X123582372Y-104306401D01*
X123522844Y-104300000D01*
X122750000Y-104300000D01*
X122750000Y-105174998D01*
X122689598Y-105149979D01*
X122564019Y-105125000D01*
X122435981Y-105125000D01*
X122310402Y-105149979D01*
X122250000Y-105174998D01*
X122250000Y-104300000D01*
X121477155Y-104300000D01*
X121417627Y-104306401D01*
X121417620Y-104306403D01*
X121282913Y-104356645D01*
X121282906Y-104356649D01*
X121167812Y-104442809D01*
X121167809Y-104442812D01*
X121081649Y-104557906D01*
X121081645Y-104557913D01*
X121031403Y-104692620D01*
X121031401Y-104692627D01*
X121025000Y-104752155D01*
X115813523Y-104752155D01*
X115786819Y-104725451D01*
X115753334Y-104664128D01*
X115750500Y-104637770D01*
X115750500Y-100962229D01*
X115770185Y-100895190D01*
X115786819Y-100874548D01*
X116116976Y-100544391D01*
X116515297Y-100146069D01*
X116555522Y-100119192D01*
X116579179Y-100109394D01*
X116710289Y-100021789D01*
X116821789Y-99910289D01*
X116891734Y-99805608D01*
X116945346Y-99760804D01*
X116994836Y-99750500D01*
X121177160Y-99750500D01*
X121244199Y-99770185D01*
X121289954Y-99822989D01*
X121299898Y-99892147D01*
X121277478Y-99947385D01*
X121238041Y-100001665D01*
X121132601Y-100208599D01*
X121060831Y-100429485D01*
X121024500Y-100658870D01*
X121024500Y-100891129D01*
X121060831Y-101120514D01*
X121132601Y-101341400D01*
X121203487Y-101480520D01*
X121238039Y-101548331D01*
X121374551Y-101736224D01*
X121538776Y-101900449D01*
X121726669Y-102036961D01*
X121824436Y-102086776D01*
X121933599Y-102142398D01*
X121933601Y-102142398D01*
X121933604Y-102142400D01*
X122154486Y-102214169D01*
X122272668Y-102232886D01*
X122383871Y-102250500D01*
X122383876Y-102250500D01*
X122616129Y-102250500D01*
X122717502Y-102234443D01*
X122845514Y-102214169D01*
X123066396Y-102142400D01*
X123273331Y-102036961D01*
X123368734Y-101967646D01*
X123414795Y-101934182D01*
X123480601Y-101910702D01*
X123487680Y-101910500D01*
X124330951Y-101910500D01*
X124397990Y-101930185D01*
X124436489Y-101969403D01*
X124482286Y-102043651D01*
X124482289Y-102043655D01*
X124606344Y-102167710D01*
X124606348Y-102167713D01*
X124755662Y-102259812D01*
X124755664Y-102259813D01*
X124755666Y-102259814D01*
X124922203Y-102314999D01*
X125024992Y-102325500D01*
X125556798Y-102325500D01*
X125623837Y-102345185D01*
X125669592Y-102397989D01*
X125679536Y-102467147D01*
X125650511Y-102530703D01*
X125644479Y-102537181D01*
X125343480Y-102838181D01*
X125282157Y-102871666D01*
X125255799Y-102874500D01*
X125024984Y-102874500D01*
X124922204Y-102885000D01*
X124922203Y-102885001D01*
X124755664Y-102940186D01*
X124755662Y-102940187D01*
X124606348Y-103032286D01*
X124606344Y-103032289D01*
X124482289Y-103156344D01*
X124482286Y-103156348D01*
X124390187Y-103305662D01*
X124390186Y-103305664D01*
X124335001Y-103472203D01*
X124335000Y-103472204D01*
X124324500Y-103574984D01*
X124324500Y-104600015D01*
X124335000Y-104702795D01*
X124335001Y-104702797D01*
X124342508Y-104725451D01*
X124390186Y-104869335D01*
X124390187Y-104869337D01*
X124482286Y-105018651D01*
X124482289Y-105018655D01*
X124528181Y-105064547D01*
X124561666Y-105125870D01*
X124564500Y-105152228D01*
X124564500Y-108078298D01*
X124544815Y-108145337D01*
X124528181Y-108165979D01*
X124133891Y-108560269D01*
X124133889Y-108560272D01*
X124088771Y-108622370D01*
X124028833Y-108704868D01*
X123947692Y-108864115D01*
X123947113Y-108865898D01*
X123892459Y-109034103D01*
X123892458Y-109034106D01*
X123892458Y-109034108D01*
X123864500Y-109210629D01*
X123864500Y-109389370D01*
X123892458Y-109565891D01*
X123892459Y-109565897D01*
X123913705Y-109631284D01*
X123947692Y-109735884D01*
X124028833Y-109895131D01*
X124133889Y-110039728D01*
X124260272Y-110166111D01*
X124404869Y-110271167D01*
X124480109Y-110309503D01*
X124564115Y-110352307D01*
X124564117Y-110352307D01*
X124564120Y-110352309D01*
X124734103Y-110407541D01*
X124832175Y-110423073D01*
X124910630Y-110435500D01*
X124910634Y-110435500D01*
X125089370Y-110435500D01*
X125159978Y-110424316D01*
X125265897Y-110407541D01*
X125435880Y-110352309D01*
X125595131Y-110271167D01*
X125739728Y-110166111D01*
X126566111Y-109339729D01*
X126630939Y-109250500D01*
X126671167Y-109195132D01*
X126752309Y-109035881D01*
X126807540Y-108865897D01*
X126835500Y-108689366D01*
X126835500Y-105152228D01*
X126855185Y-105085189D01*
X126871819Y-105064547D01*
X126917711Y-105018655D01*
X127009814Y-104869334D01*
X127064999Y-104702797D01*
X127075500Y-104600008D01*
X127075500Y-104369201D01*
X127095185Y-104302162D01*
X127111819Y-104281520D01*
X127668341Y-103724998D01*
X128277111Y-103116229D01*
X128277115Y-103116223D01*
X128280283Y-103112516D01*
X128281785Y-103113799D01*
X128330492Y-103076227D01*
X128400105Y-103070236D01*
X128461905Y-103102831D01*
X128496273Y-103163664D01*
X128499500Y-103191770D01*
X128499500Y-144375500D01*
X128479815Y-144442539D01*
X128427011Y-144488294D01*
X128375500Y-144499500D01*
X91861230Y-144499500D01*
X91794191Y-144479815D01*
X91748436Y-144427011D01*
X91738492Y-144357853D01*
X91767517Y-144294297D01*
X91773549Y-144287819D01*
X91920374Y-144140992D01*
X93191193Y-142870172D01*
X93252514Y-142836689D01*
X93298265Y-142835382D01*
X93393713Y-142850500D01*
X93393715Y-142850500D01*
X93606286Y-142850500D01*
X93606287Y-142850500D01*
X93816243Y-142817246D01*
X94018412Y-142751557D01*
X94207816Y-142655051D01*
X94291388Y-142594333D01*
X94379784Y-142530110D01*
X94379784Y-142530109D01*
X94379792Y-142530104D01*
X94493717Y-142416178D01*
X94555036Y-142382696D01*
X94624728Y-142387680D01*
X94680662Y-142429551D01*
X94697577Y-142460528D01*
X94746646Y-142592088D01*
X94746649Y-142592093D01*
X94832809Y-142707187D01*
X94832812Y-142707190D01*
X94947906Y-142793350D01*
X94947913Y-142793354D01*
X95082620Y-142843596D01*
X95082627Y-142843598D01*
X95142155Y-142849999D01*
X95142172Y-142850000D01*
X95790000Y-142850000D01*
X95790000Y-141933012D01*
X95847007Y-141965925D01*
X95974174Y-142000000D01*
X96105826Y-142000000D01*
X96232993Y-141965925D01*
X96290000Y-141933012D01*
X96290000Y-142850000D01*
X96937828Y-142850000D01*
X96937844Y-142849999D01*
X96997372Y-142843598D01*
X96997379Y-142843596D01*
X97132086Y-142793354D01*
X97132093Y-142793350D01*
X97247187Y-142707190D01*
X97247190Y-142707187D01*
X97333350Y-142592093D01*
X97333354Y-142592086D01*
X97382422Y-142460529D01*
X97424293Y-142404595D01*
X97489757Y-142380178D01*
X97558030Y-142395030D01*
X97586285Y-142416181D01*
X97700213Y-142530109D01*
X97872179Y-142655048D01*
X97872181Y-142655049D01*
X97872184Y-142655051D01*
X98061588Y-142751557D01*
X98263757Y-142817246D01*
X98473713Y-142850500D01*
X98473714Y-142850500D01*
X98686286Y-142850500D01*
X98686287Y-142850500D01*
X98896243Y-142817246D01*
X99098412Y-142751557D01*
X99287816Y-142655051D01*
X99314726Y-142635500D01*
X99459786Y-142530109D01*
X99459788Y-142530106D01*
X99459792Y-142530104D01*
X99610104Y-142379792D01*
X99610106Y-142379788D01*
X99610109Y-142379786D01*
X99735048Y-142207820D01*
X99735047Y-142207820D01*
X99735051Y-142207816D01*
X99739514Y-142199054D01*
X99787488Y-142148259D01*
X99855308Y-142131463D01*
X99921444Y-142153999D01*
X99960486Y-142199056D01*
X99964951Y-142207820D01*
X100089890Y-142379786D01*
X100240213Y-142530109D01*
X100412179Y-142655048D01*
X100412181Y-142655049D01*
X100412184Y-142655051D01*
X100601588Y-142751557D01*
X100803757Y-142817246D01*
X101013713Y-142850500D01*
X101013714Y-142850500D01*
X101226286Y-142850500D01*
X101226287Y-142850500D01*
X101436243Y-142817246D01*
X101638412Y-142751557D01*
X101827816Y-142655051D01*
X101827820Y-142655047D01*
X101827824Y-142655046D01*
X101829901Y-142653774D01*
X101830843Y-142653508D01*
X101832157Y-142652839D01*
X101832290Y-142653100D01*
X101894692Y-142635500D01*
X116589370Y-142635500D01*
X116667824Y-142623073D01*
X116765897Y-142607541D01*
X116894193Y-142565853D01*
X116935881Y-142552309D01*
X117095132Y-142471167D01*
X117239728Y-142366111D01*
X117366111Y-142239728D01*
X118212126Y-141393713D01*
X123649500Y-141393713D01*
X123649500Y-141606286D01*
X123682753Y-141816239D01*
X123748444Y-142018414D01*
X123844951Y-142207820D01*
X123969890Y-142379786D01*
X124120213Y-142530109D01*
X124292179Y-142655048D01*
X124292181Y-142655049D01*
X124292184Y-142655051D01*
X124481588Y-142751557D01*
X124683757Y-142817246D01*
X124893713Y-142850500D01*
X124893714Y-142850500D01*
X125106286Y-142850500D01*
X125106287Y-142850500D01*
X125316243Y-142817246D01*
X125518412Y-142751557D01*
X125707816Y-142655051D01*
X125734726Y-142635500D01*
X125879786Y-142530109D01*
X125879788Y-142530106D01*
X125879792Y-142530104D01*
X126030104Y-142379792D01*
X126030106Y-142379788D01*
X126030109Y-142379786D01*
X126155048Y-142207820D01*
X126155047Y-142207820D01*
X126155051Y-142207816D01*
X126251557Y-142018412D01*
X126317246Y-141816243D01*
X126350500Y-141606287D01*
X126350500Y-141393713D01*
X126317246Y-141183757D01*
X126251557Y-140981588D01*
X126155051Y-140792184D01*
X126155049Y-140792181D01*
X126155048Y-140792179D01*
X126030109Y-140620213D01*
X125879786Y-140469890D01*
X125707820Y-140344951D01*
X125518414Y-140248444D01*
X125518413Y-140248443D01*
X125518412Y-140248443D01*
X125316243Y-140182754D01*
X125316241Y-140182753D01*
X125316240Y-140182753D01*
X125154957Y-140157208D01*
X125106287Y-140149500D01*
X124893713Y-140149500D01*
X124845042Y-140157208D01*
X124683760Y-140182753D01*
X124481585Y-140248444D01*
X124292179Y-140344951D01*
X124120213Y-140469890D01*
X123969890Y-140620213D01*
X123844951Y-140792179D01*
X123748444Y-140981585D01*
X123682753Y-141183760D01*
X123649500Y-141393713D01*
X118212126Y-141393713D01*
X122061111Y-137544728D01*
X122131613Y-137447691D01*
X122166167Y-137400132D01*
X122247309Y-137240881D01*
X122260853Y-137199193D01*
X122302541Y-137070897D01*
X122318073Y-136972824D01*
X122330500Y-136894370D01*
X122330500Y-135127230D01*
X122350185Y-135060191D01*
X122366819Y-135039549D01*
X122437712Y-134968656D01*
X122529814Y-134819334D01*
X122584999Y-134652797D01*
X122595500Y-134550009D01*
X122595500Y-134259500D01*
X122615185Y-134192461D01*
X122667989Y-134146706D01*
X122719500Y-134135500D01*
X123670501Y-134135500D01*
X123737540Y-134155185D01*
X123783295Y-134207989D01*
X123794501Y-134259500D01*
X123794501Y-134550018D01*
X123805000Y-134652796D01*
X123805001Y-134652799D01*
X123860185Y-134819331D01*
X123860186Y-134819334D01*
X123952288Y-134968656D01*
X124076344Y-135092712D01*
X124225666Y-135184814D01*
X124392203Y-135239999D01*
X124494991Y-135250500D01*
X125895008Y-135250499D01*
X125997797Y-135239999D01*
X126164334Y-135184814D01*
X126313656Y-135092712D01*
X126437712Y-134968656D01*
X126529814Y-134819334D01*
X126584999Y-134652797D01*
X126595500Y-134550009D01*
X126595499Y-131449992D01*
X126584999Y-131347203D01*
X126529814Y-131180666D01*
X126437712Y-131031344D01*
X126313656Y-130907288D01*
X126220888Y-130850069D01*
X126164336Y-130815187D01*
X126164331Y-130815185D01*
X126162862Y-130814698D01*
X125997797Y-130760001D01*
X125997795Y-130760000D01*
X125895010Y-130749500D01*
X124494998Y-130749500D01*
X124494981Y-130749501D01*
X124392203Y-130760000D01*
X124392200Y-130760001D01*
X124225668Y-130815185D01*
X124225663Y-130815187D01*
X124076342Y-130907289D01*
X123952289Y-131031342D01*
X123860187Y-131180663D01*
X123860186Y-131180666D01*
X123805001Y-131347203D01*
X123805001Y-131347204D01*
X123805000Y-131347204D01*
X123794500Y-131449983D01*
X123794500Y-131740500D01*
X123774815Y-131807539D01*
X123722011Y-131853294D01*
X123670500Y-131864500D01*
X122719499Y-131864500D01*
X122652460Y-131844815D01*
X122606705Y-131792011D01*
X122595499Y-131740500D01*
X122595499Y-131449998D01*
X122595498Y-131449981D01*
X122584999Y-131347203D01*
X122584998Y-131347200D01*
X122529814Y-131180666D01*
X122437712Y-131031344D01*
X122313656Y-130907288D01*
X122220888Y-130850069D01*
X122164336Y-130815187D01*
X122164331Y-130815185D01*
X122162862Y-130814698D01*
X121997797Y-130760001D01*
X121997795Y-130760000D01*
X121895010Y-130749500D01*
X120494998Y-130749500D01*
X120494981Y-130749501D01*
X120392203Y-130760000D01*
X120392200Y-130760001D01*
X120225668Y-130815185D01*
X120225663Y-130815187D01*
X120076342Y-130907289D01*
X119952289Y-131031342D01*
X119860187Y-131180663D01*
X119860186Y-131180666D01*
X119805001Y-131347203D01*
X119805001Y-131347204D01*
X119805000Y-131347204D01*
X119794500Y-131449983D01*
X119794500Y-134550001D01*
X119794501Y-134550018D01*
X119805000Y-134652796D01*
X119805001Y-134652799D01*
X119860185Y-134819331D01*
X119860187Y-134819336D01*
X119952289Y-134968657D01*
X120023181Y-135039549D01*
X120056666Y-135100872D01*
X120059500Y-135127230D01*
X120059500Y-136283299D01*
X120039815Y-136350338D01*
X120023181Y-136370980D01*
X116065980Y-140328181D01*
X116004657Y-140361666D01*
X115978299Y-140364500D01*
X101894692Y-140364500D01*
X101832290Y-140346899D01*
X101832157Y-140347161D01*
X101830843Y-140346491D01*
X101829901Y-140346226D01*
X101827824Y-140344953D01*
X101638414Y-140248444D01*
X101638413Y-140248443D01*
X101638412Y-140248443D01*
X101436243Y-140182754D01*
X101436241Y-140182753D01*
X101436240Y-140182753D01*
X101274957Y-140157208D01*
X101226287Y-140149500D01*
X101013713Y-140149500D01*
X100965042Y-140157208D01*
X100803760Y-140182753D01*
X100601585Y-140248444D01*
X100412179Y-140344951D01*
X100240213Y-140469890D01*
X100089890Y-140620213D01*
X99964949Y-140792182D01*
X99960484Y-140800946D01*
X99952945Y-140808927D01*
X99949084Y-140819204D01*
X99929379Y-140833878D01*
X99912509Y-140851742D01*
X99901852Y-140854380D01*
X99893048Y-140860938D01*
X99868536Y-140862630D01*
X99844688Y-140868536D01*
X99834296Y-140864994D01*
X99823345Y-140865751D01*
X99801811Y-140853924D01*
X99778553Y-140845998D01*
X99770119Y-140836518D01*
X99762104Y-140832116D01*
X99744093Y-140807262D01*
X99741022Y-140803810D01*
X99740252Y-140802392D01*
X99735051Y-140792184D01*
X99733704Y-140790331D01*
X99730522Y-140784468D01*
X99725190Y-140759666D01*
X99715500Y-140725308D01*
X99715500Y-140208553D01*
X99706147Y-140149500D01*
X99687540Y-140032022D01*
X99687539Y-140032018D01*
X99687539Y-140032017D01*
X99632310Y-139862040D01*
X99632308Y-139862037D01*
X99551166Y-139702786D01*
X99481966Y-139607541D01*
X99481966Y-139607540D01*
X99446114Y-139558193D01*
X99446109Y-139558188D01*
X97521811Y-137633891D01*
X97521810Y-137633890D01*
X97399090Y-137544728D01*
X97377212Y-137528832D01*
X97217962Y-137447691D01*
X97217956Y-137447688D01*
X97176275Y-137434146D01*
X97071586Y-137400130D01*
X97047978Y-137392459D01*
X97047976Y-137392458D01*
X97047975Y-137392458D01*
X96871451Y-137364500D01*
X96871447Y-137364500D01*
X95987499Y-137364500D01*
X95920460Y-137344815D01*
X95874705Y-137292011D01*
X95864761Y-137222853D01*
X95871317Y-137197167D01*
X95914091Y-137082482D01*
X95920500Y-137022873D01*
X95920499Y-133219499D01*
X95940184Y-133152461D01*
X95992988Y-133106706D01*
X96044499Y-133095500D01*
X102284365Y-133095500D01*
X102284366Y-133095500D01*
X102460897Y-133067540D01*
X102630881Y-133012309D01*
X102630884Y-133012307D01*
X102635514Y-133010803D01*
X102636152Y-133012767D01*
X102696996Y-133006208D01*
X102731310Y-133017759D01*
X102799115Y-133052308D01*
X102799117Y-133052308D01*
X102799120Y-133052310D01*
X102969103Y-133107541D01*
X103069817Y-133123492D01*
X103145630Y-133135500D01*
X103145634Y-133135500D01*
X108350500Y-133135500D01*
X108417539Y-133155185D01*
X108463294Y-133207989D01*
X108474500Y-133259500D01*
X108474500Y-137022870D01*
X108474501Y-137022876D01*
X108480908Y-137082483D01*
X108531202Y-137217328D01*
X108531206Y-137217335D01*
X108617452Y-137332544D01*
X108617455Y-137332547D01*
X108732664Y-137418793D01*
X108732671Y-137418797D01*
X108867517Y-137469091D01*
X108867516Y-137469091D01*
X108874444Y-137469835D01*
X108927127Y-137475500D01*
X111472872Y-137475499D01*
X111532483Y-137469091D01*
X111667331Y-137418796D01*
X111782546Y-137332546D01*
X111868796Y-137217331D01*
X111919091Y-137082483D01*
X111925500Y-137022873D01*
X111925499Y-132731701D01*
X111945184Y-132664663D01*
X111961818Y-132644021D01*
X112434021Y-132171819D01*
X112495344Y-132138334D01*
X112521702Y-132135500D01*
X116089370Y-132135500D01*
X116177631Y-132121520D01*
X116265897Y-132107541D01*
X116413749Y-132059500D01*
X116435881Y-132052309D01*
X116595132Y-131971167D01*
X116739728Y-131866111D01*
X116866111Y-131739728D01*
X119434020Y-129171819D01*
X119460947Y-129157115D01*
X119486766Y-129140523D01*
X119492966Y-129139631D01*
X119495343Y-129138334D01*
X119521701Y-129135500D01*
X119670501Y-129135500D01*
X119737540Y-129155185D01*
X119783295Y-129207989D01*
X119794501Y-129259500D01*
X119794501Y-129550018D01*
X119805000Y-129652796D01*
X119805001Y-129652799D01*
X119860115Y-129819119D01*
X119860186Y-129819334D01*
X119952288Y-129968656D01*
X120076344Y-130092712D01*
X120225666Y-130184814D01*
X120392203Y-130239999D01*
X120494991Y-130250500D01*
X121895008Y-130250499D01*
X121997797Y-130239999D01*
X122164334Y-130184814D01*
X122313656Y-130092712D01*
X122437712Y-129968656D01*
X122529814Y-129819334D01*
X122584999Y-129652797D01*
X122595500Y-129550009D01*
X122595500Y-129549986D01*
X123795001Y-129549986D01*
X123805494Y-129652697D01*
X123860641Y-129819119D01*
X123860643Y-129819124D01*
X123952684Y-129968345D01*
X124076654Y-130092315D01*
X124225875Y-130184356D01*
X124225880Y-130184358D01*
X124392302Y-130239505D01*
X124392309Y-130239506D01*
X124495019Y-130249999D01*
X124944999Y-130249999D01*
X125445000Y-130249999D01*
X125894972Y-130249999D01*
X125894986Y-130249998D01*
X125997697Y-130239505D01*
X126164119Y-130184358D01*
X126164124Y-130184356D01*
X126313345Y-130092315D01*
X126437315Y-129968345D01*
X126529356Y-129819124D01*
X126529358Y-129819119D01*
X126584505Y-129652697D01*
X126584506Y-129652690D01*
X126594999Y-129549986D01*
X126595000Y-129549973D01*
X126595000Y-128250000D01*
X125445000Y-128250000D01*
X125445000Y-130249999D01*
X124944999Y-130249999D01*
X124945000Y-130249998D01*
X124945000Y-128250000D01*
X123795001Y-128250000D01*
X123795001Y-129549986D01*
X122595500Y-129549986D01*
X122595499Y-127750000D01*
X122595499Y-126450013D01*
X123795000Y-126450013D01*
X123795000Y-127750000D01*
X124945000Y-127750000D01*
X125445000Y-127750000D01*
X126594999Y-127750000D01*
X126594999Y-126450028D01*
X126594998Y-126450013D01*
X126584505Y-126347302D01*
X126529358Y-126180880D01*
X126529356Y-126180875D01*
X126437315Y-126031654D01*
X126313345Y-125907684D01*
X126164124Y-125815643D01*
X126164119Y-125815641D01*
X125997697Y-125760494D01*
X125997690Y-125760493D01*
X125894986Y-125750000D01*
X125445000Y-125750000D01*
X125445000Y-127750000D01*
X124945000Y-127750000D01*
X124945000Y-125750000D01*
X124495028Y-125750000D01*
X124495012Y-125750001D01*
X124392302Y-125760494D01*
X124225880Y-125815641D01*
X124225875Y-125815643D01*
X124076654Y-125907684D01*
X123952684Y-126031654D01*
X123860643Y-126180875D01*
X123860641Y-126180880D01*
X123805494Y-126347302D01*
X123805493Y-126347309D01*
X123795000Y-126450013D01*
X122595499Y-126450013D01*
X122595499Y-126449998D01*
X122595498Y-126449981D01*
X122584999Y-126347203D01*
X122584998Y-126347200D01*
X122582993Y-126341150D01*
X122529814Y-126180666D01*
X122437712Y-126031344D01*
X122366819Y-125960451D01*
X122333334Y-125899128D01*
X122330500Y-125872770D01*
X122330500Y-124326701D01*
X122350185Y-124259662D01*
X122366819Y-124239020D01*
X123095551Y-123510288D01*
X123866111Y-122739729D01*
X123866113Y-122739725D01*
X123866116Y-122739723D01*
X123920346Y-122665080D01*
X123971166Y-122595132D01*
X124052309Y-122435881D01*
X124107540Y-122265897D01*
X124124630Y-122157991D01*
X124135499Y-122089372D01*
X124135499Y-121910629D01*
X124115889Y-121786819D01*
X124107540Y-121734103D01*
X124052309Y-121564120D01*
X124052307Y-121564117D01*
X124052307Y-121564115D01*
X124014393Y-121489707D01*
X123971166Y-121404869D01*
X123952496Y-121379172D01*
X123866116Y-121260277D01*
X123739722Y-121133883D01*
X123595134Y-121028836D01*
X123595133Y-121028835D01*
X123595131Y-121028834D01*
X123545401Y-121003495D01*
X123435884Y-120947692D01*
X123265897Y-120892460D01*
X123089370Y-120864501D01*
X123089366Y-120864501D01*
X122910633Y-120864501D01*
X122910628Y-120864501D01*
X122734102Y-120892460D01*
X122564116Y-120947692D01*
X122404864Y-121028836D01*
X122260276Y-121133883D01*
X122260272Y-121133887D01*
X120455272Y-122938889D01*
X120328891Y-123065269D01*
X120328890Y-123065270D01*
X120223833Y-123209867D01*
X120142690Y-123369118D01*
X120129145Y-123410804D01*
X120129146Y-123410805D01*
X120087458Y-123539106D01*
X120087458Y-123539107D01*
X120069816Y-123650500D01*
X120069816Y-123650502D01*
X120059500Y-123715629D01*
X120059500Y-125872770D01*
X120039815Y-125939809D01*
X120023181Y-125960451D01*
X119952289Y-126031342D01*
X119860187Y-126180663D01*
X119860185Y-126180668D01*
X119860115Y-126180880D01*
X119805001Y-126347203D01*
X119805001Y-126347204D01*
X119805000Y-126347204D01*
X119794500Y-126449983D01*
X119794500Y-126740500D01*
X119774815Y-126807539D01*
X119722011Y-126853294D01*
X119670500Y-126864500D01*
X118910630Y-126864500D01*
X118734105Y-126892458D01*
X118605805Y-126934146D01*
X118605804Y-126934145D01*
X118564118Y-126947690D01*
X118404867Y-127028833D01*
X118260270Y-127133890D01*
X118260269Y-127133891D01*
X115565980Y-129828181D01*
X115504657Y-129861666D01*
X115478299Y-129864500D01*
X111910634Y-129864500D01*
X111851790Y-129873820D01*
X111734101Y-129892460D01*
X111734098Y-129892460D01*
X111564121Y-129947689D01*
X111564118Y-129947690D01*
X111404866Y-130028834D01*
X111321116Y-130089681D01*
X111321115Y-130089680D01*
X111260279Y-130133881D01*
X111260271Y-130133888D01*
X110505979Y-130888181D01*
X110444656Y-130921666D01*
X110418298Y-130924500D01*
X109774149Y-130924500D01*
X109735831Y-130918431D01*
X109655900Y-130892459D01*
X109655897Y-130892459D01*
X109479370Y-130864500D01*
X109479366Y-130864500D01*
X103517594Y-130864500D01*
X103479277Y-130858431D01*
X103460897Y-130852459D01*
X103460894Y-130852458D01*
X103284370Y-130824500D01*
X103284366Y-130824500D01*
X103105634Y-130824500D01*
X103105630Y-130824500D01*
X102929108Y-130852458D01*
X102929106Y-130852458D01*
X102929103Y-130852459D01*
X102819164Y-130888181D01*
X102759119Y-130907691D01*
X102759111Y-130907694D01*
X102751285Y-130911682D01*
X102682614Y-130924572D01*
X102638708Y-130911678D01*
X102630888Y-130907693D01*
X102630878Y-130907689D01*
X102460899Y-130852460D01*
X102343209Y-130833820D01*
X102284366Y-130824500D01*
X95519366Y-130824500D01*
X95340634Y-130824500D01*
X95340630Y-130824500D01*
X95164105Y-130852458D01*
X95040997Y-130892459D01*
X94994124Y-130907688D01*
X94991164Y-130909196D01*
X94987649Y-130910987D01*
X94931360Y-130924500D01*
X93581702Y-130924500D01*
X93514663Y-130904815D01*
X93494021Y-130888181D01*
X89739730Y-127133891D01*
X89739729Y-127133890D01*
X89595132Y-127028833D01*
X89435881Y-126947691D01*
X89435875Y-126947688D01*
X89394194Y-126934146D01*
X89327453Y-126912460D01*
X89265897Y-126892459D01*
X89265895Y-126892458D01*
X89265894Y-126892458D01*
X89089370Y-126864500D01*
X89089366Y-126864500D01*
X85719499Y-126864500D01*
X85652460Y-126844815D01*
X85606705Y-126792011D01*
X85595499Y-126740500D01*
X85595499Y-126449998D01*
X85595498Y-126449981D01*
X85590117Y-126397308D01*
X92470000Y-126397308D01*
X92470000Y-127222844D01*
X92476401Y-127282372D01*
X92476403Y-127282379D01*
X92526645Y-127417086D01*
X92526649Y-127417093D01*
X92612809Y-127532187D01*
X92612812Y-127532190D01*
X92727906Y-127618350D01*
X92727913Y-127618354D01*
X92862620Y-127668596D01*
X92862627Y-127668598D01*
X92922155Y-127674999D01*
X92922172Y-127675000D01*
X95467828Y-127675000D01*
X95467844Y-127674999D01*
X95527372Y-127668598D01*
X95527379Y-127668596D01*
X95662086Y-127618354D01*
X95662093Y-127618350D01*
X95777187Y-127532190D01*
X95777190Y-127532187D01*
X95863350Y-127417093D01*
X95863354Y-127417086D01*
X95913596Y-127282379D01*
X95913598Y-127282372D01*
X95919999Y-127222844D01*
X95920000Y-127222827D01*
X95920000Y-126397308D01*
X108475000Y-126397308D01*
X108475000Y-127222844D01*
X108481401Y-127282372D01*
X108481403Y-127282379D01*
X108531645Y-127417086D01*
X108531649Y-127417093D01*
X108617809Y-127532187D01*
X108617812Y-127532190D01*
X108732906Y-127618350D01*
X108732913Y-127618354D01*
X108867620Y-127668596D01*
X108867627Y-127668598D01*
X108927155Y-127674999D01*
X108927172Y-127675000D01*
X111472828Y-127675000D01*
X111472844Y-127674999D01*
X111532372Y-127668598D01*
X111532379Y-127668596D01*
X111667086Y-127618354D01*
X111667093Y-127618350D01*
X111782187Y-127532190D01*
X111782190Y-127532187D01*
X111868350Y-127417093D01*
X111868354Y-127417086D01*
X111918596Y-127282379D01*
X111918598Y-127282372D01*
X111924999Y-127222844D01*
X111925000Y-127222827D01*
X111925000Y-126385000D01*
X111905659Y-126376989D01*
X111904578Y-126377580D01*
X111834886Y-126372594D01*
X111790542Y-126344094D01*
X110200000Y-124753552D01*
X108609457Y-126344094D01*
X108553852Y-126376192D01*
X108475000Y-126397308D01*
X95920000Y-126397308D01*
X95841147Y-126376192D01*
X95835954Y-126373028D01*
X95829886Y-126372594D01*
X95785542Y-126344094D01*
X94195000Y-124753552D01*
X92604457Y-126344094D01*
X92548852Y-126376192D01*
X92470000Y-126397308D01*
X85590117Y-126397308D01*
X85584999Y-126347203D01*
X85584997Y-126347196D01*
X85582995Y-126341154D01*
X85582993Y-126341150D01*
X85529814Y-126180666D01*
X85437712Y-126031344D01*
X85313656Y-125907288D01*
X85164334Y-125815186D01*
X85032342Y-125771448D01*
X92470000Y-125771448D01*
X93841448Y-124400000D01*
X93841448Y-124399999D01*
X94548552Y-124399999D01*
X94548552Y-124400000D01*
X95919999Y-125771448D01*
X108475000Y-125771448D01*
X109846448Y-124400000D01*
X109846448Y-124399999D01*
X110553552Y-124399999D01*
X110553552Y-124400000D01*
X111924999Y-125771448D01*
X111925000Y-125771447D01*
X111925000Y-123028552D01*
X111924999Y-123028551D01*
X110553552Y-124399999D01*
X109846448Y-124399999D01*
X108475000Y-123028551D01*
X108475000Y-125771448D01*
X95919999Y-125771448D01*
X95920000Y-125771447D01*
X95920000Y-123028552D01*
X95919999Y-123028551D01*
X94548552Y-124399999D01*
X93841448Y-124399999D01*
X92470000Y-123028551D01*
X92470000Y-125771448D01*
X85032342Y-125771448D01*
X84997797Y-125760001D01*
X84997795Y-125760000D01*
X84895010Y-125749500D01*
X83494998Y-125749500D01*
X83494981Y-125749501D01*
X83392203Y-125760000D01*
X83392200Y-125760001D01*
X83225668Y-125815185D01*
X83225663Y-125815187D01*
X83076342Y-125907289D01*
X82952289Y-126031342D01*
X82860187Y-126180663D01*
X82860185Y-126180668D01*
X82860115Y-126180880D01*
X82805001Y-126347203D01*
X82805001Y-126347204D01*
X82805000Y-126347204D01*
X82794500Y-126449983D01*
X82794500Y-129550001D01*
X82794501Y-129550018D01*
X82805000Y-129652796D01*
X82805001Y-129652799D01*
X82860115Y-129819119D01*
X82860186Y-129819334D01*
X82952288Y-129968656D01*
X83076344Y-130092712D01*
X83225666Y-130184814D01*
X83392203Y-130239999D01*
X83494991Y-130250500D01*
X84895008Y-130250499D01*
X84997797Y-130239999D01*
X85164334Y-130184814D01*
X85313656Y-130092712D01*
X85437712Y-129968656D01*
X85529814Y-129819334D01*
X85584999Y-129652797D01*
X85595500Y-129550009D01*
X85595500Y-129259500D01*
X85615185Y-129192461D01*
X85667989Y-129146706D01*
X85719500Y-129135500D01*
X88478299Y-129135500D01*
X88545338Y-129155185D01*
X88565980Y-129171819D01*
X92433181Y-133039021D01*
X92466666Y-133100344D01*
X92469500Y-133126702D01*
X92469500Y-137022870D01*
X92469501Y-137022876D01*
X92475908Y-137082483D01*
X92518683Y-137197167D01*
X92523667Y-137266859D01*
X92490182Y-137328182D01*
X92428858Y-137361666D01*
X92402501Y-137364500D01*
X90216701Y-137364500D01*
X90149662Y-137344815D01*
X90129020Y-137328181D01*
X85631818Y-132830979D01*
X85598333Y-132769656D01*
X85595499Y-132743298D01*
X85595499Y-131449998D01*
X85595498Y-131449981D01*
X85584999Y-131347203D01*
X85584998Y-131347200D01*
X85529814Y-131180666D01*
X85437712Y-131031344D01*
X85313656Y-130907288D01*
X85220888Y-130850069D01*
X85164336Y-130815187D01*
X85164331Y-130815185D01*
X85162862Y-130814698D01*
X84997797Y-130760001D01*
X84997795Y-130760000D01*
X84895010Y-130749500D01*
X83494998Y-130749500D01*
X83494981Y-130749501D01*
X83392203Y-130760000D01*
X83392200Y-130760001D01*
X83225668Y-130815185D01*
X83225663Y-130815187D01*
X83076342Y-130907289D01*
X82952289Y-131031342D01*
X82860187Y-131180663D01*
X82860186Y-131180666D01*
X82805001Y-131347203D01*
X82805001Y-131347204D01*
X82805000Y-131347204D01*
X82794500Y-131449983D01*
X82794500Y-131740500D01*
X82774815Y-131807539D01*
X82722011Y-131853294D01*
X82670500Y-131864500D01*
X81719499Y-131864500D01*
X81652460Y-131844815D01*
X81606705Y-131792011D01*
X81595499Y-131740500D01*
X81595499Y-131449998D01*
X81595498Y-131449981D01*
X81584999Y-131347203D01*
X81584998Y-131347200D01*
X81529814Y-131180666D01*
X81437712Y-131031344D01*
X81313656Y-130907288D01*
X81220888Y-130850069D01*
X81164336Y-130815187D01*
X81164331Y-130815185D01*
X81162862Y-130814698D01*
X80997797Y-130760001D01*
X80997795Y-130760000D01*
X80895010Y-130749500D01*
X79494998Y-130749500D01*
X79494981Y-130749501D01*
X79392203Y-130760000D01*
X79392200Y-130760001D01*
X79225668Y-130815185D01*
X79225663Y-130815187D01*
X79076342Y-130907289D01*
X78952289Y-131031342D01*
X78860187Y-131180663D01*
X78860186Y-131180666D01*
X78805001Y-131347203D01*
X78805001Y-131347204D01*
X78805000Y-131347204D01*
X78794500Y-131449983D01*
X78794500Y-134550001D01*
X78794501Y-134550018D01*
X78805000Y-134652796D01*
X78805001Y-134652799D01*
X78860185Y-134819331D01*
X78860186Y-134819334D01*
X78952288Y-134968656D01*
X79076344Y-135092712D01*
X79225666Y-135184814D01*
X79392203Y-135239999D01*
X79494991Y-135250500D01*
X80895008Y-135250499D01*
X80997797Y-135239999D01*
X81164334Y-135184814D01*
X81313656Y-135092712D01*
X81437712Y-134968656D01*
X81529814Y-134819334D01*
X81584999Y-134652797D01*
X81595500Y-134550009D01*
X81595500Y-134259500D01*
X81615185Y-134192461D01*
X81667989Y-134146706D01*
X81719500Y-134135500D01*
X82670501Y-134135500D01*
X82737540Y-134155185D01*
X82783295Y-134207989D01*
X82794501Y-134259500D01*
X82794501Y-134550018D01*
X82805000Y-134652796D01*
X82805001Y-134652799D01*
X82860185Y-134819331D01*
X82860186Y-134819334D01*
X82952288Y-134968656D01*
X83076344Y-135092712D01*
X83225666Y-135184814D01*
X83392203Y-135239999D01*
X83494991Y-135250500D01*
X84788298Y-135250499D01*
X84855337Y-135270184D01*
X84875979Y-135286818D01*
X88828889Y-139239728D01*
X88955272Y-139366111D01*
X89051669Y-139436148D01*
X89099869Y-139471168D01*
X89140439Y-139491839D01*
X89181011Y-139512511D01*
X89181012Y-139512512D01*
X89207047Y-139525777D01*
X89259120Y-139552310D01*
X89429103Y-139607541D01*
X89529817Y-139623492D01*
X89605630Y-139635500D01*
X89605634Y-139635500D01*
X89784367Y-139635500D01*
X96260380Y-139635500D01*
X96327419Y-139655185D01*
X96348061Y-139671819D01*
X96614561Y-139938319D01*
X96648046Y-139999642D01*
X96643062Y-140069334D01*
X96601190Y-140125267D01*
X96535726Y-140149684D01*
X96526880Y-140150000D01*
X96290000Y-140150000D01*
X96290000Y-141066988D01*
X96232993Y-141034075D01*
X96105826Y-141000000D01*
X95974174Y-141000000D01*
X95847007Y-141034075D01*
X95790000Y-141066988D01*
X95790000Y-140150000D01*
X95142155Y-140150000D01*
X95082627Y-140156401D01*
X95082620Y-140156403D01*
X94947913Y-140206645D01*
X94947906Y-140206649D01*
X94832812Y-140292809D01*
X94832809Y-140292812D01*
X94746649Y-140407906D01*
X94746646Y-140407912D01*
X94697577Y-140539471D01*
X94655705Y-140595404D01*
X94590241Y-140619821D01*
X94521968Y-140604969D01*
X94493714Y-140583818D01*
X94379786Y-140469890D01*
X94207820Y-140344951D01*
X94018414Y-140248444D01*
X94018413Y-140248443D01*
X94018412Y-140248443D01*
X93816243Y-140182754D01*
X93816241Y-140182753D01*
X93816240Y-140182753D01*
X93654957Y-140157208D01*
X93606287Y-140149500D01*
X93393713Y-140149500D01*
X93345042Y-140157208D01*
X93183760Y-140182753D01*
X92981585Y-140248444D01*
X92792179Y-140344951D01*
X92620213Y-140469890D01*
X92469890Y-140620213D01*
X92344949Y-140792182D01*
X92340484Y-140800946D01*
X92292509Y-140851742D01*
X92224688Y-140868536D01*
X92158553Y-140845998D01*
X92119516Y-140800946D01*
X92115050Y-140792182D01*
X91990109Y-140620213D01*
X91839786Y-140469890D01*
X91667820Y-140344951D01*
X91478414Y-140248444D01*
X91478413Y-140248443D01*
X91478412Y-140248443D01*
X91276243Y-140182754D01*
X91276241Y-140182753D01*
X91276240Y-140182753D01*
X91114957Y-140157208D01*
X91066287Y-140149500D01*
X90853713Y-140149500D01*
X90805042Y-140157208D01*
X90643760Y-140182753D01*
X90441585Y-140248444D01*
X90252179Y-140344951D01*
X90080213Y-140469890D01*
X89929890Y-140620213D01*
X89804949Y-140792182D01*
X89800484Y-140800946D01*
X89752509Y-140851742D01*
X89684688Y-140868536D01*
X89618553Y-140845998D01*
X89579516Y-140800946D01*
X89575050Y-140792182D01*
X89450109Y-140620213D01*
X89299786Y-140469890D01*
X89127820Y-140344951D01*
X88938414Y-140248444D01*
X88938413Y-140248443D01*
X88938412Y-140248443D01*
X88736243Y-140182754D01*
X88736241Y-140182753D01*
X88736240Y-140182753D01*
X88574957Y-140157208D01*
X88526287Y-140149500D01*
X88313713Y-140149500D01*
X88265042Y-140157208D01*
X88103760Y-140182753D01*
X87901585Y-140248444D01*
X87712179Y-140344951D01*
X87540213Y-140469890D01*
X87389890Y-140620213D01*
X87264951Y-140792179D01*
X87168444Y-140981585D01*
X87102753Y-141183760D01*
X87069500Y-141393713D01*
X87069500Y-141606286D01*
X87102753Y-141816239D01*
X87168444Y-142018414D01*
X87264951Y-142207820D01*
X87389890Y-142379786D01*
X87540213Y-142530109D01*
X87712179Y-142655048D01*
X87712181Y-142655049D01*
X87712184Y-142655051D01*
X87901588Y-142751557D01*
X88073975Y-142807569D01*
X88131651Y-142847007D01*
X88158849Y-142911365D01*
X88146934Y-142980212D01*
X88099690Y-143031687D01*
X88035657Y-143049500D01*
X85236230Y-143049500D01*
X85169191Y-143029815D01*
X85123436Y-142977011D01*
X85113492Y-142907853D01*
X85142517Y-142844297D01*
X85148549Y-142837819D01*
X85193018Y-142793350D01*
X85242712Y-142743656D01*
X85334814Y-142594334D01*
X85389999Y-142427797D01*
X85400500Y-142325009D01*
X85400499Y-141399992D01*
X85391000Y-141307007D01*
X85389999Y-141297203D01*
X85389998Y-141297200D01*
X85382294Y-141273951D01*
X85334814Y-141130666D01*
X85242712Y-140981344D01*
X85118656Y-140857288D01*
X85000595Y-140784468D01*
X84969336Y-140765187D01*
X84969331Y-140765185D01*
X84952676Y-140759666D01*
X84802797Y-140710001D01*
X84802795Y-140710000D01*
X84700010Y-140699500D01*
X83299998Y-140699500D01*
X83299981Y-140699501D01*
X83197203Y-140710000D01*
X83197200Y-140710001D01*
X83030668Y-140765185D01*
X83030663Y-140765187D01*
X82881342Y-140857289D01*
X82757289Y-140981342D01*
X82665187Y-141130663D01*
X82665185Y-141130668D01*
X82617706Y-141273951D01*
X82577933Y-141331396D01*
X82513417Y-141358219D01*
X82444641Y-141345904D01*
X82393442Y-141298361D01*
X82382294Y-141273951D01*
X82334814Y-141130666D01*
X82242712Y-140981344D01*
X82118656Y-140857288D01*
X82000595Y-140784468D01*
X81969336Y-140765187D01*
X81969331Y-140765185D01*
X81952676Y-140759666D01*
X81802797Y-140710001D01*
X81802795Y-140710000D01*
X81700016Y-140699500D01*
X81700009Y-140699500D01*
X81312229Y-140699500D01*
X81245190Y-140679815D01*
X81224548Y-140663181D01*
X80673047Y-140111680D01*
X80639562Y-140050357D01*
X80644546Y-139980665D01*
X80686418Y-139924732D01*
X80748376Y-139901622D01*
X80750000Y-139899999D01*
X81250000Y-139899999D01*
X81699972Y-139899999D01*
X81699986Y-139899998D01*
X81802697Y-139889505D01*
X81969119Y-139834358D01*
X81969124Y-139834356D01*
X82118345Y-139742315D01*
X82242315Y-139618345D01*
X82334356Y-139469124D01*
X82334359Y-139469117D01*
X82382293Y-139324461D01*
X82422065Y-139267016D01*
X82486581Y-139240192D01*
X82555357Y-139252507D01*
X82606557Y-139300049D01*
X82617705Y-139324459D01*
X82665642Y-139469121D01*
X82665643Y-139469124D01*
X82757684Y-139618345D01*
X82881654Y-139742315D01*
X83030875Y-139834356D01*
X83030880Y-139834358D01*
X83197302Y-139889505D01*
X83197309Y-139889506D01*
X83300019Y-139899999D01*
X83749999Y-139899999D01*
X84250000Y-139899999D01*
X84699972Y-139899999D01*
X84699986Y-139899998D01*
X84802697Y-139889505D01*
X84969119Y-139834358D01*
X84969124Y-139834356D01*
X85118345Y-139742315D01*
X85242315Y-139618345D01*
X85334356Y-139469124D01*
X85334358Y-139469119D01*
X85389505Y-139302697D01*
X85389506Y-139302690D01*
X85399999Y-139199986D01*
X85400000Y-139199973D01*
X85400000Y-138987500D01*
X84250000Y-138987500D01*
X84250000Y-139899999D01*
X83749999Y-139899999D01*
X83750000Y-139899998D01*
X83750000Y-138987500D01*
X82600000Y-138987500D01*
X82587680Y-138999820D01*
X82526357Y-139033304D01*
X82456665Y-139028319D01*
X82412319Y-138999819D01*
X82400000Y-138987500D01*
X81250000Y-138987500D01*
X81250000Y-139899999D01*
X80750000Y-139899999D01*
X80750000Y-138987500D01*
X79600229Y-138987500D01*
X79533190Y-138967815D01*
X79512548Y-138951181D01*
X78920912Y-138359545D01*
X78836380Y-138275013D01*
X79600000Y-138275013D01*
X79600000Y-138487500D01*
X80750000Y-138487500D01*
X81250000Y-138487500D01*
X82399998Y-138487500D01*
X82412317Y-138475181D01*
X82473640Y-138441695D01*
X82543331Y-138446679D01*
X82587680Y-138475180D01*
X82600000Y-138487500D01*
X83750000Y-138487500D01*
X84250000Y-138487500D01*
X85399999Y-138487500D01*
X85399999Y-138275028D01*
X85399998Y-138275013D01*
X85389505Y-138172302D01*
X85334358Y-138005880D01*
X85334356Y-138005875D01*
X85242315Y-137856654D01*
X85118345Y-137732684D01*
X84969124Y-137640643D01*
X84969119Y-137640641D01*
X84802697Y-137585494D01*
X84802690Y-137585493D01*
X84699986Y-137575000D01*
X84250000Y-137575000D01*
X84250000Y-138487500D01*
X83750000Y-138487500D01*
X83750000Y-137575000D01*
X83300028Y-137575000D01*
X83300012Y-137575001D01*
X83197302Y-137585494D01*
X83030880Y-137640641D01*
X83030875Y-137640643D01*
X82881654Y-137732684D01*
X82757684Y-137856654D01*
X82665643Y-138005875D01*
X82665641Y-138005880D01*
X82617706Y-138150539D01*
X82577933Y-138207984D01*
X82513417Y-138234807D01*
X82444641Y-138222492D01*
X82393442Y-138174949D01*
X82382294Y-138150539D01*
X82334358Y-138005880D01*
X82334356Y-138005875D01*
X82242315Y-137856654D01*
X82118345Y-137732684D01*
X81969124Y-137640643D01*
X81969119Y-137640641D01*
X81802697Y-137585494D01*
X81802690Y-137585493D01*
X81699986Y-137575000D01*
X81250000Y-137575000D01*
X81250000Y-138487500D01*
X80750000Y-138487500D01*
X80750000Y-137575000D01*
X80300028Y-137575000D01*
X80300012Y-137575001D01*
X80197302Y-137585494D01*
X80030880Y-137640641D01*
X80030875Y-137640643D01*
X79881654Y-137732684D01*
X79757684Y-137856654D01*
X79665643Y-138005875D01*
X79665641Y-138005880D01*
X79610494Y-138172302D01*
X79610493Y-138172309D01*
X79600000Y-138275013D01*
X78836380Y-138275013D01*
X77455737Y-136894370D01*
X73786819Y-133225451D01*
X73753334Y-133164128D01*
X73750500Y-133137770D01*
X73750500Y-129549986D01*
X78795001Y-129549986D01*
X78805494Y-129652697D01*
X78860641Y-129819119D01*
X78860643Y-129819124D01*
X78952684Y-129968345D01*
X79076654Y-130092315D01*
X79225875Y-130184356D01*
X79225880Y-130184358D01*
X79392302Y-130239505D01*
X79392309Y-130239506D01*
X79495019Y-130249999D01*
X79944999Y-130249999D01*
X80445000Y-130249999D01*
X80894972Y-130249999D01*
X80894986Y-130249998D01*
X80997697Y-130239505D01*
X81164119Y-130184358D01*
X81164124Y-130184356D01*
X81313345Y-130092315D01*
X81437315Y-129968345D01*
X81529356Y-129819124D01*
X81529358Y-129819119D01*
X81584505Y-129652697D01*
X81584506Y-129652690D01*
X81594999Y-129549986D01*
X81595000Y-129549973D01*
X81595000Y-128250000D01*
X80445000Y-128250000D01*
X80445000Y-130249999D01*
X79944999Y-130249999D01*
X79945000Y-130249998D01*
X79945000Y-128250000D01*
X78795001Y-128250000D01*
X78795001Y-129549986D01*
X73750500Y-129549986D01*
X73750500Y-126450013D01*
X78795000Y-126450013D01*
X78795000Y-127750000D01*
X79945000Y-127750000D01*
X80445000Y-127750000D01*
X81594999Y-127750000D01*
X81594999Y-126450028D01*
X81594998Y-126450013D01*
X81584505Y-126347302D01*
X81529358Y-126180880D01*
X81529356Y-126180875D01*
X81437315Y-126031654D01*
X81313345Y-125907684D01*
X81164124Y-125815643D01*
X81164119Y-125815641D01*
X80997697Y-125760494D01*
X80997690Y-125760493D01*
X80894986Y-125750000D01*
X80445000Y-125750000D01*
X80445000Y-127750000D01*
X79945000Y-127750000D01*
X79945000Y-125750000D01*
X79495028Y-125750000D01*
X79495012Y-125750001D01*
X79392302Y-125760494D01*
X79225880Y-125815641D01*
X79225875Y-125815643D01*
X79076654Y-125907684D01*
X78952684Y-126031654D01*
X78860643Y-126180875D01*
X78860641Y-126180880D01*
X78805494Y-126347302D01*
X78805493Y-126347309D01*
X78795000Y-126450013D01*
X73750500Y-126450013D01*
X73750500Y-121577155D01*
X92470000Y-121577155D01*
X92470000Y-122414999D01*
X92489336Y-122423009D01*
X92490414Y-122422421D01*
X92560106Y-122427403D01*
X92604457Y-122455905D01*
X94194999Y-124046447D01*
X95785542Y-122455905D01*
X95846865Y-122422420D01*
X95893955Y-122425787D01*
X95920000Y-122414999D01*
X95920000Y-122280729D01*
X95939685Y-122213690D01*
X95992489Y-122167935D01*
X96061647Y-122157991D01*
X96125203Y-122187016D01*
X96131681Y-122193048D01*
X96521580Y-122582948D01*
X96521584Y-122582951D01*
X96644498Y-122665080D01*
X96644511Y-122665087D01*
X96751469Y-122709390D01*
X96781087Y-122721658D01*
X96781091Y-122721658D01*
X96781092Y-122721659D01*
X96926079Y-122750500D01*
X96926082Y-122750500D01*
X97073917Y-122750500D01*
X97126082Y-122750500D01*
X100695396Y-122750500D01*
X100742844Y-122759937D01*
X100766503Y-122769737D01*
X100766508Y-122769738D01*
X100766511Y-122769739D01*
X100921153Y-122800499D01*
X100921156Y-122800500D01*
X100921158Y-122800500D01*
X101078844Y-122800500D01*
X101078845Y-122800499D01*
X101233497Y-122769737D01*
X101379179Y-122709394D01*
X101510289Y-122621789D01*
X101621789Y-122510289D01*
X101709394Y-122379179D01*
X101769737Y-122233497D01*
X101800500Y-122078842D01*
X101800500Y-121921158D01*
X101800500Y-121921155D01*
X101800499Y-121921153D01*
X101770469Y-121770185D01*
X101769737Y-121766503D01*
X101767018Y-121759938D01*
X101709397Y-121620827D01*
X101709390Y-121620814D01*
X101621789Y-121489711D01*
X101621786Y-121489707D01*
X101510292Y-121378213D01*
X101510288Y-121378210D01*
X101379185Y-121290609D01*
X101379172Y-121290602D01*
X101233501Y-121230264D01*
X101233489Y-121230261D01*
X101078845Y-121199500D01*
X101078842Y-121199500D01*
X100921158Y-121199500D01*
X100921155Y-121199500D01*
X100766511Y-121230260D01*
X100766506Y-121230262D01*
X100766504Y-121230262D01*
X100766503Y-121230263D01*
X100742844Y-121240062D01*
X100695396Y-121249500D01*
X99917649Y-121249500D01*
X99850610Y-121229815D01*
X99804855Y-121177011D01*
X99793715Y-121121465D01*
X99794046Y-121111286D01*
X99800500Y-121078842D01*
X99800500Y-120921158D01*
X99800499Y-120921153D01*
X105199500Y-120921153D01*
X105199500Y-121078846D01*
X105230261Y-121233489D01*
X105230264Y-121233501D01*
X105290602Y-121379172D01*
X105290609Y-121379185D01*
X105378210Y-121510288D01*
X105378213Y-121510292D01*
X105489707Y-121621786D01*
X105489711Y-121621789D01*
X105620814Y-121709390D01*
X105620827Y-121709397D01*
X105720060Y-121750500D01*
X105766503Y-121769737D01*
X105921153Y-121800499D01*
X105921156Y-121800500D01*
X105921158Y-121800500D01*
X106078844Y-121800500D01*
X106078845Y-121800499D01*
X106155152Y-121785320D01*
X106233488Y-121769739D01*
X106233489Y-121769738D01*
X106233497Y-121769737D01*
X106257155Y-121759937D01*
X106304604Y-121750500D01*
X108351000Y-121750500D01*
X108418039Y-121770185D01*
X108463794Y-121822989D01*
X108475000Y-121874500D01*
X108475000Y-122414999D01*
X108494336Y-122423009D01*
X108495414Y-122422421D01*
X108565106Y-122427403D01*
X108609457Y-122455905D01*
X110199999Y-124046447D01*
X111790542Y-122455905D01*
X111851865Y-122422420D01*
X111898955Y-122425787D01*
X111925000Y-122414999D01*
X111925000Y-121874500D01*
X111944685Y-121807461D01*
X111997489Y-121761706D01*
X112049000Y-121750500D01*
X113637770Y-121750500D01*
X113704809Y-121770185D01*
X113725451Y-121786819D01*
X115253926Y-123315293D01*
X115280805Y-123355519D01*
X115290603Y-123379172D01*
X115290606Y-123379178D01*
X115290609Y-123379185D01*
X115378210Y-123510288D01*
X115378213Y-123510292D01*
X115489707Y-123621786D01*
X115489711Y-123621789D01*
X115620814Y-123709390D01*
X115620827Y-123709397D01*
X115766498Y-123769735D01*
X115766503Y-123769737D01*
X115921153Y-123800499D01*
X115921156Y-123800500D01*
X115921158Y-123800500D01*
X116078844Y-123800500D01*
X116078845Y-123800499D01*
X116233497Y-123769737D01*
X116379179Y-123709394D01*
X116510289Y-123621789D01*
X116621789Y-123510289D01*
X116709394Y-123379179D01*
X116769737Y-123233497D01*
X116800500Y-123078842D01*
X116800500Y-122921158D01*
X116800500Y-122921155D01*
X116800499Y-122921153D01*
X116776499Y-122800499D01*
X116769737Y-122766503D01*
X116767018Y-122759938D01*
X116709397Y-122620827D01*
X116709390Y-122620814D01*
X116621789Y-122489711D01*
X116621786Y-122489707D01*
X116510292Y-122378213D01*
X116510288Y-122378210D01*
X116379185Y-122290609D01*
X116379180Y-122290607D01*
X116379179Y-122290606D01*
X116355519Y-122280805D01*
X116315293Y-122253926D01*
X114478421Y-120417052D01*
X114478414Y-120417046D01*
X114404729Y-120367812D01*
X114404729Y-120367813D01*
X114355491Y-120334913D01*
X114218917Y-120278343D01*
X114218907Y-120278340D01*
X114073920Y-120249500D01*
X114073918Y-120249500D01*
X110917848Y-120249500D01*
X110850809Y-120229815D01*
X110805054Y-120177011D01*
X110796231Y-120149692D01*
X110769738Y-120016508D01*
X110769737Y-120016507D01*
X110769737Y-120016503D01*
X110762694Y-119999500D01*
X110709397Y-119870827D01*
X110709390Y-119870814D01*
X110621789Y-119739711D01*
X110621786Y-119739707D01*
X110510292Y-119628213D01*
X110510288Y-119628210D01*
X110379185Y-119540609D01*
X110379180Y-119540607D01*
X110379179Y-119540606D01*
X110355519Y-119530805D01*
X110315293Y-119503926D01*
X108786819Y-117975451D01*
X108753334Y-117914128D01*
X108750500Y-117887770D01*
X108750500Y-114304604D01*
X108759939Y-114257151D01*
X108769737Y-114233497D01*
X108800500Y-114078842D01*
X108800500Y-113921158D01*
X108800500Y-113921155D01*
X108800499Y-113921153D01*
X108769738Y-113766510D01*
X108769737Y-113766503D01*
X108769735Y-113766498D01*
X108709397Y-113620827D01*
X108709390Y-113620814D01*
X108621789Y-113489711D01*
X108621786Y-113489707D01*
X108510292Y-113378213D01*
X108510288Y-113378210D01*
X108379185Y-113290609D01*
X108379172Y-113290602D01*
X108233501Y-113230264D01*
X108233489Y-113230261D01*
X108078845Y-113199500D01*
X108078842Y-113199500D01*
X107921158Y-113199500D01*
X107921155Y-113199500D01*
X107766510Y-113230261D01*
X107766498Y-113230264D01*
X107620827Y-113290602D01*
X107620814Y-113290609D01*
X107489711Y-113378210D01*
X107489707Y-113378213D01*
X107378213Y-113489707D01*
X107378210Y-113489711D01*
X107290609Y-113620814D01*
X107290602Y-113620827D01*
X107230264Y-113766498D01*
X107230261Y-113766510D01*
X107199500Y-113921153D01*
X107199500Y-114078846D01*
X107230261Y-114233489D01*
X107230263Y-114233497D01*
X107240061Y-114257151D01*
X107249500Y-114304604D01*
X107249500Y-118323918D01*
X107249500Y-118323920D01*
X107249499Y-118323920D01*
X107278340Y-118468907D01*
X107278343Y-118468917D01*
X107334914Y-118605491D01*
X107334916Y-118605495D01*
X107352370Y-118631617D01*
X107360981Y-118644505D01*
X107417049Y-118728418D01*
X107417052Y-118728421D01*
X108726452Y-120037819D01*
X108759937Y-120099142D01*
X108754953Y-120168833D01*
X108713082Y-120224767D01*
X108647617Y-120249184D01*
X108638771Y-120249500D01*
X106304604Y-120249500D01*
X106257155Y-120240062D01*
X106233497Y-120230263D01*
X106233493Y-120230262D01*
X106233488Y-120230260D01*
X106078845Y-120199500D01*
X106078842Y-120199500D01*
X105921158Y-120199500D01*
X105921155Y-120199500D01*
X105766510Y-120230261D01*
X105766498Y-120230264D01*
X105620827Y-120290602D01*
X105620814Y-120290609D01*
X105489711Y-120378210D01*
X105489707Y-120378213D01*
X105378213Y-120489707D01*
X105378210Y-120489711D01*
X105290609Y-120620814D01*
X105290602Y-120620827D01*
X105230264Y-120766498D01*
X105230261Y-120766510D01*
X105199500Y-120921153D01*
X99800499Y-120921153D01*
X99769737Y-120766503D01*
X99750953Y-120721153D01*
X99709397Y-120620827D01*
X99709390Y-120620814D01*
X99621789Y-120489711D01*
X99621786Y-120489707D01*
X99510292Y-120378213D01*
X99510288Y-120378210D01*
X99379185Y-120290609D01*
X99379180Y-120290607D01*
X99379179Y-120290606D01*
X99355519Y-120280805D01*
X99315293Y-120253926D01*
X97786819Y-118725451D01*
X97753334Y-118664128D01*
X97750500Y-118637770D01*
X97750500Y-114304604D01*
X97759939Y-114257151D01*
X97769737Y-114233497D01*
X97800500Y-114078842D01*
X97800500Y-113921158D01*
X97800500Y-113921155D01*
X97800499Y-113921153D01*
X97769738Y-113766510D01*
X97769737Y-113766503D01*
X97769735Y-113766498D01*
X97709397Y-113620827D01*
X97709390Y-113620814D01*
X97621789Y-113489711D01*
X97621786Y-113489707D01*
X97510292Y-113378213D01*
X97510288Y-113378210D01*
X97379185Y-113290609D01*
X97379172Y-113290602D01*
X97233501Y-113230264D01*
X97233489Y-113230261D01*
X97078845Y-113199500D01*
X97078842Y-113199500D01*
X96921158Y-113199500D01*
X96921155Y-113199500D01*
X96766510Y-113230261D01*
X96766498Y-113230264D01*
X96620827Y-113290602D01*
X96620814Y-113290609D01*
X96489711Y-113378210D01*
X96489707Y-113378213D01*
X96378213Y-113489707D01*
X96378210Y-113489711D01*
X96290609Y-113620814D01*
X96290602Y-113620827D01*
X96230264Y-113766498D01*
X96230261Y-113766510D01*
X96199500Y-113921153D01*
X96199500Y-114078846D01*
X96230261Y-114233489D01*
X96230263Y-114233497D01*
X96240061Y-114257151D01*
X96249500Y-114304604D01*
X96249500Y-119073918D01*
X96249500Y-119073920D01*
X96249499Y-119073920D01*
X96278340Y-119218907D01*
X96278343Y-119218917D01*
X96334914Y-119355492D01*
X96367812Y-119404727D01*
X96367813Y-119404730D01*
X96417046Y-119478414D01*
X96417052Y-119478421D01*
X97976452Y-121037819D01*
X98009937Y-121099142D01*
X98004953Y-121168833D01*
X97963081Y-121224767D01*
X97897617Y-121249184D01*
X97888771Y-121249500D01*
X97362229Y-121249500D01*
X97295190Y-121229815D01*
X97274548Y-121213181D01*
X96546071Y-120484703D01*
X96519191Y-120444475D01*
X96509394Y-120420821D01*
X96473975Y-120367813D01*
X96421789Y-120289710D01*
X96310292Y-120178213D01*
X96310288Y-120178210D01*
X96179185Y-120090609D01*
X96179172Y-120090602D01*
X96033501Y-120030264D01*
X96033489Y-120030261D01*
X95878845Y-119999500D01*
X95878842Y-119999500D01*
X95721158Y-119999500D01*
X95721155Y-119999500D01*
X95566510Y-120030261D01*
X95566498Y-120030264D01*
X95420827Y-120090602D01*
X95420814Y-120090609D01*
X95289711Y-120178210D01*
X95289707Y-120178213D01*
X95178213Y-120289707D01*
X95178210Y-120289711D01*
X95090609Y-120420814D01*
X95090602Y-120420827D01*
X95030264Y-120566498D01*
X95030261Y-120566510D01*
X94999500Y-120721153D01*
X94999500Y-120878846D01*
X95018986Y-120976809D01*
X95012759Y-121046401D01*
X94969896Y-121101578D01*
X94904006Y-121124822D01*
X94897369Y-121125000D01*
X92922155Y-121125000D01*
X92862627Y-121131401D01*
X92862620Y-121131403D01*
X92727913Y-121181645D01*
X92727906Y-121181649D01*
X92612812Y-121267809D01*
X92612809Y-121267812D01*
X92526649Y-121382906D01*
X92526645Y-121382913D01*
X92476403Y-121517620D01*
X92476401Y-121517627D01*
X92470000Y-121577155D01*
X73750500Y-121577155D01*
X73750500Y-85083713D01*
X75649500Y-85083713D01*
X75649500Y-85296287D01*
X75655530Y-85334356D01*
X75682451Y-85504334D01*
X75682754Y-85506243D01*
X75734546Y-85665643D01*
X75748444Y-85708414D01*
X75844951Y-85897820D01*
X75969890Y-86069786D01*
X76120213Y-86220109D01*
X76292182Y-86345050D01*
X76300946Y-86349516D01*
X76351742Y-86397491D01*
X76368536Y-86465312D01*
X76345998Y-86531447D01*
X76300946Y-86570484D01*
X76292182Y-86574949D01*
X76120213Y-86699890D01*
X75969890Y-86850213D01*
X75844951Y-87022179D01*
X75748444Y-87211585D01*
X75682753Y-87413760D01*
X75649500Y-87623713D01*
X75649500Y-87836286D01*
X75682388Y-88043937D01*
X75682754Y-88046243D01*
X75746590Y-88242710D01*
X75748444Y-88248414D01*
X75844951Y-88437820D01*
X75969890Y-88609786D01*
X76120213Y-88760109D01*
X76292182Y-88885050D01*
X76300946Y-88889516D01*
X76351742Y-88937491D01*
X76368536Y-89005312D01*
X76345998Y-89071447D01*
X76300946Y-89110484D01*
X76292182Y-89114949D01*
X76120213Y-89239890D01*
X75969890Y-89390213D01*
X75844951Y-89562179D01*
X75748444Y-89751585D01*
X75748443Y-89751587D01*
X75748443Y-89751588D01*
X75746426Y-89757795D01*
X75682753Y-89953760D01*
X75649500Y-90163713D01*
X75649500Y-90376286D01*
X75671716Y-90516556D01*
X75682754Y-90586243D01*
X75739749Y-90761656D01*
X75748444Y-90788414D01*
X75844951Y-90977820D01*
X75969890Y-91149786D01*
X76083818Y-91263714D01*
X76117303Y-91325037D01*
X76112319Y-91394729D01*
X76070447Y-91450662D01*
X76039471Y-91467577D01*
X75907912Y-91516646D01*
X75907906Y-91516649D01*
X75792812Y-91602809D01*
X75792809Y-91602812D01*
X75706649Y-91717906D01*
X75706645Y-91717913D01*
X75656403Y-91852620D01*
X75656401Y-91852627D01*
X75650000Y-91912155D01*
X75650000Y-92560000D01*
X76566988Y-92560000D01*
X76534075Y-92617007D01*
X76500000Y-92744174D01*
X76500000Y-92875826D01*
X76534075Y-93002993D01*
X76566988Y-93060000D01*
X75650000Y-93060000D01*
X75650000Y-93707844D01*
X75656401Y-93767372D01*
X75656403Y-93767379D01*
X75706645Y-93902086D01*
X75706649Y-93902093D01*
X75792809Y-94017187D01*
X75792812Y-94017190D01*
X75907906Y-94103350D01*
X75907913Y-94103354D01*
X76042620Y-94153596D01*
X76042627Y-94153598D01*
X76102155Y-94159999D01*
X76102172Y-94160000D01*
X76750000Y-94160000D01*
X76750000Y-93243012D01*
X76807007Y-93275925D01*
X76934174Y-93310000D01*
X77065826Y-93310000D01*
X77192993Y-93275925D01*
X77250000Y-93243012D01*
X77250000Y-94160000D01*
X77897828Y-94160000D01*
X77897844Y-94159999D01*
X77957372Y-94153598D01*
X77957379Y-94153596D01*
X78092086Y-94103354D01*
X78092093Y-94103350D01*
X78207187Y-94017190D01*
X78207190Y-94017187D01*
X78293350Y-93902093D01*
X78293354Y-93902086D01*
X78343596Y-93767379D01*
X78343598Y-93767372D01*
X78349999Y-93707844D01*
X78350000Y-93707827D01*
X78350000Y-93060000D01*
X77433012Y-93060000D01*
X77465925Y-93002993D01*
X77500000Y-92875826D01*
X77500000Y-92744174D01*
X77465925Y-92617007D01*
X77433012Y-92560000D01*
X78350000Y-92560000D01*
X78350000Y-91912172D01*
X78349999Y-91912155D01*
X78343598Y-91852627D01*
X78343596Y-91852620D01*
X78293354Y-91717913D01*
X78293350Y-91717906D01*
X78207190Y-91602812D01*
X78207187Y-91602809D01*
X78092093Y-91516649D01*
X78092088Y-91516646D01*
X77960528Y-91467577D01*
X77904595Y-91425705D01*
X77880178Y-91360241D01*
X77895030Y-91291968D01*
X77916175Y-91263720D01*
X78030104Y-91149792D01*
X78031363Y-91148060D01*
X78155048Y-90977820D01*
X78155047Y-90977820D01*
X78155051Y-90977816D01*
X78251557Y-90788412D01*
X78317246Y-90586243D01*
X78350500Y-90376287D01*
X78350500Y-90163713D01*
X78317246Y-89953757D01*
X78251557Y-89751588D01*
X78155051Y-89562184D01*
X78155049Y-89562181D01*
X78155048Y-89562179D01*
X78030109Y-89390213D01*
X77879786Y-89239890D01*
X77707820Y-89114951D01*
X77707115Y-89114591D01*
X77699054Y-89110485D01*
X77648259Y-89062512D01*
X77631463Y-88994692D01*
X77653999Y-88928556D01*
X77699054Y-88889515D01*
X77707816Y-88885051D01*
X77797352Y-88820000D01*
X77879786Y-88760109D01*
X77879788Y-88760106D01*
X77879792Y-88760104D01*
X78030104Y-88609792D01*
X78030106Y-88609788D01*
X78030109Y-88609786D01*
X78155048Y-88437820D01*
X78155047Y-88437820D01*
X78155051Y-88437816D01*
X78251557Y-88248412D01*
X78317246Y-88046243D01*
X78350500Y-87836287D01*
X78350500Y-87623713D01*
X78317246Y-87413757D01*
X78251557Y-87211588D01*
X78155051Y-87022184D01*
X78155049Y-87022181D01*
X78155048Y-87022179D01*
X78030109Y-86850213D01*
X77879786Y-86699890D01*
X77707820Y-86574951D01*
X77707115Y-86574591D01*
X77699054Y-86570485D01*
X77648259Y-86522512D01*
X77631463Y-86454692D01*
X77653999Y-86388556D01*
X77699054Y-86349515D01*
X77707816Y-86345051D01*
X77766556Y-86302374D01*
X77879786Y-86220109D01*
X77879788Y-86220106D01*
X77879792Y-86220104D01*
X78030104Y-86069792D01*
X78030106Y-86069788D01*
X78030109Y-86069786D01*
X78118056Y-85948735D01*
X78155051Y-85897816D01*
X78155349Y-85897230D01*
X78175235Y-85858205D01*
X78223209Y-85807409D01*
X78285719Y-85790500D01*
X79889903Y-85790500D01*
X79919343Y-85799144D01*
X79949330Y-85805668D01*
X79954345Y-85809422D01*
X79956942Y-85810185D01*
X79977584Y-85826819D01*
X80063181Y-85912416D01*
X80096666Y-85973739D01*
X80099500Y-86000097D01*
X80099500Y-86525001D01*
X80099501Y-86525019D01*
X80110000Y-86627796D01*
X80110001Y-86627799D01*
X80165185Y-86794331D01*
X80165187Y-86794336D01*
X80166956Y-86797204D01*
X80257288Y-86943656D01*
X80381344Y-87067712D01*
X80530666Y-87159814D01*
X80697203Y-87214999D01*
X80728101Y-87218155D01*
X80792792Y-87244550D01*
X80832945Y-87301730D01*
X80839500Y-87341513D01*
X80839500Y-88353330D01*
X80839499Y-88353348D01*
X80839499Y-88519054D01*
X80839498Y-88519054D01*
X80880424Y-88671789D01*
X80880425Y-88671790D01*
X80899190Y-88704291D01*
X80899191Y-88704292D01*
X80959477Y-88808712D01*
X80959481Y-88808717D01*
X81078349Y-88927585D01*
X81078355Y-88927590D01*
X82223246Y-90072481D01*
X82243026Y-90098291D01*
X82389409Y-90352539D01*
X82397641Y-90366326D01*
X82398037Y-90366966D01*
X82438389Y-90423170D01*
X82440122Y-90425112D01*
X82450686Y-90438760D01*
X82455886Y-90446542D01*
X82455890Y-90446547D01*
X82553454Y-90544111D01*
X82553458Y-90544114D01*
X82668182Y-90620771D01*
X82668195Y-90620778D01*
X82787029Y-90670000D01*
X82795672Y-90673580D01*
X82795676Y-90673580D01*
X82795677Y-90673581D01*
X82931004Y-90700500D01*
X82931007Y-90700500D01*
X83068995Y-90700500D01*
X83160041Y-90682389D01*
X83204328Y-90673580D01*
X83331811Y-90620775D01*
X83446542Y-90544114D01*
X83544114Y-90446542D01*
X83620775Y-90331811D01*
X83673580Y-90204328D01*
X83694336Y-90099983D01*
X83700500Y-90068995D01*
X83700500Y-89931004D01*
X83673581Y-89795677D01*
X83673580Y-89795676D01*
X83673580Y-89795672D01*
X83661496Y-89766498D01*
X83620778Y-89668195D01*
X83620771Y-89668182D01*
X83544114Y-89553458D01*
X83544111Y-89553454D01*
X83446545Y-89455888D01*
X83446541Y-89455885D01*
X83388006Y-89416773D01*
X83380363Y-89411234D01*
X83352553Y-89389418D01*
X83352549Y-89389415D01*
X83098291Y-89243027D01*
X83072481Y-89223246D01*
X82076819Y-88227584D01*
X82043334Y-88166261D01*
X82040500Y-88139903D01*
X82040500Y-87349499D01*
X82060185Y-87282460D01*
X82112989Y-87236705D01*
X82164500Y-87225499D01*
X82200002Y-87225499D01*
X82200008Y-87225499D01*
X82302797Y-87214999D01*
X82469334Y-87159814D01*
X82618656Y-87067712D01*
X82742712Y-86943656D01*
X82834814Y-86794334D01*
X82889999Y-86627797D01*
X82900500Y-86525009D01*
X82900499Y-85599992D01*
X82900414Y-85599164D01*
X82889999Y-85497203D01*
X82889998Y-85497200D01*
X82868704Y-85432939D01*
X82834814Y-85330666D01*
X82742712Y-85181344D01*
X82618656Y-85057288D01*
X82503063Y-84985990D01*
X82469336Y-84965187D01*
X82469331Y-84965185D01*
X82467862Y-84964698D01*
X82302797Y-84910001D01*
X82302795Y-84910000D01*
X82200016Y-84899500D01*
X80800097Y-84899500D01*
X80770656Y-84890855D01*
X80740670Y-84884332D01*
X80735654Y-84880577D01*
X80733058Y-84879815D01*
X80712416Y-84863181D01*
X80677590Y-84828355D01*
X80677588Y-84828352D01*
X80558717Y-84709481D01*
X80558716Y-84709480D01*
X80471904Y-84659360D01*
X80471904Y-84659359D01*
X80471900Y-84659358D01*
X80421785Y-84630423D01*
X80269057Y-84589499D01*
X80110943Y-84589499D01*
X80103347Y-84589499D01*
X80103331Y-84589500D01*
X78285719Y-84589500D01*
X78218680Y-84569815D01*
X78175235Y-84521795D01*
X78155052Y-84482185D01*
X78155051Y-84482184D01*
X78030109Y-84310213D01*
X77879786Y-84159890D01*
X77707820Y-84034951D01*
X77518414Y-83938444D01*
X77518413Y-83938443D01*
X77518412Y-83938443D01*
X77316243Y-83872754D01*
X77316241Y-83872753D01*
X77316240Y-83872753D01*
X77154957Y-83847208D01*
X77106287Y-83839500D01*
X76893713Y-83839500D01*
X76845042Y-83847208D01*
X76683760Y-83872753D01*
X76481585Y-83938444D01*
X76292179Y-84034951D01*
X76120213Y-84159890D01*
X75969890Y-84310213D01*
X75844951Y-84482179D01*
X75748444Y-84671585D01*
X75748443Y-84671587D01*
X75748443Y-84671588D01*
X75736131Y-84709479D01*
X75682753Y-84873760D01*
X75664978Y-84985990D01*
X75649500Y-85083713D01*
X73750500Y-85083713D01*
X73750500Y-83399986D01*
X80100001Y-83399986D01*
X80110494Y-83502697D01*
X80165641Y-83669119D01*
X80165643Y-83669124D01*
X80257684Y-83818345D01*
X80381654Y-83942315D01*
X80530875Y-84034356D01*
X80530880Y-84034358D01*
X80697302Y-84089505D01*
X80697309Y-84089506D01*
X80800019Y-84099999D01*
X81249999Y-84099999D01*
X81750000Y-84099999D01*
X82199972Y-84099999D01*
X82199986Y-84099998D01*
X82302697Y-84089505D01*
X82469119Y-84034358D01*
X82469124Y-84034356D01*
X82618345Y-83942315D01*
X82742315Y-83818345D01*
X82834356Y-83669124D01*
X82834358Y-83669119D01*
X82889505Y-83502697D01*
X82889506Y-83502690D01*
X82899999Y-83399986D01*
X82900000Y-83399973D01*
X82900000Y-83187500D01*
X81750000Y-83187500D01*
X81750000Y-84099999D01*
X81249999Y-84099999D01*
X81250000Y-84099998D01*
X81250000Y-83187500D01*
X80100001Y-83187500D01*
X80100001Y-83399986D01*
X73750500Y-83399986D01*
X73750500Y-82475013D01*
X80100000Y-82475013D01*
X80100000Y-82687500D01*
X81250000Y-82687500D01*
X81750000Y-82687500D01*
X82899999Y-82687500D01*
X82899999Y-82475028D01*
X82899998Y-82475013D01*
X82889505Y-82372302D01*
X82834358Y-82205880D01*
X82834356Y-82205875D01*
X82742315Y-82056654D01*
X82618345Y-81932684D01*
X82469124Y-81840643D01*
X82469119Y-81840641D01*
X82302697Y-81785494D01*
X82302690Y-81785493D01*
X82199986Y-81775000D01*
X81750000Y-81775000D01*
X81750000Y-82687500D01*
X81250000Y-82687500D01*
X81250000Y-81775000D01*
X80800028Y-81775000D01*
X80800012Y-81775001D01*
X80697302Y-81785494D01*
X80530880Y-81840641D01*
X80530875Y-81840643D01*
X80381654Y-81932684D01*
X80257684Y-82056654D01*
X80165643Y-82205875D01*
X80165641Y-82205880D01*
X80110494Y-82372302D01*
X80110493Y-82372309D01*
X80100000Y-82475013D01*
X73750500Y-82475013D01*
X73750500Y-80549986D01*
X80125001Y-80549986D01*
X80135494Y-80652697D01*
X80190641Y-80819119D01*
X80190643Y-80819124D01*
X80282684Y-80968345D01*
X80406654Y-81092315D01*
X80555875Y-81184356D01*
X80555880Y-81184358D01*
X80722302Y-81239505D01*
X80722309Y-81239506D01*
X80825019Y-81249999D01*
X81274999Y-81249999D01*
X81775000Y-81249999D01*
X82224972Y-81249999D01*
X82224986Y-81249998D01*
X82327697Y-81239505D01*
X82494119Y-81184358D01*
X82494124Y-81184356D01*
X82643345Y-81092315D01*
X82767315Y-80968345D01*
X82859356Y-80819124D01*
X82859358Y-80819119D01*
X82914505Y-80652697D01*
X82914506Y-80652690D01*
X82924999Y-80549986D01*
X82925000Y-80549973D01*
X82925000Y-79250000D01*
X81775000Y-79250000D01*
X81775000Y-81249999D01*
X81274999Y-81249999D01*
X81275000Y-81249998D01*
X81275000Y-79250000D01*
X80125001Y-79250000D01*
X80125001Y-80549986D01*
X73750500Y-80549986D01*
X73750500Y-77450013D01*
X80125000Y-77450013D01*
X80125000Y-78750000D01*
X81275000Y-78750000D01*
X81775000Y-78750000D01*
X82924999Y-78750000D01*
X82924999Y-77450028D01*
X82924998Y-77450013D01*
X82914505Y-77347302D01*
X82859358Y-77180880D01*
X82859356Y-77180875D01*
X82767315Y-77031654D01*
X82643345Y-76907684D01*
X82494124Y-76815643D01*
X82494119Y-76815641D01*
X82327697Y-76760494D01*
X82327690Y-76760493D01*
X82224986Y-76750000D01*
X81775000Y-76750000D01*
X81775000Y-78750000D01*
X81275000Y-78750000D01*
X81275000Y-76750000D01*
X80825028Y-76750000D01*
X80825012Y-76750001D01*
X80722302Y-76760494D01*
X80555880Y-76815641D01*
X80555875Y-76815643D01*
X80406654Y-76907684D01*
X80282684Y-77031654D01*
X80190643Y-77180875D01*
X80190641Y-77180880D01*
X80135494Y-77347302D01*
X80135493Y-77347309D01*
X80125000Y-77450013D01*
X73750500Y-77450013D01*
X73750500Y-74862229D01*
X73770185Y-74795190D01*
X73786819Y-74774548D01*
X79774548Y-68786819D01*
X79835871Y-68753334D01*
X79862229Y-68750500D01*
X83298920Y-68750500D01*
X83396462Y-68731096D01*
X83443913Y-68721658D01*
X83580495Y-68665084D01*
X83629729Y-68632186D01*
X83703416Y-68582952D01*
X85806938Y-66479427D01*
X85868259Y-66445944D01*
X85914011Y-66444637D01*
X86007805Y-66459492D01*
X86108871Y-66475500D01*
X86108876Y-66475500D01*
X86341129Y-66475500D01*
X86442502Y-66459443D01*
X86570514Y-66439169D01*
X86791396Y-66367400D01*
X86998331Y-66261961D01*
X87186224Y-66125449D01*
X87350449Y-65961224D01*
X87486961Y-65773331D01*
X87592400Y-65566396D01*
X87664169Y-65345514D01*
X87691679Y-65171819D01*
X87700500Y-65116129D01*
X87700500Y-64883870D01*
X87669638Y-64689016D01*
X87678593Y-64619722D01*
X87704430Y-64581937D01*
X91499549Y-60786819D01*
X91560872Y-60753334D01*
X91587230Y-60750500D01*
X91865971Y-60750500D01*
X91933010Y-60770185D01*
X91978765Y-60822989D01*
X91988709Y-60892147D01*
X91959684Y-60955703D01*
X91946507Y-60968786D01*
X91945210Y-60969893D01*
X91794890Y-61120213D01*
X91669951Y-61292179D01*
X91573444Y-61481585D01*
X91507753Y-61683760D01*
X91488233Y-61807007D01*
X91474500Y-61893713D01*
X91474500Y-62106287D01*
X91507754Y-62316243D01*
X91565634Y-62494380D01*
X91573444Y-62518414D01*
X91669951Y-62707820D01*
X91794890Y-62879786D01*
X91945213Y-63030109D01*
X92117179Y-63155048D01*
X92117181Y-63155049D01*
X92117184Y-63155051D01*
X92306588Y-63251557D01*
X92508757Y-63317246D01*
X92718713Y-63350500D01*
X92718714Y-63350500D01*
X92931286Y-63350500D01*
X92931287Y-63350500D01*
X93141243Y-63317246D01*
X93343412Y-63251557D01*
X93532816Y-63155051D01*
X93608548Y-63100029D01*
X93704786Y-63030109D01*
X93704788Y-63030106D01*
X93704792Y-63030104D01*
X93855104Y-62879792D01*
X93855106Y-62879788D01*
X93855109Y-62879786D01*
X93980048Y-62707820D01*
X93980047Y-62707820D01*
X93980051Y-62707816D01*
X93984514Y-62699054D01*
X94032488Y-62648259D01*
X94100308Y-62631463D01*
X94166444Y-62653999D01*
X94205486Y-62699056D01*
X94209951Y-62707820D01*
X94334890Y-62879786D01*
X94348002Y-62892898D01*
X94381487Y-62954221D01*
X94376503Y-63023913D01*
X94334631Y-63079846D01*
X94333208Y-63080896D01*
X94260272Y-63133888D01*
X94260269Y-63133891D01*
X85680978Y-71713181D01*
X85619655Y-71746666D01*
X85593297Y-71749500D01*
X84824998Y-71749500D01*
X84824980Y-71749501D01*
X84722203Y-71760000D01*
X84722200Y-71760001D01*
X84555668Y-71815185D01*
X84555663Y-71815187D01*
X84406342Y-71907289D01*
X84282289Y-72031342D01*
X84190187Y-72180663D01*
X84190186Y-72180666D01*
X84135001Y-72347203D01*
X84135001Y-72347204D01*
X84135000Y-72347204D01*
X84124500Y-72449983D01*
X84124500Y-72740500D01*
X84104815Y-72807539D01*
X84052011Y-72853294D01*
X84000500Y-72864500D01*
X83049499Y-72864500D01*
X82982460Y-72844815D01*
X82936705Y-72792011D01*
X82925499Y-72740500D01*
X82925499Y-72449998D01*
X82925498Y-72449981D01*
X82914999Y-72347203D01*
X82914998Y-72347200D01*
X82910141Y-72332544D01*
X82859814Y-72180666D01*
X82767712Y-72031344D01*
X82643656Y-71907288D01*
X82494334Y-71815186D01*
X82327797Y-71760001D01*
X82327795Y-71760000D01*
X82225010Y-71749500D01*
X80824998Y-71749500D01*
X80824981Y-71749501D01*
X80722203Y-71760000D01*
X80722200Y-71760001D01*
X80555668Y-71815185D01*
X80555663Y-71815187D01*
X80406342Y-71907289D01*
X80282289Y-72031342D01*
X80190187Y-72180663D01*
X80190186Y-72180666D01*
X80135001Y-72347203D01*
X80135001Y-72347204D01*
X80135000Y-72347204D01*
X80124500Y-72449983D01*
X80124500Y-75550001D01*
X80124501Y-75550018D01*
X80135000Y-75652796D01*
X80135001Y-75652799D01*
X80161048Y-75731403D01*
X80190186Y-75819334D01*
X80282288Y-75968656D01*
X80406344Y-76092712D01*
X80555666Y-76184814D01*
X80722203Y-76239999D01*
X80824991Y-76250500D01*
X82225008Y-76250499D01*
X82327797Y-76239999D01*
X82494334Y-76184814D01*
X82643656Y-76092712D01*
X82767712Y-75968656D01*
X82859814Y-75819334D01*
X82914999Y-75652797D01*
X82925500Y-75550009D01*
X82925500Y-75259500D01*
X82945185Y-75192461D01*
X82997989Y-75146706D01*
X83049500Y-75135500D01*
X84000501Y-75135500D01*
X84067540Y-75155185D01*
X84113295Y-75207989D01*
X84124501Y-75259500D01*
X84124501Y-75550018D01*
X84135000Y-75652796D01*
X84135001Y-75652799D01*
X84161048Y-75731403D01*
X84190186Y-75819334D01*
X84282288Y-75968656D01*
X84406344Y-76092712D01*
X84555666Y-76184814D01*
X84722203Y-76239999D01*
X84824991Y-76250500D01*
X86225008Y-76250499D01*
X86327797Y-76239999D01*
X86494334Y-76184814D01*
X86643656Y-76092712D01*
X86767712Y-75968656D01*
X86859814Y-75819334D01*
X86914999Y-75652797D01*
X86925500Y-75550009D01*
X86925499Y-73731699D01*
X86945184Y-73664661D01*
X86961813Y-73644024D01*
X95434020Y-65171819D01*
X95495343Y-65138334D01*
X95521701Y-65135500D01*
X101906370Y-65135500D01*
X101994631Y-65121520D01*
X102082897Y-65107541D01*
X102216533Y-65064119D01*
X102252881Y-65052309D01*
X102412132Y-64971167D01*
X102556728Y-64866111D01*
X102683111Y-64739728D01*
X102741670Y-64681169D01*
X102741682Y-64681155D01*
X103851111Y-63571729D01*
X103895319Y-63510881D01*
X103956167Y-63427132D01*
X104037309Y-63267881D01*
X104056825Y-63207816D01*
X104092539Y-63097901D01*
X104092539Y-63097900D01*
X104092540Y-63097897D01*
X104120500Y-62921366D01*
X104120500Y-62774691D01*
X104124137Y-62760366D01*
X104123269Y-62748630D01*
X104133790Y-62722348D01*
X104135522Y-62715531D01*
X104138702Y-62709671D01*
X104140051Y-62707816D01*
X104145260Y-62697591D01*
X104146022Y-62696189D01*
X104169574Y-62672521D01*
X104192488Y-62648259D01*
X104194119Y-62647854D01*
X104195306Y-62646663D01*
X104227899Y-62639489D01*
X104260308Y-62631463D01*
X104261900Y-62632005D01*
X104263543Y-62631644D01*
X104294846Y-62643231D01*
X104326444Y-62653999D01*
X104327630Y-62655368D01*
X104329067Y-62655900D01*
X104335503Y-62664453D01*
X104365486Y-62699056D01*
X104369951Y-62707820D01*
X104494890Y-62879786D01*
X104645213Y-63030109D01*
X104817179Y-63155048D01*
X104817181Y-63155049D01*
X104817184Y-63155051D01*
X104902861Y-63198705D01*
X105006583Y-63251555D01*
X105006585Y-63251555D01*
X105006588Y-63251557D01*
X105208757Y-63317246D01*
X105208762Y-63317246D01*
X105211127Y-63317815D01*
X105211982Y-63318293D01*
X105213392Y-63318752D01*
X105213300Y-63319032D01*
X105269871Y-63350710D01*
X108285266Y-66366107D01*
X108285271Y-66366111D01*
X108300418Y-66377116D01*
X108300431Y-66377125D01*
X108300434Y-66377129D01*
X108300435Y-66377128D01*
X108429868Y-66471167D01*
X108589119Y-66552309D01*
X108589121Y-66552310D01*
X108747670Y-66603825D01*
X108759103Y-66607540D01*
X108935634Y-66635500D01*
X110650500Y-66635500D01*
X110717539Y-66655185D01*
X110763294Y-66707989D01*
X110774500Y-66759500D01*
X110774500Y-67940500D01*
X110754815Y-68007539D01*
X110702011Y-68053294D01*
X110650500Y-68064500D01*
X99009499Y-68064500D01*
X98942460Y-68044815D01*
X98896705Y-67992011D01*
X98885499Y-67940500D01*
X98885499Y-66377125D01*
X98885498Y-66377123D01*
X98885497Y-66377116D01*
X98879091Y-66317517D01*
X98841635Y-66217093D01*
X98828797Y-66182671D01*
X98828793Y-66182664D01*
X98742547Y-66067455D01*
X98742544Y-66067452D01*
X98627335Y-65981206D01*
X98627328Y-65981202D01*
X98492482Y-65930908D01*
X98492483Y-65930908D01*
X98432883Y-65924501D01*
X98432881Y-65924500D01*
X98432873Y-65924500D01*
X98432864Y-65924500D01*
X95887129Y-65924500D01*
X95887123Y-65924501D01*
X95827516Y-65930908D01*
X95692671Y-65981202D01*
X95692664Y-65981206D01*
X95577455Y-66067452D01*
X95577452Y-66067455D01*
X95491206Y-66182664D01*
X95491202Y-66182671D01*
X95440908Y-66317517D01*
X95434501Y-66377116D01*
X95434500Y-66377128D01*
X95434500Y-69908297D01*
X95414815Y-69975336D01*
X95398181Y-69995978D01*
X87565980Y-77828181D01*
X87504657Y-77861666D01*
X87478299Y-77864500D01*
X87049499Y-77864500D01*
X86982460Y-77844815D01*
X86936705Y-77792011D01*
X86925499Y-77740500D01*
X86925499Y-77449998D01*
X86925498Y-77449981D01*
X86914999Y-77347203D01*
X86914998Y-77347200D01*
X86905169Y-77317537D01*
X86859814Y-77180666D01*
X86767712Y-77031344D01*
X86643656Y-76907288D01*
X86494334Y-76815186D01*
X86327797Y-76760001D01*
X86327795Y-76760000D01*
X86225010Y-76749500D01*
X84824998Y-76749500D01*
X84824981Y-76749501D01*
X84722203Y-76760000D01*
X84722200Y-76760001D01*
X84555668Y-76815185D01*
X84555663Y-76815187D01*
X84406342Y-76907289D01*
X84282289Y-77031342D01*
X84190187Y-77180663D01*
X84190185Y-77180668D01*
X84170615Y-77239728D01*
X84135001Y-77347203D01*
X84135001Y-77347204D01*
X84135000Y-77347204D01*
X84124500Y-77449983D01*
X84124500Y-80550001D01*
X84124501Y-80550018D01*
X84135000Y-80652796D01*
X84135001Y-80652799D01*
X84180665Y-80790602D01*
X84190186Y-80819334D01*
X84282288Y-80968656D01*
X84406344Y-81092712D01*
X84555666Y-81184814D01*
X84722203Y-81239999D01*
X84824991Y-81250500D01*
X86225008Y-81250499D01*
X86327797Y-81239999D01*
X86494334Y-81184814D01*
X86643656Y-81092712D01*
X86767712Y-80968656D01*
X86859814Y-80819334D01*
X86914999Y-80652797D01*
X86925500Y-80550009D01*
X86925500Y-80371448D01*
X95435000Y-80371448D01*
X96806448Y-79000000D01*
X96806448Y-78999999D01*
X97513552Y-78999999D01*
X97513552Y-79000000D01*
X98884999Y-80371448D01*
X98885000Y-80371447D01*
X98885000Y-77628552D01*
X98884999Y-77628551D01*
X97513552Y-78999999D01*
X96806448Y-78999999D01*
X95435000Y-77628551D01*
X95435000Y-80371448D01*
X86925500Y-80371448D01*
X86925500Y-80259500D01*
X86945185Y-80192461D01*
X86997989Y-80146706D01*
X87049500Y-80135500D01*
X88089370Y-80135500D01*
X88167824Y-80123073D01*
X88265897Y-80107541D01*
X88394193Y-80065853D01*
X88435881Y-80052309D01*
X88595132Y-79971167D01*
X88739728Y-79866111D01*
X88866111Y-79739728D01*
X88924670Y-79681169D01*
X88924683Y-79681154D01*
X92428682Y-76177155D01*
X95435000Y-76177155D01*
X95435000Y-77014999D01*
X95454336Y-77023009D01*
X95455414Y-77022421D01*
X95525106Y-77027403D01*
X95569457Y-77055905D01*
X97159999Y-78646447D01*
X98750542Y-77055905D01*
X98811865Y-77022420D01*
X98858955Y-77025787D01*
X98885000Y-77014999D01*
X98885000Y-76177172D01*
X98884999Y-76177155D01*
X110775000Y-76177155D01*
X110775000Y-77014999D01*
X110794336Y-77023009D01*
X110795414Y-77022421D01*
X110865106Y-77027403D01*
X110909457Y-77055905D01*
X112499999Y-78646447D01*
X114090542Y-77055905D01*
X114151865Y-77022420D01*
X114198955Y-77025787D01*
X114225000Y-77014999D01*
X114225000Y-76177172D01*
X114224999Y-76177155D01*
X114218598Y-76117627D01*
X114218596Y-76117620D01*
X114168354Y-75982913D01*
X114168350Y-75982906D01*
X114082190Y-75867812D01*
X114082187Y-75867809D01*
X113967093Y-75781649D01*
X113967086Y-75781645D01*
X113832379Y-75731403D01*
X113832372Y-75731401D01*
X113772844Y-75725000D01*
X111227155Y-75725000D01*
X111167627Y-75731401D01*
X111167620Y-75731403D01*
X111032913Y-75781645D01*
X111032906Y-75781649D01*
X110917812Y-75867809D01*
X110917809Y-75867812D01*
X110831649Y-75982906D01*
X110831645Y-75982913D01*
X110781403Y-76117620D01*
X110781401Y-76117627D01*
X110775000Y-76177155D01*
X98884999Y-76177155D01*
X98878598Y-76117627D01*
X98878596Y-76117620D01*
X98828354Y-75982913D01*
X98828350Y-75982906D01*
X98742190Y-75867812D01*
X98742187Y-75867809D01*
X98627093Y-75781649D01*
X98627086Y-75781645D01*
X98492379Y-75731403D01*
X98492372Y-75731401D01*
X98432844Y-75725000D01*
X95887155Y-75725000D01*
X95827627Y-75731401D01*
X95827620Y-75731403D01*
X95692913Y-75781645D01*
X95692906Y-75781649D01*
X95577812Y-75867809D01*
X95577809Y-75867812D01*
X95491649Y-75982906D01*
X95491645Y-75982913D01*
X95441403Y-76117620D01*
X95441401Y-76117627D01*
X95435000Y-76177155D01*
X92428682Y-76177155D01*
X96094020Y-72511818D01*
X96155343Y-72478333D01*
X96181701Y-72475499D01*
X98432871Y-72475499D01*
X98432872Y-72475499D01*
X98492483Y-72469091D01*
X98627331Y-72418796D01*
X98742546Y-72332546D01*
X98828796Y-72217331D01*
X98879091Y-72082483D01*
X98885500Y-72022873D01*
X98885500Y-70459500D01*
X98905185Y-70392461D01*
X98957989Y-70346706D01*
X99009500Y-70335500D01*
X110650501Y-70335500D01*
X110717540Y-70355185D01*
X110763295Y-70407989D01*
X110774501Y-70459500D01*
X110774501Y-72022876D01*
X110780908Y-72082483D01*
X110831202Y-72217328D01*
X110831206Y-72217335D01*
X110917452Y-72332544D01*
X110917455Y-72332547D01*
X111032664Y-72418793D01*
X111032671Y-72418797D01*
X111167517Y-72469091D01*
X111167516Y-72469091D01*
X111174444Y-72469835D01*
X111227127Y-72475500D01*
X112318298Y-72475499D01*
X112385337Y-72495184D01*
X112405979Y-72511818D01*
X117133889Y-77239728D01*
X117260272Y-77366111D01*
X117356669Y-77436148D01*
X117404869Y-77471168D01*
X117445439Y-77491839D01*
X117486011Y-77512511D01*
X117486012Y-77512512D01*
X117512047Y-77525777D01*
X117564120Y-77552310D01*
X117734103Y-77607541D01*
X117834817Y-77623492D01*
X117910630Y-77635500D01*
X117910634Y-77635500D01*
X118089367Y-77635500D01*
X120975501Y-77635500D01*
X121042540Y-77655185D01*
X121088295Y-77707989D01*
X121099501Y-77759500D01*
X121099501Y-78050018D01*
X121110000Y-78152796D01*
X121110001Y-78152799D01*
X121165115Y-78319119D01*
X121165186Y-78319334D01*
X121257288Y-78468656D01*
X121381344Y-78592712D01*
X121530666Y-78684814D01*
X121697203Y-78739999D01*
X121799991Y-78750500D01*
X123093298Y-78750499D01*
X123160337Y-78770184D01*
X123180979Y-78786818D01*
X124531980Y-80137819D01*
X124565465Y-80199142D01*
X124560481Y-80268834D01*
X124518609Y-80324767D01*
X124453145Y-80349184D01*
X124444299Y-80349500D01*
X124418713Y-80349500D01*
X124370042Y-80357208D01*
X124208760Y-80382753D01*
X124006585Y-80448444D01*
X123817179Y-80544951D01*
X123645213Y-80669890D01*
X123494890Y-80820213D01*
X123369951Y-80992179D01*
X123273444Y-81181585D01*
X123207753Y-81383760D01*
X123187713Y-81510289D01*
X123174500Y-81593713D01*
X123174500Y-81806287D01*
X123185500Y-81875737D01*
X123207754Y-82016244D01*
X123207754Y-82016247D01*
X123221491Y-82058523D01*
X123223486Y-82128364D01*
X123191241Y-82184522D01*
X121512584Y-83863181D01*
X121451261Y-83896666D01*
X121424903Y-83899500D01*
X108536665Y-83899500D01*
X108529060Y-83899499D01*
X108529057Y-83899499D01*
X108503437Y-83899499D01*
X108464067Y-83887937D01*
X108436402Y-83879814D01*
X108436401Y-83879812D01*
X108436398Y-83879812D01*
X108398997Y-83836646D01*
X108390647Y-83827010D01*
X108390646Y-83827009D01*
X108390645Y-83827007D01*
X108384796Y-83786319D01*
X108380703Y-83757852D01*
X108380704Y-83757849D01*
X108380704Y-83757848D01*
X108399323Y-83717079D01*
X108409728Y-83694296D01*
X108409729Y-83694295D01*
X108409730Y-83694293D01*
X108409735Y-83694289D01*
X108434550Y-83672397D01*
X108489769Y-83635500D01*
X108510289Y-83621789D01*
X108621789Y-83510289D01*
X108709394Y-83379179D01*
X108719191Y-83355524D01*
X108746070Y-83315296D01*
X110315295Y-81746070D01*
X110355519Y-81719193D01*
X110379179Y-81709394D01*
X110510289Y-81621789D01*
X110510292Y-81621786D01*
X110563319Y-81568760D01*
X110624642Y-81535275D01*
X110694334Y-81540259D01*
X110750267Y-81582131D01*
X110774684Y-81647595D01*
X110775000Y-81656441D01*
X110775000Y-81822844D01*
X110781401Y-81882372D01*
X110781403Y-81882379D01*
X110831645Y-82017086D01*
X110831649Y-82017093D01*
X110917809Y-82132187D01*
X110917812Y-82132190D01*
X111032906Y-82218350D01*
X111032913Y-82218354D01*
X111167620Y-82268596D01*
X111167627Y-82268598D01*
X111227155Y-82274999D01*
X111227172Y-82275000D01*
X113772828Y-82275000D01*
X113772844Y-82274999D01*
X113832372Y-82268598D01*
X113832379Y-82268596D01*
X113967086Y-82218354D01*
X113967093Y-82218350D01*
X114082187Y-82132190D01*
X114082190Y-82132187D01*
X114168350Y-82017093D01*
X114168354Y-82017086D01*
X114218596Y-81882379D01*
X114218598Y-81882372D01*
X114224999Y-81822844D01*
X114225000Y-81822827D01*
X114225000Y-80985000D01*
X114205659Y-80976989D01*
X114204578Y-80977580D01*
X114134886Y-80972594D01*
X114090542Y-80944094D01*
X112182767Y-79036319D01*
X112146447Y-78999999D01*
X112853552Y-78999999D01*
X112853552Y-79000000D01*
X114224999Y-80371448D01*
X114225000Y-80371447D01*
X114225000Y-77628552D01*
X114224999Y-77628551D01*
X112853552Y-78999999D01*
X112146447Y-78999999D01*
X110775000Y-77628551D01*
X110775000Y-80343559D01*
X110755315Y-80410598D01*
X110702511Y-80456353D01*
X110633353Y-80466297D01*
X110569797Y-80437272D01*
X110563319Y-80431240D01*
X110510292Y-80378213D01*
X110510288Y-80378210D01*
X110379185Y-80290609D01*
X110379172Y-80290602D01*
X110233501Y-80230264D01*
X110233489Y-80230261D01*
X110078845Y-80199500D01*
X110078842Y-80199500D01*
X109921158Y-80199500D01*
X109921155Y-80199500D01*
X109766510Y-80230261D01*
X109766498Y-80230264D01*
X109620827Y-80290602D01*
X109620814Y-80290609D01*
X109489711Y-80378210D01*
X109489707Y-80378213D01*
X109378213Y-80489707D01*
X109378207Y-80489715D01*
X109290607Y-80620818D01*
X109290605Y-80620822D01*
X109280805Y-80644480D01*
X109253927Y-80684704D01*
X107684703Y-82253927D01*
X107644480Y-82280805D01*
X107620819Y-82290606D01*
X107620818Y-82290607D01*
X107489715Y-82378207D01*
X107489707Y-82378213D01*
X107378213Y-82489707D01*
X107378210Y-82489711D01*
X107290609Y-82620814D01*
X107290602Y-82620827D01*
X107230264Y-82766498D01*
X107230261Y-82766510D01*
X107199500Y-82921153D01*
X107199500Y-83078846D01*
X107230261Y-83233489D01*
X107230264Y-83233501D01*
X107290602Y-83379172D01*
X107290609Y-83379185D01*
X107378210Y-83510288D01*
X107378213Y-83510292D01*
X107489707Y-83621786D01*
X107489711Y-83621789D01*
X107620814Y-83709390D01*
X107620827Y-83709397D01*
X107747114Y-83761706D01*
X107766503Y-83769737D01*
X107898691Y-83796031D01*
X107921153Y-83800499D01*
X107921156Y-83800500D01*
X108001372Y-83800500D01*
X108022731Y-83806771D01*
X108044934Y-83808404D01*
X108055604Y-83816424D01*
X108068411Y-83820185D01*
X108082987Y-83837007D01*
X108100785Y-83850385D01*
X108105425Y-83862901D01*
X108114166Y-83872989D01*
X108117334Y-83895024D01*
X108125073Y-83915898D01*
X108122210Y-83928934D01*
X108124110Y-83942147D01*
X108114861Y-83962397D01*
X108110087Y-83984141D01*
X108099061Y-83996995D01*
X108095085Y-84005703D01*
X108088880Y-84012354D01*
X108082335Y-84018873D01*
X108081284Y-84019480D01*
X107969480Y-84131284D01*
X107969478Y-84131286D01*
X107969305Y-84131459D01*
X105837582Y-86263181D01*
X105776259Y-86296666D01*
X105749901Y-86299500D01*
X104824998Y-86299500D01*
X104824980Y-86299501D01*
X104722203Y-86310000D01*
X104722200Y-86310001D01*
X104555668Y-86365185D01*
X104555663Y-86365187D01*
X104406342Y-86457289D01*
X104282289Y-86581342D01*
X104190187Y-86730663D01*
X104190186Y-86730666D01*
X104135001Y-86897203D01*
X104135001Y-86897204D01*
X104135000Y-86897204D01*
X104124500Y-86999983D01*
X104124500Y-87900001D01*
X104124501Y-87900019D01*
X104135000Y-88002796D01*
X104135001Y-88002799D01*
X104190185Y-88169331D01*
X104190187Y-88169336D01*
X104205583Y-88194297D01*
X104282288Y-88318656D01*
X104406344Y-88442712D01*
X104555666Y-88534814D01*
X104722203Y-88589999D01*
X104824991Y-88600500D01*
X106175008Y-88600499D01*
X106277797Y-88589999D01*
X106444334Y-88534814D01*
X106593656Y-88442712D01*
X106717712Y-88318656D01*
X106744461Y-88275287D01*
X106796408Y-88228563D01*
X106865370Y-88217340D01*
X106929453Y-88245183D01*
X106955537Y-88275286D01*
X106982288Y-88318656D01*
X107106344Y-88442712D01*
X107255666Y-88534814D01*
X107422203Y-88589999D01*
X107524991Y-88600500D01*
X108875008Y-88600499D01*
X108977797Y-88589999D01*
X109144334Y-88534814D01*
X109293656Y-88442712D01*
X109417712Y-88318656D01*
X109509814Y-88169334D01*
X109564999Y-88002797D01*
X109575500Y-87900009D01*
X109575499Y-86999992D01*
X109574419Y-86989420D01*
X109587188Y-86920728D01*
X109610093Y-86889140D01*
X110961416Y-85537819D01*
X111022739Y-85504334D01*
X111049097Y-85501500D01*
X123605462Y-85501500D01*
X123672501Y-85521185D01*
X123718256Y-85573989D01*
X123728200Y-85643147D01*
X123699175Y-85706703D01*
X123678348Y-85725818D01*
X123645209Y-85749894D01*
X123494890Y-85900213D01*
X123369951Y-86072179D01*
X123273444Y-86261585D01*
X123207753Y-86463760D01*
X123198051Y-86525016D01*
X123181319Y-86630663D01*
X123179064Y-86644898D01*
X123149135Y-86708033D01*
X123089823Y-86744964D01*
X123056591Y-86749500D01*
X121938733Y-86749500D01*
X121871694Y-86729815D01*
X121825939Y-86677011D01*
X121821028Y-86664506D01*
X121814530Y-86644898D01*
X121809814Y-86630666D01*
X121717712Y-86481344D01*
X121593656Y-86357288D01*
X121444334Y-86265186D01*
X121277797Y-86210001D01*
X121277795Y-86210000D01*
X121175010Y-86199500D01*
X119824998Y-86199500D01*
X119824981Y-86199501D01*
X119722203Y-86210000D01*
X119722200Y-86210001D01*
X119555668Y-86265185D01*
X119555663Y-86265187D01*
X119406342Y-86357289D01*
X119282289Y-86481342D01*
X119190187Y-86630663D01*
X119190185Y-86630668D01*
X119174829Y-86677011D01*
X119135001Y-86797203D01*
X119135001Y-86797204D01*
X119135000Y-86797204D01*
X119124500Y-86899983D01*
X119124500Y-87800001D01*
X119124501Y-87800019D01*
X119135000Y-87902796D01*
X119135001Y-87902799D01*
X119181242Y-88042344D01*
X119190186Y-88069334D01*
X119282288Y-88218656D01*
X119406344Y-88342712D01*
X119555666Y-88434814D01*
X119722203Y-88489999D01*
X119824991Y-88500500D01*
X121175008Y-88500499D01*
X121277797Y-88489999D01*
X121444334Y-88434814D01*
X121593656Y-88342712D01*
X121717712Y-88218656D01*
X121809814Y-88069334D01*
X121821028Y-88035494D01*
X121860801Y-87978050D01*
X121925317Y-87951228D01*
X121938733Y-87950500D01*
X123191595Y-87950500D01*
X123258634Y-87970185D01*
X123304389Y-88022989D01*
X123314333Y-88092147D01*
X123290861Y-88148812D01*
X123231647Y-88227910D01*
X123231645Y-88227913D01*
X123181403Y-88362620D01*
X123181401Y-88362627D01*
X123175000Y-88422155D01*
X123175000Y-89070000D01*
X124091988Y-89070000D01*
X124059075Y-89127007D01*
X124025000Y-89254174D01*
X124025000Y-89385826D01*
X124059075Y-89512993D01*
X124091988Y-89570000D01*
X123175000Y-89570000D01*
X123175000Y-90217844D01*
X123181401Y-90277372D01*
X123181403Y-90277379D01*
X123231645Y-90412086D01*
X123231649Y-90412093D01*
X123317809Y-90527187D01*
X123317812Y-90527190D01*
X123432906Y-90613350D01*
X123432913Y-90613354D01*
X123567620Y-90663596D01*
X123567627Y-90663598D01*
X123627155Y-90669999D01*
X123627172Y-90670000D01*
X124275000Y-90670000D01*
X124275000Y-89753012D01*
X124332007Y-89785925D01*
X124459174Y-89820000D01*
X124590826Y-89820000D01*
X124717993Y-89785925D01*
X124775000Y-89753012D01*
X124775000Y-90670000D01*
X125422828Y-90670000D01*
X125422844Y-90669999D01*
X125482372Y-90663598D01*
X125482379Y-90663596D01*
X125617086Y-90613354D01*
X125617093Y-90613350D01*
X125732187Y-90527190D01*
X125732190Y-90527187D01*
X125818350Y-90412093D01*
X125818354Y-90412086D01*
X125868596Y-90277379D01*
X125868598Y-90277372D01*
X125874999Y-90217844D01*
X125875000Y-90217827D01*
X125875000Y-89570000D01*
X124958012Y-89570000D01*
X124990925Y-89512993D01*
X125025000Y-89385826D01*
X125025000Y-89254174D01*
X124990925Y-89127007D01*
X124958012Y-89070000D01*
X125875000Y-89070000D01*
X125875000Y-88422172D01*
X125874999Y-88422155D01*
X125868598Y-88362627D01*
X125868596Y-88362620D01*
X125818354Y-88227913D01*
X125818350Y-88227906D01*
X125732190Y-88112812D01*
X125732187Y-88112809D01*
X125617093Y-88026649D01*
X125617088Y-88026646D01*
X125485528Y-87977577D01*
X125429595Y-87935705D01*
X125405178Y-87870241D01*
X125420030Y-87801968D01*
X125441175Y-87773720D01*
X125555104Y-87659792D01*
X125680051Y-87487816D01*
X125776557Y-87298412D01*
X125842246Y-87096243D01*
X125875500Y-86886287D01*
X125875500Y-86673713D01*
X125842246Y-86463757D01*
X125776557Y-86261588D01*
X125680051Y-86072184D01*
X125680049Y-86072181D01*
X125680048Y-86072179D01*
X125555109Y-85900213D01*
X125404786Y-85749890D01*
X125232820Y-85624951D01*
X125232115Y-85624591D01*
X125224054Y-85620485D01*
X125173259Y-85572512D01*
X125156463Y-85504692D01*
X125178999Y-85438556D01*
X125224054Y-85399515D01*
X125232816Y-85395051D01*
X125261569Y-85374161D01*
X125404786Y-85270109D01*
X125404788Y-85270106D01*
X125404792Y-85270104D01*
X125555104Y-85119792D01*
X125555106Y-85119788D01*
X125555109Y-85119786D01*
X125680048Y-84947820D01*
X125680047Y-84947820D01*
X125680051Y-84947816D01*
X125776557Y-84758412D01*
X125842246Y-84556243D01*
X125875500Y-84346287D01*
X125875500Y-84133713D01*
X125842246Y-83923757D01*
X125776557Y-83721588D01*
X125680051Y-83532184D01*
X125680049Y-83532181D01*
X125680048Y-83532179D01*
X125555109Y-83360213D01*
X125404786Y-83209890D01*
X125232820Y-83084951D01*
X125232115Y-83084591D01*
X125224054Y-83080485D01*
X125173259Y-83032512D01*
X125156463Y-82964692D01*
X125178999Y-82898556D01*
X125224054Y-82859515D01*
X125232816Y-82855051D01*
X125254789Y-82839086D01*
X125404786Y-82730109D01*
X125404788Y-82730106D01*
X125404792Y-82730104D01*
X125555104Y-82579792D01*
X125640182Y-82462691D01*
X125695511Y-82420026D01*
X125765124Y-82414047D01*
X125826920Y-82446652D01*
X125861277Y-82507491D01*
X125864500Y-82535577D01*
X125864500Y-82589366D01*
X125867768Y-82610000D01*
X125892460Y-82765898D01*
X125892460Y-82765901D01*
X125947689Y-82935878D01*
X125947691Y-82935881D01*
X126028833Y-83095132D01*
X126133889Y-83239728D01*
X126260272Y-83366111D01*
X126404868Y-83471167D01*
X126564119Y-83552309D01*
X126564121Y-83552310D01*
X126722670Y-83603825D01*
X126734103Y-83607540D01*
X126910634Y-83635500D01*
X126910635Y-83635500D01*
X127089365Y-83635500D01*
X127089366Y-83635500D01*
X127265897Y-83607540D01*
X127265900Y-83607539D01*
X127265901Y-83607539D01*
X127435878Y-83552310D01*
X127435878Y-83552309D01*
X127435881Y-83552309D01*
X127595132Y-83471167D01*
X127739728Y-83366111D01*
X127866111Y-83239728D01*
X127971167Y-83095132D01*
X128052309Y-82935881D01*
X128107540Y-82765897D01*
X128135500Y-82589366D01*
X128135500Y-80910634D01*
X128129777Y-80874499D01*
X128121179Y-80820213D01*
X128107542Y-80734107D01*
X128107541Y-80734106D01*
X128107541Y-80734103D01*
X128053815Y-80568754D01*
X128052754Y-80564993D01*
X128045123Y-80550016D01*
X127971167Y-80404868D01*
X127866111Y-80260272D01*
X127739728Y-80133889D01*
X126567519Y-78961680D01*
X126534034Y-78900357D01*
X126539018Y-78830665D01*
X126580890Y-78774732D01*
X126646354Y-78750315D01*
X126655200Y-78749999D01*
X127199972Y-78749999D01*
X127199986Y-78749998D01*
X127302697Y-78739505D01*
X127469119Y-78684358D01*
X127469124Y-78684356D01*
X127618345Y-78592315D01*
X127742315Y-78468345D01*
X127834356Y-78319124D01*
X127834358Y-78319119D01*
X127889505Y-78152697D01*
X127889506Y-78152690D01*
X127899999Y-78049986D01*
X127900000Y-78049973D01*
X127900000Y-76750000D01*
X125100000Y-76750000D01*
X125100000Y-77194799D01*
X125080315Y-77261839D01*
X125027511Y-77307593D01*
X124958353Y-77317537D01*
X124894797Y-77288512D01*
X124888319Y-77282480D01*
X123936818Y-76330979D01*
X123903333Y-76269656D01*
X123900499Y-76243298D01*
X123900499Y-74950013D01*
X125100000Y-74950013D01*
X125100000Y-76250000D01*
X126250000Y-76250000D01*
X126750000Y-76250000D01*
X127899999Y-76250000D01*
X127899999Y-74950028D01*
X127899998Y-74950013D01*
X127889505Y-74847302D01*
X127834358Y-74680880D01*
X127834356Y-74680875D01*
X127742315Y-74531654D01*
X127618345Y-74407684D01*
X127469124Y-74315643D01*
X127469119Y-74315641D01*
X127302697Y-74260494D01*
X127302690Y-74260493D01*
X127199986Y-74250000D01*
X126750000Y-74250000D01*
X126750000Y-76250000D01*
X126250000Y-76250000D01*
X126250000Y-74250000D01*
X125800028Y-74250000D01*
X125800012Y-74250001D01*
X125697302Y-74260494D01*
X125530880Y-74315641D01*
X125530875Y-74315643D01*
X125381654Y-74407684D01*
X125257684Y-74531654D01*
X125165643Y-74680875D01*
X125165641Y-74680880D01*
X125110494Y-74847302D01*
X125110493Y-74847309D01*
X125100000Y-74950013D01*
X123900499Y-74950013D01*
X123900499Y-74949998D01*
X123900498Y-74949981D01*
X123889999Y-74847203D01*
X123889998Y-74847200D01*
X123877958Y-74810867D01*
X123834814Y-74680666D01*
X123742712Y-74531344D01*
X123618656Y-74407288D01*
X123469334Y-74315186D01*
X123302797Y-74260001D01*
X123302795Y-74260000D01*
X123200010Y-74249500D01*
X121799998Y-74249500D01*
X121799981Y-74249501D01*
X121697203Y-74260000D01*
X121697200Y-74260001D01*
X121530668Y-74315185D01*
X121530663Y-74315187D01*
X121381342Y-74407289D01*
X121257289Y-74531342D01*
X121165187Y-74680663D01*
X121165185Y-74680668D01*
X121165115Y-74680880D01*
X121110001Y-74847203D01*
X121110001Y-74847204D01*
X121110000Y-74847204D01*
X121099500Y-74949983D01*
X121099500Y-75240500D01*
X121079815Y-75307539D01*
X121027011Y-75353294D01*
X120975500Y-75364500D01*
X118521701Y-75364500D01*
X118454662Y-75344815D01*
X118434020Y-75328181D01*
X114261818Y-71155979D01*
X114228333Y-71094656D01*
X114225499Y-71068298D01*
X114225499Y-66759500D01*
X114245184Y-66692461D01*
X114297988Y-66646706D01*
X114349499Y-66635500D01*
X115978299Y-66635500D01*
X116045338Y-66655185D01*
X116065980Y-66671819D01*
X121063181Y-71669021D01*
X121096666Y-71730344D01*
X121099500Y-71756702D01*
X121099500Y-73050001D01*
X121099501Y-73050018D01*
X121110000Y-73152796D01*
X121110001Y-73152799D01*
X121165185Y-73319331D01*
X121165186Y-73319334D01*
X121257288Y-73468656D01*
X121381344Y-73592712D01*
X121530666Y-73684814D01*
X121697203Y-73739999D01*
X121799991Y-73750500D01*
X123200008Y-73750499D01*
X123302797Y-73739999D01*
X123469334Y-73684814D01*
X123618656Y-73592712D01*
X123742712Y-73468656D01*
X123834814Y-73319334D01*
X123889999Y-73152797D01*
X123900500Y-73050009D01*
X123900500Y-72759500D01*
X123920185Y-72692461D01*
X123972989Y-72646706D01*
X124024500Y-72635500D01*
X124975501Y-72635500D01*
X125042540Y-72655185D01*
X125088295Y-72707989D01*
X125099501Y-72759500D01*
X125099501Y-73050018D01*
X125110000Y-73152796D01*
X125110001Y-73152799D01*
X125165185Y-73319331D01*
X125165186Y-73319334D01*
X125257288Y-73468656D01*
X125381344Y-73592712D01*
X125530666Y-73684814D01*
X125697203Y-73739999D01*
X125799991Y-73750500D01*
X127200008Y-73750499D01*
X127302797Y-73739999D01*
X127469334Y-73684814D01*
X127618656Y-73592712D01*
X127742712Y-73468656D01*
X127834814Y-73319334D01*
X127889999Y-73152797D01*
X127900500Y-73050009D01*
X127900499Y-69949992D01*
X127889999Y-69847203D01*
X127834814Y-69680666D01*
X127742712Y-69531344D01*
X127618656Y-69407288D01*
X127469334Y-69315186D01*
X127302797Y-69260001D01*
X127302795Y-69260000D01*
X127200010Y-69249500D01*
X125799998Y-69249500D01*
X125799981Y-69249501D01*
X125697203Y-69260000D01*
X125697200Y-69260001D01*
X125530668Y-69315185D01*
X125530663Y-69315187D01*
X125381342Y-69407289D01*
X125257289Y-69531342D01*
X125165187Y-69680663D01*
X125165186Y-69680666D01*
X125110001Y-69847203D01*
X125110001Y-69847204D01*
X125110000Y-69847204D01*
X125099500Y-69949983D01*
X125099500Y-70240500D01*
X125079815Y-70307539D01*
X125027011Y-70353294D01*
X124975500Y-70364500D01*
X124024499Y-70364500D01*
X123957460Y-70344815D01*
X123911705Y-70292011D01*
X123900499Y-70240500D01*
X123900499Y-69949998D01*
X123900498Y-69949981D01*
X123889999Y-69847203D01*
X123889998Y-69847200D01*
X123834814Y-69680666D01*
X123742712Y-69531344D01*
X123618656Y-69407288D01*
X123469334Y-69315186D01*
X123302797Y-69260001D01*
X123302795Y-69260000D01*
X123200016Y-69249500D01*
X123200009Y-69249500D01*
X121906702Y-69249500D01*
X121839663Y-69229815D01*
X121819021Y-69213181D01*
X117239730Y-64633891D01*
X117239727Y-64633888D01*
X117186384Y-64595132D01*
X117095132Y-64528833D01*
X116935879Y-64447689D01*
X116931388Y-64445830D01*
X116932188Y-64443897D01*
X116881747Y-64409357D01*
X116854591Y-64344981D01*
X116860086Y-64291923D01*
X116914505Y-64127697D01*
X116914506Y-64127690D01*
X116924999Y-64024986D01*
X116925000Y-64024973D01*
X116925000Y-63812500D01*
X114125001Y-63812500D01*
X114125001Y-64024986D01*
X114135494Y-64127697D01*
X114159949Y-64201496D01*
X114162351Y-64271324D01*
X114126619Y-64331366D01*
X114064099Y-64362559D01*
X114042243Y-64364500D01*
X113007757Y-64364500D01*
X112940718Y-64344815D01*
X112894963Y-64292011D01*
X112885019Y-64222853D01*
X112890051Y-64201496D01*
X112914505Y-64127697D01*
X112914506Y-64127690D01*
X112924999Y-64024986D01*
X112925000Y-64024973D01*
X112925000Y-63812500D01*
X110125001Y-63812500D01*
X110125001Y-64024986D01*
X110135494Y-64127697D01*
X110159949Y-64201496D01*
X110162351Y-64271324D01*
X110126619Y-64331366D01*
X110064099Y-64362559D01*
X110042243Y-64364500D01*
X109546702Y-64364500D01*
X109479663Y-64344815D01*
X109459021Y-64328181D01*
X108315385Y-63184545D01*
X108230853Y-63100013D01*
X110125000Y-63100013D01*
X110125000Y-63312500D01*
X111275000Y-63312500D01*
X111775000Y-63312500D01*
X112924999Y-63312500D01*
X112924999Y-63100029D01*
X112924998Y-63100013D01*
X114125000Y-63100013D01*
X114125000Y-63312500D01*
X115275000Y-63312500D01*
X115775000Y-63312500D01*
X116924999Y-63312500D01*
X116924999Y-63100028D01*
X116924998Y-63100013D01*
X116914505Y-62997302D01*
X116859358Y-62830880D01*
X116859356Y-62830875D01*
X116767315Y-62681654D01*
X116643345Y-62557684D01*
X116540713Y-62494380D01*
X116494124Y-62465643D01*
X116494119Y-62465641D01*
X116327697Y-62410494D01*
X116327690Y-62410493D01*
X116224986Y-62400000D01*
X115775000Y-62400000D01*
X115775000Y-63312500D01*
X115275000Y-63312500D01*
X115275000Y-62400000D01*
X114825028Y-62400000D01*
X114825012Y-62400001D01*
X114722302Y-62410494D01*
X114555880Y-62465641D01*
X114555875Y-62465643D01*
X114406654Y-62557684D01*
X114282684Y-62681654D01*
X114190643Y-62830875D01*
X114190641Y-62830880D01*
X114135494Y-62997302D01*
X114135493Y-62997309D01*
X114125000Y-63100013D01*
X112924998Y-63100013D01*
X112924998Y-63100012D01*
X112914505Y-62997302D01*
X112859358Y-62830880D01*
X112859356Y-62830875D01*
X112767315Y-62681654D01*
X112643345Y-62557684D01*
X112494124Y-62465643D01*
X112494119Y-62465641D01*
X112327697Y-62410494D01*
X112327690Y-62410493D01*
X112224986Y-62400000D01*
X111775000Y-62400000D01*
X111775000Y-63312500D01*
X111275000Y-63312500D01*
X111275000Y-62400000D01*
X110825028Y-62400000D01*
X110825012Y-62400001D01*
X110722302Y-62410494D01*
X110555880Y-62465641D01*
X110555875Y-62465643D01*
X110406654Y-62557684D01*
X110282684Y-62681654D01*
X110190643Y-62830875D01*
X110190641Y-62830880D01*
X110135494Y-62997302D01*
X110135493Y-62997309D01*
X110125000Y-63100013D01*
X108230853Y-63100013D01*
X107524552Y-62393713D01*
X124149500Y-62393713D01*
X124149500Y-62606287D01*
X124182754Y-62816243D01*
X124243157Y-63002144D01*
X124248444Y-63018414D01*
X124344951Y-63207820D01*
X124469890Y-63379786D01*
X124620213Y-63530109D01*
X124792179Y-63655048D01*
X124792181Y-63655049D01*
X124792184Y-63655051D01*
X124981588Y-63751557D01*
X125183757Y-63817246D01*
X125393713Y-63850500D01*
X125393714Y-63850500D01*
X125606286Y-63850500D01*
X125606287Y-63850500D01*
X125816243Y-63817246D01*
X126018412Y-63751557D01*
X126207816Y-63655051D01*
X126308846Y-63581649D01*
X126379786Y-63530109D01*
X126379788Y-63530106D01*
X126379792Y-63530104D01*
X126530104Y-63379792D01*
X126530106Y-63379788D01*
X126530109Y-63379786D01*
X126655048Y-63207820D01*
X126655047Y-63207820D01*
X126655051Y-63207816D01*
X126751557Y-63018412D01*
X126817246Y-62816243D01*
X126850500Y-62606287D01*
X126850500Y-62393713D01*
X126817246Y-62183757D01*
X126751557Y-61981588D01*
X126655051Y-61792184D01*
X126655049Y-61792181D01*
X126655048Y-61792179D01*
X126530109Y-61620213D01*
X126379786Y-61469890D01*
X126207820Y-61344951D01*
X126018414Y-61248444D01*
X126018413Y-61248443D01*
X126018412Y-61248443D01*
X125816243Y-61182754D01*
X125816241Y-61182753D01*
X125816240Y-61182753D01*
X125654957Y-61157208D01*
X125606287Y-61149500D01*
X125393713Y-61149500D01*
X125345042Y-61157208D01*
X125183760Y-61182753D01*
X124981585Y-61248444D01*
X124792179Y-61344951D01*
X124620213Y-61469890D01*
X124469890Y-61620213D01*
X124344951Y-61792179D01*
X124248444Y-61981585D01*
X124182753Y-62183760D01*
X124181291Y-62192993D01*
X124149500Y-62393713D01*
X107524552Y-62393713D01*
X106875710Y-61744871D01*
X106844032Y-61688300D01*
X106843752Y-61688392D01*
X106843293Y-61686982D01*
X106842815Y-61686127D01*
X106842246Y-61683759D01*
X106842246Y-61683757D01*
X106776557Y-61481588D01*
X106776555Y-61481585D01*
X106776555Y-61481583D01*
X106710397Y-61351742D01*
X106680051Y-61292184D01*
X106680049Y-61292181D01*
X106680048Y-61292179D01*
X106555109Y-61120213D01*
X106404789Y-60969893D01*
X106403493Y-60968786D01*
X106403137Y-60968241D01*
X106401347Y-60966451D01*
X106401723Y-60966074D01*
X106365302Y-60910277D01*
X106364807Y-60840409D01*
X106402164Y-60781365D01*
X106465512Y-60751890D01*
X106484029Y-60750500D01*
X108162771Y-60750500D01*
X108192211Y-60759144D01*
X108222198Y-60765668D01*
X108227213Y-60769422D01*
X108229810Y-60770185D01*
X108250452Y-60786819D01*
X108379548Y-60915915D01*
X108379549Y-60915916D01*
X108431874Y-60968241D01*
X108484085Y-61020452D01*
X108606998Y-61102580D01*
X108607011Y-61102587D01*
X108720270Y-61149500D01*
X108743587Y-61159158D01*
X108743591Y-61159158D01*
X108743592Y-61159159D01*
X108888579Y-61188000D01*
X108888582Y-61188000D01*
X110132492Y-61188000D01*
X110199531Y-61207685D01*
X110238029Y-61246901D01*
X110282288Y-61318656D01*
X110406344Y-61442712D01*
X110555666Y-61534814D01*
X110722203Y-61589999D01*
X110824991Y-61600500D01*
X112225008Y-61600499D01*
X112327797Y-61589999D01*
X112494334Y-61534814D01*
X112643656Y-61442712D01*
X112767712Y-61318656D01*
X112811970Y-61246902D01*
X112863917Y-61200179D01*
X112917508Y-61188000D01*
X114132492Y-61188000D01*
X114199531Y-61207685D01*
X114238029Y-61246901D01*
X114282288Y-61318656D01*
X114406344Y-61442712D01*
X114555666Y-61534814D01*
X114722203Y-61589999D01*
X114824991Y-61600500D01*
X116225008Y-61600499D01*
X116327797Y-61589999D01*
X116494334Y-61534814D01*
X116643656Y-61442712D01*
X116767712Y-61318656D01*
X116859814Y-61169334D01*
X116914999Y-61002797D01*
X116925500Y-60900009D01*
X116925499Y-59974992D01*
X116914999Y-59872203D01*
X116859814Y-59705666D01*
X116767712Y-59556344D01*
X116643656Y-59432288D01*
X116494334Y-59340186D01*
X116327797Y-59285001D01*
X116327795Y-59285000D01*
X116225010Y-59274500D01*
X114824998Y-59274500D01*
X114824981Y-59274501D01*
X114722203Y-59285000D01*
X114722200Y-59285001D01*
X114555668Y-59340185D01*
X114555663Y-59340187D01*
X114406342Y-59432289D01*
X114282289Y-59556342D01*
X114238031Y-59628097D01*
X114186083Y-59674821D01*
X114132492Y-59687000D01*
X112917508Y-59687000D01*
X112850469Y-59667315D01*
X112811969Y-59628097D01*
X112767712Y-59556344D01*
X112643656Y-59432288D01*
X112494334Y-59340186D01*
X112327797Y-59285001D01*
X112327795Y-59285000D01*
X112225010Y-59274500D01*
X110824998Y-59274500D01*
X110824981Y-59274501D01*
X110722203Y-59285000D01*
X110722200Y-59285001D01*
X110555668Y-59340185D01*
X110555663Y-59340187D01*
X110406342Y-59432289D01*
X110282289Y-59556342D01*
X110238031Y-59628097D01*
X110186083Y-59674821D01*
X110132492Y-59687000D01*
X109324730Y-59687000D01*
X109257691Y-59667315D01*
X109237049Y-59650681D01*
X109003421Y-59417052D01*
X109003414Y-59417046D01*
X108929729Y-59367812D01*
X108929729Y-59367813D01*
X108880491Y-59334913D01*
X108743917Y-59278343D01*
X108743907Y-59278340D01*
X108598920Y-59249500D01*
X108598918Y-59249500D01*
X97598918Y-59249500D01*
X91151082Y-59249500D01*
X91151080Y-59249500D01*
X91006092Y-59278340D01*
X91006086Y-59278342D01*
X90869508Y-59334914D01*
X90869496Y-59334921D01*
X90820269Y-59367813D01*
X90746588Y-59417044D01*
X90746580Y-59417050D01*
X86643061Y-63520569D01*
X86581738Y-63554054D01*
X86535982Y-63555361D01*
X86341129Y-63524500D01*
X86341124Y-63524500D01*
X86108876Y-63524500D01*
X86108871Y-63524500D01*
X85879485Y-63560831D01*
X85658599Y-63632601D01*
X85451668Y-63738039D01*
X85263773Y-63874553D01*
X85099553Y-64038773D01*
X84963039Y-64226668D01*
X84857601Y-64433599D01*
X84785831Y-64654485D01*
X84749500Y-64883870D01*
X84749500Y-65116130D01*
X84780361Y-65310984D01*
X84771406Y-65380277D01*
X84745569Y-65418062D01*
X82950451Y-67213181D01*
X82889128Y-67246666D01*
X82862770Y-67249500D01*
X79426080Y-67249500D01*
X79281092Y-67278340D01*
X79281082Y-67278343D01*
X79144511Y-67334912D01*
X79144498Y-67334919D01*
X79021584Y-67417048D01*
X79021580Y-67417051D01*
X72712181Y-73726451D01*
X72650858Y-73759936D01*
X72581166Y-73754952D01*
X72525233Y-73713080D01*
X72500816Y-73647616D01*
X72500500Y-73638770D01*
X72500500Y-63977155D01*
X79750000Y-63977155D01*
X79750000Y-64750000D01*
X80624999Y-64750000D01*
X80599979Y-64810402D01*
X80575000Y-64935981D01*
X80575000Y-65064019D01*
X80599979Y-65189598D01*
X80624999Y-65250000D01*
X79750000Y-65250000D01*
X79750000Y-66022844D01*
X79756401Y-66082372D01*
X79756403Y-66082379D01*
X79806645Y-66217086D01*
X79806649Y-66217093D01*
X79892809Y-66332187D01*
X79892812Y-66332190D01*
X80007906Y-66418350D01*
X80007913Y-66418354D01*
X80142620Y-66468596D01*
X80142627Y-66468598D01*
X80202155Y-66474999D01*
X80202172Y-66475000D01*
X80975000Y-66475000D01*
X80975000Y-65600001D01*
X81035402Y-65625021D01*
X81160981Y-65650000D01*
X81289019Y-65650000D01*
X81414598Y-65625021D01*
X81475000Y-65600001D01*
X81475000Y-66475000D01*
X82247828Y-66475000D01*
X82247844Y-66474999D01*
X82307372Y-66468598D01*
X82307379Y-66468596D01*
X82442086Y-66418354D01*
X82442093Y-66418350D01*
X82557187Y-66332190D01*
X82557190Y-66332187D01*
X82643350Y-66217093D01*
X82643354Y-66217086D01*
X82693596Y-66082379D01*
X82693598Y-66082372D01*
X82699999Y-66022844D01*
X82700000Y-66022827D01*
X82700000Y-65250000D01*
X81825001Y-65250000D01*
X81850021Y-65189598D01*
X81875000Y-65064019D01*
X81875000Y-64935981D01*
X81850021Y-64810402D01*
X81825001Y-64750000D01*
X82700000Y-64750000D01*
X82700000Y-63977172D01*
X82699999Y-63977155D01*
X82693598Y-63917627D01*
X82693596Y-63917620D01*
X82643354Y-63782913D01*
X82643350Y-63782906D01*
X82557190Y-63667812D01*
X82557187Y-63667809D01*
X82442093Y-63581649D01*
X82442086Y-63581645D01*
X82307379Y-63531403D01*
X82307372Y-63531401D01*
X82247844Y-63525000D01*
X81475000Y-63525000D01*
X81475000Y-64399998D01*
X81414598Y-64374979D01*
X81289019Y-64350000D01*
X81160981Y-64350000D01*
X81035402Y-64374979D01*
X80975000Y-64399998D01*
X80975000Y-63525000D01*
X80202155Y-63525000D01*
X80142627Y-63531401D01*
X80142620Y-63531403D01*
X80007913Y-63581645D01*
X80007906Y-63581649D01*
X79892812Y-63667809D01*
X79892809Y-63667812D01*
X79806649Y-63782906D01*
X79806645Y-63782913D01*
X79756403Y-63917620D01*
X79756401Y-63917627D01*
X79750000Y-63977155D01*
X72500500Y-63977155D01*
X72500500Y-62393713D01*
X73649500Y-62393713D01*
X73649500Y-62606287D01*
X73682754Y-62816243D01*
X73743157Y-63002144D01*
X73748444Y-63018414D01*
X73844951Y-63207820D01*
X73969890Y-63379786D01*
X74120213Y-63530109D01*
X74292179Y-63655048D01*
X74292181Y-63655049D01*
X74292184Y-63655051D01*
X74481588Y-63751557D01*
X74683757Y-63817246D01*
X74893713Y-63850500D01*
X74893714Y-63850500D01*
X75106286Y-63850500D01*
X75106287Y-63850500D01*
X75316243Y-63817246D01*
X75518412Y-63751557D01*
X75707816Y-63655051D01*
X75808846Y-63581649D01*
X75879786Y-63530109D01*
X75879788Y-63530106D01*
X75879792Y-63530104D01*
X76030104Y-63379792D01*
X76030106Y-63379788D01*
X76030109Y-63379786D01*
X76155048Y-63207820D01*
X76155047Y-63207820D01*
X76155051Y-63207816D01*
X76251557Y-63018412D01*
X76317246Y-62816243D01*
X76350500Y-62606287D01*
X76350500Y-62393713D01*
X76317246Y-62183757D01*
X76251557Y-61981588D01*
X76155051Y-61792184D01*
X76155049Y-61792181D01*
X76155048Y-61792179D01*
X76030109Y-61620213D01*
X75879786Y-61469890D01*
X75707820Y-61344951D01*
X75518414Y-61248444D01*
X75518413Y-61248443D01*
X75518412Y-61248443D01*
X75316243Y-61182754D01*
X75316241Y-61182753D01*
X75316240Y-61182753D01*
X75154957Y-61157208D01*
X75106287Y-61149500D01*
X74893713Y-61149500D01*
X74845042Y-61157208D01*
X74683760Y-61182753D01*
X74481585Y-61248444D01*
X74292179Y-61344951D01*
X74120213Y-61469890D01*
X73969890Y-61620213D01*
X73844951Y-61792179D01*
X73748444Y-61981585D01*
X73682753Y-62183760D01*
X73681291Y-62192993D01*
X73649500Y-62393713D01*
X72500500Y-62393713D01*
X72500500Y-59124500D01*
X72520185Y-59057461D01*
X72572989Y-59011706D01*
X72624500Y-59000500D01*
X128375500Y-59000500D01*
X128442539Y-59020185D01*
G37*
%TD.AperFunction*%
%TD*%
%TA.AperFunction,Conductor*%
%TO.N,+3.3V*%
G36*
X92765754Y-91105504D02*
G01*
X92894495Y-91234245D01*
X92897922Y-91242518D01*
X92896362Y-91248356D01*
X92722503Y-91550328D01*
X92715405Y-91555788D01*
X92706525Y-91554630D01*
X92705919Y-91554255D01*
X92551284Y-91452023D01*
X92547976Y-91448715D01*
X92445748Y-91294086D01*
X92444045Y-91285297D01*
X92449057Y-91277876D01*
X92449657Y-91277504D01*
X92751645Y-91103636D01*
X92760523Y-91102479D01*
X92765754Y-91105504D01*
G37*
%TD.AperFunction*%
%TD*%
%TA.AperFunction,Conductor*%
%TO.N,+3.3V*%
G36*
X92393474Y-91345369D02*
G01*
X92394071Y-91345738D01*
X92548715Y-91447976D01*
X92552023Y-91451284D01*
X92654250Y-91605911D01*
X92655954Y-91614702D01*
X92650942Y-91622123D01*
X92650328Y-91622503D01*
X92348356Y-91796362D01*
X92339476Y-91797520D01*
X92334245Y-91794495D01*
X92205504Y-91665754D01*
X92202077Y-91657481D01*
X92203636Y-91651646D01*
X92377497Y-91349670D01*
X92384594Y-91344211D01*
X92393474Y-91345369D01*
G37*
%TD.AperFunction*%
%TD*%
%TA.AperFunction,Conductor*%
%TO.N,+3.3V*%
G36*
X85215754Y-89055504D02*
G01*
X85344495Y-89184245D01*
X85347922Y-89192518D01*
X85346362Y-89198356D01*
X85172503Y-89500328D01*
X85165405Y-89505788D01*
X85156525Y-89504630D01*
X85155919Y-89504255D01*
X85001284Y-89402023D01*
X84997976Y-89398715D01*
X84895748Y-89244086D01*
X84894045Y-89235297D01*
X84899057Y-89227876D01*
X84899657Y-89227504D01*
X85201645Y-89053636D01*
X85210523Y-89052479D01*
X85215754Y-89055504D01*
G37*
%TD.AperFunction*%
%TD*%
%TA.AperFunction,Conductor*%
%TO.N,+3.3V*%
G36*
X92904534Y-91167120D02*
G01*
X92907961Y-91175393D01*
X92906724Y-91180630D01*
X92722204Y-91549304D01*
X92715436Y-91555168D01*
X92706504Y-91554530D01*
X92705286Y-91553824D01*
X92551974Y-91452307D01*
X92548688Y-91449025D01*
X92446614Y-91295342D01*
X92444892Y-91286557D01*
X92449888Y-91279125D01*
X92451695Y-91278142D01*
X92712970Y-91164662D01*
X92717631Y-91163693D01*
X92896261Y-91163693D01*
X92904534Y-91167120D01*
G37*
%TD.AperFunction*%
%TD*%
%TA.AperFunction,Conductor*%
%TO.N,+3.3V*%
G36*
X85099306Y-89007270D02*
G01*
X85102331Y-89012501D01*
X85192921Y-89348963D01*
X85191763Y-89357843D01*
X85184665Y-89363303D01*
X85183962Y-89363469D01*
X85002339Y-89400522D01*
X84997661Y-89400522D01*
X84816037Y-89363469D01*
X84808616Y-89358457D01*
X84806912Y-89349666D01*
X84807070Y-89348993D01*
X84897669Y-89012501D01*
X84903129Y-89005403D01*
X84908967Y-89003843D01*
X85091033Y-89003843D01*
X85099306Y-89007270D01*
G37*
%TD.AperFunction*%
%TD*%
%TA.AperFunction,Conductor*%
%TO.N,V_CELL_2*%
G36*
X94451013Y-94407072D02*
G01*
X94787500Y-94497669D01*
X94794597Y-94503128D01*
X94796157Y-94508966D01*
X94796157Y-94691033D01*
X94792730Y-94699306D01*
X94787499Y-94702331D01*
X94451036Y-94792921D01*
X94442156Y-94791763D01*
X94436696Y-94784665D01*
X94436530Y-94783962D01*
X94399477Y-94602338D01*
X94399477Y-94597661D01*
X94436530Y-94416037D01*
X94441542Y-94408616D01*
X94450333Y-94406912D01*
X94451013Y-94407072D01*
G37*
%TD.AperFunction*%
%TD*%
%TA.AperFunction,Conductor*%
%TO.N,+3.3V*%
G36*
X89651582Y-100808102D02*
G01*
X89677373Y-100816845D01*
X89988213Y-100922218D01*
X89994948Y-100928120D01*
X89996157Y-100933299D01*
X89996157Y-101115314D01*
X89992730Y-101123587D01*
X89986746Y-101126788D01*
X89650442Y-101193877D01*
X89641658Y-101192135D01*
X89636689Y-101184742D01*
X89599477Y-101002339D01*
X89599477Y-100997661D01*
X89636365Y-100816844D01*
X89641377Y-100809424D01*
X89650168Y-100807720D01*
X89651582Y-100808102D01*
G37*
%TD.AperFunction*%
%TD*%
%TA.AperFunction,Conductor*%
%TO.N,+3.3V*%
G36*
X89557843Y-100808236D02*
G01*
X89563303Y-100815334D01*
X89563469Y-100816037D01*
X89600522Y-100997661D01*
X89600522Y-101002339D01*
X89563469Y-101183962D01*
X89558457Y-101191383D01*
X89549666Y-101193087D01*
X89548963Y-101192921D01*
X89212501Y-101102331D01*
X89205403Y-101096871D01*
X89203843Y-101091033D01*
X89203843Y-100908966D01*
X89207270Y-100900693D01*
X89212498Y-100897669D01*
X89548965Y-100807078D01*
X89557843Y-100808236D01*
G37*
%TD.AperFunction*%
%TD*%
%TA.AperFunction,Conductor*%
%TO.N,USART_RX*%
G36*
X87343474Y-94295369D02*
G01*
X87344071Y-94295738D01*
X87498715Y-94397976D01*
X87502023Y-94401284D01*
X87604250Y-94555911D01*
X87605954Y-94564702D01*
X87600942Y-94572123D01*
X87600328Y-94572503D01*
X87298356Y-94746362D01*
X87289476Y-94747520D01*
X87284245Y-94744495D01*
X87155504Y-94615754D01*
X87152077Y-94607481D01*
X87153636Y-94601646D01*
X87327497Y-94299670D01*
X87334594Y-94294211D01*
X87343474Y-94295369D01*
G37*
%TD.AperFunction*%
%TD*%
%TA.AperFunction,Conductor*%
%TO.N,+3.3V*%
G36*
X118043474Y-95895369D02*
G01*
X118044071Y-95895738D01*
X118198715Y-95997976D01*
X118202023Y-96001284D01*
X118304250Y-96155911D01*
X118305954Y-96164702D01*
X118300942Y-96172123D01*
X118300328Y-96172503D01*
X117998356Y-96346362D01*
X117989476Y-96347520D01*
X117984245Y-96344495D01*
X117855504Y-96215754D01*
X117852077Y-96207481D01*
X117853636Y-96201646D01*
X118027497Y-95899670D01*
X118034594Y-95894211D01*
X118043474Y-95895369D01*
G37*
%TD.AperFunction*%
%TD*%
%TA.AperFunction,Conductor*%
%TO.N,+3.3V*%
G36*
X82183962Y-98036530D02*
G01*
X82191383Y-98041542D01*
X82193087Y-98050333D01*
X82192921Y-98051036D01*
X82102331Y-98387499D01*
X82096871Y-98394597D01*
X82091033Y-98396157D01*
X81908967Y-98396157D01*
X81900694Y-98392730D01*
X81897669Y-98387499D01*
X81886939Y-98347648D01*
X81807078Y-98051034D01*
X81808236Y-98042156D01*
X81815334Y-98036696D01*
X81816027Y-98036532D01*
X81997662Y-97999477D01*
X82002338Y-97999477D01*
X82183962Y-98036530D01*
G37*
%TD.AperFunction*%
%TD*%
%TA.AperFunction,Conductor*%
%TO.N,RES*%
G36*
X82798354Y-89653636D02*
G01*
X83025206Y-89784245D01*
X83100328Y-89827496D01*
X83105788Y-89834594D01*
X83104630Y-89843474D01*
X83104250Y-89844088D01*
X83002023Y-89998715D01*
X82998715Y-90002023D01*
X82844088Y-90104250D01*
X82835297Y-90105954D01*
X82827876Y-90100942D01*
X82827496Y-90100328D01*
X82653636Y-89798354D01*
X82652479Y-89789476D01*
X82655502Y-89784247D01*
X82784246Y-89655503D01*
X82792518Y-89652077D01*
X82798354Y-89653636D01*
G37*
%TD.AperFunction*%
%TD*%
%TA.AperFunction,Conductor*%
%TO.N,V_CELL_3*%
G36*
X94215754Y-93655504D02*
G01*
X94344495Y-93784245D01*
X94347922Y-93792518D01*
X94346362Y-93798356D01*
X94172503Y-94100328D01*
X94165405Y-94105788D01*
X94156525Y-94104630D01*
X94155919Y-94104255D01*
X94001284Y-94002023D01*
X93997976Y-93998715D01*
X93895748Y-93844086D01*
X93894045Y-93835297D01*
X93899057Y-93827876D01*
X93899657Y-93827504D01*
X94201645Y-93653636D01*
X94210523Y-93652479D01*
X94215754Y-93655504D01*
G37*
%TD.AperFunction*%
%TD*%
%TA.AperFunction,Conductor*%
%TO.N,V_CELL_1*%
G36*
X94651013Y-95207072D02*
G01*
X94987500Y-95297669D01*
X94994597Y-95303128D01*
X94996157Y-95308966D01*
X94996157Y-95491033D01*
X94992730Y-95499306D01*
X94987499Y-95502331D01*
X94651036Y-95592921D01*
X94642156Y-95591763D01*
X94636696Y-95584665D01*
X94636530Y-95583962D01*
X94599477Y-95402338D01*
X94599477Y-95397661D01*
X94636530Y-95216037D01*
X94641542Y-95208616D01*
X94650333Y-95206912D01*
X94651013Y-95207072D01*
G37*
%TD.AperFunction*%
%TD*%
%TA.AperFunction,Conductor*%
%TO.N,USART_TX*%
G36*
X88957843Y-93708236D02*
G01*
X88963303Y-93715334D01*
X88963469Y-93716037D01*
X89000522Y-93897661D01*
X89000522Y-93902339D01*
X88963469Y-94083962D01*
X88958457Y-94091383D01*
X88949666Y-94093087D01*
X88948963Y-94092921D01*
X88612501Y-94002331D01*
X88605403Y-93996871D01*
X88603843Y-93991033D01*
X88603843Y-93808966D01*
X88607270Y-93800693D01*
X88612498Y-93797669D01*
X88948965Y-93707078D01*
X88957843Y-93708236D01*
G37*
%TD.AperFunction*%
%TD*%
M02*
